<svg width="52" height="52" viewBox="0 0 52 52" fill="none" xmlns="http://www.w3.org/2000/svg">
<path d="M22.2079 18.9031C26.2742 9.21039 40.2473 6.64814 47.4941 14.3417C54.8094 21.1485 52.9053 34.516 44.042 39.0227C44.8753 33.5699 43.0351 27.9371 39.3477 24.0869C35.1261 19.4958 28.2926 17.4351 22.2079 18.9009V18.9031ZM41.9003 36.3875C41.9049 30.4127 38.5121 25.0694 33.2836 22.4342C35.585 34.3632 24.0573 45.638 12.0911 42.9914C14.6232 48.3598 19.943 51.9228 26.0984 51.9957C34.69 52.2032 42.0168 44.8584 41.898 36.3875H41.9003ZM22.8814 33.1664C13.0364 31.4636 6.25305 21.0345 8.79879 11.2962C-0.731199 15.4268 -3.06463 29.4279 4.49955 36.4194C11.3103 43.6342 24.329 41.9155 29.0529 33.2667C27.0482 33.5882 24.8655 33.5471 22.8837 33.1664H22.8814ZM10.6276 15.5408C10.6276 21.381 13.8583 26.6149 18.8996 29.3162C15.8264 17.1752 27.4775 5.06837 39.8181 7.75598C31.9366 -5.97845 10.5934 -0.286321 10.6276 15.543V15.5408Z" fill="url(#paint0_linear_1_836)"/>
<defs>
<linearGradient id="paint0_linear_1_836" x1="6.24" y1="6.76" x2="44.72" y2="48.36" gradientUnits="userSpaceOnUse">
<stop stop-color="#525AFF"/>
<stop offset="1" stop-color="#0009B3"/>
</linearGradient>
</defs>
</svg>
