<svg width="226" height="62" viewBox="0 0 226 62" fill="none" xmlns="http://www.w3.org/2000/svg">
<path d="M26.4786 22.5384C31.327 10.9816 47.9872 7.92663 56.6276 17.0997C65.3497 25.2155 63.0794 41.1536 52.5116 46.527C53.5052 40.0257 51.311 33.3096 46.9146 28.719C41.8812 23.245 33.7334 20.788 26.4786 22.5356V22.5384ZM49.9581 43.3851C49.9635 36.2613 45.9182 29.8904 39.6843 26.7485C42.4283 40.9715 28.6837 54.4145 14.4163 51.259C17.4353 57.6597 23.7782 61.9079 31.1174 61.9949C41.3612 62.2422 50.0969 53.485 49.9553 43.3851H49.9581ZM27.2817 39.5446C15.5433 37.5142 7.45555 25.0796 10.4909 13.4685C-0.871814 18.3934 -3.65398 35.0871 5.36484 43.4231C13.4853 52.0254 29.0076 49.9761 34.6399 39.6642C32.2498 40.0474 29.6473 39.9985 27.2844 39.5446H27.2817ZM12.6714 18.5294C12.6714 25.4928 16.5234 31.7332 22.5341 34.954C18.87 20.4781 32.7616 6.04305 47.4754 9.24752C38.0782 -7.12816 12.6306 -0.341383 12.6714 18.5321V18.5294Z" fill="url(#paint0_linear_1_582)"/>
<g clip-path="url(#clip0_1_582)">
<path d="M81.0769 45.9449V15.5411C81.1596 15.5314 81.2289 15.5168 81.2982 15.5168C85.4109 15.5204 89.5236 15.4572 93.6339 15.5509C97.5739 15.6409 101.057 17.0195 103.936 19.7644C106.269 21.9898 107.681 24.725 108.24 27.8959C108.716 30.5909 108.572 33.2605 107.652 35.8424C105.881 40.8103 102.378 43.9422 97.3332 45.3743C95.8829 45.7867 94.3925 45.9413 92.8874 45.9425C89.0592 45.9461 85.2298 45.9425 81.4015 45.9425C81.3018 45.9425 81.2034 45.9425 81.0769 45.9425V45.9449ZM87.1566 40.2056C87.8958 40.2056 88.6033 40.2117 89.3096 40.2044C90.8487 40.1873 92.3951 40.2616 93.9232 40.1228C96.8506 39.8588 99.1568 38.451 100.754 35.9677C101.971 34.0757 102.384 31.9744 102.175 29.7453C101.927 27.0928 100.8 24.893 98.7106 23.2272C96.9977 21.8621 95.0064 21.2707 92.8339 21.2598C91.042 21.2501 89.2489 21.2574 87.4569 21.2586C87.3597 21.2586 87.2636 21.2695 87.1566 21.2768V40.2056Z" fill="white"/>
<path d="M207.799 36.771C208.221 38.2359 208.985 39.4016 210.203 40.2314C212.008 41.4603 214.005 41.6501 216.084 41.2072C217.744 40.8544 219.167 40.0586 220.291 38.7652C220.323 38.7287 220.362 38.6971 220.42 38.6423C221.691 39.7569 222.952 40.8629 224.275 42.0236C223.727 42.5432 223.233 43.0822 222.669 43.5324C219.455 46.1009 215.771 46.9064 211.76 46.2968C208.711 45.8332 206.138 44.4474 204.175 42.0407C202.086 39.4819 201.297 36.5155 201.656 33.2558C202.067 29.5253 203.877 26.6307 207.073 24.6572C209.352 23.2506 211.867 22.7493 214.526 22.9464C217.054 23.1338 219.324 23.9928 221.266 25.6366C223.551 27.5688 224.82 30.0643 225.231 33.0113C225.39 34.1514 225.369 35.2939 225.259 36.4388C225.232 36.7223 225.124 36.7771 224.865 36.7759C219.325 36.7686 213.784 36.771 208.244 36.771H207.799ZM219.168 32.5586C218.717 30.2614 216.548 27.7027 213.01 27.9557C211.465 28.0665 210.162 28.7077 209.137 29.8745C208.463 30.6423 208.002 31.5281 207.77 32.5586H219.168Z" fill="white"/>
<path d="M119.213 21.249V28.0663H131.126V33.7996H119.204V45.9231H113.129V15.5376H132.898V21.249H119.211H119.213Z" fill="white"/>
<path d="M146.344 46.5C143.434 46.4574 140.719 45.6069 138.41 43.6491C136.332 41.8861 135.05 39.6449 134.566 36.9632C134.091 34.3338 134.373 31.7848 135.572 29.3817C137.037 26.4482 139.368 24.4904 142.488 23.5134C145.657 22.5205 148.816 22.6313 151.816 24.0755C156.274 26.2218 158.499 29.8866 158.501 34.8059C158.503 38.8589 156.792 42.1136 153.432 44.4279C151.332 45.8733 148.96 46.4756 146.344 46.5012V46.5ZM152.613 34.739C152.667 31.2032 150.028 28.5105 146.469 28.4667C142.984 28.4241 140.318 31.0851 140.268 34.655C140.219 38.1738 142.851 40.8726 146.385 40.9261C149.899 40.9796 152.559 38.3357 152.613 34.7378V34.739Z" fill="white"/>
<path d="M199.682 28.5093C198.012 29.5155 196.376 30.5035 194.718 31.5037C193.455 29.4948 191.642 28.4789 189.293 28.4728C187.576 28.4679 186.063 29.0483 184.872 30.304C182.415 32.892 182.6 37.0873 185.231 39.4404C187.842 41.7753 192.738 41.4334 194.725 37.8976C196.37 38.8905 198.014 39.8821 199.734 40.9188C199.234 41.5503 198.798 42.1842 198.279 42.7439C196.417 44.7491 194.098 45.9123 191.409 46.3235C188.297 46.7993 185.341 46.3235 182.653 44.6347C179.502 42.6538 177.746 39.7568 177.315 36.0725C177.019 33.5259 177.457 31.0936 178.731 28.8548C180.471 25.7972 183.116 23.9283 186.531 23.2043C189.839 22.5023 193.001 22.9537 195.925 24.7179C197.479 25.6548 198.72 26.9154 199.682 28.5105V28.5093Z" fill="white"/>
<path d="M168.347 45.9245C168.221 45.933 168.122 45.9439 168.024 45.9439C166.323 45.9439 164.621 45.9391 162.92 45.95C162.658 45.9512 162.604 45.8624 162.604 45.6191C162.61 38.332 162.609 31.045 162.609 23.7567C162.609 23.6679 162.62 23.5779 162.626 23.4708H168.343V26.2547C170.301 23.9514 172.751 22.9026 175.768 23.1265V29.0276C175.582 29.0276 175.394 29.0289 175.207 29.0276C174.201 29.0167 173.207 29.0958 172.24 29.4085C170.11 30.0972 168.623 31.9381 168.42 34.172C168.374 34.6757 168.349 35.1831 168.348 35.6881C168.342 38.972 168.345 42.256 168.345 45.54V45.9232L168.347 45.9245Z" fill="white"/>
</g>
<defs>
<linearGradient id="paint0_linear_1_582" x1="3.30667" y1="-11.16" x2="72.4355" y2="-1.87991" gradientUnits="userSpaceOnUse">
<stop stop-color="#7F4CDE"/>
<stop offset="1" stop-color="#490281"/>
</linearGradient>
<clipPath id="clip0_1_582">
<rect width="144.269" height="31" fill="white" transform="translate(81.0769 15.5)"/>
</clipPath>
</defs>
</svg>
