<svg width="189" height="52" viewBox="0 0 189 52" fill="none" xmlns="http://www.w3.org/2000/svg">
<path d="M22.2079 18.9031C26.2742 9.21039 40.2473 6.64814 47.4941 14.3417C54.8094 21.1485 52.9053 34.516 44.042 39.0227C44.8753 33.5699 43.0351 27.9371 39.3477 24.0869C35.1261 19.4958 28.2926 17.4351 22.2079 18.9009V18.9031ZM41.9003 36.3875C41.9049 30.4127 38.5121 25.0694 33.2836 22.4342C35.585 34.3632 24.0573 45.638 12.0911 42.9914C14.6232 48.3598 19.943 51.9228 26.0984 51.9957C34.69 52.2032 42.0168 44.8584 41.898 36.3875H41.9003ZM22.8814 33.1664C13.0364 31.4636 6.25305 21.0345 8.79879 11.2962C-0.731199 15.4268 -3.06463 29.4279 4.49955 36.4194C11.3103 43.6342 24.329 41.9155 29.0529 33.2667C27.0482 33.5882 24.8655 33.5471 22.8837 33.1664H22.8814ZM10.6276 15.5408C10.6276 21.381 13.8583 26.6149 18.8996 29.3162C15.8264 17.1752 27.4775 5.06837 39.8181 7.75598C31.9366 -5.97845 10.5934 -0.286321 10.6276 15.543V15.5408Z" fill="url(#paint0_linear_13_1332)"/>
<g clip-path="url(#clip0_13_1332)">
<path d="M68 38.5343V13.0344C68.0693 13.0262 68.1275 13.014 68.1856 13.014C71.6349 13.017 75.0843 12.964 78.5316 13.0425C81.8362 13.1181 84.7574 14.2743 87.1719 16.5765C89.1285 18.443 90.3133 20.737 90.7823 23.3964C91.181 25.6568 91.0607 27.8957 90.2888 30.0612C88.8032 34.2279 85.8657 36.8546 81.6343 38.0557C80.4179 38.4017 79.1679 38.5313 77.9056 38.5323C74.6948 38.5354 71.483 38.5323 68.2722 38.5323C68.1886 38.5323 68.106 38.5323 68 38.5323V38.5343ZM73.0991 33.7207C73.719 33.7207 74.3124 33.7258 74.9048 33.7197C76.1957 33.7054 77.4926 33.7676 78.7743 33.6513C81.2295 33.4299 83.1637 32.2491 84.5035 30.1663C85.5242 28.5795 85.8708 26.8171 85.6955 24.9476C85.4875 22.7229 84.5423 20.8778 82.7895 19.4808C81.3529 18.3358 79.6828 17.8399 77.8607 17.8307C76.3578 17.8225 74.8539 17.8286 73.351 17.8296C73.2694 17.8296 73.1888 17.8388 73.0991 17.845V33.7207Z" fill="#101828"/>
<path d="M174.283 30.8402C174.637 32.0689 175.278 33.0465 176.3 33.7425C177.813 34.7732 179.488 34.9324 181.232 34.5609C182.624 34.265 183.817 33.5976 184.761 32.5128C184.787 32.4822 184.82 32.4557 184.869 32.4098C185.934 33.3445 186.992 34.2721 188.102 35.2457C187.642 35.6814 187.228 36.1335 186.755 36.5111C184.059 38.6653 180.97 39.3409 177.605 38.8296C175.048 38.4408 172.89 37.2785 171.243 35.26C169.492 33.1139 168.83 30.6259 169.131 27.8921C169.475 24.7632 170.994 22.3355 173.674 20.6803C175.586 19.5006 177.695 19.0801 179.925 19.2455C182.045 19.4026 183.949 20.1231 185.578 21.5018C187.494 23.1223 188.559 25.2153 188.903 27.6869C189.037 28.6431 189.019 29.6014 188.927 30.5617C188.904 30.7994 188.814 30.8453 188.596 30.8443C183.95 30.8382 179.303 30.8402 174.656 30.8402H174.283ZM183.818 27.3073C183.44 25.3806 181.621 23.2345 178.654 23.4468C177.358 23.5397 176.265 24.0775 175.406 25.0561C174.84 25.7 174.453 26.443 174.258 27.3073H183.818Z" fill="#101828"/>
<path d="M99.9855 17.8219V23.5397H109.977V28.3482H99.9774V38.5164H94.8823V13.0317H111.463V17.8219H99.9835H99.9855Z" fill="#101828"/>
<path d="M122.74 39.0001C120.299 38.9643 118.022 38.251 116.086 36.6091C114.343 35.1304 113.268 33.2506 112.862 31.0015C112.464 28.7962 112.7 26.6583 113.705 24.6428C114.934 22.1824 116.89 20.5404 119.506 19.721C122.164 18.8883 124.813 18.9811 127.33 20.1925C131.068 21.9926 132.934 25.0663 132.936 29.1921C132.938 32.5914 131.503 35.3212 128.685 37.2622C126.924 38.4745 124.934 38.9796 122.74 39.0011V39.0001ZM127.998 29.136C128.043 26.1705 125.83 23.9121 122.845 23.8754C119.922 23.8397 117.686 26.0715 117.644 29.0656C117.603 32.0169 119.811 34.2803 122.775 34.3252C125.722 34.3701 127.953 32.1526 127.998 29.135V29.136Z" fill="#101828"/>
<path d="M167.475 23.911C166.075 24.7549 164.703 25.5836 163.312 26.4224C162.252 24.7376 160.732 23.8855 158.762 23.8804C157.322 23.8763 156.053 24.3631 155.054 25.4162C152.993 27.5868 153.148 31.1054 155.355 33.0791C157.545 35.0374 161.651 34.7506 163.318 31.7851C164.697 32.6178 166.076 33.4495 167.519 34.319C167.1 34.8486 166.734 35.3803 166.298 35.8497C164.737 37.5315 162.792 38.507 160.536 38.852C157.926 39.251 155.447 38.852 153.193 37.4355C150.55 35.7742 149.077 33.3444 148.716 30.2544C148.467 28.1185 148.835 26.0785 149.904 24.2008C151.363 21.6363 153.582 20.0689 156.446 19.4617C159.22 18.8728 161.872 19.2514 164.324 20.7312C165.627 21.5169 166.668 22.5742 167.475 23.912V23.911Z" fill="#101828"/>
<path d="M141.194 38.5173C141.088 38.5244 141.006 38.5336 140.923 38.5336C139.497 38.5336 138.069 38.5295 136.643 38.5387C136.423 38.5397 136.378 38.4652 136.378 38.2611C136.383 32.1494 136.382 26.0377 136.382 19.925C136.382 19.8505 136.391 19.775 136.396 19.6852H141.191V22.02C142.833 20.0883 144.888 19.2086 147.418 19.3964V24.3457C147.262 24.3457 147.105 24.3468 146.948 24.3457C146.104 24.3365 145.271 24.4029 144.459 24.6651C142.673 25.2427 141.426 26.7867 141.256 28.6604C141.217 29.0828 141.196 29.5084 141.195 29.9319C141.19 32.6862 141.192 35.4405 141.192 38.1948V38.5162L141.194 38.5173Z" fill="#101828"/>
</g>
<defs>
<linearGradient id="paint0_linear_13_1332" x1="2.77333" y1="-9.36" x2="60.7523" y2="-1.5767" gradientUnits="userSpaceOnUse">
<stop stop-color="#7F4CDE"/>
<stop offset="1" stop-color="#490281"/>
</linearGradient>
<clipPath id="clip0_13_1332">
<rect width="121" height="26" fill="white" transform="translate(68 13)"/>
</clipPath>
</defs>
</svg>
