<svg width="143" height="36" viewBox="0 0 143 36" fill="none" xmlns="http://www.w3.org/2000/svg">
<path d="M104.444 15.2365C104.444 11.7094 110.997 12.8433 112.991 13.6467L113.604 7.77778C106.957 5.7208 96.6296 7.25641 96.6553 16.0057C96.5185 24.641 109.234 23.4644 109.234 27.5727C109.234 31.9088 99.2621 29.6866 97.1054 28.3704L95.9658 34.2422C103.373 37.51 117.422 36.7863 117.048 26.9687C116.92 17.4473 104.442 19.1311 104.442 15.2336M87.5128 18.2849C87.5128 10.6268 77.1795 10.5242 77.2564 18.2849H87.5128ZM77.1937 24.2108C77.7379 30.9915 88.3048 29.8177 92.8632 28.3704L94.0028 34.2393C83.3134 38.3305 69.0456 35.6638 69.0456 21.7607C69.0456 3.22507 95.5413 1.21368 95.5413 20.7977C95.5417 21.9433 95.4464 23.0869 95.2564 24.2165L77.1937 24.2108ZM114.35 13.6467H118.43V25.2991C118.43 31.4245 119.971 35.9915 126.741 35.9915C128.661 35.9875 130.564 35.6232 132.35 34.9174V28.3647C128.308 29.1197 126.339 29.3761 126.339 23.9858V0H118.43V7.77493H114.966L114.35 13.6467ZM127.687 13.6467H132.345L133.969 10.6866L132.367 7.77778H127.684L127.687 13.6467ZM24.265 35.416L31.1624 7.78063L33.0085 36H40.7493L38.3903 0.00854666H26.2934L20.3675 24.1966L14.4444 0.00854666H2.35897L0 36H7.74074L9.58974 7.78063L16.4872 35.416H24.265Z" fill="white"/>
<path d="M59.6697 18.2849C59.6697 10.6268 49.3364 10.5243 49.4133 18.2849H59.6697ZM49.3535 24.2109C49.8948 30.9915 60.4646 29.8177 65.023 28.3704L66.1626 34.2394C55.4731 38.3305 41.2053 35.6639 41.2053 21.7607C41.2053 3.22511 67.701 1.21371 67.701 20.7978C67.7015 21.9433 67.6062 23.0869 67.4161 24.2166L49.3535 24.2109Z" fill="white"/>
<path d="M136.567 0L142.45 10.6866L136.567 21.4245H130.695L136.578 10.6866L130.695 0H136.567Z" fill="white"/>
</svg>
