<svg width="104" height="104" viewBox="0 0 104 104" fill="none" xmlns="http://www.w3.org/2000/svg">
<rect x="5" y="13.562" width="37" height="85" rx="5" transform="rotate(-9.76289 5 13.562)" fill="#7F4CDE"/>
<rect x="12.2378" y="14.346" width="48" height="82" rx="4" transform="rotate(-9.76289 12.2378 14.346)" fill="white"/>
<path fill-rule="evenodd" clip-rule="evenodd" d="M15.9129 11.7477L54.6085 5.0896C56.1928 4.81873 57.8199 5.18743 59.1328 6.11481C60.4456 7.04219 61.3369 8.45249 61.6112 10.0363L62.3213 14.1631L59.3985 15.0526L58.6238 10.5503C58.4867 9.75843 58.041 9.05332 57.3846 8.58964C56.7282 8.12596 55.9147 7.94158 55.1225 8.07695L47.3065 9.42179L46.7485 13.0802C46.7007 13.3946 46.5551 13.686 46.3324 13.913C46.1097 14.14 45.8212 14.2912 45.5078 14.345L27.5837 17.4291C27.2703 17.4831 26.9478 17.4371 26.6621 17.2976C26.3763 17.158 26.1417 16.9321 25.9916 16.6517L24.2429 13.3902L16.4269 14.735C15.6351 14.8722 14.93 15.3179 14.4663 15.9743C14.0026 16.6307 13.8182 17.4442 13.9536 18.2364L26.2899 89.9328C26.4271 90.7247 26.8728 91.4298 27.5292 91.8935C28.1856 92.3571 28.9991 92.5415 29.7913 92.4062L68.4868 85.7481C69.2787 85.6109 69.9838 85.1652 70.4475 84.5088C70.9111 83.8524 71.0955 83.0389 70.9602 82.2467L69.8952 76.0572L72.7071 74.5234L73.9475 81.7327C74.2184 83.3171 73.8497 84.9442 72.9223 86.257C71.9949 87.5699 70.5846 88.4612 69.0008 88.7354L30.3053 95.3935C28.7209 95.6644 27.0938 95.2957 25.781 94.3683C24.4681 93.4409 23.5768 92.0306 23.3026 90.4468L10.9663 18.7504C10.6954 17.166 11.0641 15.5389 11.9915 14.2261C12.9188 12.9132 14.3292 12.0219 15.9129 11.7477Z" fill="black"/>
<path d="M59.446 19.9155L59.4459 19.9156C56.6134 22.5796 48.8159 28.941 37.5609 30.4053C36.4146 30.5546 35.522 31.5539 35.5054 32.7245L59.446 19.9155ZM59.446 19.9155C60.0344 19.362 60.9632 19.3608 61.5547 19.9162L59.446 19.9155ZM85.4947 32.725C85.4783 31.5541 84.5855 30.5549 83.4384 30.4053L85.4947 32.725ZM85.4947 32.725C85.5521 36.9315 85.1979 45.967 81.8361 54.6707C78.4929 63.3264 72.2365 71.5306 60.5 74.4959M85.4947 32.725L60.5 74.4959M60.5 74.4959C48.7635 71.5306 42.5071 63.3264 39.1639 54.6707C35.8021 45.967 35.4479 36.9315 35.5053 32.725L60.5 74.4959ZM61.5548 19.9163C64.3879 22.5806 72.1831 28.9411 83.4382 30.4053L61.5548 19.9163ZM60.4704 74.5034C60.4702 74.5034 60.47 74.5035 60.4698 74.5036L60.4697 74.5036C60.47 74.5035 60.4702 74.5034 60.4704 74.5034ZM60.5287 74.5032C60.5292 74.5033 60.5298 74.5034 60.5303 74.5036L60.5302 74.5036C60.5297 74.5034 60.5292 74.5033 60.5287 74.5032Z" stroke="black" stroke-width="3"/>
<path d="M52.0137 46.947C51.7122 46.6193 51.3688 46.3367 50.9825 46.1011C50.5962 45.8656 50.2026 45.6552 49.8006 45.4699C49.3996 45.2846 49.005 45.1087 48.6197 44.9433C48.2334 44.7768 47.8879 44.5989 47.5823 44.4104C47.2766 44.222 47.0337 44.0053 46.8526 43.7614C46.6715 43.5174 46.5804 43.2306 46.5804 42.8977C46.5804 42.6737 46.6212 42.4611 46.7018 42.2612C46.7835 42.0602 46.907 41.8885 47.0724 41.7451C47.2378 41.6017 47.4451 41.4896 47.6922 41.409C47.9392 41.3274 48.2292 41.2876 48.5611 41.2876C48.9861 41.2876 49.3756 41.3399 49.7315 41.4436C50.0874 41.5472 50.3994 41.6634 50.6695 41.7911C50.9396 41.9189 51.1678 42.0361 51.3531 42.1439C51.5384 42.2528 51.6734 42.3062 51.7582 42.3062C51.843 42.3062 51.9111 42.2832 51.9613 42.2371C52.0116 42.191 52.0493 42.1178 52.0765 42.0173C52.1037 41.9168 52.1226 41.789 52.1351 41.6352C52.1466 41.4802 52.1529 41.2907 52.1529 41.0677C52.1529 40.8667 52.1487 40.6992 52.1414 40.5642C52.1341 40.4292 52.1194 40.3171 52.1006 40.2282C52.0807 40.1392 52.0576 40.068 52.0315 40.0135C52.0043 39.9602 51.9519 39.8942 51.8755 39.8167C51.798 39.7393 51.6399 39.643 51.4002 39.5267C51.1605 39.4116 50.8862 39.3069 50.5774 39.2137C50.2685 39.1216 49.9367 39.0483 49.5807 38.9939C49.2248 38.9395 48.8699 38.9122 48.515 38.9122C47.8272 38.9122 47.1771 39.0012 46.5626 39.1781C45.9491 39.3561 45.4152 39.6241 44.964 39.9842C44.5128 40.3433 44.1537 40.7945 43.8868 41.3399C43.6198 41.8843 43.4869 42.5156 43.4869 43.2337C43.4869 43.8598 43.579 44.3968 43.7654 44.8449C43.9506 45.2929 44.1914 45.6813 44.4887 46.009C44.7861 46.3367 45.1242 46.6193 45.5021 46.8549C45.8811 47.0904 46.2705 47.3008 46.6725 47.4861C47.0735 47.6714 47.464 47.8473 47.8429 48.0127C48.2209 48.1792 48.559 48.3571 48.8563 48.5456C49.1536 48.734 49.3954 48.9507 49.5807 49.1946C49.766 49.4375 49.8592 49.7296 49.8592 50.0688C49.8592 50.363 49.8048 50.6289 49.6969 50.8675C49.5891 51.1073 49.4331 51.3083 49.2279 51.4705C49.0228 51.6318 48.7736 51.7574 48.4805 51.8464C48.1863 51.9354 47.8544 51.9793 47.4839 51.9793C46.9196 51.9793 46.4234 51.9155 45.9952 51.7877C45.566 51.6611 45.1975 51.5197 44.8886 51.3659C44.5798 51.212 44.3265 51.0706 44.1297 50.9429C43.9329 50.8152 43.78 50.7513 43.6711 50.7513C43.5937 50.7513 43.5267 50.7733 43.4691 50.8152C43.4105 50.8581 43.3644 50.9293 43.3299 51.0298C43.2953 51.1303 43.2691 51.2622 43.2545 51.4234C43.2388 51.5857 43.2314 51.7877 43.2314 52.0264C43.2314 52.3813 43.2524 52.6546 43.2953 52.843C43.3372 53.0325 43.4084 53.177 43.5099 53.2775C43.6104 53.378 43.7737 53.4931 44.0019 53.625C44.2302 53.7559 44.5139 53.8815 44.8531 54.0008C45.1922 54.1202 45.5848 54.2228 46.0297 54.3076C46.4736 54.3924 46.9541 54.4353 47.4723 54.4353C48.2366 54.4353 48.9558 54.3348 49.6268 54.1338C50.2989 53.9338 50.8862 53.6334 51.3887 53.2366C51.8901 52.8388 52.288 52.3426 52.5821 51.748C52.8763 51.1533 53.0229 50.4614 53.0229 49.6741C53.0229 49.0711 52.9297 48.5487 52.7444 48.1038C52.5581 47.661 52.3141 47.2747 52.0137 46.947Z" fill="#7F4CDE"/>
<path d="M64.2757 46.947C63.9732 46.6193 63.6298 46.3367 63.2435 46.1011C62.8582 45.8656 62.4646 45.6552 62.0616 45.4699C61.6606 45.2846 61.2659 45.1087 60.8807 44.9433C60.4944 44.7768 60.1489 44.5989 59.8432 44.4104C59.5376 44.222 59.2947 44.0053 59.1136 43.7614C58.9325 43.5174 58.8414 43.2306 58.8414 42.8977C58.8414 42.6737 58.8822 42.4611 58.9628 42.2612C59.0445 42.0602 59.168 41.8885 59.3334 41.7451C59.4988 41.6017 59.7061 41.4896 59.9532 41.409C60.2002 41.3274 60.4902 41.2876 60.8221 41.2876C61.2471 41.2876 61.6365 41.3399 61.9914 41.4436C62.3474 41.5483 62.6604 41.6634 62.9294 41.7911C63.2006 41.9189 63.4288 42.0361 63.6141 42.1439C63.7983 42.2528 63.9344 42.3062 64.0192 42.3062C64.104 42.3062 64.1721 42.2832 64.2213 42.2371C64.2726 42.191 64.3103 42.1178 64.3375 42.0173C64.3637 41.9168 64.3835 41.789 64.3951 41.6352C64.4076 41.4802 64.4139 41.2907 64.4139 41.0677C64.4139 40.8667 64.4097 40.6992 64.4013 40.5642C64.393 40.4292 64.3794 40.3171 64.3605 40.2282C64.3417 40.1392 64.3176 40.068 64.2914 40.0135C64.2652 39.9602 64.2129 39.8942 64.1365 39.8167C64.059 39.7393 63.8999 39.643 63.6602 39.5267C63.4204 39.4116 63.1472 39.3069 62.8384 39.2137C62.5295 39.1216 62.1977 39.0483 61.8428 38.9939C61.4868 38.9395 61.1309 38.9122 60.776 38.9122C60.0882 38.9122 59.4381 39.0012 58.8236 39.1781C58.2101 39.3561 57.6762 39.6241 57.225 39.9842C56.7738 40.3433 56.4147 40.7945 56.1478 41.3399C55.8808 41.8843 55.7479 42.5156 55.7479 43.2337C55.7479 43.8598 55.84 44.3968 56.0263 44.8449C56.2116 45.2929 56.4524 45.6813 56.7497 46.009C57.047 46.3367 57.3852 46.6193 57.7631 46.8549C58.1421 47.0904 58.5315 47.3008 58.9335 47.4861C59.3345 47.6714 59.7249 47.8473 60.1039 48.0127C60.4818 48.1792 60.82 48.3571 61.1173 48.5456C61.4146 48.734 61.6564 48.9507 61.8417 49.1946C62.026 49.4375 62.1202 49.7296 62.1202 50.0688C62.1202 50.363 62.0647 50.6289 61.9569 50.8675C61.8491 51.1073 61.6931 51.3083 61.4889 51.4705C61.2848 51.6318 61.0346 51.7574 60.7415 51.8464C60.4473 51.9354 60.1154 51.9793 59.7448 51.9793C59.1806 51.9793 58.6844 51.9155 58.2562 51.7877C57.827 51.6611 57.4585 51.5197 57.1496 51.3659C56.8408 51.212 56.5875 51.0706 56.3907 50.9429C56.1938 50.8152 56.041 50.7513 55.9321 50.7513C55.8547 50.7513 55.7877 50.7733 55.7301 50.8152C55.6714 50.8581 55.6254 50.9293 55.5908 51.0298C55.5563 51.1303 55.5301 51.2622 55.5155 51.4234C55.4998 51.5857 55.4924 51.7877 55.4924 52.0264C55.4924 52.3813 55.5134 52.6546 55.5563 52.843C55.5982 53.0325 55.6694 53.177 55.7709 53.2775C55.8714 53.378 56.0347 53.4931 56.2629 53.625C56.4912 53.7559 56.7749 53.8815 57.114 54.0008C57.4532 54.1202 57.8458 54.2228 58.2907 54.3076C58.7346 54.3924 59.2151 54.4353 59.7333 54.4353C60.4975 54.4353 61.2167 54.3348 61.8878 54.1338C62.5609 53.9338 63.1472 53.6334 63.6507 53.2366C64.1522 52.8388 64.55 52.3426 64.8431 51.748C65.1373 51.1533 65.2849 50.4614 65.2849 49.6741C65.2849 49.0711 65.1907 48.5487 65.0064 48.1038C64.8201 47.661 64.5772 47.2747 64.2757 46.947Z" fill="#7F4CDE"/>
<path d="M76.7806 51.928C76.7418 51.8317 76.6937 51.7626 76.6361 51.7197C76.5775 51.6778 76.5105 51.6558 76.433 51.6558H71.7179V39.5948C71.7179 39.5173 71.6928 39.4482 71.6425 39.3864C71.5923 39.3247 71.5096 39.2755 71.3944 39.2357C71.2782 39.197 71.1233 39.1666 70.9306 39.1425C70.737 39.1195 70.4909 39.108 70.1894 39.108C69.8963 39.108 69.6503 39.1195 69.4535 39.1425C69.2567 39.1656 69.1007 39.197 68.9845 39.2357C68.8693 39.2744 68.7866 39.3247 68.7364 39.3864C68.6851 39.4482 68.661 39.5173 68.661 39.5948V53.2083C68.661 53.5475 68.7479 53.7935 68.9217 53.9432C69.0955 54.095 69.3101 54.1694 69.5645 54.1694H76.4351C76.5126 54.1694 76.5806 54.1474 76.6382 54.1003C76.6958 54.0542 76.7439 53.9788 76.7827 53.8741C76.8214 53.7695 76.8497 53.6386 76.8696 53.4805C76.8894 53.3224 76.8989 53.1267 76.8989 52.8953C76.8989 52.6629 76.8884 52.4682 76.8696 52.3091C76.8476 52.1531 76.8193 52.0254 76.7806 51.928Z" fill="#7F4CDE"/>
</svg>
