<svg width="104" height="104" viewBox="0 0 104 104" fill="none" xmlns="http://www.w3.org/2000/svg">
<rect x="12.9998" y="41" width="37" height="45" rx="5" fill="#7F4CDE"/>
<path d="M9 83C9 82.4477 9.44772 82 10 82H42C44.7614 82 47 84.2386 47 87V89C47 91.7614 44.7614 94 42 94H14C11.2386 94 9 91.7614 9 89V83Z" fill="#7F4CDE"/>
<path d="M17.9999 46.9999C17.9999 44.7908 19.7908 42.9999 21.9999 42.9999H77C79.2091 42.9999 81 44.7908 81 46.9999V82.6649C81 84.3066 82.174 85.7134 83.7892 86.0071C85.3692 86.2944 86.7534 87.7305 86.129 89.21C85.5239 90.6438 84.1131 91.3834 81.3618 91.9305C81.1219 91.9782 80.8769 91.9999 80.6324 91.9999H17.9999C13.7745 91.864 12.079 91.1042 11.7887 89.1895C11.5436 87.5725 13.0604 86.3232 14.6737 86.0543C16.5931 85.7344 17.9999 84.0737 17.9999 82.1278V46.9999Z" fill="white"/>
<path d="M88.3541 84.0625H83.4166V47.625C83.4166 43.9713 80.4641 41 76.8332 41H24.1666C20.5359 41 17.5832 43.9712 17.5832 47.625V84.0625H12.6457C11.7362 84.0625 11 84.8032 11 85.7187V87.375C11 91.0287 13.9525 94 17.5834 94H83.4168C87.0475 94 90 91.0287 90 87.375V85.7187C90 84.8032 89.2638 84.0625 88.3541 84.0625ZM20.875 47.625C20.875 45.799 22.3521 44.3126 24.1666 44.3126H76.8332C78.6478 44.3126 80.1248 45.799 80.1248 47.625V84.0625H58.7291H42.2709H20.875V47.625ZM83.4166 90.6874H17.5834C15.7689 90.6874 14.2918 89.201 14.2918 87.375H19.2293H41.5894L42.7531 88.546C43.0617 88.8566 43.4795 89.0313 43.9168 89.0313H57.0834C57.5205 89.0313 57.9385 88.8566 58.2471 88.546L59.4106 87.375H81.7709H86.7084C86.7084 89.201 85.2313 90.6874 83.4166 90.6874Z" fill="black"/>
<path d="M89.5 82H33.4818C29.3498 82 26 77.9583 26 72.9728V34.0272C26 29.0417 26 25 26 25H89.5V82Z" fill="white"/>
<path d="M55.4858 70H31.5142C29.5734 70 28 68.3691 28 66.3574V50.6426C28 48.6309 29.5734 47 31.5142 47H55.4858C57.4266 47 59 48.6309 59 50.6426V66.3573C59 68.369 57.4266 70 55.4858 70Z" fill="white"/>
<path d="M30 39.4054H49.3054H86.0502" stroke="black" stroke-width="3" stroke-miterlimit="10" stroke-linecap="round" stroke-linejoin="round"/>
<path d="M40.2754 34.1693C41.8868 34.1693 43.2017 32.8586 43.2017 31.248C43.2017 29.6374 41.8868 28.3267 40.2754 28.3267C38.6675 28.3267 37.3525 29.6374 37.3525 31.248C37.3525 32.8586 38.6675 34.1693 40.2754 34.1693Z" stroke="black" stroke-width="3" stroke-miterlimit="10" stroke-linecap="round" stroke-linejoin="round"/>
<path d="M65.6776 28.3267H76.6854C78.2932 28.3267 79.6082 29.641 79.6082 31.248C79.6082 32.8551 78.2932 34.1693 76.6854 34.1693H65.6776C64.0698 34.1693 62.7548 32.8551 62.7548 31.248C62.7548 29.641 64.0698 28.3267 65.6776 28.3267Z" stroke="black" stroke-width="3" stroke-miterlimit="10" stroke-linecap="round" stroke-linejoin="round"/>
<path d="M51.0668 34.1693C52.6782 34.1693 53.9931 32.8586 53.9931 31.248C53.9931 29.6374 52.6782 28.3267 51.0668 28.3267C49.4589 28.3267 48.1439 29.6374 48.1439 31.248C48.1439 32.8586 49.4589 34.1693 51.0668 34.1693Z" stroke="black" stroke-width="3" stroke-miterlimit="10" stroke-linecap="round" stroke-linejoin="round"/>
<path d="M48.7544 48.8699L46.2919 59.1747" stroke="black" stroke-width="3" stroke-miterlimit="10" stroke-linecap="round" stroke-linejoin="round"/>
<path d="M54.4257 58.244L57.91 54.3325C58.0634 54.1618 58.0634 53.8829 57.91 53.7121L54.4257 49.8007" stroke="black" stroke-width="3" stroke-miterlimit="10" stroke-linecap="round" stroke-linejoin="round"/>
<path d="M40.6207 58.244L37.1364 54.3325C36.9828 54.1618 36.9828 53.8829 37.1364 53.7121L40.6207 49.8007" stroke="black" stroke-width="3" stroke-miterlimit="10" stroke-linecap="round" stroke-linejoin="round"/>
<path d="M78.5444 54.3081C79.8906 54.608 81.1498 55.1378 82.2834 55.8489L83.2914 54.845C83.8878 54.2454 84.8679 54.2454 85.4678 54.845L87.0548 56.4312C87.6546 57.0308 87.6546 58.0103 87.0548 58.6065L86.0502 59.6139C86.7584 60.7364 87.2814 61.9845 87.585 63.3161H88.9974C89.8451 63.3161 90.5391 64.0099 90.5391 64.8535V67.102C90.5391 67.9455 89.8451 68.6393 88.9974 68.6393H87.578C87.2744 69.964 86.7514 71.205 86.0502 72.3206L87.0548 73.3245C87.6546 73.9241 87.6546 74.9037 87.0548 75.4999L85.4678 77.0895C84.8679 77.6891 83.8878 77.6891 83.2914 77.0895L82.2834 76.0854C81.1638 76.7896 79.9186 77.3126 78.5862 77.6159V79.0451C78.5862 79.8923 77.8921 80.586 77.0481 80.586H74.7985C73.9542 80.586 73.2602 79.8923 73.2602 79.0451V77.6124C71.9348 77.3126 70.6897 76.7862 69.5699 76.0854L68.5655 77.0895C67.9655 77.6891 66.9856 77.6891 66.3891 77.0895L64.7987 75.4999C64.2021 74.9037 64.2021 73.9241 64.7987 73.3245L65.8066 72.3206C65.1021 71.205 64.5789 69.964 64.2755 68.6393H62.8489C62.0015 68.6393 61.3107 67.9455 61.3107 67.102V64.8535C61.3107 64.0099 62.0015 63.3161 62.8489 63.3161H64.272C64.5719 61.9984 65.0882 60.7644 65.7822 59.6523L64.7707 58.6379C64.1709 58.0417 64.1709 57.0621 64.7707 56.4625L66.3577 54.8763C66.9577 54.2767 67.9377 54.2767 68.5341 54.8763L69.5351 55.8734C70.6514 55.1657 71.8929 54.6392 73.2184 54.329V52.9103C73.2184 52.0631 73.9089 51.3694 74.7565 51.3694H77.0027C77.8503 51.3694 78.5444 52.0631 78.5444 52.9103V54.3081Z" fill="#7F4CDE"/>
<path d="M75.9249 59.6383C79.4267 59.6383 82.2658 62.476 82.2658 65.9794C82.2658 69.4795 79.4267 72.3171 75.9249 72.3171C72.4196 72.3171 69.5803 69.4795 69.5803 65.9794C69.5803 62.476 72.4196 59.6383 75.9249 59.6383Z" fill="white"/>
<path d="M57 68.6392H34.583C32.065 68.6392 30 66.1747 30 63.1662V28.473C30 25.4612 32.0613 23 34.583 23H39.8916H81.4672C83.9889 23 86.0502 25.4647 86.0502 28.473V50" stroke="black" stroke-width="3" stroke-miterlimit="10" stroke-linecap="round" stroke-linejoin="round"/>
</svg>
