<svg width="104" height="104" viewBox="0 0 104 104" fill="none" xmlns="http://www.w3.org/2000/svg">
<rect x="5" y="13.562" width="37" height="85" rx="5" transform="rotate(-9.76289 5 13.562)" fill="#7F4CDE"/>
<rect x="12.2378" y="14.346" width="48" height="82" rx="4" transform="rotate(-9.76289 12.2378 14.346)" fill="white"/>
<path fill-rule="evenodd" clip-rule="evenodd" d="M15.9129 11.7477L54.6085 5.0896C56.1928 4.81873 57.8199 5.18743 59.1328 6.11481C60.2023 6.87034 60.9921 7.94641 61.3964 9.17568L58.3643 9.7442C58.1425 9.28679 57.8072 8.88817 57.3846 8.58964C56.7282 8.12596 55.9147 7.94158 55.1225 8.07695L47.3065 9.42179L46.7485 13.0802C46.7007 13.3946 46.5551 13.686 46.3324 13.913C46.1097 14.14 45.8212 14.2912 45.5078 14.345L27.5837 17.4291C27.2703 17.4831 26.9478 17.4371 26.6621 17.2976C26.3763 17.158 26.1417 16.9321 25.9916 16.6517L24.2429 13.3902L16.4269 14.735C15.6351 14.8722 14.93 15.3179 14.4663 15.9743C14.0026 16.6307 13.8182 17.4442 13.9536 18.2364L26.2899 89.9328C26.4271 90.7247 26.8728 91.4298 27.5292 91.8935C28.1856 92.3571 28.9991 92.5415 29.7913 92.4062L68.4868 85.7481C69.2787 85.6109 69.9838 85.1652 70.4475 84.5088C70.9111 83.8524 71.0955 83.0389 70.9602 82.2467L70.9204 82.0159L73.8939 81.4212L73.9475 81.7327C74.2184 83.3171 73.8497 84.9442 72.9223 86.257C71.9949 87.5699 70.5846 88.4612 69.0008 88.7354L30.3053 95.3935C28.7209 95.6644 27.0938 95.2957 25.781 94.3683C24.4681 93.4409 23.5768 92.0306 23.3026 90.4468L10.9663 18.7504C10.6954 17.166 11.0641 15.5389 11.9915 14.2261C12.9188 12.9132 14.3292 12.0219 15.9129 11.7477Z" fill="black"/>
<path d="M54.0856 82.0744L42.1362 84.1304C41.7464 84.2054 41.4015 84.4302 41.1757 84.7566C40.9499 85.083 40.8611 85.485 40.9284 85.8762C40.9957 86.2674 41.2138 86.6165 41.5357 86.8487C41.8577 87.0808 42.2579 87.1775 42.6503 87.1178L54.5996 85.0617C54.9894 84.9868 55.3343 84.762 55.5601 84.4356C55.7859 84.1092 55.8747 83.7072 55.8074 83.316C55.7401 82.9248 55.5221 82.5757 55.2001 82.3435C54.8782 82.1113 54.478 82.0147 54.0856 82.0744Z" fill="black"/>
<rect x="36.885" y="28.8849" width="56.5472" height="37.6981" rx="4" fill="white"/>
<path d="M41.4098 63.4693L39.3468 62.6002C44.7326 71.4435 54.4497 76.9937 64.9998 76.9937C71.8895 76.9937 78.6186 74.6088 83.9476 70.2785C84.5944 69.7533 85.5455 69.8491 86.0733 70.4919C86.6011 71.1348 86.5049 72.0818 85.8588 72.6069C79.9918 77.3745 72.584 80 64.9998 80C53.2253 80 42.3906 73.7222 36.5153 63.7508L35.854 66.148C35.6697 66.8154 35.0615 67.2535 34.3981 67.2535C34.2658 67.2535 34.1311 67.236 33.9974 67.1994C33.1928 66.9798 32.7196 66.1527 32.9404 65.3521L34.6376 59.2C34.7528 58.7822 35.0438 58.4342 35.4358 58.2452C35.8276 58.056 36.2827 58.0447 36.6834 58.2138L42.5879 60.7014C43.3561 61.0251 43.7154 61.9071 43.3901 62.6716C43.0647 63.4361 42.1783 63.7932 41.4098 63.4693ZM74.7746 17.3363C75.0709 16.5605 75.9431 16.1704 76.7233 16.4654C82.913 18.8068 88.2042 22.9056 92.0246 28.3185C95.9336 33.857 98 40.3741 98 47.1652C98 52.9348 96.5152 58.4859 93.6805 63.4169L96.0953 62.7888C96.9018 62.5789 97.7279 63.0597 97.939 63.8628C98.1499 64.666 97.6667 65.4872 96.8595 65.6971L90.656 67.3106C90.5301 67.3433 90.4016 67.3595 90.274 67.3595C89.9745 67.3595 89.6788 67.2708 89.426 67.1004C89.0657 66.8573 88.8283 66.471 88.7749 66.0409L87.9878 59.7094C87.8855 58.8855 88.4735 58.1351 89.3015 58.0333C90.1318 57.9324 90.8839 58.5167 90.9863 59.3406L91.2623 61.5623C93.7022 57.1756 94.9787 52.2646 94.9787 47.1652C94.9787 34.8567 87.211 23.6486 75.6498 19.2754C74.87 18.9805 74.478 18.1122 74.7746 17.3363ZM64.8117 14.3326L63.0511 12.5593C62.4649 11.9688 62.4706 11.0171 63.0641 10.4338C63.6576 9.85056 64.6138 9.85601 65.2003 10.4467L69.7064 14.9853C70.0123 15.2936 70.1698 15.7182 70.1383 16.1503C70.1069 16.5825 69.8896 16.9802 69.5419 17.2412L64.4246 21.085C64.1521 21.2896 63.8325 21.3886 63.5156 21.3886C63.0579 21.3886 62.6058 21.1825 62.3088 20.7909C61.8061 20.1284 61.9383 19.186 62.6041 18.6857L64.3905 17.344C48.1407 17.6681 35.0213 30.9202 35.0213 47.1652C35.0213 48.7568 35.1503 50.3619 35.4044 51.9362C35.5368 52.7558 34.9763 53.527 34.1527 53.6587C34.0715 53.6717 33.9908 53.6781 33.9112 53.6781C33.1825 53.6781 32.5408 53.1522 32.4215 52.4134C32.1418 50.6819 32 48.9163 32 47.1654C32 29.1225 46.702 14.4338 64.8117 14.3326Z" fill="black"/>
<path fill-rule="evenodd" clip-rule="evenodd" d="M61.2495 23H68.7505C69.5927 23 70.2755 23.6686 70.2755 24.4932V26.9915C72.0587 27.4517 73.76 28.1422 75.3565 29.0538L77.1618 27.2862C77.4479 27.0062 77.8357 26.8488 78.2402 26.8488C78.6447 26.8488 79.0324 27.0062 79.3186 27.2862L84.6226 32.4797C85.2181 33.0628 85.2181 34.0082 84.6226 34.5913L82.8174 36.359C83.7482 37.9217 84.4531 39.5872 84.9234 41.3343H87.475C88.3172 41.3343 89 42.0029 89 42.8275V50.1725C89 50.9971 88.3172 51.6657 87.475 51.6657H84.9234C84.4533 53.4119 83.7482 55.0776 82.8172 56.6407L84.6226 58.4085C84.9087 58.6885 85.0694 59.0683 85.0694 59.4644C85.0694 59.8605 84.9087 60.2403 84.6226 60.5203L79.3184 65.7138C78.7229 66.2971 77.7573 66.2971 77.1618 65.7138L75.3565 63.946C73.7608 64.8573 72.0596 65.5479 70.2755 66.0082V68.5068C70.2755 69.3314 69.5927 70 68.7505 70H61.2495C60.4073 70 59.7245 69.3314 59.7245 68.5068V66.0082C57.9411 65.5479 56.24 64.8574 54.6436 63.9458L52.838 65.7138C52.5519 65.9938 52.1641 66.1512 51.7596 66.1512C51.3551 66.1512 50.9674 65.9938 50.6812 65.7138L45.3774 60.5201C44.7819 59.937 44.7819 58.9916 45.3774 58.4085L47.1828 56.6407C46.252 55.078 45.5471 53.4123 45.077 51.6657H42.525C41.6828 51.6657 41 50.9971 41 50.1725V42.8275C41 42.0029 41.6828 41.3343 42.525 41.3343H45.0768C45.5467 39.5883 46.252 37.9226 47.183 36.3593L45.3774 34.5915C45.0915 34.3114 44.9308 33.9317 44.9308 33.5356C44.9308 33.1395 45.0915 32.7597 45.3776 32.4797L50.6816 27.2864C51.277 26.7033 52.2425 26.7033 52.8382 27.2864L54.6435 29.054C56.2394 28.1426 57.9404 27.4521 59.7245 26.9916V24.4932C59.7245 23.6686 60.4073 23 61.2495 23ZM65 56C70.5228 56 75 51.5228 75 46C75 40.4772 70.5228 36 65 36C59.4772 36 55 40.4772 55 46C55 51.5228 59.4772 56 65 56Z" fill="#7F4CDE"/>
</svg>
