<svg width="104" height="104" viewBox="0 0 104 104" fill="none" xmlns="http://www.w3.org/2000/svg">
<g clip-path="url(#clip0_18_706)">
<rect x="5" y="13.562" width="37" height="85" rx="5" transform="rotate(-9.76289 5 13.562)" fill="#7F4CDE"/>
<rect x="12.2378" y="14.346" width="48" height="82" rx="4" transform="rotate(-9.76289 12.2378 14.346)" fill="white"/>
<path fill-rule="evenodd" clip-rule="evenodd" d="M15.9129 11.7477L54.6085 5.0896C56.1928 4.81873 57.8199 5.18743 59.1328 6.11481C60.4356 7.0351 61.3233 8.43097 61.6048 10L58.4741 10C58.2618 9.43547 57.8842 8.9426 57.3846 8.58964C56.7282 8.12596 55.9147 7.94158 55.1225 8.07695L47.3065 9.42179L46.7485 13.0802C46.7007 13.3946 46.5551 13.686 46.3324 13.913C46.1097 14.14 45.8212 14.2912 45.5078 14.345L27.5837 17.4291C27.2703 17.4831 26.9478 17.4371 26.6621 17.2976C26.3763 17.158 26.1417 16.9321 25.9916 16.6517L24.2429 13.3902L16.4269 14.735C15.6351 14.8722 14.93 15.3179 14.4663 15.9743C14.0026 16.6307 13.8182 17.4442 13.9536 18.2364L26.2899 89.9328C26.4271 90.7247 26.8728 91.4298 27.5292 91.8935C28.1856 92.3571 28.9991 92.5415 29.7913 92.4062L68.4868 85.7481C69.2787 85.6109 69.9838 85.1652 70.4475 84.5088C70.8144 83.9894 71.0064 83.3717 71.0035 82.744L73.3999 78.5502L73.9475 81.7327C74.2184 83.3171 73.8497 84.9442 72.9223 86.257C71.9949 87.5699 70.5846 88.4612 69.0008 88.7354L30.3053 95.3935C28.7209 95.6644 27.0938 95.2957 25.781 94.3683C24.4681 93.4409 23.5768 92.0306 23.3026 90.4468L10.9663 18.7504C10.6954 17.166 11.0641 15.5389 11.9915 14.2261C12.9188 12.9132 14.3292 12.0219 15.9129 11.7477Z" fill="black"/>
<path d="M93.9487 40.5187L89.7618 40.2169C89.1949 38.2589 88.4113 36.3704 87.4255 34.5862L90.1818 31.41C90.9665 30.4822 91.376 29.2946 91.3299 28.0804C91.2838 26.8661 90.7853 25.713 89.9324 24.8475L86.1787 21.0937C85.313 20.24 84.1585 19.742 82.9434 19.6983C81.7283 19.6545 80.541 20.0682 79.6162 20.8575L76.4399 23.6006C74.677 22.6152 72.8107 21.8273 70.8749 21.2512L70.5599 17.0512C70.4601 15.8166 69.8949 14.6661 68.9786 13.8326C68.0623 12.9992 66.8634 12.5451 65.6249 12.5625H60.3749C59.1482 12.559 57.9655 13.0199 57.0647 13.8525C56.1638 14.6852 55.6115 15.828 55.5187 17.0512L55.2168 21.2381C53.2597 21.8075 51.3714 22.591 49.5862 23.5744L46.4099 20.8181C45.4822 20.0334 44.2945 19.6239 43.0803 19.67C41.866 19.7161 40.7129 20.2146 39.8474 21.0675L36.0937 24.8212C35.2399 25.6869 34.7419 26.8414 34.6982 28.0565C34.6544 29.2716 35.0681 30.4589 35.8574 31.3837L38.6005 34.56C37.6204 36.3422 36.8371 38.2258 36.2643 40.1775L32.0774 40.4794C30.8438 40.5693 29.6907 41.1254 28.8521 42.0346C28.0136 42.9439 27.5525 44.1381 27.5624 45.375V50.625C27.5653 51.8486 28.0287 53.0262 28.8604 53.9237C29.6922 54.8211 30.8313 55.3725 32.0512 55.4681L36.238 55.77C36.8108 57.7217 37.5942 59.6052 38.5743 61.3875L35.8312 64.59C35.0419 65.5148 34.6282 66.7021 34.6719 67.9172C34.7157 69.1323 35.2136 70.2868 36.0674 71.1525L39.8212 74.9062C40.6867 75.7591 41.8398 76.2576 43.054 76.3037C44.2683 76.3499 45.4559 75.9404 46.3837 75.1556L49.5599 72.3994C51.3452 73.3827 53.2335 74.1662 55.1905 74.7356L55.4924 78.9225C55.5792 80.155 56.1325 81.308 57.0396 82.1468C57.9467 82.9857 59.1394 83.4472 60.3749 83.4375H65.6249C66.8476 83.4316 68.0236 82.9672 68.9204 82.136C69.8172 81.3049 70.3694 80.1675 70.468 78.9487L70.783 74.7487C72.7312 74.1838 74.6108 73.4046 76.3874 72.4256L79.5637 75.1687C80.4885 75.958 81.6758 76.3717 82.8909 76.328C84.106 76.2842 85.2605 75.7863 86.1262 74.9325L89.8799 71.1787C90.7328 70.3132 91.2313 69.1601 91.2774 67.9459C91.3235 66.7316 90.914 65.544 90.1293 64.6162L87.373 61.44C88.3588 59.6558 89.1423 57.7673 89.7093 55.8094L93.8962 55.5075C95.1333 55.4271 96.2929 54.8766 97.1372 53.9688C97.9815 53.061 98.4467 51.8647 98.4374 50.625V45.375C98.4409 44.1482 97.98 42.9656 97.1473 42.0648C96.3147 41.1639 95.1719 40.6116 93.9487 40.5187ZM95.8124 50.625C95.8077 51.1852 95.5937 51.7234 95.2124 52.1338C94.8311 52.5443 94.3101 52.7973 93.7518 52.8431L88.6462 53.25C88.3708 53.269 88.1084 53.3744 87.8963 53.5511C87.6842 53.7278 87.5333 53.9669 87.4649 54.2344C86.8755 56.5812 85.9423 58.828 84.6955 60.9019C84.5544 61.1403 84.4924 61.4173 84.5183 61.6931C84.5443 61.969 84.6568 62.2295 84.8399 62.4375L88.1868 66.375C88.5509 66.7997 88.7422 67.3457 88.7228 67.9048C88.7033 68.4639 88.4745 68.9953 88.0818 69.3937L84.328 73.1475C83.9296 73.5403 83.3982 73.769 82.8391 73.7885C82.28 73.8079 81.734 73.6166 81.3093 73.2525L77.3718 69.8925C77.1635 69.7144 76.9046 69.606 76.6316 69.5824C76.3586 69.5589 76.085 69.6214 75.8493 69.7612C73.7746 70.9939 71.5336 71.9221 69.1949 72.5175C68.9275 72.5858 68.6884 72.7368 68.5116 72.9489C68.3349 73.1609 68.2295 73.4233 68.2105 73.6987L67.8299 78.8175C67.7691 79.3618 67.5113 79.8651 67.1052 80.2325C66.6991 80.6 66.1726 80.8063 65.6249 80.8125H60.3749C59.8173 80.8108 59.2808 80.5992 58.8721 80.2198C58.4635 79.8404 58.2128 79.321 58.1699 78.765L57.7499 73.6462C57.7309 73.3708 57.6255 73.1084 57.4488 72.8964C57.2721 72.6843 57.033 72.5333 56.7655 72.465C54.4153 71.8733 52.1645 70.9403 50.0849 69.6956C49.8809 69.5788 49.6506 69.5156 49.4155 69.5119C49.0965 69.5123 48.7886 69.629 48.5493 69.84L44.6118 73.1869C44.1871 73.551 43.6411 73.7423 43.0819 73.7228C42.5228 73.7034 41.9914 73.4746 41.593 73.0819L37.8393 69.3281C37.4465 68.9297 37.2177 68.3983 37.1983 67.8392C37.1789 67.2801 37.3702 66.7341 37.7343 66.3094L41.0943 62.3719C41.2724 62.1636 41.3808 61.9047 41.4043 61.6317C41.4279 61.3586 41.3654 61.0851 41.2255 60.8494C39.9839 58.773 39.051 56.5269 38.4562 54.1819C38.3885 53.9164 38.2395 53.6787 38.0301 53.5022C37.8206 53.3257 37.5611 53.2191 37.288 53.1975L32.1693 52.8169C31.6285 52.7561 31.1285 52.4997 30.7635 52.096C30.3985 51.6923 30.1936 51.1692 30.1874 50.625V45.375C30.1891 44.8139 30.4021 44.274 30.784 43.863C31.1658 43.4519 31.6886 43.1998 32.248 43.1569L37.3668 42.7762C37.6399 42.7546 37.8993 42.648 38.1088 42.4715C38.3183 42.295 38.4673 42.0573 38.5349 41.7919C39.1297 39.4468 40.0626 37.2008 41.3043 35.1244C41.4441 34.8887 41.5066 34.6151 41.4831 34.342C41.4595 34.069 41.3511 33.8102 41.173 33.6019L37.813 29.6644C37.4489 29.2396 37.2576 28.6936 37.2771 28.1345C37.2965 27.5754 37.5253 27.044 37.918 26.6456L41.6718 22.8919C42.0702 22.4991 42.6016 22.2703 43.1607 22.2509C43.7198 22.2314 44.2658 22.4227 44.6905 22.7869L48.628 26.1337C48.836 26.3168 49.0966 26.4294 49.3724 26.4553C49.6482 26.4812 49.9252 26.4192 50.1637 26.2781C52.2432 25.0334 54.494 24.1004 56.8443 23.5087C57.1117 23.4404 57.3508 23.2894 57.5276 23.0774C57.7043 22.8653 57.8097 22.6029 57.8287 22.3275L58.1962 17.2087C58.2448 16.6619 58.4945 16.1526 58.897 15.7793C59.2994 15.4059 59.826 15.1951 60.3749 15.1875H65.6249C66.1874 15.1889 66.7288 15.4014 67.142 15.7831C67.5553 16.1647 67.8101 16.6875 67.8562 17.2481L68.2368 22.3669C68.2558 22.6423 68.3612 22.9047 68.5379 23.1167C68.7146 23.3288 68.9537 23.4798 69.2212 23.5481C71.5598 24.1435 73.8008 25.0717 75.8755 26.3044C76.1112 26.4442 76.3848 26.5067 76.6579 26.4832C76.9309 26.4596 77.1897 26.3512 77.398 26.1731L81.3355 22.8131C81.7603 22.449 82.3063 22.2577 82.8654 22.2771C83.4245 22.2966 83.9559 22.5254 84.3543 22.9181L88.108 26.6719C88.5008 27.0703 88.7296 27.6017 88.749 28.1608C88.7685 28.7199 88.5772 29.2659 88.213 29.6906L84.8662 33.6281C84.6831 33.8361 84.5705 34.0966 84.5446 34.3725C84.5187 34.6483 84.5807 34.9253 84.7218 35.1637C85.9685 37.2376 86.9017 39.4844 87.4912 41.8312C87.5595 42.0987 87.7105 42.3378 87.9225 42.5145C88.1346 42.6912 88.397 42.7966 88.6724 42.8156L93.778 43.1831C94.3272 43.2346 94.8382 43.4866 95.2135 43.8909C95.5887 44.2952 95.8019 44.8235 95.8124 45.375V50.625Z" fill="black"/>
<path d="M62.9999 27.3675C58.9192 27.3675 54.9301 28.5776 51.5371 30.8447C48.1441 33.1118 45.4996 36.3342 43.938 40.1043C42.3764 43.8744 41.9678 48.0229 42.7639 52.0252C43.56 56.0275 45.5251 59.7039 48.4106 62.5894C51.2961 65.4749 54.9724 67.4399 58.9747 68.236C62.9771 69.0322 67.1256 68.6236 70.8957 67.0619C74.6658 65.5003 77.8881 62.8558 80.1552 59.4628C82.4224 56.0698 83.6324 52.0807 83.6324 48C83.6255 42.53 81.4495 37.2861 77.5816 33.4183C73.7138 29.5504 68.4699 27.3744 62.9999 27.3675ZM62.9999 66.0075C59.4384 66.0075 55.9568 64.9514 52.9955 62.9727C50.0342 60.994 47.7261 58.1816 46.3632 54.8912C45.0002 51.6007 44.6436 47.98 45.3384 44.4869C46.0333 40.9938 47.7483 37.7852 50.2667 35.2668C52.7851 32.7484 55.9937 31.0333 59.4868 30.3385C62.98 29.6437 66.6007 30.0003 69.8911 31.3632C73.1815 32.7262 75.9939 35.0342 77.9726 37.9956C79.9513 40.9569 81.0074 44.4384 81.0074 48C81.004 52.7748 79.1056 57.3531 75.7293 60.7294C72.353 64.1057 67.7748 66.004 62.9999 66.0075Z" fill="black"/>
<rect x="51" y="47" width="7" height="10" rx="2" fill="#7F4CDE"/>
<rect x="60" y="42" width="7" height="15" rx="2" fill="#7F4CDE"/>
<rect x="69" y="39" width="7" height="18" rx="2" fill="#7F4CDE"/>
</g>
<defs>
<clipPath id="clip0_18_706">
<rect width="104" height="104" fill="white"/>
</clipPath>
</defs>
</svg>
