<svg width="104" height="104" viewBox="0 0 104 104" fill="none" xmlns="http://www.w3.org/2000/svg">
<g clip-path="url(#clip0_18_754)">
<path fill-rule="evenodd" clip-rule="evenodd" d="M68.0024 41.6288L66.101 42.786C65.9317 42.876 65.7825 42.9996 65.6625 43.1491C65.5424 43.2985 65.4541 43.4709 65.4027 43.6556C65.3514 43.8404 65.3381 44.0336 65.3638 44.2236C65.3895 44.4136 65.4536 44.5964 65.5521 44.7609C65.6507 44.9253 65.7816 45.068 65.9371 45.1803C66.0925 45.2925 66.2692 45.372 66.4563 45.4138C66.6434 45.4557 66.837 45.459 67.0255 45.4236C67.2139 45.3883 67.3932 45.315 67.5524 45.2081L69.1616 44.1042C68.4783 43.4902 68.0379 42.6111 68.0024 41.6288ZM73.7198 44.2062L77.4387 47.0648C77.5934 47.1675 77.7669 47.2387 77.9491 47.2744C78.1313 47.3101 78.3188 47.3096 78.5009 47.2728C78.6829 47.2361 78.8559 47.1638 79.01 47.0602C79.1641 46.9566 79.2963 46.8236 79.399 46.6689C79.5018 46.5142 79.573 46.3408 79.6087 46.1586C79.6444 45.9763 79.6439 45.7888 79.6071 45.6068C79.5704 45.4248 79.4981 45.2518 79.3945 45.0977C79.2909 44.9436 79.1579 44.8114 79.0032 44.7086L78.9844 44.7181L74.9748 41.9226C74.8644 42.8402 74.3989 43.6485 73.7198 44.2062Z" fill="#9B9B9B"/>
<circle cx="71.5" cy="41.5" r="2.5" fill="#9B9B9B"/>
<circle cx="45.5" cy="56.5" r="2.5" fill="#9B9B9B"/>
<path fill-rule="evenodd" clip-rule="evenodd" d="M87.5323 27H42.7847C40.7208 27.0025 38.7422 27.8235 37.2828 29.2828C35.8235 30.7422 35.0025 32.7208 35 34.7847V60.6833C35.0025 62.7471 35.8235 64.7257 37.2828 66.1851C38.7422 67.6445 40.7208 68.4654 42.7847 68.4679H60.4462H66V65.6351L59.4944 65.6311H42.7847C41.4723 65.6287 40.2143 65.1069 39.2854 64.1798C38.3565 63.2527 37.8323 61.9956 37.8274 60.6833V54.218L42.0064 56.7128C42.0021 56.6424 42 56.5715 42 56.5C42 55.4861 42.4312 54.5728 43.1201 53.9336L38.0724 51.0702C37.9949 51.0216 37.9128 50.9805 37.8274 50.9477V34.7847C37.8298 33.4707 38.3529 32.2112 39.2821 31.2821C40.2112 30.3529 41.4707 29.8298 42.7847 29.8274H87.5323C88.8463 29.8298 90.1058 30.3529 91.0349 31.2821C91.9641 32.2112 92.4871 33.4707 92.4896 34.7847V60.6833C92.4871 61.9973 91.9641 63.2567 91.0349 64.1859C90.1058 65.115 88.8463 65.6381 87.5323 65.6406H84.0338L86.3899 68.4679H87.5323C89.5962 68.4654 91.5748 67.6445 93.0342 66.1851C94.4935 64.7257 95.3145 62.7471 95.317 60.6833V34.7847C95.3145 32.7208 94.4935 30.7422 93.0342 29.2828C91.5748 27.8235 89.5962 27.0025 87.5323 27ZM53.0009 53.8976L48.9878 56.206C48.9002 55.1518 48.3453 54.2303 47.5308 53.649L51.5495 51.5038C51.8626 51.3698 52.2136 51.3533 52.5379 51.4574C52.8622 51.5615 53.138 51.7792 53.3146 52.0705C53.4912 52.3617 53.5567 52.707 53.499 53.0427C53.4414 53.3783 53.2645 53.6819 53.0009 53.8976Z" fill="#9B9B9B"/>
<path d="M67.5002 55.912L68.4019 70.2134C68.4324 70.8561 68.9808 71.4494 69.5858 71.6684C70.1908 71.8875 70.9959 71.6263 71.4645 71.059L73.7014 68.0791L77.832 73.6801C78.3615 74.3982 79.4844 74.5679 80.2025 74.0383L83.6493 71.4964C84.3674 70.9669 84.5371 69.844 84.0075 69.1259L79.7145 63.7555L83.0975 62.4801C83.7779 62.2001 84.2465 61.6328 84.2348 60.8654C84.2232 60.0979 83.7995 59.5234 83.1945 59.3044L69.7792 54.3422C68.694 53.923 67.4015 54.8762 67.5002 55.912Z" fill="#9B9B9B"/>
<rect x="6.00024" y="28.1457" width="88" height="64" rx="5" transform="rotate(-0.181066 6.00024 28.1457)" fill="#7F4CDE"/>
<rect x="13.5045" y="29.6221" width="83" height="61" rx="3.5" transform="rotate(-0.181066 13.5045 29.6221)" fill="white" stroke="black" stroke-width="3"/>
<path d="M19 34L19 26L75 26L75 34L19 34Z" fill="white"/>
<path d="M41.2135 34C39.7134 29 38.7295 22.8522 43.7428 17L86.2134 17C90.2134 18.5 90.7134 31 88.2134 34.5L41.2135 34Z" fill="white"/>
<path d="M61.6113 83H49.4863C49.0895 83.0077 48.7115 83.1708 48.4336 83.4542C48.1557 83.7376 48 84.1187 48 84.5157C48 84.9126 48.1557 85.2937 48.4336 85.5771C48.7116 85.8605 49.0896 86.0235 49.4864 86.0312H61.6113C62.0082 86.0235 62.3862 85.8604 62.6641 85.577C62.942 85.2936 63.0977 84.9126 63.0977 84.5156C63.0977 84.1187 62.942 83.7376 62.6641 83.4542C62.3862 83.1708 62.0082 83.0077 61.6113 83Z" fill="black"/>
<path fill-rule="evenodd" clip-rule="evenodd" d="M96.75 25.25C96.75 36.2957 87.7957 45.25 76.75 45.25C65.7043 45.25 56.75 36.2957 56.75 25.25C56.752 23.9919 56.8692 22.7367 57.1 21.5C59.0232 11.355 68.3533 4.34179 78.6332 5.31403C88.913 6.28627 96.7628 14.9243 96.75 25.25Z" fill="#7F4CDE"/>
<path d="M76.75 39C78.1307 39 79.25 37.8807 79.25 36.5C79.25 35.1193 78.1307 34 76.75 34C75.3693 34 74.25 35.1193 74.25 36.5C74.25 37.8807 75.3693 39 76.75 39Z" fill="white"/>
<path d="M79.25 14C79.25 12.6193 78.1307 11.5 76.75 11.5C75.3693 11.5 74.25 12.6193 74.25 14V26.5C74.25 27.8807 75.3693 29 76.75 29C78.1307 29 79.25 27.8807 79.25 26.5V14Z" fill="white"/>
<path d="M76.75 4.00002C66.9531 4.02035 58.4372 10.7298 56.125 20.25H30.5C26.3596 20.2542 23.0041 23.6096 23 27.75V60.25C23.0041 64.3904 26.3596 67.7459 30.5 67.75H33V76.1863C32.9991 77.2084 33.5532 78.1504 34.447 78.6462C35.3409 79.1419 36.4334 79.1133 37.3 78.5713L54.6088 67.75H80.5C84.6404 67.7459 87.9959 64.3904 88 60.25V43.25C96.0499 38.2381 99.7996 28.4952 97.1868 19.3796C94.5741 10.264 86.2326 3.98672 76.75 4.00002ZM85.5 60.25C85.5 63.0114 83.2614 65.25 80.5 65.25H54.25C54.0157 65.25 53.7862 65.3159 53.5875 65.44L35.975 76.4525C35.8786 76.5112 35.7581 76.5134 35.6597 76.4582C35.5613 76.403 35.5002 76.2991 35.5 76.1863V66.5C35.5 65.8097 34.9404 65.25 34.25 65.25H30.5C27.7386 65.25 25.5 63.0114 25.5 60.25V27.75C25.5 24.9886 27.7386 22.75 30.5 22.75H55.66C54.9129 28.7837 56.7984 34.8472 60.8354 39.3933C64.8723 43.9394 70.6703 46.5285 76.75 46.5C79.7696 46.4977 82.7535 45.8472 85.5 44.5925V60.25ZM76.75 44C66.3947 44 58 35.6054 58 25.25C58 14.8947 66.3947 6 76.75 6C87.1053 6 96.5 13.1447 96.5 23.5C96.5 37.5 87.1005 43.9883 76.75 44Z" fill="black"/>
<path fill-rule="evenodd" clip-rule="evenodd" d="M31.75 30.25H50.5C51.1904 30.25 51.75 29.6904 51.75 29C51.75 28.3096 51.1904 27.75 50.5 27.75H31.75C31.0596 27.75 30.5 28.3096 30.5 29C30.5 29.6904 31.0596 30.25 31.75 30.25Z" fill="black"/>
<path fill-rule="evenodd" clip-rule="evenodd" d="M31.75 37.75H53C53.6904 37.75 54.25 37.1904 54.25 36.5C54.25 35.8096 53.6904 35.25 53 35.25H31.75C31.0596 35.25 30.5 35.8096 30.5 36.5C30.5 37.1904 31.0596 37.75 31.75 37.75Z" fill="black"/>
<path fill-rule="evenodd" clip-rule="evenodd" d="M31.75 45.25H58C58.6904 45.25 59.25 44.6904 59.25 44C59.25 43.3096 58.6904 42.75 58 42.75H31.75C31.0596 42.75 30.5 43.3096 30.5 44C30.5 44.6904 31.0596 45.25 31.75 45.25Z" fill="black"/>
<path fill-rule="evenodd" clip-rule="evenodd" d="M41.75 51.5C41.75 52.1904 42.3096 52.75 43 52.75H79.25C79.9404 52.75 80.5 52.1904 80.5 51.5C80.5 50.8096 79.9404 50.25 79.25 50.25H43C42.3096 50.25 41.75 50.8096 41.75 51.5Z" fill="black"/>
<path fill-rule="evenodd" clip-rule="evenodd" d="M38 50.25H31.75C31.0596 50.25 30.5 50.8096 30.5 51.5C30.5 52.1904 31.0596 52.75 31.75 52.75H38C38.6904 52.75 39.25 52.1904 39.25 51.5C39.25 50.8096 38.6904 50.25 38 50.25Z" fill="black"/>
<circle cx="77" cy="25" r="20.3" stroke="white" stroke-width="3.4"/>
</g>
<defs>
<clipPath id="clip0_18_754">
<rect width="104" height="104" fill="white"/>
</clipPath>
</defs>
</svg>
