<svg width="104" height="104" viewBox="0 0 104 104" fill="none" xmlns="http://www.w3.org/2000/svg">
<rect x="6" y="21.1457" width="88" height="64" rx="5" transform="rotate(-0.181066 6 21.1457)" fill="#7F4CDE"/>
<rect x="13.5049" y="22.6221" width="83" height="61" rx="3.5" transform="rotate(-0.181066 13.5049 22.6221)" fill="white" stroke="black" stroke-width="3"/>
<path d="M25 34.5C25 29.5 25.9867 21.8521 31 16L101 15L101 60.5L93 70L25 34.5Z" fill="white"/>
<path d="M26.5472 55.0188C26.4832 52.4847 24.3691 50.4747 21.8351 50.5387C19.301 50.6027 17.291 52.7169 17.355 55.2509C17.419 57.7849 19.5332 59.7949 22.0672 59.7309C24.6012 59.6669 26.6112 57.5528 26.5472 55.0188ZM19.9813 55.1846C19.9538 54.0983 20.8151 53.1926 21.9012 53.1651C22.9874 53.1377 23.8933 53.999 23.9207 55.0851C23.9481 56.1712 23.0868 57.0771 22.0007 57.1046C20.9146 57.132 20.0087 56.2708 19.9813 55.1846Z" fill="black"/>
<path fill-rule="evenodd" clip-rule="evenodd" d="M80.4866 21.1554C80.1749 20.5037 79.9999 19.772 79.9999 19.0004V12.382C79.9999 11.0637 80.5216 9.79701 81.4516 8.86034L88.1183 2.14536C89.5449 0.707024 91.6983 0.272053 93.5716 1.04372C95.4449 1.81539 96.6666 3.64203 96.6666 5.66703V7.3337H98.3333C100.355 7.3337 102.178 8.55202 102.953 10.4203C103.727 12.2887 103.298 14.4387 101.868 15.8687L95.2016 22.5354C94.2649 23.4737 92.9933 24.0004 91.6666 24.0004H84.9999C84.2283 24.0004 83.4966 23.8254 82.8449 23.5137L66.1783 40.1787C65.5283 40.8287 64.4716 40.8287 63.8216 40.1787C63.1716 39.5287 63.1716 38.472 63.8216 37.822L80.4866 21.1554Z" fill="#7F4CDE"/>
<path fill-rule="evenodd" clip-rule="evenodd" d="M77.7716 6.40701C73.815 4.85368 69.5066 4.00034 65 4.00034C45.6833 4.00034 30 19.6837 30 39.0003C30 58.317 45.6833 74.0003 65 74.0003C84.3166 74.0003 100 58.317 100 39.0003C100 34.5053 99.1516 30.207 97.6049 26.2603C97.2699 25.4037 97.6933 24.4353 98.55 24.1003C99.4066 23.7653 100.373 24.187 100.708 25.0437C102.403 29.3687 103.333 34.077 103.333 39.0003C103.333 60.157 86.1566 77.3337 65 77.3337C43.8433 77.3337 26.6666 60.157 26.6666 39.0003C26.6666 17.8437 43.8433 0.667007 65 0.667007C69.9366 0.667007 74.655 1.60202 78.99 3.30536C79.8466 3.64036 80.2683 4.60867 79.9333 5.46534C79.5966 6.32201 78.6283 6.74368 77.7716 6.40701Z" fill="black"/>
<path fill-rule="evenodd" clip-rule="evenodd" d="M74.285 19.4204C71.47 18.0821 68.3217 17.3337 65 17.3337C53.0417 17.3337 43.3333 27.042 43.3333 39.0004C43.3333 50.9587 53.0417 60.667 65 60.667C76.9583 60.667 86.6667 50.9587 86.6667 39.0004C86.6667 35.6787 85.9183 32.5304 84.58 29.717C84.185 28.8854 84.5383 27.8903 85.3683 27.4953C86.2 27.1003 87.195 27.4537 87.59 28.2854C89.135 31.5337 90 35.167 90 39.0004C90 52.7987 78.7983 64.0004 65 64.0004C51.2017 64.0004 40 52.7987 40 39.0004C40 25.202 51.2017 14.0004 65 14.0004C68.8333 14.0004 72.4666 14.8654 75.715 16.4104C76.5466 16.8054 76.9 17.8004 76.505 18.632C76.11 19.462 75.115 19.8154 74.285 19.4204Z" fill="black"/>
<path fill-rule="evenodd" clip-rule="evenodd" d="M65.465 30.6804C65.31 30.672 65.155 30.6671 65 30.6671C60.4 30.6671 56.6667 34.4004 56.6667 39.0004C56.6667 43.6004 60.4 47.3337 65 47.3337C69.6 47.3337 73.3334 43.6004 73.3334 39.0004C73.3334 38.8454 73.3284 38.6904 73.3201 38.5354C73.2701 37.6171 73.975 36.8304 74.8934 36.7804C75.8117 36.7287 76.5984 37.4337 76.6484 38.352C76.6601 38.567 76.6667 38.7837 76.6667 39.0004C76.6667 45.4387 71.4384 50.6671 65 50.6671C58.5617 50.6671 53.3334 45.4387 53.3334 39.0004C53.3334 32.5621 58.5617 27.3337 65 27.3337C65.2167 27.3337 65.4334 27.3404 65.6484 27.352C66.5667 27.402 67.2717 28.1887 67.2217 29.107C67.1701 30.0254 66.3834 30.7304 65.465 30.6804Z" fill="black"/>
</svg>
