<svg width="104" height="104" viewBox="0 0 104 104" fill="none" xmlns="http://www.w3.org/2000/svg">
<rect x="12.9998" y="41" width="37" height="45" rx="5" fill="#7F4CDE"/>
<path d="M9 83C9 82.4477 9.44772 82 10 82H42C44.7614 82 47 84.2386 47 87V89C47 91.7614 44.7614 94 42 94H14C11.2386 94 9 91.7614 9 89V83Z" fill="#7F4CDE"/>
<path d="M17.9999 47C17.9999 44.7908 19.7908 43 21.9999 43H77C79.2091 43 81 44.7908 81 47V82.665C81 84.3067 82.174 85.7134 83.7892 86.0071C85.3692 86.2944 86.7534 87.7305 86.129 89.21C85.5239 90.6438 84.1131 91.3834 81.3618 91.9305C81.1219 91.9782 80.8769 92 80.6324 92H17.9999C13.7745 91.8641 12.079 91.1042 11.7887 89.1896C11.5436 87.5726 13.0604 86.3232 14.6737 86.0543C16.5931 85.7344 17.9999 84.0737 17.9999 82.1278V47Z" fill="white"/>
<path d="M88.3541 84.0625H83.4166V47.625C83.4166 43.9713 80.4641 41 76.8332 41H24.1666C20.5359 41 17.5832 43.9712 17.5832 47.625V84.0625H12.6457C11.7362 84.0625 11 84.8032 11 85.7187V87.375C11 91.0287 13.9525 94 17.5834 94H83.4168C87.0475 94 90 91.0287 90 87.375V85.7187C90 84.8032 89.2638 84.0625 88.3541 84.0625ZM20.875 47.625C20.875 45.799 22.3521 44.3126 24.1666 44.3126H76.8332C78.6478 44.3126 80.1248 45.799 80.1248 47.625V84.0625H58.7291H42.2709H20.875V47.625ZM83.4166 90.6874H17.5834C15.7689 90.6874 14.2918 89.201 14.2918 87.375H19.2293H41.5894L42.7531 88.546C43.0617 88.8566 43.4795 89.0313 43.9168 89.0313H57.0834C57.5205 89.0313 57.9385 88.8566 58.2471 88.546L59.4106 87.375H81.7709H86.7084C86.7084 89.201 85.2313 90.6874 83.4166 90.6874Z" fill="black"/>
<path d="M84.5182 65H33.4818C29.3498 65 26 62.1637 26 58.6651V31.3349C26 27.8363 29.3498 25 33.4818 25H84.5182C88.6502 25 92 27.8363 92 31.3349V58.6649C92 62.1635 88.6502 65 84.5182 65Z" fill="white"/>
<path d="M55.4858 70H31.5142C29.5734 70 28 68.3691 28 66.3574V50.6426C28 48.6309 29.5734 47 31.5142 47H55.4858C57.4266 47 59 48.6309 59 50.6426V66.3573C59 68.369 57.4266 70 55.4858 70Z" fill="white"/>
<path d="M77.7876 26H36.4577C32.893 26.0044 30.0042 28.893 30 32.4579V47.9565C30.0042 51.5213 32.893 54.41 36.4577 54.4143H73.9128V51.8312H36.4577C34.3178 51.8312 32.5831 50.0964 32.5831 47.9565V32.4579C32.5831 30.318 34.3178 28.5832 36.4577 28.5832H77.7875C79.9274 28.5832 81.6621 30.318 81.6621 32.4579V37.6241H84.2453V32.4579C84.2411 28.893 81.3523 26.0044 77.7876 26Z" fill="black" stroke="black" stroke-width="0.7"/>
<path d="M58.4142 32.4579H53.248C51.1081 32.4579 49.3733 34.1926 49.3733 36.3325V47.9565H51.9564V36.3325C51.9564 35.6192 52.5347 35.0409 53.248 35.0409H58.4142C59.1275 35.0409 59.7058 35.6192 59.7058 36.3325V47.9565H62.2889V36.3325C62.2889 34.1926 60.5541 32.4579 58.4142 32.4579Z" fill="black" stroke="black" stroke-width="0.7"/>
<path d="M60.9973 38.9156H50.6649V41.4987H60.9973V38.9156Z" fill="black" stroke="black" stroke-width="0.7"/>
<path d="M44.2071 32.4579H37.7494C37.0361 32.4579 36.4578 33.0361 36.4578 33.7494V47.9565H39.0408V42.7903H44.2071C44.2428 42.791 44.2784 42.791 44.3141 42.7903C45.7112 42.7607 46.8197 41.6042 46.7902 40.2072V35.0409C46.7909 35.0052 46.7909 34.9696 46.7902 34.9339C46.7607 33.5368 45.6042 32.4283 44.2071 32.4579ZM44.2071 40.2072H39.041V35.0409H44.2072L44.2071 40.2072Z" fill="black" stroke="black" stroke-width="0.7"/>
<path d="M75.2044 32.4579V38.9156C75.2044 39.6289 74.6261 40.2072 73.9128 40.2072H68.7466C68.0333 40.2072 67.455 39.6289 67.455 38.9156V32.4579H64.8719V38.9156C64.8719 41.0555 66.6067 42.7903 68.7466 42.7903H73.9129C76.0528 42.7903 77.7875 41.0555 77.7875 38.9156V32.4579H75.2044Z" fill="black" stroke="black" stroke-width="0.7"/>
<path d="M72.6214 41.4987H70.0383V47.9564H72.6214V41.4987Z" fill="black" stroke="black" stroke-width="0.7"/>
<path d="M36.4589 68.5922H35.5429C34.0813 68.5922 32.8925 67.4342 32.8925 66.0106C32.8925 64.5869 34.0813 63.4289 35.5429 63.4289H36.8329C37.6784 63.4289 38.4824 63.8319 38.9828 64.5077C39.4508 65.1377 40.3541 65.2785 41.0009 64.8227C41.6477 64.3669 41.7922 63.487 41.3243 62.857C40.4029 61.6164 38.9846 60.8157 37.4453 60.6467V59.4078C37.4453 58.63 36.7986 58 36 58C35.2014 58 34.5547 58.63 34.5547 59.4078V60.6995C31.9693 61.1553 30 63.3638 30 66.0106C30 68.9864 32.486 71.4078 35.5411 71.4078H36.4571C37.9187 71.4078 39.1075 72.5658 39.1075 73.9894C39.1075 75.4131 37.9187 76.5711 36.4571 76.5711H35.1671C34.3216 76.5711 33.5194 76.1681 33.0172 75.4923C32.5492 74.8623 31.6459 74.7198 30.9991 75.1773C30.3523 75.6331 30.2078 76.513 30.6757 77.143C31.5971 78.3854 33.0154 79.1843 34.5547 79.3533V80.5922C34.5547 81.37 35.2014 82 36 82C36.7986 82 37.4453 81.37 37.4453 80.5922V79.3005C40.0307 78.8447 42 76.6362 42 73.9877C42.0018 71.0136 39.5158 68.5922 36.4589 68.5922Z" fill="black"/>
<path d="M52.4589 68.5922H51.5429C50.0813 68.5922 48.8925 67.4342 48.8925 66.0106C48.8925 64.5869 50.0813 63.4289 51.5429 63.4289H52.8329C53.6784 63.4289 54.4824 63.8319 54.9828 64.5077C55.4508 65.1377 56.3541 65.2785 57.0009 64.8227C57.6477 64.3669 57.7922 63.487 57.3243 62.857C56.4029 61.6164 54.9846 60.8157 53.4453 60.6467V59.4078C53.4453 58.63 52.7986 58 52 58C51.2014 58 50.5547 58.63 50.5547 59.4078V60.6995C47.9693 61.1553 46 63.3638 46 66.0106C46 68.9864 48.486 71.4078 51.5411 71.4078H52.4571C53.9187 71.4078 55.1075 72.5658 55.1075 73.9894C55.1075 75.4131 53.9187 76.5711 52.4571 76.5711H51.1671C50.3216 76.5711 49.5194 76.1681 49.0172 75.4923C48.5492 74.8623 47.6459 74.7198 46.9991 75.1773C46.3523 75.6331 46.2078 76.513 46.6757 77.143C47.5971 78.3854 49.0154 79.1843 50.5547 79.3533V80.5922C50.5547 81.37 51.2014 82 52 82C52.7986 82 53.4453 81.37 53.4453 80.5922V79.3005C56.0307 78.8447 58 76.6362 58 73.9877C58.0018 71.0136 55.5158 68.5922 52.4589 68.5922Z" fill="black"/>
</svg>
