<svg width="104" height="104" viewBox="0 0 104 104" fill="none" xmlns="http://www.w3.org/2000/svg">
<rect x="12.9998" y="41" width="37" height="45" rx="5" fill="#7F4CDE"/>
<path d="M9 83C9 82.4477 9.44772 82 10 82H42C44.7614 82 47 84.2386 47 87V89C47 91.7614 44.7614 94 42 94H14C11.2386 94 9 91.7614 9 89V83Z" fill="#7F4CDE"/>
<path d="M17.9999 47C17.9999 44.7908 19.7908 43 21.9999 43H77C79.2091 43 81 44.7908 81 47V82.665C81 84.3067 82.174 85.7134 83.7892 86.0071C85.3692 86.2944 86.7534 87.7305 86.129 89.21C85.5239 90.6438 84.1131 91.3834 81.3618 91.9305C81.1219 91.9782 80.8769 92 80.6324 92H17.9999C13.7745 91.8641 12.079 91.1042 11.7887 89.1896C11.5436 87.5726 13.0604 86.3232 14.6737 86.0543C16.5931 85.7344 17.9999 84.0737 17.9999 82.1278V47Z" fill="white"/>
<path d="M88.3541 84.0625H83.4166V47.625C83.4166 43.9713 80.4641 41 76.8332 41H24.1666C20.5359 41 17.5832 43.9712 17.5832 47.625V84.0625H12.6457C11.7362 84.0625 11 84.8032 11 85.7187V87.375C11 91.0287 13.9525 94 17.5834 94H83.4168C87.0475 94 90 91.0287 90 87.375V85.7187C90 84.8032 89.2638 84.0625 88.3541 84.0625ZM20.875 47.625C20.875 45.799 22.3521 44.3126 24.1666 44.3126H76.8332C78.6478 44.3126 80.1248 45.799 80.1248 47.625V84.0625H58.7291H42.2709H20.875V47.625ZM83.4166 90.6874H17.5834C15.7689 90.6874 14.2918 89.201 14.2918 87.375H19.2293H41.5894L42.7531 88.546C43.0617 88.8566 43.4795 89.0313 43.9168 89.0313H57.0834C57.5205 89.0313 57.9385 88.8566 58.2471 88.546L59.4106 87.375H81.7709H86.7084C86.7084 89.201 85.2313 90.6874 83.4166 90.6874Z" fill="black"/>
<path d="M87.332 60H48.668C45.5377 60 43 57.5183 43 54.457V30.543C43 27.4817 45.5377 25 48.668 25H87.332C90.4623 25 93 27.4817 93 30.543V54.4568C93 57.518 90.4623 60 87.332 60Z" fill="white"/>
<path d="M55.4858 70H31.5142C29.5734 70 28 68.3691 28 66.3574V50.6426C28 48.6309 29.5734 47 31.5142 47H55.4858C57.4266 47 59 48.6309 59 50.6426V66.3573C59 68.369 57.4266 70 55.4858 70Z" fill="white"/>
<path d="M94.6668 50C94.6668 52.7614 92.4282 55 89.6668 55H53.0001C50.2387 55 48.0001 52.7614 48.0001 50L48 15C48 12.2386 50.2386 10 53 10L89.6668 10C92.4282 10 94.6668 12.2386 94.6668 15V50Z" fill="#7F4CDE" stroke="#7F4CDE" stroke-width="3" stroke-miterlimit="10" stroke-linecap="round" stroke-linejoin="round"/>
<path d="M69.2963 21.6667C68.1698 21.6667 67.2593 22.6374 67.2593 23.8334V32.5C67.2593 36.0837 64.9757 39 62.1667 39C59.3576 39 57.0741 36.0837 57.0741 32.5V23.8334C57.0741 22.6439 56.1554 21.6667 55.037 21.6667C53.9187 21.6667 53 22.6439 53 23.8334V32.5C53 38.4735 57.1128 43.3334 62.1667 43.3334C67.2206 43.3334 71.3333 38.4735 71.3333 32.5V23.8334C71.3333 22.6374 70.4228 21.6667 69.2963 21.6667Z" fill="white"/>
<path d="M84.1397 32.5015L89.3042 24.9821C90.0019 23.9679 89.6614 22.6309 88.5494 21.9959C87.4303 21.361 85.9636 21.6731 85.2683 22.685L81.3324 28.4146L77.3989 22.6872C76.7037 21.6709 75.2369 21.361 74.1178 21.9981C73.0035 22.633 72.6654 23.9701 73.363 24.9842L78.5252 32.5015L73.3607 40.0209C72.6678 41.0286 73.0083 42.3786 74.1154 43.0071C75.2226 43.6376 76.7037 43.3256 77.3965 42.318L81.3324 36.5884L85.2659 42.3158C85.9588 43.3234 87.4398 43.6355 88.547 43.0049C89.6542 42.3743 89.9947 41.0264 89.3018 40.0188L84.1397 32.5015Z" fill="white"/>
<rect x="55.668" y="42" width="12.7429" height="27.0595" rx="6.37143" transform="rotate(56.899 55.668 42)" fill="white"/>
<path d="M29.0705 60.5058C28.9048 61.7589 28.4643 64.7663 28.4643 64.7663L25.449 67.8209L33.4134 80.7901" stroke="black" stroke-width="3" stroke-miterlimit="10" stroke-linecap="round" stroke-linejoin="round"/>
<path d="M46.3854 52.8944L39.6551 57.0275C40.7455 56.3579 41.1098 54.9176 40.4258 53.8038C39.7484 52.7008 38.3045 52.3561 37.2021 53.0331L30.9248 56.888C30.0601 57.419 29.4962 58.7164 29.1298 60.1084" stroke="black" stroke-width="3" stroke-miterlimit="10" stroke-linecap="round" stroke-linejoin="round"/>
<path d="M33.3098 80.7858C35.7991 81.0174 46.0371 75.1116 46.7401 74.6798L51.7012 71.6332C52.805 70.9554 53.1485 69.5113 52.4719 68.4095C51.7945 67.3065 50.3513 66.9614 49.2482 67.6388L50.7082 66.7422C51.7987 66.0726 52.1633 64.633 51.4789 63.5185C50.8015 62.4155 49.3583 62.0704 48.2552 62.7478L49.0541 62.2572C50.1446 61.5875 50.5092 60.148 49.8248 59.0335C49.1474 57.9304 47.7042 57.5853 46.6011 58.2628L54.8203 53.2153C55.9108 52.5457 56.2754 51.1061 55.591 49.9916C54.9136 48.8886 53.4698 48.5439 52.3673 49.2209L44.1481 54.2683" stroke="black" stroke-width="3" stroke-miterlimit="10" stroke-linecap="round" stroke-linejoin="round"/>
<path d="M49.2483 67.6387L47.4712 68.7301" stroke="black" stroke-width="3" stroke-miterlimit="10" stroke-linecap="round" stroke-linejoin="round"/>
<path d="M48.2554 62.7478L45.6313 64.3592" stroke="black" stroke-width="3" stroke-miterlimit="10" stroke-linecap="round" stroke-linejoin="round"/>
<path d="M46.6011 58.2627L43.4268 60.2121" stroke="black" stroke-width="3" stroke-miterlimit="10" stroke-linecap="round" stroke-linejoin="round"/>
<path d="M39.655 57.0275L33.812 60.6157" stroke="black" stroke-width="3" stroke-miterlimit="10" stroke-linecap="round" stroke-linejoin="round"/>
</svg>
