<svg width="104" height="104" viewBox="0 0 104 104" fill="none" xmlns="http://www.w3.org/2000/svg">
<rect x="5" y="13.562" width="37" height="85" rx="5" transform="rotate(-9.76289 5 13.562)" fill="#7F4CDE"/>
<rect x="12.2378" y="14.346" width="48" height="82" rx="4" transform="rotate(-9.76289 12.2378 14.346)" fill="white"/>
<path fill-rule="evenodd" clip-rule="evenodd" d="M15.9129 11.7477L54.6085 5.0896C56.1928 4.81873 57.8199 5.18743 59.1328 6.11481C60.3659 6.98589 61.2272 8.28304 61.5545 9.74981L59.1266 13.4725L58.6238 10.5503C58.4867 9.75843 58.041 9.05332 57.3846 8.58964C56.7282 8.12596 55.9147 7.94158 55.1225 8.07695L47.3065 9.42179L46.7485 13.0802C46.7007 13.3946 46.5551 13.686 46.3324 13.913C46.1097 14.14 45.8212 14.2912 45.5078 14.345L27.5837 17.4291C27.2703 17.4831 26.9478 17.4371 26.6621 17.2976C26.3763 17.158 26.1417 16.9321 25.9916 16.6517L24.2429 13.3902L16.4269 14.735C15.6351 14.8722 14.93 15.3179 14.4663 15.9743C14.0026 16.6307 13.8182 17.4442 13.9536 18.2364L26.2899 89.9328C26.4271 90.7247 26.8728 91.4298 27.5292 91.8935C28.1856 92.3571 28.9991 92.5415 29.7913 92.4062L68.4868 85.7481C69.2787 85.6109 69.9838 85.1652 70.4475 84.5088C70.9111 83.8524 71.0955 83.0389 70.9602 82.2467L70.0574 77L73.1332 77L73.9475 81.7327C74.2184 83.3171 73.8497 84.9442 72.9223 86.257C71.9949 87.5699 70.5846 88.4612 69.0008 88.7354L30.3053 95.3935C28.7209 95.6644 27.0938 95.2957 25.781 94.3683C24.4681 93.4409 23.5768 92.0306 23.3026 90.4468L10.9663 18.7504C10.6954 17.166 11.0641 15.5389 11.9915 14.2261C12.9188 12.9132 14.3292 12.0219 15.9129 11.7477Z" fill="black"/>
<mask id="mask0_22_1188" style="mask-type:luminance" maskUnits="userSpaceOnUse" x="27" y="16" width="73" height="76">
<path d="M27 16H100V92H27V16Z" fill="white"/>
</mask>
<g mask="url(#mask0_22_1188)">
<path fill-rule="evenodd" clip-rule="evenodd" d="M38.5 69.1266C38.5 71.8918 40.7416 74.1334 43.5069 74.1334H94.1349C96.6164 74.1334 98.6349 72.1283 98.6349 69.6392V69.5375V69.4356V69.3334V69.231V69.1283V69.0254V68.9222V68.8187V68.715V68.6111V68.5069V68.4025V68.2978V68.1929V68.0878V67.9824V67.8768V67.771V67.665V67.5587V67.4522V67.3454V67.2385V67.1313V67.0239V66.9163V66.8085V66.7004V66.5922V66.4837V66.3751V66.2662V66.1571V66.0478V65.9384V65.8287V65.7188V65.6088V65.4985V65.3881V65.2774V65.1666V65.0556V64.9444V64.833V64.7215V64.6097V64.4978V64.3857V64.2735V64.161V64.0484V63.9357V63.8227V63.7096V63.5964V63.483V63.3694V63.2556V63.1417V63.0277V62.9135V62.7992V62.6847V62.57V62.4552V62.3403V62.2252V62.11V61.9947V61.8792V61.7636V61.6478V61.532V61.416V61.2998V61.1836V61.0672V60.9507V60.8341V60.7173V60.6005V60.4835V60.3664V60.2493V60.132V60.0146V59.897V59.7794V59.6617V59.5439V59.426V59.308V59.1899V59.0717V58.9534V58.835V58.7166V58.598V58.4794V58.3607V58.2419V58.123V58.0041V57.8851V57.766V57.6468V57.5276V57.4083V57.2889V57.1695V57.05V56.9305V56.8109V56.6912V56.5715V56.4517V56.3319V56.212V56.0921V55.9721V55.8521V55.7321V55.612V55.4919V55.3717V55.2515V55.1313V55.011V54.8907V54.7704V54.65V54.5296V54.4093V54.2888V54.1684V54.0479V53.9275V53.807V53.6865V53.566V53.4455V53.325V53.2045V53.0839V52.9634V52.8429V52.7224V52.6018V52.4813V52.3608V52.2403V52.1199V51.9994V51.8789V51.7585V51.6381V51.5177V51.3973V51.277V51.1567V51.0364V50.9161V50.7959V50.6757V50.5555V50.4354V50.3153V50.1952V50.0752V49.9553V49.8353V49.7155V49.5957V49.4759V49.3562V49.2365V49.1169V48.9974V48.8779V48.7584V48.6391V48.5198V48.4006V48.2814V48.1623V48.0433V47.9244V47.8055V47.6867V47.568V47.4494V47.3308V47.2124V47.094V46.9757V46.8575V46.7394V46.6214V46.5035V46.3857V46.268V46.1504V46.0329V45.9155V45.7982V45.681V45.564V45.447V45.3302V45.2134V45.0968V44.9803V44.8639V44.7477V44.6316V44.5156V44.3997V44.2839V44.1683V44.0529V43.9375V43.8223V43.7073V43.5923V43.4776V43.3629V43.2484V43.1341V43.0199V42.9059V42.792V42.6782V42.5647V42.4513V42.338V42.2249V42.112V41.9992V41.8866V41.7742V41.6619V41.5499V41.438V41.3262V41.2147V41.1033V40.9921V40.8811V40.7703V40.6597V40.5492V40.439V40.3289V40.2191V40.1094V39.9999V39.8907V39.7816V39.6728V39.5641V39.4557V39.3474V39.2394V39.1316V39.024V38.9166V38.8094V38.7025V38.5957V38.4892V38.383V38.2769V38.1711V38.0655V37.9602V37.855V37.7501V37.6455V37.5411V37.4369V37.333V37.2293V37.1259V37.0227V36.9198V36.8171V36.7146V36.6125V36.5106V36.4089V36.3075V36.2064V36.1055V36.0049V35.9046V35.8045V35.7047V35.6052V35.506V35.407V35.3083V35.2099V35.1118V35.0139V34.9164V34.8191V34.7222V34.6255V34.5291V34.433V34.3372V34.2417V34.1465V34.0516V33.957V33.8627V33.7688V33.6751V33.5817V33.4887V33.396V33.3036V33.2115V33.1197V33.0282V32.9371V32.8463V32.7559V32.6657V32.5759V32.4864V32.3973V32.3085V32.22V32.1319V32.0441V31.9566V31.8695V31.7828V31.6964V31.6103V31.5246V31.4393V31.3543V31.2697V31.1854V31.1015V31.0179V30.9348V30.852V30.7695V30.6874V30.6057V30.5244V30.4435V30.3629V30.2827V30.2029V30.1234V30.0444V29.9657V29.8875V29.8096V29.7321V29.655V29.5783V29.502V29.4261V29.3506V29.2755V29.2008V29.1265V29.0527V28.9792V28.9061V28.8335V28.7613V28.6895V28.6181V28.5471V28.4766V28.4064V28.3367V28.2675V28.1986V28.1302V28.0623V27.9947V27.9276V27.861V27.7947V27.729V27.6636V27.5987V27.5343V27.4703V27.4067V27.3437V27.281V27.2189V27.1571V27.0959V27.0351V26.9748V26.9149V26.8555V26.7966V26.7381V26.6801V26.6226V26.5656V26.509V26.4529V26.3973V26.3422V26.2876V26.2335V26.1798V26.1267V26.074V26.0218V25.9702V25.919V25.8683V25.8181V25.7685V25.7193V25.6706V25.6225V25.5748V25.5277V25.4811V25.435V25.3894V25.3444V25.2998V25.2558V25.2123V25.1693V25.1269V25.085V25.0436V25.0028V24.9625V24.9227V24.8835V24.8448V24.8066V24.7691V24.732V24.6955V24.6595V24.6241V24.5893V24.555V24.5213V24.4881V24.4555V24.4234V24.3919V24.361V24.3306V24.3008V24.2716V24.243V24.2149V24.1874V24.1605V24.1342V24.1084V24.0833V24.0587V24.0347V24.0113V23.9885V23.9663V23.9447V23.9236V23.9032V23.8834V23.8642V23.8455V23.8275V23.8101V23.7933V23.7771V23.7616V23.7466V23.7323V23.7185V23.7054V23.6929V23.6811V23.6698V23.6592V23.6493V23.6399V23.6312V23.6231V23.6157V23.6089V23.6027V23.5972V23.5923V23.5881V23.5845V23.5815V23.5792V23.5776V23.5766C98.6349 23.5764 98.6349 23.5763 97.1349 23.5763C95.6349 23.5763 95.6349 23.5764 95.6349 23.5766V23.5776V23.5792V23.5815V23.5845V23.5881V23.5923V23.5972V23.6027V23.6089V23.6157V23.6231V23.6312V23.6399V23.6493V23.6592V23.6698V23.6811V23.6929V23.7054V23.7185V23.7323V23.7466V23.7616V23.7771V23.7933V23.8101V23.8275V23.8455V23.8642V23.8834V23.9032V23.9236V23.9447V23.9663V23.9885V24.0113V24.0347V24.0587V24.0833V24.1084V24.1342V24.1605V24.1874V24.2149V24.243V24.2716V24.3008V24.3306V24.361V24.3919V24.4234V24.4555V24.4881V24.5213V24.555V24.5893V24.6241V24.6595V24.6955V24.732V24.7691V24.8066V24.8448V24.8835V24.9227V24.9625V25.0028V25.0436V25.085V25.1269V25.1693V25.2123V25.2558V25.2998V25.3444V25.3894V25.435V25.4811V25.5277V25.5748V25.6225V25.6706V25.7193V25.7685V25.8181V25.8683V25.919V25.9702V26.0218V26.074V26.1267V26.1798V26.2335V26.2876V26.3422V26.3973V26.4529V26.509V26.5656V26.6226V26.6801V26.7381V26.7966V26.8555V26.9149V26.9748V27.0351V27.0959V27.1571V27.2189V27.281V27.3437V27.4067V27.4703V27.5343V27.5987V27.6636V27.7109H82.0138C82.0831 28.6903 82.1101 29.6881 82.0942 30.7109H95.6349V30.7695V30.852V30.9348V31.0179V31.1015V31.1854V31.2697V31.3543V31.4393V31.5246V31.6103V31.6964V31.7828V31.8695V31.9566V32.0441V32.1319V32.22V32.3085V32.3973V32.4864V32.5759V32.6657V32.7559V32.8463V32.9371V33.0282V33.1197V33.2115V33.3036V33.396V33.4887V33.5817V33.6751V33.7688V33.8627V33.957V34.0516V34.1465V34.2417V34.3372V34.433V34.5291V34.6255V34.7222V34.8191V34.9164V35.0139V35.1118V35.2099V35.3083V35.407V35.506V35.6052V35.7047V35.8045V35.9046V36.0049V36.1055V36.2064V36.3075V36.4089V36.5106V36.6125V36.7146V36.8171V36.9198V37.0227V37.1259V37.2293V37.333V37.4369V37.5411V37.6455V37.7501V37.855V37.9602V38.0655V38.1711V38.2769V38.383V38.4892V38.5957V38.7025V38.8094V38.9166V39.024V39.1316V39.2394V39.3474V39.4557V39.5641V39.6728V39.7816V39.8907V39.9999V40.1094V40.2191V40.3289V40.439V40.5492V40.6597V40.7703V40.8811V40.9921V41.1033V41.2147V41.3262V41.438V41.5499V41.6619V41.7742V41.8866V41.9992V42.112V42.2249V42.338V42.4513V42.5647V42.6782V42.792V42.9059V43.0199V43.1341V43.2484V43.3629V43.4776V43.5923V43.7073V43.8223V43.9375V44.0529V44.1683V44.2839V44.3997V44.5156V44.6316V44.7477V44.8639V44.9803V45.0968V45.2134V45.3302V45.447V45.564V45.681V45.7982V45.9155V46.0329V46.1504V46.268V46.3857V46.5035V46.6214V46.7394V46.8575V46.9757V47.094V47.2124V47.3308V47.4494V47.568V47.6867V47.8055V47.9244V48.0433V48.1623V48.2814V48.4006V48.5198V48.6391V48.7584V48.8779V48.9974V49.1169V49.2365V49.3562V49.4759V49.5957V49.7155V49.8353V49.9553V50.0752V50.1952V50.3153V50.4354V50.5555V50.6757V50.7959V50.9161V51.0364V51.1567V51.277V51.3973V51.5177V51.6381V51.7585V51.8789V51.9994V52.1199V52.2403V52.3608V52.4813V52.6018V52.7224V52.8429V52.9634V53.0839V53.2045V53.325V53.4455V53.566V53.6865V53.807V53.9275V54.0479V54.1684V54.2888V54.4093V54.5296V54.65V54.7704V54.8907V55.011V55.1313V55.2515V55.3717V55.4919V55.612V55.7321V55.8521V55.9721V56.0921V56.212V56.3319V56.4517V56.5715V56.6912V56.8109V56.9305V57.05V57.1695V57.2889V57.4083V57.5276V57.6468V57.766V57.8851V58.0041V58.123V58.2419V58.3607V58.4794V58.598V58.7166V58.835V58.9534V59.0717V59.1899V59.308V59.426V59.5439V59.6617V59.7794V59.897V60.0146V60.132V60.2493V60.3664V60.4835V60.6005V60.7173V60.8341V60.9507V61.0672V61.1836V61.2998V61.416V61.532V61.6478V61.7636V61.8792V61.9947V62.11V62.2252V62.3403V62.4552V62.57V62.6847V62.7992V62.9135V63.0277V63.1417V63.2556V63.3694V63.483V63.5964V63.7096V63.8227V63.9357V64.0484V64.161V64.2735V64.3857V64.4978V64.6097V64.7215V64.833V64.9444V65.0556V65.1666V65.2774V65.3881V65.4985V65.6088V65.7188V65.8287V65.9384V66.0478V66.1571V66.2662V66.3751V66.4837V66.5922V66.7004V66.8085V66.9163V67.0239V67.1313V67.2385V67.3454V67.4522V67.5587V67.665V67.771V67.8768V67.9824V68.0878V68.1929V68.2978V68.4025V68.5069V68.6111V68.715V68.8187V68.9222V69.0254V69.1283V69.231V69.3334V69.4356V69.5375V69.6392C95.6349 70.4639 94.9671 71.1334 94.1349 71.1334H43.5069C42.3985 71.1334 41.5 70.2349 41.5 69.1266V30.7109H55.9862C55.948 29.6944 55.9443 28.6984 55.9806 27.7109H41.5V23.5763C41.5 22.4679 42.3985 21.5694 43.5069 21.5694H56.7731C56.9943 20.5888 57.2649 19.5926 57.5901 18.5694H43.5069C40.7416 18.5694 38.5 20.8111 38.5 23.5763V29.2109V69.1266ZM80.0306 18.5694H93.6281C96.3933 18.5694 98.6349 20.8111 98.6349 23.5763H97.1349H95.6349C95.6349 22.4679 94.7364 21.5694 93.6281 21.5694H80.9797C80.711 20.5681 80.3945 19.5709 80.0306 18.5694Z" fill="black"/>
</g>
<g clip-path="url(#clip0_22_1188)">
<path d="M68.7392 8.62611C62.7069 14.446 59.0462 24.3022 59.5737 33.3855C55.5626 37.5508 53.258 43.2075 53.258 49.0691C53.2555 49.4081 53.4465 49.7206 53.7488 49.8736C54.0536 50.0267 54.4166 49.9951 54.6886 49.7914L60.2618 45.6147L60.3339 46.891C60.3605 47.3653 60.7526 47.7347 61.2282 47.7347H77.4874C77.7328 47.7347 77.9566 47.6347 78.1198 47.4716C78.2703 47.321 78.3677 47.1174 78.3804 46.8897L78.4525 45.6134L84.0257 49.7901C84.2976 49.9938 84.6594 49.9811 84.9617 49.8306C85.0389 49.7914 85.1085 49.7395 85.1704 49.6776C85.3501 49.4979 85.455 49.2361 85.4563 48.9844C85.4563 43.2037 83.1516 37.5471 79.1406 33.3817C79.6643 24.2845 76.0315 14.4055 69.9751 8.62485C69.6297 8.29724 69.0858 8.29724 68.7392 8.62611ZM73.8292 25.3735C73.8292 26.6056 73.3283 27.7238 72.5175 28.5346C71.7067 29.3454 70.5885 29.8463 69.3565 29.8463C66.8912 29.845 64.885 27.8389 64.8838 25.3735C64.8838 22.907 66.8899 20.9008 69.3565 20.9008C71.8231 20.9008 73.8305 22.9082 73.8292 25.3735Z" fill="#7F4CDE"/>
<path d="M63.8289 56.2956C63.8289 59.0025 68.0853 66.9752 68.5697 67.8746C68.7253 68.1642 69.0289 68.3439 69.3565 68.3451C69.5994 68.3451 69.8245 68.249 69.9902 68.0833C70.051 68.0226 70.1028 67.953 70.1458 67.8746C70.6303 66.9752 74.8867 59.0025 74.8867 56.2956C74.8867 53.2471 72.4062 50.7666 69.3578 50.7666C66.3081 50.7679 63.8301 53.2484 63.8289 56.2956Z" fill="#7F4CDE"/>
</g>
<defs>
<clipPath id="clip0_22_1188">
<rect width="42.9325" height="42.9325" fill="white" transform="translate(39 38.3578) rotate(-45)"/>
</clipPath>
</defs>
</svg>
