<svg width="104" height="104" viewBox="0 0 104 104" fill="none" xmlns="http://www.w3.org/2000/svg">
<rect x="12.9998" y="41" width="37" height="45" rx="5" fill="#7F4CDE"/>
<path d="M9 83C9 82.4477 9.44772 82 10 82H42C44.7614 82 47 84.2386 47 87V89C47 91.7614 44.7614 94 42 94H14C11.2386 94 9 91.7614 9 89V83Z" fill="#7F4CDE"/>
<path d="M17.9999 46.9999C17.9999 44.7908 19.7908 42.9999 21.9999 42.9999H77C79.2091 42.9999 81 44.7908 81 46.9999V82.6649C81 84.3066 82.174 85.7134 83.7892 86.0071C85.3692 86.2944 86.7534 87.7305 86.129 89.21C85.5239 90.6438 84.1131 91.3834 81.3618 91.9305C81.1219 91.9782 80.8769 91.9999 80.6324 91.9999H17.9999C13.7745 91.864 12.079 91.1042 11.7887 89.1895C11.5436 87.5725 13.0604 86.3232 14.6737 86.0543C16.5931 85.7344 17.9999 84.0737 17.9999 82.1278V46.9999Z" fill="white"/>
<path d="M88.3541 84.0625H83.4166V47.625C83.4166 43.9713 80.4641 41 76.8332 41H24.1666C20.5359 41 17.5832 43.9712 17.5832 47.625V84.0625H12.6457C11.7362 84.0625 11 84.8032 11 85.7187V87.375C11 91.0287 13.9525 94 17.5834 94H83.4168C87.0475 94 90 91.0287 90 87.375V85.7187C90 84.8032 89.2638 84.0625 88.3541 84.0625ZM20.875 47.625C20.875 45.799 22.3521 44.3126 24.1666 44.3126H76.8332C78.6478 44.3126 80.1248 45.799 80.1248 47.625V84.0625H58.7291H42.2709H20.875V47.625ZM83.4166 90.6874H17.5834C15.7689 90.6874 14.2918 89.201 14.2918 87.375H19.2293H41.5894L42.7531 88.546C43.0617 88.8566 43.4795 89.0313 43.9168 89.0313H57.0834C57.5205 89.0313 57.9385 88.8566 58.2471 88.546L59.4106 87.375H81.7709H86.7084C86.7084 89.201 85.2313 90.6874 83.4166 90.6874Z" fill="black"/>
<path d="M90 84H33.5407C29.3762 84 26 79.8165 26 74.6561V34.3439C26 29.1835 26 25 26 25H90V84Z" fill="white"/>
<path d="M30 39.4054H49.3054H86.0502" stroke="black" stroke-width="3" stroke-miterlimit="10" stroke-linecap="round" stroke-linejoin="round"/>
<path d="M40.2754 34.1692C41.8868 34.1692 43.2017 32.8585 43.2017 31.2479C43.2017 29.6374 41.8868 28.3267 40.2754 28.3267C38.6675 28.3267 37.3525 29.6374 37.3525 31.2479C37.3525 32.8585 38.6675 34.1692 40.2754 34.1692Z" stroke="black" stroke-width="3" stroke-miterlimit="10" stroke-linecap="round" stroke-linejoin="round"/>
<path d="M65.6776 28.3267H76.6854C78.2932 28.3267 79.6082 29.6409 79.6082 31.2479C79.6082 32.855 78.2932 34.1692 76.6854 34.1692H65.6776C64.0698 34.1692 62.7548 32.855 62.7548 31.2479C62.7548 29.6409 64.0698 28.3267 65.6776 28.3267Z" stroke="black" stroke-width="3" stroke-miterlimit="10" stroke-linecap="round" stroke-linejoin="round"/>
<path d="M51.0668 34.1692C52.6782 34.1692 53.9931 32.8585 53.9931 31.2479C53.9931 29.6374 52.6782 28.3267 51.0668 28.3267C49.4589 28.3267 48.1439 29.6374 48.1439 31.2479C48.1439 32.8585 49.4589 34.1692 51.0668 34.1692Z" stroke="black" stroke-width="3" stroke-miterlimit="10" stroke-linecap="round" stroke-linejoin="round"/>
<path d="M75.9249 59.6383C79.4267 59.6383 82.2658 62.476 82.2658 65.9794C82.2658 69.4794 79.4267 72.317 75.9249 72.317C72.4196 72.317 69.5803 69.4794 69.5803 65.9794C69.5803 62.476 72.4196 59.6383 75.9249 59.6383Z" fill="white"/>
<path d="M49 78.6392H34.583C32.065 78.6392 30 76.1747 30 73.1662V28.473C30 25.4611 32.0613 23 34.583 23H39.8916H81.4672C83.9889 23 86.0502 25.4646 86.0502 28.473V48" stroke="black" stroke-width="3" stroke-miterlimit="10" stroke-linecap="round" stroke-linejoin="round"/>
<path d="M84.722 73.2683C84.722 76.0297 82.4834 78.2683 79.722 78.2683H57C54.2386 78.2683 52.0001 76.0297 52 73.2683L52 56C52 53.2386 54.2386 51 57 51L79.722 51C82.4834 51 84.722 53.2386 84.722 56V73.2683Z" fill="#7F4CDE"/>
<path d="M60.1224 75.2384L67.0118 64.2068L70.3167 68.4214L66.057 75.2384H60.1224ZM80.2599 75.2384H69.5836L77.4235 62.6904L81.7472 68.1955V73.7234C81.7472 74.5603 81.0814 75.2384 80.2599 75.2384Z" fill="white"/>
<path d="M59.4987 60.5439C60.6282 60.5439 61.5439 59.6283 61.5439 58.4988C61.5439 57.3693 60.6282 56.4537 59.4987 56.4537C58.3692 56.4537 57.4536 57.3693 57.4536 58.4988C57.4536 59.6283 58.3692 60.5439 59.4987 60.5439Z" fill="white"/>
</svg>
