<svg width="104" height="104" viewBox="0 0 104 104" fill="none" xmlns="http://www.w3.org/2000/svg">
<rect x="6" y="26.1457" width="88" height="64" rx="5" transform="rotate(-0.181066 6 26.1457)" fill="#7F4CDE"/>
<rect x="13.5047" y="27.6221" width="83" height="61" rx="3.5" transform="rotate(-0.181066 13.5047 27.6221)" fill="white" stroke="black" stroke-width="3"/>
<rect x="24.892" y="20.3989" width="76.423" height="64.2396" rx="5" transform="rotate(-0.181066 24.892 20.3989)" fill="white"/>
<g clip-path="url(#clip0_39_1737)">
<path d="M95.5625 61.25V58.2918C96.3794 58.2918 97.0418 57.6294 97.0418 56.8125V12.4375C97.0418 11.6206 96.3794 10.9582 95.5625 10.9582H51.1875C50.3706 10.9582 49.7082 11.6206 49.7082 12.4375V56.8125C49.7082 57.6294 50.3706 58.2918 51.1875 58.2918H80.7707V61.25H51.1875C48.7369 61.25 46.75 59.2631 46.75 56.8125V12.4375C46.75 9.98691 48.7369 8 51.1875 8H95.5625C98.0131 8 100 9.98691 100 12.4375V56.8125C100 59.2631 98.0131 61.25 95.5625 61.25Z" fill="black"/>
<path d="M48.2294 16.875H98.5207V19.8332H48.2294V16.875Z" fill="black"/>
<path d="M65.9794 37.5831H54.1457C53.3288 37.5831 52.6669 36.9212 52.6669 36.1043V24.2706C52.6669 23.4538 53.3288 22.7918 54.1457 22.7918H65.9794C66.7962 22.7918 67.4582 23.4538 67.4582 24.2706V36.1043C67.4582 36.9212 66.7962 37.5831 65.9794 37.5831ZM55.625 34.625H64.5V25.75H55.625V34.625Z" fill="black"/>
<path d="M65.9794 55.3331H54.1457C53.3288 55.3331 52.6669 54.6712 52.6669 53.8543V42.0206C52.6669 41.2038 53.3288 40.5418 54.1457 40.5418H65.9794C66.7962 40.5418 67.4582 41.2038 67.4582 42.0206V53.8543C67.4582 54.6712 66.7962 55.3331 65.9794 55.3331ZM55.625 52.375H64.5V43.5H55.625V52.375Z" fill="black"/>
<path d="M92.6044 37.5831H71.8957C71.0788 37.5831 70.4169 36.9212 70.4169 36.1043V24.2706C70.4169 23.4538 71.0788 22.7918 71.8957 22.7918H92.6044C93.4212 22.7918 94.0832 23.4538 94.0832 24.2706V36.1043C94.0832 36.9212 93.4212 37.5831 92.6044 37.5831ZM73.375 34.625H91.125V25.75H73.375V34.625Z" fill="black"/>
<path d="M70.4169 40.5418H94.0832V43.5H70.4169V40.5418Z" fill="black"/>
<path d="M91.125 79H85.2082C84.3913 79 83.7294 78.3375 83.7294 77.5206V50.8956C83.7294 50.0788 84.3913 49.4168 85.2082 49.4168H91.125C91.9419 49.4168 92.6044 50.0788 92.6044 50.8956V77.5206C92.6044 78.3375 91.9419 79 91.125 79Z" fill="#7F4CDE"/>
<path d="M90.079 51.9417L88.1669 50.029L86.2542 51.9417L84.1627 49.8502L87.1209 46.8915C87.6983 46.3141 88.6349 46.3141 89.2123 46.8915L92.171 49.8502L90.079 51.9417Z" fill="#7F4CDE"/>
<path d="M70.4169 46.4582H80.7707V49.4169H70.4169V46.4582Z" fill="black"/>
<path d="M70.4169 52.375H80.7707V55.3332H70.4169V52.375Z" fill="black"/>
<path d="M80.7707 79H42.3125C41.9203 79 41.5438 78.844 41.2665 78.5667L29.4333 66.7335C29.156 66.4562 29 66.0797 29 65.6875V12.4375C29 9.98691 30.9869 8 33.4375 8H43.7918V10.9582H33.4375C32.6206 10.9582 31.9582 11.6206 31.9582 12.4375V65.0754L42.9246 76.0418H80.7707V79Z" fill="black"/>
<path d="M43.7919 77.5206H40.8332V68.6456C40.8332 67.8288 40.1712 67.1668 39.3544 67.1668H30.4794V64.2081H39.3544C41.805 64.2081 43.7919 66.1951 43.7919 68.6456V77.5206Z" fill="black"/>
</g>
<path d="M26.5472 60.0187C26.4832 57.4847 24.3691 55.4747 21.8351 55.5387C19.301 55.6027 17.291 57.7168 17.355 60.2508C17.419 62.7849 19.5332 64.7949 22.0672 64.7309C24.6012 64.6669 26.6112 62.5527 26.5472 60.0187ZM19.9813 60.1845C19.9538 59.0983 20.8151 58.1925 21.9012 58.1651C22.9874 58.1376 23.8933 58.9989 23.9207 60.085C23.9481 61.1711 23.0868 62.0771 22.0007 62.1045C20.9146 62.1319 20.0087 61.2708 19.9813 60.1845Z" fill="black"/>
<defs>
<clipPath id="clip0_39_1737">
<rect width="71" height="71" fill="white" transform="translate(29 8)"/>
</clipPath>
</defs>
</svg>
