<svg width="104" height="104" viewBox="0 0 104 104" fill="none" xmlns="http://www.w3.org/2000/svg">
<rect x="5" y="10.3045" width="37" height="85" rx="5" transform="rotate(-9.76289 5 10.3045)" fill="#7F4CDE"/>
<rect x="12.2378" y="11.0885" width="48" height="82" rx="4" transform="rotate(-9.76289 12.2378 11.0885)" fill="white"/>
<path fill-rule="evenodd" clip-rule="evenodd" d="M15.9127 8.49019L54.6082 1.83212C56.1926 1.56125 57.8197 1.92995 59.1325 2.85733C60.079 3.52589 60.8063 4.44542 61.2414 5.5L58.0197 5.5C57.8857 5.5 57.7534 5.50655 57.623 5.51931C57.547 5.45328 57.4673 5.39079 57.3843 5.33216C56.7279 4.86848 55.9144 4.68411 55.1222 4.81947L47.3062 6.16432L46.7482 9.82273C46.7004 10.1371 46.5549 10.4285 46.3322 10.6555C46.1095 10.8826 45.821 11.0337 45.5075 11.0875L27.5834 14.1716C27.27 14.2256 26.9476 14.1796 26.6618 14.0401C26.376 13.9006 26.1415 13.6746 25.9914 13.3942L24.2427 10.1327L16.4267 11.4775C15.6348 11.6147 14.9297 12.0604 14.466 12.7168C14.0024 13.3732 13.818 14.1867 13.9534 14.9789L26.2897 86.6753C26.4269 87.4672 26.8725 88.1723 27.5289 88.636C28.1853 89.0997 28.9989 89.2841 29.791 89.1487L68.4866 82.4906C69.2784 82.3534 69.9835 81.9077 70.4472 81.2513C70.9088 80.5979 71.0936 79.7888 70.9617 79L73.7623 79C73.8466 79 73.9301 78.9974 74.013 78.9923C74.1315 80.4092 73.7487 81.8292 72.922 82.9995C71.9947 84.3124 70.5844 85.2037 69.0006 85.478L30.305 92.136C28.7207 92.4069 27.0936 92.0382 25.7807 91.1108C24.4679 90.1834 23.5766 88.7731 23.3023 87.1893L10.966 15.4929C10.6951 13.9086 11.0638 12.2814 11.9912 10.9686C12.9186 9.65577 14.3289 8.76444 15.9127 8.49019Z" fill="black"/>
<mask id="mask0_102_3" style="mask-type:luminance" maskUnits="userSpaceOnUse" x="30" y="8" width="71" height="71">
<path d="M30 8.00001H101V79H30V8.00001Z" fill="white"/>
</mask>
<g mask="url(#mask0_102_3)">
<path d="M45.8313 54.2173V60.1135C45.8313 60.9664 46.5269 61.6623 47.3797 61.6623H49.0029C49.4314 63.5764 50.1859 65.365 51.2039 66.9726L50.0562 68.1205C49.4511 68.7219 49.4511 69.7085 50.0562 70.3138L53.1257 73.3877C53.731 73.9891 54.7174 73.9891 55.3188 73.3877L56.4703 72.2399C58.0738 73.254 59.8621 74.0088 61.7761 74.4373V76.0607C61.7761 76.9136 62.4718 77.6133 63.3285 77.6133H67.6714C68.5243 77.6133 69.2237 76.9136 69.2237 76.0607V74.4373C71.1339 74.0088 72.9221 73.254 74.5296 72.2399L75.6772 73.3877C76.2785 73.9891 77.2689 73.9891 77.8703 73.3877L80.9437 70.3138C81.545 69.7085 81.545 68.7219 80.9437 68.1205L79.7961 66.9726C80.81 65.365 81.5647 63.5764 81.9971 61.6623H83.6163C84.4692 61.6623 85.1686 60.9664 85.1686 60.1135V54.2173" fill="#7F4CDE"/>
<path d="M75.4926 54.2173C75.9249 55.3769 76.1647 56.6307 76.1647 57.9398C76.1647 63.832 71.3894 68.6039 65.4981 68.6039C59.6108 68.6039 54.8354 63.832 54.8354 57.9398C54.8354 56.6307 55.0712 55.3769 55.5036 54.2173" fill="white"/>
<path d="M80.1456 29.0608V42.7399" stroke="black" stroke-width="3" stroke-miterlimit="10" stroke-linecap="round" stroke-linejoin="round"/>
<path d="M59.2727 54.2173H42.3217C36.8941 54.2173 32.4961 49.8149 32.4961 44.3903C32.4961 40.4988 34.756 37.138 38.0338 35.5459C37.5268 34.2057 37.2478 32.7552 37.2478 31.238C37.2478 24.5281 42.6871 19.088 49.3959 19.088C50.2566 19.088 51.0978 19.1743 51.9034 19.3473C53.7272 13.573 59.1233 9.38675 65.4981 9.38675C71.8728 9.38675 77.2689 13.573 79.0926 19.3473C79.9023 19.1743 80.7395 19.088 81.6001 19.088C88.309 19.088 93.7523 24.5281 93.7523 31.238C93.7523 32.7552 93.4733 34.2057 92.9663 35.5459C96.244 37.138 98.5039 40.4988 98.5039 44.3903C98.5039 49.8149 94.102 54.2173 88.6784 54.2173H71.7235" stroke="black" stroke-width="3" stroke-miterlimit="10" stroke-linecap="round" stroke-linejoin="round"/>
<path d="M65.2227 29.0608V42.9915" stroke="black" stroke-width="3" stroke-miterlimit="10" stroke-linecap="round" stroke-linejoin="round"/>
<path d="M73.1106 32.9915C73.1106 35.1654 71.2712 36.9223 69.1019 36.9223C68.0249 36.9223 65.2501 36.9419 65.2501 36.9419C65.2501 36.9419 65.2344 34.0882 65.2344 32.9915C65.2344 32.0914 65.2227 29.0608 65.2227 29.0608H69.1019C71.2712 29.0608 73.1106 30.8219 73.1106 32.9915Z" stroke="black" stroke-width="3" stroke-miterlimit="10" stroke-linecap="round" stroke-linejoin="round"/>
<path d="M47.1909 42.9915L52.422 29.2573C52.5281 28.9939 52.8975 28.9939 53.0038 29.2573L58.1877 42.9915" stroke="black" stroke-width="3" stroke-miterlimit="10" stroke-linecap="round" stroke-linejoin="round"/>
<path d="M48.8219 39.5717H56.5842" stroke="black" stroke-width="3" stroke-miterlimit="10" stroke-linecap="round" stroke-linejoin="round"/>
<path d="M65.5054 54.2173H65.4979" stroke="black" stroke-width="3" stroke-miterlimit="10" stroke-linecap="round" stroke-linejoin="round"/>
</g>
</svg>
