<svg width="104" height="104" viewBox="0 0 104 104" fill="none" xmlns="http://www.w3.org/2000/svg">
<rect x="12.9998" y="41" width="37" height="45" rx="5" fill="#7F4CDE"/>
<path d="M9 83C9 82.4477 9.44772 82 10 82H42C44.7614 82 47 84.2386 47 87V89C47 91.7614 44.7614 94 42 94H14C11.2386 94 9 91.7614 9 89V83Z" fill="#7F4CDE"/>
<path d="M17.9999 46.9999C17.9999 44.7908 19.7908 42.9999 21.9999 42.9999H77C79.2091 42.9999 81 44.7908 81 46.9999V82.6649C81 84.3066 82.174 85.7134 83.7892 86.0071C85.3692 86.2944 86.7534 87.7305 86.129 89.21C85.5239 90.6438 84.1131 91.3834 81.3618 91.9305C81.1219 91.9782 80.8769 91.9999 80.6324 91.9999H17.9999C13.7745 91.864 12.079 91.1042 11.7887 89.1895C11.5436 87.5725 13.0604 86.3232 14.6737 86.0543C16.5931 85.7344 17.9999 84.0737 17.9999 82.1278V46.9999Z" fill="white"/>
<path d="M88.3541 84.0625H83.4166V47.625C83.4166 43.9713 80.4641 41 76.8332 41H24.1666C20.5359 41 17.5832 43.9712 17.5832 47.625V84.0625H12.6457C11.7362 84.0625 11 84.8032 11 85.7187V87.375C11 91.0287 13.9525 94 17.5834 94H83.4168C87.0475 94 90 91.0287 90 87.375V85.7187C90 84.8032 89.2638 84.0625 88.3541 84.0625ZM20.875 47.625C20.875 45.799 22.3521 44.3126 24.1666 44.3126H76.8332C78.6478 44.3126 80.1248 45.799 80.1248 47.625V84.0625H58.7291H42.2709H20.875V47.625ZM83.4166 90.6874H17.5834C15.7689 90.6874 14.2918 89.201 14.2918 87.375H19.2293H41.5894L42.7531 88.546C43.0617 88.8566 43.4795 89.0313 43.9168 89.0313H57.0834C57.5205 89.0313 57.9385 88.8566 58.2471 88.546L59.4106 87.375H81.7709H86.7084C86.7084 89.201 85.2313 90.6874 83.4166 90.6874Z" fill="black"/>
<path d="M89 81H34.3051C30.2707 81 27 77.0292 27 72.1312V33.8688C27 28.9708 27 25 27 25H89V81Z" fill="white"/>
<path d="M55.4858 70H31.5142C29.5734 70 28 68.3691 28 66.3574V50.6426C28 48.6309 29.5734 47 31.5142 47H55.4858C57.4266 47 59 48.6309 59 50.6426V66.3573C59 68.369 57.4266 70 55.4858 70Z" fill="white"/>
<path d="M75.9249 59.6383C79.4267 59.6383 82.2658 62.476 82.2658 65.9794C82.2658 69.4795 79.4267 72.3171 75.9249 72.3171C72.4196 72.3171 69.5803 69.4795 69.5803 65.9794C69.5803 62.476 72.4196 59.6383 75.9249 59.6383Z" fill="white"/>
<mask id="mask0_51_66" style="mask-type:luminance" maskUnits="userSpaceOnUse" x="19" y="0" width="73" height="78">
<path d="M19 0H92V78H19V0Z" fill="white"/>
</mask>
<g mask="url(#mask0_51_66)">
<path fill-rule="evenodd" clip-rule="evenodd" d="M35.4986 77.5C33.9353 77.5 32.6504 76.627 31.8122 75.4762C30.973 74.324 30.5 72.806 30.5 71.1965V13.2246C30.5 13.2201 30.4999 13.2155 30.4999 13.2109C30.4999 13.2064 30.5 13.2018 30.5 13.1973V8.80354C30.5 7.19399 30.973 5.67603 31.8122 4.52383C32.6504 3.37299 33.9353 2.5 35.4986 2.5H85.5014C87.0647 2.5 88.3496 3.37299 89.1878 4.52383C90.027 5.67603 90.5 7.19399 90.5 8.80354H89C90.5 8.80354 90.5 8.8037 90.5 8.80401V8.8054V8.80772V8.81095V8.81511V8.82018V8.82617V8.83307V8.84087V8.84959V8.85921V8.86973V8.88115V8.89346V8.90667V8.92077V8.93575V8.95162V8.96838V8.98602V9.00453V9.02392V9.04418V9.06532V9.08732V9.11018V9.13391V9.1585V9.18394V9.21024V9.2374V9.2654V9.29425V9.32394V9.35448V9.38586V9.41807V9.45111V9.48499V9.5197V9.55523V9.59159V9.62877V9.66677V9.70558V9.74521V9.78564V9.8269V9.86895V9.9118V9.95546V9.99992V10.0452V10.0912V10.138V10.1857V10.2341V10.2833V10.3332V10.384V10.4355V10.4878V10.5409V10.5947V10.6493V10.7047V10.7608V10.8176V10.8753V10.9337V10.9928V11.0527V11.1133V11.1746V11.2367V11.2996V11.3632V11.4275V11.4925V11.5583V11.6247V11.6919V11.7599V11.8285V11.8978V11.9679V12.0387V12.1101V12.1823V12.2552V12.3288V12.403V12.478V12.5536V12.5885C90.5866 12.7781 90.6348 12.9889 90.6348 13.2109C90.6348 13.433 90.5866 13.6438 90.5 13.8334V13.8558V13.9428V14.0304V14.1187V14.2076V14.2971V14.3873V14.4781V14.5696V14.6616V14.7543V14.8476V14.9416V15.0361V15.1312V15.227V15.3234V15.4204V15.5179V15.6161V15.7149V15.8142V15.9142V16.0148V16.1159V16.2176V16.3199V16.4228V16.5263V16.6303V16.7349V16.8401V16.9458V17.0521V17.159V17.2664V17.3744V17.4829V17.592V17.7016V17.8118V17.9225V18.0338V18.1456V18.2579V18.3708V18.4842V18.5981V18.7126V18.8275V18.943V19.059V19.1756V19.2926V19.4102V19.5282V19.6468V19.7658V19.8854V20.0054V20.126V20.247V20.3686V20.4906V20.6131V20.7361V20.8595V20.9835V21.1079V21.2328V21.3581V21.4839V21.6102V21.7369V21.8641V21.9918V22.1199V22.2485V22.3775V22.5069V22.6368V22.7671V22.8979V23.0291V23.1607V23.2928V23.4253V23.5582V23.6916V23.8253V23.9595V24.0941V24.2291V24.3645V24.5003V24.6366V24.7732V24.9102V25.0476V25.1854V25.3236V25.4622V25.6012V25.7406V25.8803V26.0204V26.1609V26.3018V26.443V26.5847V26.7266V26.869V27.0117V27.1547V27.2981V27.4419V27.586V27.7305V27.8753V28.0204V28.1659V28.3117V28.4579V28.6044V28.7512V28.8983V29.0458V29.1936V29.3417V29.4901V29.6389V29.7879V29.9373V30.0869V30.2369V30.3872V30.5377V30.6886V30.8398V30.9912V31.143V31.295V31.4473V31.5999V31.7527V31.9059V32.0593V32.213V32.3669V32.5211V32.6756V32.8303V32.9853V33.1406V33.2961V33.4518V33.6078V33.7641V33.9205V34.0773V34.2342V34.3914V34.5488V34.7065V34.8644V35.0225V35.1808V35.3393V35.4981V35.657V35.8162V35.9756V36.1352V36.295V36.455V36.6152V36.7756V36.9362V37.097V37.2579V37.4191V37.5804V37.7419V37.9036V38.0654V38.2275V38.3897V38.5521V38.7146V38.8773V39.0401V39.2031V39.3663V39.5296V39.6931V39.8567V40.0205V40.1844V40.3484V40.5126V40.6769V40.8413V41.0059V41.1706V41.3354V41.5003V41.6654V41.8305V41.9958V42.1612V42.3267V42.4923V42.658V42.8238V42.9897V43.1557V43.3218V43.488V43.6543V43.8206V43.9871V44.1536V44.3202V44.4868V44.6536V44.8204V44.9873V45.1542V45.3212V45.4883V45.6554V45.8225V45.9897V46.157V46.3243V46.4917V46.6591V46.8265V46.994V47.1615V47.329V47.4966V47.6642V47.8318V47.9994V48.1671V48.3347V48.5024V48.6701V48.8378V49.0055V49.1732V49.3409V49.5086V49.6762V49.8439V50.0116V50.1793V50.3469V50.5145V50.6821V50.8497V51.0172V51.1848V51.3523V51.5197V51.6871V51.8545V52.0219V52.1892V52.3564V52.5236V52.6908V52.8578V53.0249V53.1919V53.3588V53.5256V53.6924V53.8591V54.0258V54.1923V54.3588V54.5252V54.6915V54.8578V55.0239V55.19V55.3559V55.5218V55.6876V55.8533V56.0188V56.1843V56.3496V56.5149V56.68V56.845V57.0099V57.1747V57.3393V57.5038V57.6682V57.8325V57.9966V58.1606V58.3244V58.4881V58.6517V58.8151V58.9784V59.1415V59.3044V59.4672V59.6299V59.7924V59.9547V60.1168V60.2788V60.4406V60.6022V60.7636V60.9249V61.086V61.2469V61.4076V61.5681V61.7284V61.8885V62.0485V62.2082V62.3677V62.527V62.6861V62.845V63.0037V63.1622V63.3204V63.4784V63.6362V63.7938V63.9511V64.1082V64.2651V64.4217V64.5781V64.7343V64.8902V65.0458V65.2013V65.3564V65.5113V65.666V65.8203V65.9745V66.1283V66.2819V66.4352V66.5882V66.741V66.8935V67.0457V67.1976V67.3492V67.5006V67.6516V67.8024V67.9528V68.103V68.2529V68.4024V68.5517V68.7006V68.8492V68.9976V69.1455V69.2932V69.4406V69.5876V69.7343V69.8807V70.0267V70.1724V70.3178V70.4628V70.6075V70.7518V70.8958V71.0394V71.1827V71.3256V71.4682V71.6104V71.7522V71.8937V72.0348V72.1756V72.3159V72.4559V72.5955V72.7347V72.8736V73.012C90.5 75.5051 88.4774 77.5 86 77.5H35.4986ZM87.5 14.7109V14.7543V14.8476V14.9416V15.0361V15.1312V15.227V15.3234V15.4204V15.5179V15.6161V15.7149V15.8142V15.9142V16.0148V16.1159V16.2176V16.3199V16.4228V16.5263V16.6303V16.7349V16.8401V16.9458V17.0521V17.159V17.2664V17.3744V17.4829V17.592V17.7016V17.8118V17.9225V18.0338V18.1456V18.2579V18.3708V18.4842V18.5981V18.7126V18.8275V18.943V19.059V19.1756V19.2926V19.4102V19.5282V19.6468V19.7658V19.8854V20.0054V20.126V20.247V20.3686V20.4906V20.6131V20.7361V20.8595V20.9835V21.1079V21.2328V21.3581V21.4839V21.6102V21.7369V21.8641V21.9918V22.1199V22.2485V22.3775V22.5069V22.6368V22.7671V22.8979V23.0291V23.1607V23.2928V23.4253V23.5582V23.6916V23.8253V23.9595V24.0941V24.2291V24.3645V24.5003V24.6366V24.7732V24.9102V25.0476V25.1854V25.3236V25.4622V25.6012V25.7406V25.8803V26.0204V26.1609V26.3018V26.443V26.5847V26.7266V26.869V27.0117V27.1547V27.2981V27.4419V27.586V27.7305V27.8753V28.0204V28.1659V28.3117V28.4579V28.6044V28.7512V28.8983V29.0458V29.1936V29.3417V29.4901V29.6389V29.7879V29.9373V30.0869V30.2369V30.3872V30.5377V30.6886V30.8398V30.9912V31.143V31.295V31.4473V31.5999V31.7527V31.9059V32.0593V32.213V32.3669V32.5211V32.6756V32.8303V32.9853V33.1406V33.2961V33.4518V33.6078V33.7641V33.9205V34.0773V34.2342V34.3914V34.5488V34.7065V34.8644V35.0225V35.1808V35.3393V35.4981V35.657V35.8162V35.9756V36.1352V36.295V36.455V36.6152V36.7756V36.9362V37.097V37.2579V37.4191V37.5804V37.7419V37.9036V38.0654V38.2275V38.3897V38.5521V38.7146V38.8773V39.0401V39.2031V39.3663V39.5296V39.6931V39.8567V40.0205V40.1844V40.3484V40.5126V40.6769V40.8413V41.0059V41.1706V41.3354V41.5003V41.6654V41.8305V41.9958V42.1612V42.3267V42.4923V42.658V42.8238V42.9897V43.1557V43.3218V43.488V43.6543V43.8206V43.9871V44.1536V44.3202V44.4868V44.6536V44.8204V44.9873V45.1542V45.3212V45.4883V45.6554V45.8225V45.9897V46.157V46.3243V46.4917V46.6591V46.8265V46.994V47.1615V47.329V47.4966V47.6642V47.8318V47.9994V48.1671V48.3347V48.5024V48.6701V48.8378V49.0055V49.1732V49.3409V49.5086V49.6762V49.8439V50.0116V50.1793V50.3469V50.5145V50.6821V50.8497V51.0172V51.1848V51.3523V51.5197V51.6871V51.8545V52.0219V52.1892V52.3564V52.5236V52.6908V52.8578V53.0249V53.1919V53.3588V53.5256V53.6924V53.8591V54.0258V54.1923V54.3588V54.5252V54.6915V54.8578V55.0239V55.19V55.3559V55.5218V55.6876V55.8533V56.0188V56.1843V56.3496V56.5149V56.68V56.845V57.0099V57.1747V57.3393V57.5038V57.6682V57.8325V57.9966V58.1606V58.3244V58.4881V58.6517V58.8151V58.9784V59.1415V59.3044V59.4672V59.6299V59.7924V59.9547V60.1168V60.2788V60.4406V60.6022V60.7636V60.9249V61.086V61.2469V61.4076V61.5681V61.7284V61.8885V62.0485V62.2082V62.3677V62.527V62.6861V62.845V63.0037V63.1622V63.3204V63.4784V63.6362V63.7938V63.9511V64.1082V64.2651V64.4217V64.5781V64.7343V64.8902V65.0458V65.2013V65.3564V65.5113V65.666V65.8203V65.9745V66.1283V66.2819V66.4352V66.5882V66.741V66.8935V67.0457V67.1976V67.3492V67.5006V67.6516V67.8024V67.9528V68.103V68.2529V68.4024V68.5517V68.7006V68.8492V68.9976V69.1455V69.2932V69.4406V69.5876V69.7343V69.8807V70.0267V70.1724V70.3178V70.4628V70.6075V70.7518V70.8958V71.0394V71.1827V71.3256V71.4682V71.6104V71.7522V71.8937V72.0348V72.1756V72.3159V72.4559V72.5955V72.7347V72.8736V73.012C87.5 73.8326 86.8363 74.5 86 74.5H35.4986C35.1296 74.5 34.6652 74.2977 34.2372 73.71C33.8101 73.1236 33.5 72.2398 33.5 71.1965V14.7109H87.5ZM87.5 11.7109V11.6919V11.6247V11.5583V11.4925V11.4275V11.3632V11.2996V11.2367V11.1746V11.1133V11.0527V10.9928V10.9337V10.8753V10.8176V10.7608V10.7047V10.6493V10.5947V10.5409V10.4878V10.4355V10.384V10.3332V10.2833V10.2341V10.1857V10.138V10.0912V10.0452V9.99992V9.95546V9.9118V9.86895V9.8269V9.78564V9.74521V9.70558V9.66677V9.62877V9.59159V9.55523V9.5197V9.48499V9.45111V9.41807V9.38586V9.35448V9.32394V9.29425V9.2654V9.2374V9.21024V9.18394V9.1585V9.13391V9.11018V9.08732V9.06532V9.04418V9.02392V9.00453V8.98602V8.96838V8.95162V8.93575V8.92077V8.90667V8.89346V8.88115V8.86973V8.85921V8.84959V8.84087V8.83307V8.82617V8.82018V8.81511V8.81095V8.80772V8.8054V8.80401C87.5 8.8037 87.5 8.80354 89 8.80354H87.5C87.5 7.76017 87.1898 6.87637 86.7628 6.29002C86.3348 5.70232 85.8704 5.5 85.5014 5.5H35.4986C35.1296 5.5 34.6652 5.70232 34.2372 6.29002C33.8101 6.87637 33.5 7.76017 33.5 8.80354V11.7109H87.5Z" fill="black"/>
<path d="M36.4999 10C37.3284 10 37.9999 9.32843 37.9999 8.5C37.9999 7.67157 37.3284 7 36.4999 7C35.6715 7 34.9999 7.67157 34.9999 8.5C34.9999 9.32843 35.6715 10 36.4999 10Z" fill="black"/>
<path d="M40.4999 10C41.3284 10 41.9999 9.32843 41.9999 8.5C41.9999 7.67157 41.3284 7 40.4999 7C39.6715 7 38.9999 7.67157 38.9999 8.5C38.9999 9.32843 39.6715 10 40.4999 10Z" fill="black"/>
<path d="M45.4999 10C46.3284 10 46.9999 9.32843 46.9999 8.5C46.9999 7.67157 46.3284 7 45.4999 7C44.6715 7 43.9999 7.67157 43.9999 8.5C43.9999 9.32843 44.6715 10 45.4999 10Z" fill="black"/>
<path d="M59.9999 37C59.9999 38.1046 59.1045 39 57.9999 39H38C36.8954 39 36 38.1046 36 37L35.9999 21C35.9999 19.8954 36.8954 19 37.9999 19L57.9999 19C59.1045 19 59.9999 19.8954 59.9999 21V37Z" fill="#7F4CDE"/>
<path d="M41.9573 36.7777L47.0104 28.6866L49.4344 31.7777L46.3101 36.7777H41.9573ZM56.7272 36.7777H48.8967L54.6468 27.5743L57.8181 31.6121V35.6665C57.8181 36.2803 57.3297 36.7777 56.7272 36.7777Z" fill="white"/>
<path d="M41.4999 26C42.3284 26 42.9999 25.3284 42.9999 24.5C42.9999 23.6716 42.3284 23 41.4999 23C40.6715 23 39.9999 23.6716 39.9999 24.5C39.9999 25.3284 40.6715 26 41.4999 26Z" fill="white"/>
<path fill-rule="evenodd" clip-rule="evenodd" d="M83.8947 20H65.1052C64.4947 20 63.9999 20.4478 63.9999 21C63.9999 21.5523 64.4948 22 65.1052 22H83.8947C84.5052 22 84.9999 21.5522 84.9999 21C84.9999 20.4478 84.5052 20 83.8947 20Z" fill="black"/>
<path fill-rule="evenodd" clip-rule="evenodd" d="M83.8947 24H65.1052C64.4947 24 63.9999 24.4478 63.9999 25C63.9999 25.5522 64.4948 26 65.1052 26H83.8947C84.5052 26 84.9999 25.5523 84.9999 25C84.9999 24.4477 84.5052 24 83.8947 24Z" fill="black"/>
<path fill-rule="evenodd" clip-rule="evenodd" d="M83.8947 29H65.1052C64.4947 29 63.9999 29.4477 63.9999 30C63.9999 30.5523 64.4948 31 65.1052 31H83.8947C84.5052 31 84.9999 30.5522 84.9999 30C84.9999 29.4478 84.5052 29 83.8947 29Z" fill="black"/>
<path fill-rule="evenodd" clip-rule="evenodd" d="M74.9091 33H65.0908C64.4883 33 63.9999 33.4478 63.9999 34C63.9999 34.5523 64.4884 35 65.0908 35H74.9091C75.5116 35 75.9999 34.5523 75.9999 34C76.0001 33.4478 75.5116 33 74.9091 33Z" fill="black"/>
<path fill-rule="evenodd" clip-rule="evenodd" d="M62.88 43H37.1199C36.5013 43 35.9999 43.4478 35.9999 44C35.9999 44.5522 36.5014 45 37.1199 45H62.88C63.4986 45 63.9999 44.5523 63.9999 44C63.9999 43.4477 63.4986 43 62.88 43Z" fill="black"/>
<path fill-rule="evenodd" clip-rule="evenodd" d="M58.9091 47H37.0908C36.4883 47 35.9999 47.4477 35.9999 48C35.9999 48.5523 36.4884 49 37.0908 49H58.9091C59.5116 49 59.9999 48.5523 59.9999 48C59.9999 47.4477 59.5115 47 58.9091 47Z" fill="black"/>
<path d="M36 68.3751C36 69.8226 37.1565 71 38.577 71H81.423C82.844 71 84 69.8226 84 68.3751V54.6249C84 53.1774 82.844 52 81.423 52H38.577C37.1565 52 36 53.1774 36 54.6249V68.3751ZM48.029 68.998L57.3054 59.5535L64.5944 67.9206C64.9541 68.334 65.5753 68.372 65.9816 68.0046C66.3874 67.6381 66.4243 67.0054 66.064 66.5915L65.1767 65.5731L68.8795 61.8031L75.1476 68.998H48.029Z" fill="#7F4CDE"/>
</g>
</svg>
