<svg width="104" height="104" viewBox="0 0 104 104" fill="none" xmlns="http://www.w3.org/2000/svg">
<rect x="12.9998" y="41" width="37" height="45" rx="5" fill="#7F4CDE"/>
<path d="M9 83C9 82.4477 9.44772 82 10 82H42C44.7614 82 47 84.2386 47 87V89C47 91.7614 44.7614 94 42 94H14C11.2386 94 9 91.7614 9 89V83Z" fill="#7F4CDE"/>
<path d="M17.9999 47C17.9999 44.7909 19.7908 43 21.9999 43H77C79.2091 43 81 44.7909 81 47V82.665C81 84.3067 82.174 85.7135 83.7892 86.0071C85.3692 86.2944 86.7534 87.7305 86.129 89.21C85.5239 90.6438 84.1131 91.3835 81.3618 91.9306C81.1219 91.9782 80.8769 92 80.6324 92H17.9999C13.7745 91.8641 12.079 91.1043 11.7887 89.1896C11.5436 87.5726 13.0604 86.3233 14.6737 86.0544C16.5931 85.7345 17.9999 84.0738 17.9999 82.1279V47Z" fill="white"/>
<path d="M88.3541 84.0625H83.4166V47.625C83.4166 43.9713 80.4641 41 76.8332 41H24.1666C20.5359 41 17.5832 43.9712 17.5832 47.625V84.0625H12.6457C11.7362 84.0625 11 84.8032 11 85.7187V87.375C11 91.0287 13.9525 94 17.5834 94H83.4168C87.0475 94 90 91.0287 90 87.375V85.7187C90 84.8032 89.2638 84.0625 88.3541 84.0625ZM20.875 47.625C20.875 45.799 22.3521 44.3126 24.1666 44.3126H76.8332C78.6478 44.3126 80.1248 45.799 80.1248 47.625V84.0625H58.7291H42.2709H20.875V47.625ZM83.4166 90.6874H17.5834C15.7689 90.6874 14.2918 89.201 14.2918 87.375H19.2293H41.5894L42.7531 88.546C43.0617 88.8566 43.4795 89.0313 43.9168 89.0313H57.0834C57.5205 89.0313 57.9385 88.8566 58.2471 88.546L59.4106 87.375H81.7709H86.7084C86.7084 89.201 85.2313 90.6874 83.4166 90.6874Z" fill="black"/>
<path d="M89.5 82H33.4818C29.3498 82 26 77.9583 26 72.9728V34.0272C26 29.0417 26 25 26 25H89.5V82Z" fill="white"/>
<path fill-rule="evenodd" clip-rule="evenodd" d="M33.0069 79.564C30.2416 79.564 28 77.3223 28 74.5571V34.6415V29.0068C28 26.2416 30.2416 24 33.0069 24H83.1281C85.8933 24 88.1349 26.2416 88.1349 29.0068H86.6349C88.1349 29.0068 88.1349 29.0069 88.1349 29.0072V29.0081V29.0098V29.0121V29.015V29.0186V29.0228V29.0277V29.0332V29.0394V29.0462V29.0537V29.0617V29.0705V29.0798V29.0898V29.1004V29.1116V29.1235V29.136V29.1491V29.1628V29.1771V29.1921V29.2077V29.2239V29.2407V29.2581V29.2761V29.2947V29.3139V29.3338V29.3542V29.3752V29.3968V29.419V29.4419V29.4653V29.4892V29.5138V29.539V29.5647V29.5911V29.618V29.6455V29.6735V29.7022V29.7314V29.7612V29.7915V29.8225V29.8539V29.886V29.9186V29.9518V29.9855V30.0198V30.0547V30.0901V30.126V30.1625V30.1996V30.2372V30.2753V30.314V30.3533V30.393V30.4333V30.4742V30.5155V30.5574V30.5999V30.6428V30.6863V30.7304V30.7749V30.82V30.8655V30.9116V30.9582V31.0054V31.053V31.1012V31.1498V31.199V31.2487V31.2988V31.3495V31.4007V31.4524V31.5045V31.5572V31.6104V31.664V31.7182V31.7728V31.8279V31.8835V31.9396V31.9961V32.0531V32.1107V32.1686V32.2271V32.286V32.3454V32.4053V32.4656V32.5264V32.5877V32.6494V32.7116V32.7742V32.8373V32.9008V32.9648V33.0293V33.0942V33.1595V33.2253V33.2915V33.3582V33.4253V33.4928V33.5608V33.6292V33.698V33.7673V33.837V33.9071V33.9776V34.0486V34.12V34.1918V34.264V34.3367V34.4097V34.4832V34.5571V34.6314V34.7061V34.7812V34.8567V34.9326V35.0089V35.0856V35.1626V35.2401V35.318V35.3963V35.4749V35.554V35.6334V35.7132V35.7934V35.874V35.9549V36.0363V36.118V36.2001V36.2825V36.3653V36.4485V36.532V36.6159V36.7002V36.7848V36.8698V36.9552V37.0409V37.1269V37.2133V37.3001V37.3872V37.4746V37.5624V37.6505V37.739V37.8278V37.917V38.0064V38.0962V38.1864V38.2769V38.3677V38.4588V38.5502V38.642V38.7341V38.8265V38.9192V39.0123V39.1056V39.1993V39.2933V39.3876V39.4822V39.577V39.6722V39.7677V39.8635V39.9596V40.056V40.1527V40.2497V40.3469V40.4445V40.5423V40.6404V40.7388V40.8375V40.9365V41.0357V41.1353V41.2351V41.3351V41.4354V41.536V41.6369V41.738V41.8394V41.9411V42.043V42.1452V42.2476V42.3503V42.4532V42.5564V42.6598V42.7635V42.8675V42.9716V43.076V43.1807V43.2856V43.3907V43.4961V43.6016V43.7075V43.8135V43.9198V44.0263V44.133V44.24V44.3471V44.4545V44.5621V44.6699V44.778V44.8862V44.9946V45.1033V45.2122V45.3212V45.4305V45.54V45.6496V45.7595V45.8695V45.9798V46.0902V46.2009V46.3117V46.4227V46.5339V46.6452V46.7568V46.8685V46.9804V47.0925V47.2047V47.3172V47.4298V47.5425V47.6555V47.7685V47.8818V47.9952V48.1088V48.2225V48.3364V48.4504V48.5646V48.679V48.7935V48.9081V49.0229V49.1378V49.2529V49.3681V49.4834V49.5989V49.7145V49.8302V49.9461V50.0621V50.1782V50.2945V50.4109V50.5273V50.644V50.7607V50.8775V50.9945V51.1116V51.2288V51.3461V51.4634V51.581V51.6986V51.8163V51.9341V52.052V52.17V52.2881V52.4063V52.5246V52.6429V52.7614V52.8799V52.9985V53.1173V53.236V53.3549V53.4738V53.5929V53.7119V53.8311V53.9503V54.0696V54.189V54.3084V54.4279V54.5474V54.667V54.7867V54.9064V55.0262V55.146V55.2659V55.3858V55.5058V55.6258V55.7458V55.8659V55.986V56.1062V56.2264V56.3466V56.4669V56.5872V56.7075V56.8279V56.9482V57.0686V57.189V57.3095V57.4299V57.5504V57.6709V57.7914V57.9119V58.0324V58.1529V58.2734V58.3939V58.5145V58.635V58.7555V58.876V58.9965V59.117V59.2375V59.358V59.4785V59.5989V59.7194V59.8398V59.9602V60.0806V60.2009V60.3212V60.4415V60.5618V60.682V60.8022V60.9224V61.0425V61.1626V61.2827V61.4027V61.5226V61.6426V61.7624V61.8823V62.002V62.1217V62.2414V62.361V62.4806V62.6001V62.7195V62.8388V62.9581V63.0774V63.1965V63.3156V63.4346V63.5536V63.6725V63.7912V63.91V64.0286V64.1471V64.2656V64.384V64.5022V64.6204V64.7385V64.8565V64.9744V65.0923V65.21V65.3276V65.4451V65.5625V65.6798V65.797V65.9141V66.031V66.1479V66.2646V66.3812V66.4977V66.6141V66.7304V66.8465V66.9625V67.0784V67.1941V67.3097V67.4252V67.5406V67.6558V67.7708V67.8858V68.0006V68.1152V68.2297V68.344V68.4582V68.5723V68.6862V68.7999V68.9135V69.0269V69.1402V69.2533V69.3662V69.479V69.5916V69.704V69.8163V69.9284V70.0403V70.152V70.2636V70.3749V70.4861V70.5971V70.708V70.8186V70.929V71.0393V71.1494V71.2592V71.3689V71.4784V71.5877V71.6967V71.8056V71.9143V72.0227V72.131V72.239V72.3468V72.4544V72.5618V72.669V72.776V72.8827V72.9892V73.0955V73.2016V73.3074V73.413V73.5183V73.6235V73.7284V73.833V73.9375V74.0416V74.1456V74.2493V74.3527V74.4559V74.5588V74.6615V74.764V74.8662V74.9681V75.0698C88.1349 77.5588 86.1164 79.564 83.6349 79.564H33.0069ZM31 33.1415V29.0068C31 27.8985 31.8985 27 33.0069 27H83.1281C84.2364 27 85.1349 27.8985 85.1349 29.0068H86.6349C85.1349 29.0068 85.1349 29.0069 85.1349 29.0072V29.0081V29.0098V29.0121V29.015V29.0186V29.0228V29.0277V29.0332V29.0394V29.0462V29.0537V29.0617V29.0705V29.0798V29.0898V29.1004V29.1116V29.1235V29.136V29.1491V29.1628V29.1771V29.1921V29.2077V29.2239V29.2407V29.2581V29.2761V29.2947V29.3139V29.3338V29.3542V29.3752V29.3968V29.419V29.4419V29.4653V29.4892V29.5138V29.539V29.5647V29.5911V29.618V29.6455V29.6735V29.7022V29.7314V29.7612V29.7915V29.8225V29.8539V29.886V29.9186V29.9518V29.9855V30.0198V30.0547V30.0901V30.126V30.1625V30.1996V30.2372V30.2753V30.314V30.3533V30.393V30.4333V30.4742V30.5155V30.5574V30.5999V30.6428V30.6863V30.7304V30.7749V30.82V30.8655V30.9116V30.9582V31.0054V31.053V31.1012V31.1498V31.199V31.2487V31.2988V31.3495V31.4007V31.4524V31.5045V31.5572V31.6104V31.664V31.7182V31.7728V31.8279V31.8835V31.9396V31.9961V32.0531V32.1107V32.1686V32.2271V32.286V32.3454V32.4053V32.4656V32.5264V32.5877V32.6494V32.7116V32.7742V32.8373V32.9008V32.9648V33.0293V33.0942V33.1415H31ZM31 36.1415H85.1349V36.2001V36.2825V36.3653V36.4485V36.532V36.6159V36.7002V36.7848V36.8698V36.9552V37.0409V37.1269V37.2133V37.3001V37.3872V37.4746V37.5624V37.6505V37.739V37.8278V37.917V38.0064V38.0962V38.1864V38.2769V38.3677V38.4588V38.5502V38.642V38.7341V38.8265V38.9192V39.0123V39.1056V39.1993V39.2933V39.3876V39.4822V39.577V39.6722V39.7677V39.8635V39.9596V40.056V40.1527V40.2497V40.3469V40.4445V40.5423V40.6404V40.7388V40.8375V40.9365V41.0357V41.1353V41.2351V41.3351V41.4354V41.536V41.6369V41.738V41.8394V41.9411V42.043V42.1452V42.2476V42.3503V42.4532V42.5564V42.6598V42.7635V42.8675V42.9716V43.076V43.1807V43.2856V43.3907V43.4961V43.6016V43.7075V43.8135V43.9198V44.0263V44.133V44.24V44.3471V44.4545V44.5621V44.6699V44.778V44.8862V44.9946V45.1033V45.2122V45.3212V45.4305V45.54V45.6496V45.7595V45.8695V45.9798V46.0902V46.2009V46.3117V46.4227V46.5339V46.6452V46.7568V46.8685V46.9804V47.0925V47.2047V47.3172V47.4298V47.5425V47.6555V47.7685V47.8818V47.9952V48.1088V48.2225V48.3364V48.4504V48.5646V48.679V48.7935V48.9081V49.0229V49.1378V49.2529V49.3681V49.4834V49.5989V49.7145V49.8302V49.9461V50.0621V50.1782V50.2945V50.4109V50.5273V50.644V50.7607V50.8775V50.9945V51.1116V51.2288V51.3461V51.4634V51.581V51.6986V51.8163V51.9341V52.052V52.17V52.2881V52.4063V52.5246V52.6429V52.7614V52.8799V52.9985V53.1173V53.236V53.3549V53.4738V53.5929V53.7119V53.8311V53.9503V54.0696V54.189V54.3084V54.4279V54.5474V54.667V54.7867V54.9064V55.0262V55.146V55.2659V55.3858V55.5058V55.6258V55.7458V55.8659V55.986V56.1062V56.2264V56.3466V56.4669V56.5872V56.7075V56.8279V56.9482V57.0686V57.189V57.3095V57.4299V57.5504V57.6709V57.7914V57.9119V58.0324V58.1529V58.2734V58.3939V58.5145V58.635V58.7555V58.876V58.9965V59.117V59.2375V59.358V59.4785V59.5989V59.7194V59.8398V59.9602V60.0806V60.2009V60.3212V60.4415V60.5618V60.682V60.8022V60.9224V61.0425V61.1626V61.2827V61.4027V61.5226V61.6426V61.7624V61.8823V62.002V62.1217V62.2414V62.361V62.4806V62.6001V62.7195V62.8388V62.9581V63.0774V63.1965V63.3156V63.4346V63.5536V63.6725V63.7912V63.91V64.0286V64.1471V64.2656V64.384V64.5022V64.6204V64.7385V64.8565V64.9744V65.0923V65.21V65.3276V65.4451V65.5625V65.6798V65.797V65.9141V66.031V66.1479V66.2646V66.3812V66.4977V66.6141V66.7304V66.8465V66.9625V67.0784V67.1941V67.3097V67.4252V67.5406V67.6558V67.7708V67.8858V68.0006V68.1152V68.2297V68.344V68.4582V68.5723V68.6862V68.7999V68.9135V69.0269V69.1402V69.2533V69.3662V69.479V69.5916V69.704V69.8163V69.9284V70.0403V70.152V70.2636V70.3749V70.4861V70.5971V70.708V70.8186V70.929V71.0393V71.1494V71.2592V71.3689V71.4784V71.5877V71.6967V71.8056V71.9143V72.0227V72.131V72.239V72.3468V72.4544V72.5618V72.669V72.776V72.8827V72.9892V73.0955V73.2016V73.3074V73.413V73.5183V73.6235V73.7284V73.833V73.9375V74.0416V74.1456V74.2493V74.3527V74.4559V74.5588V74.6615V74.764V74.8662V74.9681V75.0698C85.1349 75.8944 84.4671 76.564 83.6349 76.564H33.0069C31.8985 76.564 31 75.6655 31 74.5571V36.1415Z" fill="black"/>
<path d="M34 31.4305C34.8284 31.4305 35.5 30.759 35.5 29.9305C35.5 29.1021 34.8284 28.4305 34 28.4305C33.1716 28.4305 32.5 29.1021 32.5 29.9305C32.5 30.759 33.1716 31.4305 34 31.4305Z" fill="black"/>
<path d="M38 31.4305C38.8284 31.4305 39.5 30.759 39.5 29.9305C39.5 29.1021 38.8284 28.4305 38 28.4305C37.1716 28.4305 36.5 29.1021 36.5 29.9305C36.5 30.759 37.1716 31.4305 38 31.4305Z" fill="black"/>
<path d="M43 31.4305C43.8284 31.4305 44.5 30.759 44.5 29.9305C44.5 29.1021 43.8284 28.4305 43 28.4305C42.1716 28.4305 41.5 29.1021 41.5 29.9305C41.5 30.759 42.1716 31.4305 43 31.4305Z" fill="black"/>
<path d="M57.5 58.4305C57.5 59.5351 56.6046 60.4305 55.5 60.4305H35.5C34.3955 60.4305 33.5 59.5351 33.5 58.4305L33.5 42.4305C33.5 41.326 34.3954 40.4305 35.5 40.4305L55.5 40.4305C56.6046 40.4305 57.5 41.326 57.5 42.4305V58.4305Z" fill="#7F4CDE"/>
<path d="M39.4574 58.2083L44.5104 50.1171L46.9344 53.2083L43.8101 58.2083H39.4574ZM54.2273 58.2083H46.3967L52.1469 49.0049L55.3181 53.0427V57.0971C55.3181 57.7109 54.8298 58.2083 54.2273 58.2083Z" fill="white"/>
<path d="M39 47.4305C39.8284 47.4305 40.5 46.759 40.5 45.9305C40.5 45.1021 39.8284 44.4305 39 44.4305C38.1716 44.4305 37.5 45.1021 37.5 45.9305C37.5 46.759 38.1716 47.4305 39 47.4305Z" fill="white"/>
<path fill-rule="evenodd" clip-rule="evenodd" d="M81.3948 41.4305H62.6052C61.9948 41.4305 61.5 41.8783 61.5 42.4305C61.5 42.9829 61.9949 43.4305 62.6052 43.4305H81.3948C82.0052 43.4305 82.5 42.9828 82.5 42.4305C82.5 41.8783 82.0052 41.4305 81.3948 41.4305Z" fill="black"/>
<path fill-rule="evenodd" clip-rule="evenodd" d="M81.3948 45.4305H62.6052C61.9948 45.4305 61.5 45.8783 61.5 46.4305C61.5 46.9828 61.9949 47.4305 62.6052 47.4305H81.3948C82.0052 47.4305 82.5 46.9829 82.5 46.4305C82.5 45.8782 82.0052 45.4305 81.3948 45.4305Z" fill="black"/>
<path fill-rule="evenodd" clip-rule="evenodd" d="M81.3948 50.4305H62.6052C61.9948 50.4305 61.5 50.8782 61.5 51.4305C61.5 51.9829 61.9949 52.4305 62.6052 52.4305H81.3948C82.0052 52.4305 82.5 51.9828 82.5 51.4305C82.5 50.8783 82.0052 50.4305 81.3948 50.4305Z" fill="black"/>
<path fill-rule="evenodd" clip-rule="evenodd" d="M72.4091 54.4305H62.5909C61.9884 54.4305 61.5 54.8783 61.5 55.4305C61.5 55.9829 61.9885 56.4305 62.5909 56.4305H72.4091C73.0116 56.4305 73.5 55.9829 73.5 55.4305C73.5001 54.8783 73.0116 54.4305 72.4091 54.4305Z" fill="black"/>
<path fill-rule="evenodd" clip-rule="evenodd" d="M60.38 64.4305H34.62C34.0014 64.4305 33.5 64.8783 33.5 65.4305C33.5 65.9827 34.0015 66.4305 34.62 66.4305H60.38C60.9986 66.4305 61.5 65.9829 61.5 65.4305C61.5 64.8782 60.9986 64.4305 60.38 64.4305Z" fill="black"/>
<path fill-rule="evenodd" clip-rule="evenodd" d="M56.4091 68.4305H34.5909C33.9884 68.4305 33.5 68.8782 33.5 69.4305C33.5 69.9829 33.9885 70.4305 34.5909 70.4305H56.4091C57.0116 70.4305 57.5 69.9829 57.5 69.4305C57.5 68.8782 57.0115 68.4305 56.4091 68.4305Z" fill="black"/>
</svg>
