<svg width="104" height="104" viewBox="0 0 104 104" fill="none" xmlns="http://www.w3.org/2000/svg">
<rect x="12.9998" y="41" width="37" height="45" rx="5" fill="#7F4CDE"/>
<path d="M9 83C9 82.4477 9.44772 82 10 82H42C44.7614 82 47 84.2386 47 87V89C47 91.7614 44.7614 94 42 94H14C11.2386 94 9 91.7614 9 89V83Z" fill="#7F4CDE"/>
<path d="M17.9999 47C17.9999 44.7908 19.7908 43 21.9999 43H77C79.2091 43 81 44.7908 81 47V82.665C81 84.3067 82.174 85.7134 83.7892 86.0071C85.3692 86.2944 86.7534 87.7305 86.129 89.21C85.5239 90.6438 84.1131 91.3834 81.3618 91.9305C81.1219 91.9782 80.8769 92 80.6324 92H17.9999C13.7745 91.8641 12.079 91.1042 11.7887 89.1896C11.5436 87.5726 13.0604 86.3232 14.6737 86.0543C16.5931 85.7344 17.9999 84.0737 17.9999 82.1278V47Z" fill="white"/>
<path d="M88.3541 84.0625H83.4166V47.625C83.4166 43.9713 80.4641 41 76.8332 41H24.1666C20.5359 41 17.5832 43.9712 17.5832 47.625V84.0625H12.6457C11.7362 84.0625 11 84.8032 11 85.7187V87.375C11 91.0287 13.9525 94 17.5834 94H83.4168C87.0475 94 90 91.0287 90 87.375V85.7187C90 84.8032 89.2638 84.0625 88.3541 84.0625ZM20.875 47.625C20.875 45.799 22.3521 44.3126 24.1666 44.3126H76.8332C78.6478 44.3126 80.1248 45.799 80.1248 47.625V84.0625H58.7291H42.2709H20.875V47.625ZM83.4166 90.6874H17.5834C15.7689 90.6874 14.2918 89.201 14.2918 87.375H19.2293H41.5894L42.7531 88.546C43.0617 88.8566 43.4795 89.0313 43.9168 89.0313H57.0834C57.5205 89.0313 57.9385 88.8566 58.2471 88.546L59.4106 87.375H81.7709H86.7084C86.7084 89.201 85.2313 90.6874 83.4166 90.6874Z" fill="black"/>
<path d="M70 82H34.713C32.1101 82 30 79.0219 30 75.3484V46.6516C30 42.9781 30 40 30 40H70V82Z" fill="white"/>
<path d="M89 82H47.5377C44.4794 82 42 80.0146 42 77.5656V58.4344C42 55.9854 42 54 42 54H89V82Z" fill="white"/>
<path d="M55.4858 70H31.5142C29.5734 70 28 68.3691 28 66.3574V50.6426C28 48.6309 29.5734 47 31.5142 47H55.4858C57.4266 47 59 48.6309 59 50.6426V66.3573C59 68.369 57.4266 70 55.4858 70Z" fill="white"/>
<path d="M75.9249 59.6383C79.4267 59.6383 82.2658 62.476 82.2658 65.9794C82.2658 69.4795 79.4267 72.3171 75.9249 72.3171C72.4196 72.3171 69.5803 69.4795 69.5803 65.9794C69.5803 62.476 72.4196 59.6383 75.9249 59.6383Z" fill="white"/>
<path d="M62.0237 31.5622V36.6017C62.0237 38.0509 60.8493 39.2264 59.4003 39.2264H49.8033C48.3541 39.2264 47.1786 38.0509 47.1786 36.6017V24.6829C47.1786 23.2336 48.3541 22.0582 49.8033 22.0582H59.4003C60.8493 22.0582 62.0237 23.2336 62.0237 24.6829" stroke="black" stroke-width="3" stroke-miterlimit="10" stroke-linecap="round" stroke-linejoin="round"/>
<path d="M62.0237 24.683V27.482H47.1786V24.683C47.1786 23.2337 48.3541 22.0583 49.8033 22.0583H59.4003C60.8493 22.0583 62.0237 23.2337 62.0237 24.683Z" stroke="black" stroke-width="3" stroke-miterlimit="10" stroke-linecap="round" stroke-linejoin="round"/>
<path d="M32.3252 69.1506H29.4597C28.0104 69.1506 26.835 67.9751 26.835 66.5259V54.6072C26.835 53.158 28.0104 51.9825 29.4597 51.9825H39.0565C40.5057 51.9825 41.6801 53.158 41.6801 54.6072V66.5259C41.6801 67.9751 40.5057 69.1506 39.0565 69.1506H36.2053" stroke="black" stroke-width="3" stroke-miterlimit="10" stroke-linecap="round" stroke-linejoin="round"/>
<path d="M41.6801 54.6072V57.4062H26.835V54.6072C26.835 53.1579 28.0105 51.9825 29.4596 51.9825H39.0566C40.5057 51.9825 41.6801 53.1579 41.6801 54.6072Z" stroke="black" stroke-width="3" stroke-miterlimit="10" stroke-linecap="round" stroke-linejoin="round"/>
<path d="M62.0237 62.3983V74.3171C62.0237 75.7663 60.8493 76.9418 59.4003 76.9418H49.8033C48.3541 76.9418 47.1786 75.7663 47.1786 74.3171V62.3983C47.1786 60.949 48.3541 59.7736 49.8033 59.7736H59.4003C60.8493 59.7736 62.0237 60.949 62.0237 62.3983Z" stroke="black" stroke-width="3" stroke-miterlimit="10" stroke-linecap="round" stroke-linejoin="round"/>
<path d="M62.0237 62.3983V65.1973H47.1786V62.3983C47.1786 60.9491 48.3541 59.7737 49.8033 59.7737H59.4003C60.8493 59.7737 62.0237 60.9491 62.0237 62.3983Z" stroke="black" stroke-width="3" stroke-miterlimit="10" stroke-linecap="round" stroke-linejoin="round"/>
<path d="M82.165 62.3983V74.3171C82.165 75.7663 80.9906 76.9418 79.5416 76.9418H69.9446C68.4954 76.9418 67.3199 75.7663 67.3199 74.3171V62.3983C67.3199 60.949 68.4954 59.7736 69.9446 59.7736H79.5416C80.9906 59.7736 82.165 60.949 82.165 62.3983Z" stroke="black" stroke-width="3" stroke-miterlimit="10" stroke-linecap="round" stroke-linejoin="round"/>
<path d="M82.165 62.3983V65.1973H67.3199V62.3983C67.3199 60.9491 68.4954 59.7737 69.9446 59.7737H79.5416C80.9906 59.7737 82.165 60.9491 82.165 62.3983Z" stroke="black" stroke-width="3" stroke-miterlimit="10" stroke-linecap="round" stroke-linejoin="round"/>
<path d="M52.3968 39.2264V43.0902C52.3968 44.2616 51.4472 45.2114 50.2757 45.2114H36.3786C35.2072 45.2114 34.2575 46.161 34.2575 47.3325V51.9825" stroke="black" stroke-width="3" stroke-miterlimit="10" stroke-linecap="round" stroke-linejoin="round"/>
<path d="M65.1204 46.9238V52.8872" stroke="black" stroke-width="3" stroke-miterlimit="10" stroke-linecap="round" stroke-linejoin="round"/>
<path d="M55.7424 39.2264V43.0902C55.7424 44.2616 56.692 45.2114 57.8635 45.2114H63.4601" stroke="black" stroke-width="3" stroke-miterlimit="10" stroke-linecap="round" stroke-linejoin="round"/>
<path d="M54.6011 59.7736V55.0082C54.6011 53.8368 55.5508 52.8873 56.7223 52.8873H72.6214C73.7929 52.8873 74.7425 53.8368 74.7425 55.0082V59.7736" stroke="black" stroke-width="3" stroke-miterlimit="10" stroke-linecap="round" stroke-linejoin="round"/>
<path d="M34.2576 61.3571V64.62" stroke="#7F4CDE" stroke-width="3" stroke-miterlimit="10" stroke-linecap="round" stroke-linejoin="round"/>
<path d="M35.8891 62.9886H32.6262" stroke="#7F4CDE" stroke-width="3" stroke-miterlimit="10" stroke-linecap="round" stroke-linejoin="round"/>
<path d="M63 44.4999C63 45.8806 64.1192 47 65.4999 47C66.8806 47 68 45.8806 68 44.4999C68 43.1192 66.8806 42 65.4999 42C64.1192 42 63 43.1192 63 44.4999Z" stroke="white" stroke-width="3" stroke-miterlimit="10" stroke-linecap="round" stroke-linejoin="round"/>
<path d="M65.5 47C66.8807 47 68 45.8807 68 44.5C68 43.1193 66.8807 42 65.5 42C64.1193 42 63 43.1193 63 44.5C63 45.8807 64.1193 47 65.5 47Z" fill="#7F4CDE"/>
</svg>
