<svg width="104" height="104" viewBox="0 0 104 104" fill="none" xmlns="http://www.w3.org/2000/svg">
<rect x="6" y="26.1458" width="88" height="64" rx="5" transform="rotate(-0.181066 6 26.1458)" fill="#7F4CDE"/>
<rect x="13.5049" y="27.6221" width="83" height="61" rx="3.5" transform="rotate(-0.181066 13.5049 27.6221)" fill="white" stroke="black" stroke-width="3"/>
<rect x="24.892" y="20.3989" width="69.0907" height="51.9634" rx="5" transform="rotate(-0.181066 24.892 20.3989)" fill="white"/>
<path d="M26.5472 60.0188C26.4832 57.4847 24.3691 55.4747 21.8351 55.5387C19.301 55.6027 17.291 57.7169 17.355 60.2509C17.419 62.7849 19.5332 64.7949 22.0672 64.7309C24.6012 64.6669 26.6112 62.5528 26.5472 60.0188ZM19.9813 60.1846C19.9538 59.0983 20.8151 58.1926 21.9012 58.1651C22.9874 58.1377 23.8933 58.999 23.9207 60.0851C23.9481 61.1712 23.0868 62.0771 22.0007 62.1046C20.9146 62.132 20.0087 61.2708 19.9813 60.1846Z" fill="black"/>
<mask id="mask0_39_1636" style="mask-type:luminance" maskUnits="userSpaceOnUse" x="27" y="10" width="65" height="76">
<path d="M27 10H92V86H27V10Z" fill="white"/>
</mask>
<g mask="url(#mask0_39_1636)">
<path fill-rule="evenodd" clip-rule="evenodd" d="M35.5069 68.1334C32.7416 68.1334 30.5 65.8918 30.5 63.1266V23.2109V17.5763C30.5 14.8111 32.7416 12.5694 35.5069 12.5694H85.6281C88.3933 12.5694 90.6349 14.8111 90.6349 17.5763H89.1349C90.6349 17.5763 90.6349 17.5764 90.6349 17.5766V17.5776V17.5792V17.5815V17.5845V17.5881V17.5923V17.5972V17.6027V17.6089V17.6157V17.6231V17.6312V17.6399V17.6493V17.6592V17.6698V17.6811V17.6929V17.7054V17.7185V17.7323V17.7466V17.7616V17.7771V17.7933V17.8101V17.8275V17.8455V17.8642V17.8834V17.9032V17.9236V17.9447V17.9663V17.9885V18.0113V18.0347V18.0587V18.0833V18.1084V18.1342V18.1605V18.1874V18.2149V18.243V18.2716V18.3008V18.3306V18.361V18.3919V18.4234V18.4555V18.4881V18.5213V18.555V18.5893V18.6241V18.6595V18.6955V18.732V18.7691V18.8066V18.8448V18.8835V18.9227V18.9625V19.0028V19.0436V19.085V19.1269V19.1693V19.2123V19.2558V19.2998V19.3444V19.3894V19.435V19.4811V19.5277V19.5748V19.6225V19.6706V19.7193V19.7685V19.8181V19.8683V19.919V19.9702V20.0218V20.074V20.1267V20.1798V20.2335V20.2876V20.3422V20.3973V20.4529V20.509V20.5656V20.6226V20.6801V20.7381V20.7966V20.8555V20.9149V20.9748V21.0351V21.0959V21.1571V21.2189V21.281V21.3437V21.4067V21.4703V21.5343V21.5987V21.6636V21.729V21.7947V21.861V21.9276V21.9947V22.0623V22.1302V22.1986V22.2675V22.3367V22.4064V22.4766V22.5471V22.6181V22.6895V22.7613V22.8335V22.9061V22.9792V23.0527V23.1265V23.2008V23.2755V23.3506V23.4261V23.502V23.5783V23.655V23.7321V23.8096V23.8875V23.9657V24.0444V24.1234V24.2029V24.2827V24.3629V24.4435V24.5244V24.6057V24.6874V24.7695V24.852V24.9348V25.0179V25.1015V25.1854V25.2697V25.3543V25.4393V25.5246V25.6103V25.6964V25.7828V25.8695V25.9566V26.0441V26.1319V26.22V26.3085V26.3973V26.4864V26.5759V26.6657V26.7559V26.8463V26.9371V27.0282V27.1197V27.2115V27.3036V27.396V27.4887V27.5817V27.6751V27.7688V27.8627V27.957V28.0516V28.1465V28.2417V28.3372V28.433V28.5291V28.6255V28.7222V28.8191V28.9164V29.0139V29.1118V29.2099V29.3083V29.407V29.506V29.6052V29.7047V29.8045V29.9046V30.0049V30.1055V30.2064V30.3075V30.4089V30.5106V30.6125V30.7146V30.8171V30.9198V31.0227V31.1259V31.2293V31.333V31.4369V31.5411V31.6455V31.7501V31.855V31.9602V32.0655V32.1711V32.2769V32.383V32.4892V32.5957V32.7025V32.8094V32.9166V33.024V33.1316V33.2394V33.3474V33.4557V33.5641V33.6728V33.7816V33.8907V33.9999V34.1094V34.2191V34.3289V34.439V34.5492V34.6597V34.7703V34.8811V34.9921V35.1033V35.2147V35.3262V35.438V35.5499V35.6619V35.7742V35.8866V35.9992V36.112V36.2249V36.338V36.4513V36.5647V36.6782V36.792V36.9059V37.0199V37.1341V37.2484V37.3629V37.4776V37.5923V37.7073V37.8223V37.9375V38.0529V38.1683V38.2839V38.3997V38.5156V38.6316V38.7477V38.8639V38.9803V39.0968V39.2134V39.3302V39.447V39.564V39.681V39.7982V39.9155V40.0329V40.1504V40.268V40.3857V40.5035V40.6214V40.7394V40.8575V40.9757V41.094V41.2124V41.3308V41.4494V41.568V41.6867V41.8055V41.9244V42.0433V42.1623V42.2814V42.4006V42.5198V42.6391V42.7584V42.8779V42.9974V43.1169V43.2365V43.3562V43.4759V43.5957V43.7155V43.8353V43.9553V44.0752V44.1952V44.3153V44.4354V44.5555V44.6757V44.7959V44.9161V45.0364V45.1567V45.277V45.3973V45.5177V45.6381V45.7585V45.8789V45.9994V46.1199V46.2403V46.3608V46.4813V46.6018V46.7224V46.8429V46.9634V47.0839V47.2045V47.325V47.4455V47.566V47.6865V47.807V47.9275V48.0479V48.1684V48.2888V48.4093V48.5296V48.65V48.7704V48.8907V49.011V49.1313V49.2515V49.3717V49.4919V49.612V49.7321V49.8521V49.9721V50.0921V50.212V50.3319V50.4517V50.5715V50.6912V50.8109V50.9305V51.05V51.1695V51.2889V51.4083V51.5276V51.6468V51.766V51.8851V52.0041V52.123V52.2419V52.3607V52.4794V52.598V52.7166V52.835V52.9534V53.0717V53.1899V53.308V53.426V53.5439V53.6617V53.7794V53.897V54.0146V54.132V54.2493V54.3664V54.4835V54.6005V54.7173V54.8341V54.9507V55.0672V55.1836V55.2998V55.416V55.532V55.6478V55.7636V55.8792V55.9947V56.11V56.2252V56.3403V56.4552V56.57V56.6847V56.7992V56.9135V57.0277V57.1417V57.2556V57.3694V57.483V57.5964V57.7096V57.8227V57.9357V58.0484V58.161V58.2735V58.3857V58.4978V58.6097V58.7215V58.833V58.9444V59.0556V59.1666V59.2774V59.3881V59.4985V59.6088V59.7188V59.8287V59.9384V60.0478V60.1571V60.2662V60.3751V60.4837V60.5922V60.7004V60.8085V60.9163V61.0239V61.1313V61.2385V61.3454V61.4522V61.5587V61.665V61.771V61.8768V61.9824V62.0878V62.1929V62.2978V62.4025V62.5069V62.6111V62.715V62.8187V62.9222V63.0254V63.1283V63.231V63.3334V63.4356V63.5375V63.6392C90.6349 66.1283 88.6164 68.1334 86.1349 68.1334H35.5069ZM33.5 21.7109V17.5763C33.5 16.4679 34.3985 15.5694 35.5069 15.5694H85.6281C86.7364 15.5694 87.6349 16.4679 87.6349 17.5763H89.1349C87.6349 17.5763 87.6349 17.5764 87.6349 17.5766V17.5776V17.5792V17.5815V17.5845V17.5881V17.5923V17.5972V17.6027V17.6089V17.6157V17.6231V17.6312V17.6399V17.6493V17.6592V17.6698V17.6811V17.6929V17.7054V17.7185V17.7323V17.7466V17.7616V17.7771V17.7933V17.8101V17.8275V17.8455V17.8642V17.8834V17.9032V17.9236V17.9447V17.9663V17.9885V18.0113V18.0347V18.0587V18.0833V18.1084V18.1342V18.1605V18.1874V18.2149V18.243V18.2716V18.3008V18.3306V18.361V18.3919V18.4234V18.4555V18.4881V18.5213V18.555V18.5893V18.6241V18.6595V18.6955V18.732V18.7691V18.8066V18.8448V18.8835V18.9227V18.9625V19.0028V19.0436V19.085V19.1269V19.1693V19.2123V19.2558V19.2998V19.3444V19.3894V19.435V19.4811V19.5277V19.5748V19.6225V19.6706V19.7193V19.7685V19.8181V19.8683V19.919V19.9702V20.0218V20.074V20.1267V20.1798V20.2335V20.2876V20.3422V20.3973V20.4529V20.509V20.5656V20.6226V20.6801V20.7381V20.7966V20.8555V20.9149V20.9748V21.0351V21.0959V21.1571V21.2189V21.281V21.3437V21.4067V21.4703V21.5343V21.5987V21.6636V21.7109H33.5ZM33.5 24.7109H87.6349V24.7695V24.852V24.9348V25.0179V25.1015V25.1854V25.2697V25.3543V25.4393V25.5246V25.6103V25.6964V25.7828V25.8695V25.9566V26.0441V26.1319V26.22V26.3085V26.3973V26.4864V26.5759V26.6657V26.7559V26.8463V26.9371V27.0282V27.1197V27.2115V27.3036V27.396V27.4887V27.5817V27.6751V27.7688V27.8627V27.957V28.0516V28.1465V28.2417V28.3372V28.433V28.5291V28.6255V28.7222V28.8191V28.9164V29.0139V29.1118V29.2099V29.3083V29.407V29.506V29.6052V29.7047V29.8045V29.9046V30.0049V30.1055V30.2064V30.3075V30.4089V30.5106V30.6125V30.7146V30.8171V30.9198V31.0227V31.1259V31.2293V31.333V31.4369V31.5411V31.6455V31.7501V31.855V31.9602V32.0655V32.1711V32.2769V32.383V32.4892V32.5957V32.7025V32.8094V32.9166V33.024V33.1316V33.2394V33.3474V33.4557V33.5641V33.6728V33.7816V33.8907V33.9999V34.1094V34.2191V34.3289V34.439V34.5492V34.6597V34.7703V34.8811V34.9921V35.1033V35.2147V35.3262V35.438V35.5499V35.6619V35.7742V35.8866V35.9992V36.112V36.2249V36.338V36.4513V36.5647V36.6782V36.792V36.9059V37.0199V37.1341V37.2484V37.3629V37.4776V37.5923V37.7073V37.8223V37.9375V38.0529V38.1683V38.2839V38.3997V38.5156V38.6316V38.7477V38.8639V38.9803V39.0968V39.2134V39.3302V39.447V39.564V39.681V39.7982V39.9155V40.0329V40.1504V40.268V40.3857V40.5035V40.6214V40.7394V40.8575V40.9757V41.094V41.2124V41.3308V41.4494V41.568V41.6867V41.8055V41.9244V42.0433V42.1623V42.2814V42.4006V42.5198V42.6391V42.7584V42.8779V42.9974V43.1169V43.2365V43.3562V43.4759V43.5957V43.7155V43.8353V43.9553V44.0752V44.1952V44.3153V44.4354V44.5555V44.6757V44.7959V44.9161V45.0364V45.1567V45.277V45.3973V45.5177V45.6381V45.7585V45.8789V45.9994V46.1199V46.2403V46.3608V46.4813V46.6018V46.7224V46.8429V46.9634V47.0839V47.2045V47.325V47.4455V47.566V47.6865V47.807V47.9275V48.0479V48.1684V48.2888V48.4093V48.5296V48.65V48.7704V48.8907V49.011V49.1313V49.2515V49.3717V49.4919V49.612V49.7321V49.8521V49.9721V50.0921V50.212V50.3319V50.4517V50.5715V50.6912V50.8109V50.9305V51.05V51.1695V51.2889V51.4083V51.5276V51.6468V51.766V51.8851V52.0041V52.123V52.2419V52.3607V52.4794V52.598V52.7166V52.835V52.9534V53.0717V53.1899V53.308V53.426V53.5439V53.6617V53.7794V53.897V54.0146V54.132V54.2493V54.3664V54.4835V54.6005V54.7173V54.8341V54.9507V55.0672V55.1836V55.2998V55.416V55.532V55.6478V55.7636V55.8792V55.9947V56.11V56.2252V56.3403V56.4552V56.57V56.6847V56.7992V56.9135V57.0277V57.1417V57.2556V57.3694V57.483V57.5964V57.7096V57.8227V57.9357V58.0484V58.161V58.2735V58.3857V58.4978V58.6097V58.7215V58.833V58.9444V59.0556V59.1666V59.2774V59.3881V59.4985V59.6088V59.7188V59.8287V59.9384V60.0478V60.1571V60.2662V60.3751V60.4837V60.5922V60.7004V60.8085V60.9163V61.0239V61.1313V61.2385V61.3454V61.4522V61.5587V61.665V61.771V61.8768V61.9824V62.0878V62.1929V62.2978V62.4025V62.5069V62.6111V62.715V62.8187V62.9222V63.0254V63.1283V63.231V63.3334V63.4356V63.5375V63.6392C87.6349 64.4639 86.9671 65.1334 86.1349 65.1334H35.5069C34.3985 65.1334 33.5 64.2349 33.5 63.1266V24.7109Z" fill="black"/>
<path d="M71.7139 48.3602C71.7758 48.1967 71.8344 48.0315 71.8896 47.8647C72.0637 47.3392 72.5548 46.9844 73.1085 46.9844H74.4933C75.2029 46.9844 75.7783 46.409 75.7783 45.6993V42.079C75.7783 41.3692 75.2029 40.7939 74.4933 40.7939H73.1085C72.5549 40.7939 72.0637 40.4391 71.8896 39.9135C71.6957 39.3281 71.4602 38.7615 71.1866 38.2176C70.9372 37.7221 71.0326 37.123 71.4249 36.7308L72.4045 35.7512C72.9063 35.2494 72.9063 34.4357 72.4045 33.9339L69.8444 31.3738C69.3426 30.8719 68.5289 30.8719 68.0271 31.3738L67.0474 32.3534C66.6553 32.7456 66.0562 32.8411 65.5607 32.5918C65.0167 32.318 64.4502 32.0825 63.8648 31.8887C63.3392 31.7146 62.9844 31.2233 62.9844 30.6697V29.285C62.9844 28.5753 62.4091 28 61.6995 28H58.079C57.3693 28 56.7938 28.5753 56.7938 29.285V30.6697C56.7938 31.2233 56.4391 31.7146 55.9136 31.8887C55.7816 31.9323 55.6507 31.9781 55.5208 32.026" stroke="black" stroke-width="3" stroke-miterlimit="10" stroke-linecap="round" stroke-linejoin="round"/>
<path d="M48.0411 39.4799C47.9877 39.6232 47.9369 39.7677 47.8887 39.9134C47.7146 40.4391 47.2233 40.7937 46.6698 40.7937H45.2851C44.5753 40.7937 44 41.3691 44 42.0788V45.6993C44 46.409 44.5753 46.9843 45.2851 46.9843H46.6698C47.2233 46.9843 47.7146 47.3391 47.8887 47.8646C48.0826 48.4501 48.3181 49.0166 48.5918 49.5607C48.841 50.0562 48.7456 50.6551 48.3534 51.0473L47.3737 52.0271C46.8719 52.5288 46.8719 53.3425 47.3737 53.8444L49.9338 56.4044C50.4357 56.9062 51.2493 56.9062 51.7512 56.4044L52.7308 55.4247C53.123 55.0326 53.7221 54.9372 54.2176 55.1865C54.7615 55.4601 55.328 55.6957 55.9135 55.8896C56.439 56.0636 56.7938 56.5548 56.7938 57.1085V58.4932C56.7938 59.2029 57.3692 59.7783 58.0788 59.7783H61.6993C62.409 59.7783 62.9845 59.2029 62.9845 58.4932V57.1085C62.9845 56.5548 63.3392 56.0636 63.8647 55.8896C64.0277 55.8356 64.1892 55.7784 64.3491 55.7181" stroke="black" stroke-width="3" stroke-miterlimit="10" stroke-linecap="round" stroke-linejoin="round"/>
<path d="M66.8056 47.5336C67.4177 46.4194 67.753 45.1964 67.753 43.8353C68.5 38 63.5 35 60 36" stroke="black" stroke-width="3" stroke-miterlimit="10" stroke-linecap="round" stroke-linejoin="round"/>
<path d="M52.9728 40.1809C52.4138 41.257 52.1332 42.5388 52.1332 43.8352C52.1332 48.1486 55.6297 51.6452 59.9432 51.6452C61.2422 51.6452 62.4878 51.3349 63.5655 50.7737" stroke="black" stroke-width="3" stroke-miterlimit="10" stroke-linecap="round" stroke-linejoin="round"/>
<mask id="path-11-outside-1_39_1636" maskUnits="userSpaceOnUse" x="42.9939" y="26.7844" width="34" height="34" fill="black">
<rect fill="white" x="42.9939" y="26.7844" width="34" height="34"/>
<path d="M56.8428 44.0135L56.5794 43.7501L52.9905 40.1611C51.145 40.8187 49.0048 40.4091 47.5273 38.9316C46.1336 37.5378 45.6897 35.5535 46.1966 33.784C46.2745 33.5118 46.6197 33.4268 46.8199 33.627L48.2429 35.05C49.0181 35.8252 50.2749 35.8252 51.05 35.05C51.825 34.2749 51.8251 33.0181 51.05 32.2429L49.6269 30.8199C49.4269 30.6197 49.5118 30.2745 49.7837 30.1967C51.5465 29.6917 53.5221 30.13 54.9154 31.5112C54.9427 31.5381 54.97 31.5657 54.9967 31.5935C56.4283 33.0757 56.808 35.2127 56.1384 37.0425L59.7808 40.685L64.2819 45.1861L66.7358 47.64C68.5656 46.9704 70.7026 47.3501 72.1847 48.7815C72.2125 48.8083 72.2403 48.8356 72.2671 48.8629C73.6484 50.2562 74.0866 52.2318 73.5816 53.9945C73.5037 54.2665 73.1585 54.3515 72.9584 54.1513L71.5353 52.7283C70.7603 51.9531 69.5035 51.9531 68.7282 52.7284C67.9531 53.5034 67.9531 54.7602 68.7282 55.5355L70.1513 56.9584C70.3513 57.1584 70.2664 57.5037 69.9944 57.5816C68.2248 58.0886 66.2405 57.6447 64.8468 56.2509C63.3692 54.7734 62.9079 52.6192 63.5654 50.7738L61.2282 48.3989L59.9211 47.0919"/>
</mask>
<path d="M56.8428 44.0135L56.5794 43.7501L52.9905 40.1611C51.145 40.8187 49.0048 40.4091 47.5273 38.9316C46.1336 37.5378 45.6897 35.5535 46.1966 33.784C46.2745 33.5118 46.6197 33.4268 46.8199 33.627L48.2429 35.05C49.0181 35.8252 50.2749 35.8252 51.05 35.05C51.825 34.2749 51.8251 33.0181 51.05 32.2429L49.6269 30.8199C49.4269 30.6197 49.5118 30.2745 49.7837 30.1967C51.5465 29.6917 53.5221 30.13 54.9154 31.5112C54.9427 31.5381 54.97 31.5657 54.9967 31.5935C56.4283 33.0757 56.808 35.2127 56.1384 37.0425L59.7808 40.685L64.2819 45.1861L66.7358 47.64C68.5656 46.9704 70.7026 47.3501 72.1847 48.7815C72.2125 48.8083 72.2403 48.8356 72.2671 48.8629C73.6484 50.2562 74.0866 52.2318 73.5816 53.9945C73.5037 54.2665 73.1585 54.3515 72.9584 54.1513L71.5353 52.7283C70.7603 51.9531 69.5035 51.9531 68.7282 52.7284C67.9531 53.5034 67.9531 54.7602 68.7282 55.5355L70.1513 56.9584C70.3513 57.1584 70.2664 57.5037 69.9944 57.5816C68.2248 58.0886 66.2405 57.6447 64.8468 56.2509C63.3692 54.7734 62.9079 52.6192 63.5654 50.7738L61.2282 48.3989L59.9211 47.0919" fill="#7F4CDE"/>
<path d="M58.9646 41.8927C60.1359 43.0646 60.1354 44.964 58.9636 46.1353C57.7917 47.3066 55.8922 47.3062 54.7209 46.1343L58.9646 41.8927ZM56.5794 43.7501L58.7008 41.6287L58.7013 41.6293L56.5794 43.7501ZM52.9905 40.1611L51.9835 37.3352C53.0748 36.9463 54.2926 37.2206 55.1118 38.0398L52.9905 40.1611ZM46.1966 33.784L49.0809 34.6094L49.0806 34.6103L46.1966 33.784ZM46.8199 33.627L44.6985 35.7483H44.6985L46.8199 33.627ZM48.2429 35.05L50.3642 32.9287H50.3642L48.2429 35.05ZM51.05 35.05L53.1715 37.1712L53.1713 37.1713L51.05 35.05ZM51.05 32.2429L48.9287 34.3643H48.9287L51.05 32.2429ZM49.6269 30.8199L47.5056 32.9412L47.505 32.9405L49.6269 30.8199ZM49.7837 30.1967L50.6099 33.0807L50.6098 33.0807L49.7837 30.1967ZM54.9154 31.5112L52.8087 33.6471L52.8033 33.6417L54.9154 31.5112ZM54.9967 31.5935L52.8389 33.6777L52.837 33.6758L54.9967 31.5935ZM56.1384 37.0425L54.017 39.1638C53.1913 38.338 52.9198 37.1082 53.3211 36.0115L56.1384 37.0425ZM59.7808 40.685L57.6595 42.8063L57.6595 42.8063L59.7808 40.685ZM64.2819 45.1861L66.4032 43.0648V43.0648L64.2819 45.1861ZM66.7358 47.64L67.7667 50.4573C66.6701 50.8586 65.4402 50.587 64.6145 49.7613L66.7358 47.64ZM72.1847 48.7815L70.1025 50.9412L70.1006 50.9394L72.1847 48.7815ZM72.2671 48.8629L70.1366 50.975C70.1332 50.9716 70.1297 50.9681 70.1263 50.9646L72.2671 48.8629ZM73.5816 53.9945L70.6976 53.1685L70.6976 53.1684L73.5816 53.9945ZM72.9584 54.1513L75.0797 52.03V52.03L72.9584 54.1513ZM71.5353 52.7283L69.414 54.8496L69.4138 54.8494L71.5353 52.7283ZM68.7282 52.7284L70.8496 54.8497L70.8494 54.8499L68.7282 52.7284ZM68.7282 55.5355L66.607 57.6569L66.6067 57.6566L68.7282 55.5355ZM70.1513 56.9584L72.2725 54.837L72.2726 54.8371L70.1513 56.9584ZM69.9944 57.5816L69.1682 54.6976L69.1686 54.6975L69.9944 57.5816ZM64.8468 56.2509L66.968 54.1295L66.9681 54.1296L64.8468 56.2509ZM63.5654 50.7738L65.7036 48.6695C66.5102 49.4891 66.7773 50.6975 66.3914 51.7807L63.5654 50.7738ZM61.2282 48.3989L63.3495 46.2776C63.3551 46.2833 63.3608 46.2889 63.3664 46.2946L61.2282 48.3989ZM57.7998 49.2132C56.6282 48.0417 56.6282 46.1422 57.7998 44.9706C58.9714 43.799 60.8709 43.799 62.0425 44.9706L57.7998 49.2132ZM54.7209 46.1343L54.4576 45.8709L58.7013 41.6293L58.9646 41.8927L54.7209 46.1343ZM54.4581 45.8714L50.8692 42.2824L55.1118 38.0398L58.7008 41.6287L54.4581 45.8714ZM53.9975 42.9871C51.102 44.0188 47.7333 43.3802 45.406 41.0529L49.6487 36.8103C50.2763 37.438 51.188 37.6186 51.9835 37.3352L53.9975 42.9871ZM45.406 41.0529C43.211 38.8579 42.5174 35.7335 43.3127 32.9577L49.0806 34.6103C48.8619 35.3735 49.0562 36.2178 49.6487 36.8103L45.406 41.0529ZM43.3124 32.9586C44.0378 30.4239 47.1712 29.7357 48.9412 31.5057L44.6985 35.7483C46.0682 37.118 48.5113 36.5998 49.0809 34.6094L43.3124 32.9586ZM48.9412 31.5057L50.3642 32.9287L46.1216 37.1713L44.6985 35.7483L48.9412 31.5057ZM50.3642 32.9287C49.9678 32.5323 49.3251 32.5323 48.9287 32.9287L53.1713 37.1713C51.2246 39.1181 48.0683 39.1181 46.1216 37.1713L50.3642 32.9287ZM48.9285 32.9289C48.5324 33.3251 48.532 33.9676 48.9287 34.3643L53.1713 30.1216C55.1182 32.0686 55.1176 35.2247 53.1715 37.1712L48.9285 32.9289ZM48.9287 34.3643L47.5056 32.9412L51.7483 28.6986L53.1713 30.1216L48.9287 34.3643ZM47.505 32.9405C45.7383 31.1728 46.4211 28.0392 48.9576 27.3126L50.6098 33.0807C52.6025 32.5099 53.1156 30.0667 51.7489 28.6992L47.505 32.9405ZM48.9576 27.3127C51.7225 26.5206 54.8331 27.2053 57.0274 29.3806L52.8033 33.6417C52.2111 33.0547 51.3705 32.8628 50.6099 33.0807L48.9576 27.3127ZM57.022 29.3753C57.0688 29.4214 57.1138 29.4671 57.1565 29.5113L52.837 33.6758C52.8261 33.6644 52.8165 33.6547 52.8087 33.6471L57.022 29.3753ZM57.1546 29.5094C59.4191 31.8539 60.0026 35.2124 58.9557 38.0734L53.3211 36.0115C53.6133 35.2129 53.4375 34.2974 52.8389 33.6777L57.1546 29.5094ZM58.2598 34.9212L61.9022 38.5637L57.6595 42.8063L54.017 39.1638L58.2598 34.9212ZM61.9021 38.5637L66.4032 43.0648L62.1606 47.3074L57.6595 42.8063L61.9021 38.5637ZM66.4032 43.0648L68.8571 45.5187L64.6145 49.7613L62.1606 47.3074L66.4032 43.0648ZM65.7048 44.8227C68.5658 43.7758 71.9243 44.3593 74.2688 46.6236L70.1006 50.9394C69.4809 50.3409 68.5654 50.165 67.7667 50.4573L65.7048 44.8227ZM74.2669 46.6218C74.3073 46.6607 74.3559 46.7083 74.4079 46.7612L70.1263 50.9646C70.1247 50.9629 70.1177 50.9559 70.1025 50.9412L74.2669 46.6218ZM74.3975 46.7507C76.5732 48.9452 77.2576 52.0559 76.4656 54.8207L70.6976 53.1684C70.9155 52.4076 70.7236 51.5671 70.1366 50.975L74.3975 46.7507ZM76.4656 54.8206C75.7395 57.3555 72.6061 58.0417 70.837 56.2726L75.0797 52.03C73.7109 50.6612 71.2679 51.1774 70.6976 53.1685L76.4656 54.8206ZM70.837 56.2726L69.414 54.8496L73.6566 50.6069L75.0797 52.03L70.837 56.2726ZM69.4138 54.8494C69.8106 55.2463 70.4535 55.2458 70.8496 54.8497L66.6069 50.6071C68.5535 48.6604 71.71 48.66 73.6568 50.6071L69.4138 54.8494ZM70.8494 54.8499C71.2462 54.4531 71.2457 53.8104 70.8497 53.4143L66.6067 57.6566C64.6604 55.71 64.66 52.5537 66.6071 50.6069L70.8494 54.8499ZM70.8495 53.4141L72.2725 54.837L68.0301 59.0798L66.607 57.6569L70.8495 53.4141ZM72.2726 54.8371C74.0412 56.6057 73.356 59.7397 70.8201 60.4657L69.1686 54.6975C67.1768 55.2678 66.6614 57.7112 68.03 59.0797L72.2726 54.8371ZM70.8206 60.4656C68.0448 61.2608 64.9205 60.5673 62.7255 58.3722L66.9681 54.1296C67.5606 54.7221 68.4047 54.9163 69.1682 54.6976L70.8206 60.4656ZM62.7256 58.3723C60.4384 56.0854 59.6885 52.7167 60.7394 49.767L66.3914 51.7807C66.1274 52.5218 66.2999 53.4614 66.968 54.1295L62.7256 58.3723ZM61.4272 52.8781L59.09 50.5032L63.3664 46.2946L65.7036 48.6695L61.4272 52.8781ZM59.1068 50.5202L57.7998 49.2132L62.0425 44.9706L63.3495 46.2776L59.1068 50.5202Z" fill="white" mask="url(#path-11-outside-1_39_1636)"/>
<path d="M36.5 20C37.3284 20 38 19.3284 38 18.5C38 17.6716 37.3284 17 36.5 17C35.6716 17 35 17.6716 35 18.5C35 19.3284 35.6716 20 36.5 20Z" fill="black"/>
<path d="M40.5 20C41.3284 20 42 19.3284 42 18.5C42 17.6716 41.3284 17 40.5 17C39.6716 17 39 17.6716 39 18.5C39 19.3284 39.6716 20 40.5 20Z" fill="black"/>
<path d="M45.5 20C46.3284 20 47 19.3284 47 18.5C47 17.6716 46.3284 17 45.5 17C44.6716 17 44 17.6716 44 18.5C44 19.3284 44.6716 20 45.5 20Z" fill="black"/>
</g>
</svg>
