<svg width="104" height="104" viewBox="0 0 104 104" fill="none" xmlns="http://www.w3.org/2000/svg">
<rect x="6" y="26.1457" width="88" height="64" rx="5" transform="rotate(-0.181066 6 26.1457)" fill="#7F4CDE"/>
<rect x="13.5049" y="27.6221" width="83" height="61" rx="3.5" transform="rotate(-0.181066 13.5049 27.6221)" fill="white" stroke="black" stroke-width="3"/>
<path d="M21.5001 38C20 33 19.0161 26.8522 24.0294 21L66.5 21C70.5 22.5 71 35 68.5 38.5L21.5001 38Z" fill="white"/>
<path d="M41.2135 38C39.7134 33 38.7295 26.8522 43.7428 21L86.2134 21C90.2134 22.5 90.7134 35 88.2134 38.5L41.2135 38Z" fill="white"/>
<path d="M26.5472 60.0187C26.4832 57.4847 24.3691 55.4747 21.8351 55.5387C19.301 55.6027 17.291 57.7168 17.355 60.2508C17.419 62.7849 19.5332 64.7949 22.0672 64.7309C24.6012 64.6669 26.6112 62.5527 26.5472 60.0187ZM19.9813 60.1845C19.9538 59.0983 20.8151 58.1925 21.9012 58.1651C22.9874 58.1376 23.8933 58.9989 23.9207 60.085C23.9481 61.1711 23.0868 62.0771 22.0007 62.1045C20.9146 62.1319 20.0087 61.2708 19.9813 60.1845Z" fill="black"/>
<path d="M81.8477 43.0469C80.0399 43.0469 78.4986 44.2063 77.926 45.8203H74.9141V38.8867H77.6875C83.0401 38.8867 87.3945 34.5321 87.3945 29.1797C87.3945 24.5465 84.1455 20.662 79.7832 19.702C79.3799 14.5125 75.028 10.4128 69.737 10.4128C68.2187 10.4128 66.7376 10.7509 65.3865 11.3992C62.7983 7.7951 58.5939 5.60547 54.1133 5.60547C49.6055 5.60547 45.3589 7.83351 42.7766 11.4872C41.9543 11.2647 41.1071 11.1523 40.2461 11.1523C35.2307 11.1523 31.0915 14.9757 30.5901 19.8607C26.4822 21.0488 23.6055 24.8036 23.6055 29.1797C23.6055 34.5321 27.96 38.8867 33.3125 38.8867H37.4727V45.8203H34.4607C33.8883 44.2063 32.3468 43.0469 30.5391 43.0469C28.2452 43.0469 26.3789 44.9131 26.3789 47.207C26.3789 49.5009 28.2452 51.3672 30.5391 51.3672C32.3468 51.3672 33.8883 50.2078 34.4607 48.5938H38.8594C39.6253 48.5938 40.2461 47.9728 40.2461 47.207V38.8867H45.793V56.9141H41.3943C40.8219 55.3001 39.2804 54.1406 37.4727 54.1406C35.1787 54.1406 33.3125 56.0069 33.3125 58.3008C33.3125 60.5947 35.1787 62.4609 37.4727 62.4609C39.2804 62.4609 40.8219 61.3015 41.3943 59.6875H47.1797C47.9456 59.6875 48.5664 59.0665 48.5664 58.3008V38.8867H54.1133V61.3127C52.4993 61.8853 51.3398 63.4266 51.3398 65.2344C51.3398 67.5283 53.2061 69.3945 55.5 69.3945C57.7939 69.3945 59.6602 67.5283 59.6602 65.2344C59.6602 63.4266 58.5007 61.8853 56.8867 61.3127V38.8867H62.4336V58.3008C62.4336 59.0665 63.0544 59.6875 63.8203 59.6875H70.9924C71.565 61.3015 73.1063 62.4609 74.9141 62.4609C77.208 62.4609 79.0742 60.5947 79.0742 58.3008C79.0742 56.0069 77.208 54.1406 74.9141 54.1406C73.1063 54.1406 71.565 55.3001 70.9924 56.9141H65.207V38.8867H72.1406V47.207C72.1406 47.9728 72.7615 48.5938 73.5273 48.5938H77.926C78.4986 50.2078 80.0399 51.3672 81.8477 51.3672C84.1416 51.3672 86.0078 49.5009 86.0078 47.207C86.0078 44.9131 84.1416 43.0469 81.8477 43.0469ZM30.5391 48.5938C29.7744 48.5938 29.1523 47.9717 29.1523 47.207C29.1523 46.4424 29.7744 45.8203 30.5391 45.8203C31.3037 45.8203 31.9258 46.4424 31.9258 47.207C31.9258 47.9717 31.3037 48.5938 30.5391 48.5938ZM37.4727 59.6875C36.708 59.6875 36.0859 59.0654 36.0859 58.3008C36.0859 57.5361 36.708 56.9141 37.4727 56.9141C38.2373 56.9141 38.8594 57.5361 38.8594 58.3008C38.8594 59.0654 38.2373 59.6875 37.4727 59.6875ZM55.5 66.6211C54.7354 66.6211 54.1133 65.999 54.1133 65.2344C54.1133 64.4697 54.7354 63.8477 55.5 63.8477C56.2646 63.8477 56.8867 64.4697 56.8867 65.2344C56.8867 65.999 56.2646 66.6211 55.5 66.6211ZM74.9141 56.9141C75.6787 56.9141 76.3008 57.5361 76.3008 58.3008C76.3008 59.0654 75.6787 59.6875 74.9141 59.6875C74.1494 59.6875 73.5273 59.0654 73.5273 58.3008C73.5273 57.5361 74.1494 56.9141 74.9141 56.9141ZM26.3789 29.1797C26.3789 25.7795 28.8093 22.9046 32.1578 22.3439C32.8331 22.2307 33.3248 21.6416 33.3153 20.9569C33.2662 17.0474 36.4232 13.9258 40.2461 13.9258C41.139 13.9258 42.011 14.0948 42.8373 14.4282C43.4735 14.6849 44.202 14.4376 44.5506 13.8466C46.5397 10.474 50.204 8.37891 54.1133 8.37891C58.0672 8.37891 61.7522 10.5106 63.7305 13.942C64.1312 14.637 65.0351 14.8463 65.6997 14.4041C66.8977 13.6074 68.2937 13.1862 69.737 13.1862C73.8531 13.1862 77.2234 16.6236 77.0316 20.83C76.9976 21.5728 77.5558 22.2103 78.2967 22.2747C81.8432 22.5828 84.6211 25.616 84.6211 29.1797C84.6211 33.0029 81.5107 36.1133 77.6875 36.1133H33.3125C29.4893 36.1133 26.3789 33.0029 26.3789 29.1797ZM81.8477 48.5938C81.083 48.5938 80.4609 47.9717 80.4609 47.207C80.4609 46.4424 81.083 45.8203 81.8477 45.8203C82.6123 45.8203 83.2344 46.4424 83.2344 47.207C83.2344 47.9717 82.6123 48.5938 81.8477 48.5938Z" fill="black"/>
<path d="M76.3708 26.357C78.1547 26.8454 79.6738 27.9757 80.6487 29.5395C81.0531 30.1885 81.908 30.3886 82.5589 29.9829C83.209 29.5778 83.4074 28.7225 83.0022 28.0725C81.6574 25.9146 79.5622 24.3553 77.1031 23.682C76.3644 23.4794 75.6017 23.9146 75.3994 24.6533C75.1972 25.392 75.6321 26.1547 76.3708 26.357Z" fill="black"/>
</svg>
