<svg width="104" height="104" viewBox="0 0 104 104" fill="none" xmlns="http://www.w3.org/2000/svg">
<rect x="12.9998" y="41" width="37" height="45" rx="5" fill="#7F4CDE"/>
<path d="M9 83C9 82.4477 9.44772 82 10 82H42C44.7614 82 47 84.2386 47 87V89C47 91.7614 44.7614 94 42 94H14C11.2386 94 9 91.7614 9 89V83Z" fill="#7F4CDE"/>
<path d="M17.9999 47C17.9999 44.7908 19.7908 43 21.9999 43H77C79.2091 43 81 44.7908 81 47V82.665C81 84.3067 82.174 85.7134 83.7892 86.0071C85.3692 86.2944 86.7534 87.7305 86.129 89.21C85.5239 90.6438 84.1131 91.3834 81.3618 91.9305C81.1219 91.9782 80.8769 92 80.6324 92H17.9999C13.7745 91.8641 12.079 91.1042 11.7887 89.1896C11.5436 87.5726 13.0604 86.3232 14.6737 86.0543C16.5931 85.7344 17.9999 84.0737 17.9999 82.1278V47Z" fill="white"/>
<path d="M88.3541 84.0625H83.4166V47.625C83.4166 43.9713 80.4641 41 76.8332 41H24.1666C20.5359 41 17.5832 43.9712 17.5832 47.625V84.0625H12.6457C11.7362 84.0625 11 84.8032 11 85.7187V87.375C11 91.0287 13.9525 94 17.5834 94H83.4168C87.0475 94 90 91.0287 90 87.375V85.7187C90 84.8032 89.2638 84.0625 88.3541 84.0625ZM20.875 47.625C20.875 45.799 22.3521 44.3126 24.1666 44.3126H76.8332C78.6478 44.3126 80.1248 45.799 80.1248 47.625V84.0625H58.7291H42.2709H20.875V47.625ZM83.4166 90.6874H17.5834C15.7689 90.6874 14.2918 89.201 14.2918 87.375H19.2293H41.5894L42.7531 88.546C43.0617 88.8566 43.4795 89.0313 43.9168 89.0313H57.0834C57.5205 89.0313 57.9385 88.8566 58.2471 88.546L59.4106 87.375H81.7709H86.7084C86.7084 89.201 85.2313 90.6874 83.4166 90.6874Z" fill="black"/>
<path d="M87.332 60H48.668C45.5377 60 43 57.5183 43 54.457V30.543C43 27.4817 45.5377 25 48.668 25H87.332C90.4623 25 93 27.4817 93 30.543V54.4568C93 57.518 90.4623 60 87.332 60Z" fill="white"/>
<path d="M94.2822 12.4778C94.2822 10.5574 92.7248 9 90.8043 9H51.4778C49.5574 9.00012 48 10.5574 48 12.4778V17.6571H94.2822V12.4778Z" fill="white" stroke="black" stroke-width="3" stroke-miterlimit="10" stroke-linecap="round" stroke-linejoin="round"/>
<path d="M60.0637 55.0164H79.8882C79.8882 55.0164 85.9784 55.0164 90.2838 55.0164C92.4929 55.0164 94.2825 53.2255 94.2825 51.0164V45.2181V17.6572H48V51.5368C48 53.4583 49.5569 55.0164 51.4772 55.0164H60.0637Z" fill="white" stroke="black" stroke-width="3" stroke-miterlimit="10" stroke-linecap="round" stroke-linejoin="round"/>
<path d="M82.1542 37.8351C81.3632 37.0198 81.3632 35.7229 82.1542 34.906L83.3953 33.6265C84.0489 32.952 84.1775 31.9247 83.7064 31.1111L81.8151 27.8343C81.3457 27.0207 80.3913 26.6175 79.4805 26.8469L77.7509 27.2816C76.6487 27.558 75.5258 26.9096 75.2146 25.8161L74.7279 24.1021C74.4689 23.1982 73.6432 22.5741 72.7044 22.5741H68.9201C67.9814 22.5741 67.1539 23.1982 66.8966 24.1021L66.4099 25.8161C66.0988 26.9096 64.9758 27.5579 63.8737 27.2816L62.1441 26.8469C61.2331 26.6175 60.2788 27.0207 59.8095 27.8343L57.918 31.1111C57.4469 31.9247 57.5755 32.952 58.2291 33.6265L59.4704 34.906C60.2614 35.723 60.2614 37.0198 59.4704 37.8351L58.2291 39.1162C57.5755 39.7907 57.4469 40.818 57.918 41.6316L59.8093 44.9084C60.2787 45.722 61.233 46.1252 62.1439 45.8958L63.8736 45.4612C64.9757 45.1847 66.0987 45.8332 66.4098 46.9266L66.8965 48.6406C67.1538 49.5446 67.9812 50.1686 68.92 50.1686H72.7043C73.6431 50.1686 74.4687 49.5446 74.7278 48.6406L75.2145 46.9266C75.5257 45.8333 76.6486 45.1848 77.7507 45.4612L79.4804 45.8958C80.3913 46.1252 81.3457 45.722 81.815 44.9084L83.7063 41.6316C84.1774 40.818 84.0487 39.7907 83.3952 39.1162L82.1542 37.8351Z" stroke="black" stroke-width="3" stroke-miterlimit="10" stroke-linecap="round" stroke-linejoin="round"/>
<path d="M70.8111 41.5217C67.9674 41.5217 65.6628 39.2151 65.6628 36.3714C65.6628 33.5277 67.9674 31.221 70.8111 31.221C73.6569 31.221 75.9615 33.5277 75.9615 36.3714C75.9613 39.2151 73.6568 41.5217 70.8111 41.5217Z" stroke="black" stroke-width="3" stroke-miterlimit="10" stroke-linecap="round" stroke-linejoin="round"/>
<path d="M55.4858 70H31.5142C29.5734 70 28 68.3691 28 66.3574V50.6426C28 48.6309 29.5734 47 31.5142 47H55.4858C57.4266 47 59 48.6309 59 50.6426V66.3573C59 68.369 57.4266 70 55.4858 70Z" fill="white"/>
<path d="M51.3733 70.8694H30.9884C29.338 70.8694 28 69.5314 28 67.881V54.9884C28 53.338 29.338 52 30.9884 52H51.3733C53.0237 52 54.3617 53.338 54.3617 54.9884V67.8809C54.3617 69.5313 53.0237 70.8694 51.3733 70.8694Z" fill="#7F4CDE" stroke="#7F4CDE" stroke-width="3" stroke-miterlimit="10" stroke-linecap="round" stroke-linejoin="round"/>
<path d="M32.4526 66.1541L35.9415 56.9936C36.0127 56.8193 36.2595 56.8191 36.3311 56.9932L39.7882 66.1541" stroke="white" stroke-width="3" stroke-miterlimit="10" stroke-linecap="round" stroke-linejoin="round"/>
<path d="M33.5408 63.8726H38.7179" stroke="white" stroke-width="3" stroke-miterlimit="10" stroke-linecap="round" stroke-linejoin="round"/>
<path d="M50.0849 61.5085C50.0849 63.9929 48.706 65.9587 46.5185 65.997C45.7904 66.0096 43.9084 66.0169 43.9084 66.0169C43.9084 66.0169 43.8966 62.751 43.8966 61.4987C43.8966 60.4702 43.8901 57.0005 43.8901 57.0005C43.8901 57.0005 45.5832 57.0005 46.4438 57.0005C48.8431 57.0003 50.0849 59.024 50.0849 61.5085Z" stroke="white" stroke-width="3" stroke-miterlimit="10" stroke-linecap="round" stroke-linejoin="round"/>
</svg>
