<svg width="104" height="104" viewBox="0 0 104 104" fill="none" xmlns="http://www.w3.org/2000/svg">
<rect x="5" y="13.562" width="37" height="85" rx="5" transform="rotate(-9.76289 5 13.562)" fill="#7F4CDE"/>
<rect x="12.2378" y="14.346" width="48" height="82" rx="4" transform="rotate(-9.76289 12.2378 14.346)" fill="white"/>
<path fill-rule="evenodd" clip-rule="evenodd" d="M15.9127 11.7477L54.6082 5.0896C56.1926 4.81873 57.8197 5.18743 59.1325 6.11481C60.4454 7.04219 61.3367 8.45249 61.611 10.0363L71.2402 66L68.1644 66L58.6236 10.5503C58.4864 9.75843 58.0407 9.05332 57.3843 8.58964C56.7279 8.12596 55.9144 7.94158 55.1222 8.07695L47.3062 9.42179L46.7482 13.0802C46.7004 13.3946 46.5549 13.686 46.3322 13.913C46.1095 14.14 45.821 14.2912 45.5075 14.345L27.5834 17.4291C27.27 17.4831 26.9476 17.4371 26.6618 17.2976C26.376 17.158 26.1415 16.9321 25.9914 16.6517L24.2427 13.3902L16.4267 14.735C15.6348 14.8722 14.9297 15.3179 14.466 15.9743C14.0024 16.6307 13.818 17.4442 13.9534 18.2364L26.2897 89.9328C26.4269 90.7247 26.8725 91.4298 27.5289 91.8935C28.1853 92.3571 28.9989 92.5415 29.791 92.4062L68.4866 85.7481C69.2784 85.6109 69.9835 85.1652 70.4472 84.5088C70.9109 83.8524 71.0953 83.0389 70.9599 82.2467L69.7551 75.2447L72.3794 72.6204L73.9473 81.7327C74.2181 83.3171 73.8494 84.9442 72.922 86.257C71.9947 87.5699 70.5844 88.4612 69.0006 88.7354L30.305 95.3935C28.7207 95.6644 27.0936 95.2957 25.7807 94.3683C24.4679 93.4409 23.5766 92.0306 23.3023 90.4468L10.966 18.7504C10.6951 17.166 11.0638 15.5389 11.9912 14.2261C12.9186 12.9132 14.3289 12.0219 15.9127 11.7477Z" fill="black"/>
<path d="M54.0856 82.0744L42.1362 84.1304C41.7464 84.2054 41.4015 84.4302 41.1757 84.7566C40.9499 85.083 40.8611 85.485 40.9284 85.8762C40.9957 86.2674 41.2138 86.6165 41.5357 86.8487C41.8577 87.0808 42.2579 87.1775 42.6503 87.1178L54.5996 85.0617C54.9894 84.9868 55.3343 84.762 55.5601 84.4356C55.7859 84.1092 55.8747 83.7072 55.8074 83.316C55.7401 82.9248 55.5221 82.5757 55.2001 82.3435C54.8782 82.1113 54.478 82.0147 54.0856 82.0744Z" fill="black"/>
<rect x="36.8848" y="28.8849" width="56.5472" height="37.6981" rx="4" fill="white"/>
<path d="M65.5 55.912L66.4017 70.2134C66.4322 70.8561 66.9806 71.4494 67.5856 71.6684C68.1905 71.8875 68.9957 71.6263 69.4643 71.059L71.7011 68.0791L75.8317 73.6801C76.3613 74.3982 77.4842 74.5679 78.2022 74.0383L81.6491 71.4964C82.3672 70.9669 82.5368 69.844 82.0073 69.1259L77.7142 63.7555L81.0973 62.4801C81.7777 62.2001 82.2462 61.6328 82.2346 60.8654C82.2229 60.0979 81.7993 59.5234 81.1943 59.3044L67.779 54.3422C66.6938 53.923 65.4012 54.8762 65.5 55.912Z" fill="#7F4CDE"/>
<path d="M64.2288 44.196H68.0757C69.8165 44.196 69.8165 40.0752 68.0757 40.0752H67.498H64.4535C64.2207 40.0752 64.2207 40.1716 64.2207 40.3479L64.2327 47.5229" stroke="black" stroke-width="3" stroke-miterlimit="10" stroke-linecap="round" stroke-linejoin="round"/>
<path d="M35.416 40.0752V47.5229" stroke="black" stroke-width="3" stroke-miterlimit="10" stroke-linecap="round" stroke-linejoin="round"/>
<path d="M40.8511 40.0752V47.5229" stroke="black" stroke-width="3" stroke-miterlimit="10" stroke-linecap="round" stroke-linejoin="round"/>
<path d="M35.416 43.7991H40.8513" stroke="black" stroke-width="3" stroke-miterlimit="10" stroke-linecap="round" stroke-linejoin="round"/>
<path d="M50.8112 40.0752H45.376" stroke="black" stroke-width="3" stroke-miterlimit="10" stroke-linecap="round" stroke-linejoin="round"/>
<path d="M48.0908 40.0752V47.5229" stroke="black" stroke-width="3" stroke-miterlimit="10" stroke-linecap="round" stroke-linejoin="round"/>
<path d="M59.8123 40.0752H54.377" stroke="black" stroke-width="3" stroke-miterlimit="10" stroke-linecap="round" stroke-linejoin="round"/>
<path d="M57.0962 40.0752V47.5229" stroke="black" stroke-width="3" stroke-miterlimit="10" stroke-linecap="round" stroke-linejoin="round"/>
<path d="M75.2476 45.7291V45.7431" stroke="black" stroke-width="3" stroke-miterlimit="10" stroke-linecap="round" stroke-linejoin="round"/>
<path d="M75.2476 41.2837V41.2978" stroke="black" stroke-width="3" stroke-miterlimit="10" stroke-linecap="round" stroke-linejoin="round"/>
<path d="M80.647 47.5229L83.9281 40.0752" stroke="black" stroke-width="3" stroke-miterlimit="10" stroke-linecap="round" stroke-linejoin="round"/>
<path d="M86.1421 47.5229L89.4232 40.0752" stroke="black" stroke-width="3" stroke-miterlimit="10" stroke-linecap="round" stroke-linejoin="round"/>
<path d="M85.5 59.6604L93.4385 59.6604C95.5765 59.6604 97.3296 57.9088 97.3296 55.7682V32.8882C97.3296 30.7478 95.5765 29 93.4385 29L77.3173 29L30.8909 29C28.7489 29 27 30.7478 27 32.8882V55.7682C27 57.9088 28.7489 59.6604 30.8909 59.6604H61.5" stroke="black" stroke-width="3" stroke-miterlimit="10" stroke-linecap="round" stroke-linejoin="round"/>
</svg>
