<svg width="104" height="104" viewBox="0 0 104 104" fill="none" xmlns="http://www.w3.org/2000/svg">
<rect x="5" y="10.3045" width="37" height="85" rx="5" transform="rotate(-9.76289 5 10.3045)" fill="#7F4CDE"/>
<rect x="12.2378" y="11.0885" width="48" height="82" rx="4" transform="rotate(-9.76289 12.2378 11.0885)" fill="white"/>
<path fill-rule="evenodd" clip-rule="evenodd" d="M15.9127 8.49019L54.6082 1.83212C56.1926 1.56125 57.8197 1.92995 59.1325 2.85733C60.4454 3.78471 61.3367 5.19502 61.611 6.7788L63.2836 16.5L60.6426 16.5C60.4968 16.5 60.3531 16.5077 60.2117 16.5228L58.6236 7.29281C58.4864 6.50095 58.0407 5.79584 57.3843 5.33216C56.7279 4.86848 55.9144 4.68411 55.1222 4.81947L47.3062 6.16432L46.7482 9.82273C46.7004 10.1371 46.5549 10.4285 46.3322 10.6555C46.1095 10.8826 45.821 11.0337 45.5075 11.0875L27.5834 14.1716C27.27 14.2256 26.9476 14.1796 26.6618 14.0401C26.376 13.9006 26.1415 13.6746 25.9914 13.3942L24.2427 10.1327L16.4267 11.4775C15.6348 11.6147 14.9297 12.0604 14.466 12.7168C14.0024 13.3732 13.818 14.1867 13.9534 14.9789L26.2897 86.6753C26.4269 87.4672 26.8725 88.1723 27.5289 88.636C28.1853 89.0997 28.9989 89.2841 29.791 89.1487L68.4866 82.4906C69.2784 82.3534 69.9835 81.9077 70.4472 81.2513C70.9109 80.5949 71.0953 79.7814 70.9599 78.9892L69.4132 70L72.489 70L73.9473 78.4752C74.2181 80.0596 73.8494 81.6867 72.922 82.9995C71.9947 84.3124 70.5844 85.2037 69.0006 85.478L30.305 92.136C28.7207 92.4069 27.0936 92.0382 25.7807 91.1108C24.4679 90.1834 23.5766 88.7731 23.3023 87.1893L10.966 15.4929C10.6951 13.9086 11.0638 12.2814 11.9912 10.9686C12.9186 9.65577 14.3289 8.76444 15.9127 8.49019Z" fill="black"/>
<path d="M54.0857 78.8169L42.1363 80.873C41.7465 80.9479 41.4017 81.1727 41.1758 81.4991C40.95 81.8256 40.8612 82.2275 40.9285 82.6187C40.9958 83.0099 41.2139 83.3591 41.5359 83.5912C41.8578 83.8234 42.258 83.92 42.6504 83.8603L54.5997 81.8043C54.9895 81.7293 55.3344 81.5045 55.5602 81.1781C55.7861 80.8517 55.8749 80.4497 55.8076 80.0585C55.7402 79.6674 55.5222 79.3182 55.2002 79.086C54.8783 78.8539 54.4781 78.7572 54.0857 78.8169Z" fill="black"/>
<g clip-path="url(#clip0_38_986)">
<path d="M60.2371 44.2038C60.2371 44.2038 60.2006 44.2038 60.1642 44.2038C58.8874 47.9247 57.6106 51.6455 56.3339 55.3664C59.0333 56.1324 61.6598 56.0595 64.2498 55.184C62.9001 51.4996 61.5868 47.8517 60.2371 44.2038Z" fill="#7F4CDE"/>
<path d="M48.2355 37.82C48.199 37.82 48.199 37.82 48.1626 37.82C46.7399 41.2125 46.6669 44.6415 48.1261 48.0706C49.3664 50.9889 51.4457 53.1412 54.291 54.6003C54.3275 54.6003 54.3275 54.5638 54.364 54.5638C52.3212 48.9461 50.2783 43.4013 48.2355 37.82Z" fill="#7F4CDE"/>
<path d="M67.8977 39.3156C67.6058 38.7684 67.2775 38.2577 66.9492 37.7106C66.6574 37.1998 66.4385 36.6527 66.3656 36.069C66.2196 34.8652 67.0222 33.7343 68.226 33.5155C68.3354 33.479 68.4813 33.479 68.7002 33.4425C65.1253 30.4512 61.1491 29.3933 56.6986 30.5242C53.525 31.3267 51.0809 33.1507 49.184 35.9231C49.8771 35.9231 50.4972 35.9231 51.0809 35.9231C51.8469 35.8866 52.613 35.8136 53.379 35.7772C53.7438 35.7407 53.9627 35.9231 53.9992 36.2149C54.0357 36.5432 53.8897 36.7621 53.4885 36.7986C53.379 36.8351 53.2696 36.8351 53.1602 36.8351C52.7954 36.8715 52.4671 36.908 52.0658 36.9445C53.6344 41.6138 55.203 46.2466 56.7351 50.843C56.8081 50.8065 56.8445 50.77 56.8445 50.7335C57.7565 48.0341 58.6685 45.3347 59.544 42.5987C59.5805 42.4893 59.544 42.3069 59.5075 42.1975C58.9238 40.5194 58.3037 38.8779 57.6836 37.1998C57.6106 36.981 57.5012 36.908 57.2823 36.908C56.9175 36.908 56.5527 36.8351 56.1879 36.7986C55.8961 36.7621 55.7502 36.5432 55.7502 36.2514C55.7867 35.9596 55.9691 35.7772 56.2609 35.7772C56.4068 35.7772 56.5162 35.8136 56.6622 35.8136C58.0484 35.8501 59.471 35.8866 60.8572 35.9231C61.5868 35.9231 62.3529 35.8501 63.0825 35.8136C63.4108 35.8136 63.6296 35.996 63.6661 36.2879C63.7026 36.5797 63.5202 36.7986 63.2284 36.8351C63.0825 36.8715 62.973 36.8715 62.8271 36.8715C62.4623 36.908 62.0975 36.9445 61.7327 36.981C63.3013 41.6138 64.8334 46.1737 66.402 50.843C66.4385 50.7336 66.475 50.6971 66.475 50.6606C67.1316 48.5083 67.7518 46.3561 68.4084 44.2038C68.9191 42.4893 68.7732 40.8477 67.8977 39.3156Z" fill="#7F4CDE"/>
<path d="M71.4362 20.0182H48.5274C42.18 20.0182 37 25.1983 37 31.5456V54.4909C37 60.8018 42.18 65.9818 48.5274 65.9818H71.4726C77.82 65.9818 83 60.8018 83 54.4544V31.5456C82.9635 25.1983 77.7835 20.0182 71.4362 20.0182ZM74.2086 43.7296C74.2086 43.839 74.2086 43.912 74.2086 44.0214C74.0991 45.9183 73.6249 47.7423 72.7494 49.4203C70.4512 53.7613 66.9128 56.3148 62.0246 57.1174C61.5868 57.1903 61.1491 57.2268 60.7113 57.2268H59.2522C59.1792 57.2268 59.0698 57.2268 58.9603 57.2268C57.0634 57.1174 55.276 56.6796 53.6344 55.8041C49.2569 53.506 46.7034 49.9675 45.9009 45.0793C45.7914 44.6051 45.755 44.2038 45.755 43.7296V42.2704C45.755 42.1975 45.755 42.088 45.755 41.9786C45.8644 40.0452 46.3386 38.2213 47.2506 36.5432C49.5488 32.2387 53.0872 29.7217 57.9025 28.9191C58.3402 28.8462 58.8144 28.8097 59.2522 28.8097H60.7113C60.8208 28.8097 60.8937 28.8097 61.0032 28.8097C62.8636 28.9191 64.6511 29.3569 66.3291 30.2324C70.7066 32.5305 73.2966 36.069 74.0991 40.9937C74.1721 41.4314 74.2086 41.8692 74.2086 42.3069V43.7296Z" fill="#7F4CDE"/>
<path d="M71.3632 36.908C71.3997 37.893 71.3997 38.8049 71.2537 39.7534C71.0713 40.8113 70.743 41.8327 70.3782 42.8541C69.1015 46.3926 67.8977 49.931 66.6939 53.4695C66.6209 53.6519 66.548 53.8707 66.5115 54.0531C66.548 54.0531 66.548 54.0896 66.5844 54.0896C70.0499 51.9374 72.1657 48.8366 72.7859 44.7875C73.1871 42.0151 72.7129 39.3886 71.3632 36.908Z" fill="#7F4CDE"/>
</g>
<defs>
<clipPath id="clip0_38_986">
<rect width="46" height="46" fill="white" transform="translate(37 20)"/>
</clipPath>
</defs>
</svg>
