<svg width="104" height="104" viewBox="0 0 104 104" fill="none" xmlns="http://www.w3.org/2000/svg">
<g clip-path="url(#clip0_39_2332)">
<rect x="6" y="21.1458" width="88" height="64" rx="5" transform="rotate(-0.181066 6 21.1458)" fill="#7F4CDE"/>
<rect x="13.5049" y="22.6221" width="83" height="61" rx="3.5" transform="rotate(-0.181066 13.5049 22.6221)" fill="white" stroke="black" stroke-width="3"/>
<path d="M100 16L33 16L33 54.3158L40.0526 62.3158L92.0658 72L100 72L100 16Z" fill="white"/>
<path d="M26.5472 55.0188C26.4832 52.4847 24.3691 50.4747 21.8351 50.5387C19.301 50.6027 17.291 52.7169 17.355 55.2509C17.419 57.7849 19.5332 59.7949 22.0672 59.7309C24.6012 59.6669 26.6112 57.5528 26.5472 55.0188ZM19.9813 55.1846C19.9538 54.0983 20.8151 53.1926 21.9012 53.1651C22.9874 53.1377 23.8933 53.999 23.9207 55.0851C23.9481 56.1712 23.0868 57.0771 22.0007 57.1046C20.9146 57.132 20.0087 56.2708 19.9813 55.1846Z" fill="black"/>
<path d="M93.0333 16.8852H94.0167C94.5595 16.8852 95 16.4456 95 15.9016V11.9672C95 11.4233 94.5595 10.9836 94.0167 10.9836H90.0833C89.5405 10.9836 89.1 11.4233 89.1 11.9672V12.9508H69.4333V10.9836C69.4333 10.4397 68.9928 10 68.45 10H62.55C62.0072 10 61.5667 10.4397 61.5667 10.9836V12.9508H41.9V11.9672C41.9 11.4233 41.4595 10.9836 40.9167 10.9836H36.9833C36.4405 10.9836 36 11.4233 36 11.9672V15.9016C36 16.4456 36.4405 16.8852 36.9833 16.8852H37.9667V63.1148H36.9833C36.4405 63.1148 36 63.5544 36 64.0984V68.0328C36 68.5767 36.4405 69.0164 36.9833 69.0164H40.9167C41.4595 69.0164 41.9 68.5767 41.9 68.0328V67.0492H61.5667V69.0164C61.5667 69.5603 62.0072 70 62.55 70H68.45C68.9928 70 69.4333 69.5603 69.4333 69.0164V67.0492H89.1V68.0328C89.1 68.5767 89.5405 69.0164 90.0833 69.0164H94.0167C94.5595 69.0164 95 68.5767 95 68.0328V64.0984C95 63.5544 94.5595 63.1148 94.0167 63.1148H93.0333V40V16.8852ZM91.0667 12.9508H93.0333V14.918H91.0667V12.9508ZM63.5333 11.9672H67.4667V14.1016V15.9016H63.5333V14.1016V13.9344V11.9672ZM37.9667 12.9508H39.9333V14.918H37.9667V12.9508ZM39.9333 16.8852H40.9167C41.4595 16.8852 41.9 16.4456 41.9 15.9016V14.918H55.1701C48.1914 17.677 42.6985 23.139 39.9333 29.9377V16.8852ZM39.9333 67.0492H37.9667V65.082H39.9333V67.0492ZM40.9167 63.1148H39.9333V50.0623C42.6985 56.861 48.1914 62.323 55.1701 65.082H41.9V64.0984C41.9 63.5544 41.4595 63.1148 40.9167 63.1148ZM59.8458 33.4925L63.3278 43.0118C62.08 43.9266 61.5165 45.579 62.0751 47.1026C62.4015 47.9967 63.0574 48.7108 63.9218 49.1121C64.3997 49.3344 64.909 49.4456 65.4204 49.4456C65.8343 49.4456 66.2483 49.3728 66.6476 49.2262C67.5424 48.8987 68.2553 48.2426 68.6565 47.379C69.0577 46.5144 69.099 45.5466 68.7715 44.6525C68.215 43.1289 66.7193 42.2298 65.1755 42.3361L61.6916 32.8118L75.2311 43.5744C73.6322 45.7689 73.1887 48.399 74.056 50.7843L75.1957 53.9033L63.2973 58.2567L62.1557 55.1338C61.2746 52.7269 59.1801 51.0184 56.4474 50.4243L59.8458 33.4925ZM66.9249 45.3282C67.0714 45.7285 67.0527 46.1633 66.8727 46.5498C66.6928 46.9374 66.3732 47.2315 65.971 47.379C65.5708 47.5246 65.1352 47.5079 64.7497 47.3269C64.3623 47.1469 64.0683 46.8272 63.9218 46.4259C63.6189 45.5977 64.0457 44.678 64.8736 44.3751C65.0546 44.3092 65.2394 44.2767 65.4213 44.2767C66.0733 44.2777 66.6869 44.681 66.9249 45.3282ZM63.9729 60.1059L75.8712 55.7515L78.0867 61.8125C78.0316 61.8429 77.9775 61.8754 77.9225 61.9049C77.3492 62.2197 76.768 62.5118 76.177 62.7803C76.1013 62.8148 76.0256 62.8482 75.9489 62.8816C75.9096 62.8984 75.8702 62.9151 75.8319 62.9318C75.237 63.1915 74.6342 63.4305 74.0216 63.6439C74.0157 63.6459 74.0088 63.6489 74.0029 63.6508C73.9085 63.6843 73.8121 63.7138 73.7167 63.7462C73.1189 63.9459 72.5141 64.122 71.9015 64.2764C71.7707 64.3098 71.6409 64.3423 71.5101 64.3728C70.8572 64.5262 70.1974 64.658 69.5297 64.7603C69.4972 64.7652 69.4648 64.7682 69.4324 64.7731V63.1148C69.4324 62.5708 68.9918 62.1311 68.449 62.1311H64.7133L63.9729 60.1059ZM67.4667 68.0328H63.5333V65.8984V64.0984H64.025H67.4667V65.8984V66.0656V68.0328ZM93.0333 67.0492H91.0667V66.0656V65.082H92.05H93.0333V67.0492ZM91.0667 50.1046V63.1148H90.0833C89.5405 63.1148 89.1 63.5544 89.1 64.0984V65.082H75.8152C75.8329 65.0751 75.8496 65.0662 75.8673 65.0584C76.4563 64.8223 77.0355 64.5587 77.6088 64.2803C77.7592 64.2075 77.9077 64.1338 78.0572 64.058C78.6462 63.759 79.2303 63.4452 79.8026 63.102C79.8036 63.101 79.8046 63.1 79.8055 63.1C80.3975 62.7469 80.9669 62.3702 81.5244 61.9797C81.7024 61.8557 81.8725 61.7249 82.0466 61.597C82.4281 61.3167 82.8018 61.0305 83.1656 60.7334C83.3495 60.583 83.5314 60.4315 83.7113 60.2771C84.0703 59.9692 84.4164 59.6515 84.7566 59.3269C84.9051 59.1852 85.0575 59.0466 85.203 58.902C85.6721 58.4328 86.1274 57.9528 86.5581 57.4541C86.5994 57.4069 86.6358 57.3557 86.6761 57.3075C87.0645 56.8512 87.4362 56.3829 87.7922 55.9039C87.919 55.7328 88.038 55.5577 88.1609 55.3846C88.4244 55.0118 88.6791 54.6341 88.922 54.2485C89.044 54.0557 89.1639 53.863 89.2799 53.6682C89.5219 53.262 89.751 52.8498 89.9702 52.4318C90.0588 52.2646 90.1522 52.0993 90.2367 51.9302C90.5288 51.3439 90.8031 50.7489 91.0519 50.142C91.0549 50.1292 91.0618 50.1174 91.0667 50.1046ZM79.7996 60.7698L75.9037 50.1095C75.1701 48.0931 75.6972 45.8987 77.3492 44.0859C77.5331 43.8843 77.6245 43.6157 77.6019 43.3443C77.5802 43.0728 77.4465 42.8229 77.2331 42.6528L60.423 29.2905C60.2647 28.6944 59.9461 27.04 60.8882 25.841C61.961 24.4767 64.4527 23.978 68.0911 24.3872C71.7422 24.8062 74.2762 24.2475 75.6303 22.7407C76.6943 21.5584 76.7189 20.077 76.5664 19.3875L74.647 19.8144C74.6489 19.8233 74.8102 20.7125 74.1691 21.4266C73.289 22.4033 71.2083 22.7584 68.3133 22.4338C63.8962 21.9292 60.8803 22.6708 59.3424 24.6262C57.7887 26.6023 58.3187 29.0997 58.5557 29.9269L54.3185 51.04C54.2644 51.3115 54.3264 51.5928 54.4896 51.8161C54.6538 52.0393 54.9026 52.183 55.1779 52.2115C57.6992 52.48 59.5695 53.7921 60.309 55.8125L62.6188 62.1311H62.55C62.0072 62.1311 61.5667 62.5708 61.5667 63.1148V64.779C49.158 62.9131 39.9333 52.4446 39.9333 40C39.9333 27.5554 49.158 17.0869 61.5667 15.221V16.8852C61.5667 17.4292 62.0072 17.8689 62.55 17.8689H68.45C68.9928 17.8689 69.4333 17.4292 69.4333 16.8852V15.221C81.842 17.0869 91.0667 27.5554 91.0667 40C91.0667 48.4285 86.8737 56.1016 79.7996 60.7698ZM75.8299 14.918H89.1V15.9016C89.1 16.4456 89.5405 16.8852 90.0833 16.8852H91.0667V29.9377C88.3015 23.139 82.8086 17.677 75.8299 14.918Z" fill="black" stroke="black"/>
</g>
<defs>
<clipPath id="clip0_39_2332">
<rect width="104" height="104" fill="white"/>
</clipPath>
</defs>
</svg>
