<svg width="104" height="104" viewBox="0 0 104 104" fill="none" xmlns="http://www.w3.org/2000/svg">
<rect x="6" y="26.1458" width="88" height="64" rx="5" transform="rotate(-0.181066 6 26.1458)" fill="#7F4CDE"/>
<rect x="13.5047" y="27.6221" width="83" height="61" rx="3.5" transform="rotate(-0.181066 13.5047 27.6221)" fill="white" stroke="black" stroke-width="3"/>
<rect x="39.5624" y="29.6892" width="62.9348" height="23.0653" rx="5" transform="rotate(-0.181066 39.5624 29.6892)" fill="white"/>
<rect x="38.3136" y="19.8388" width="41.0664" height="23.0718" rx="5" transform="rotate(-0.181066 38.3136 19.8388)" fill="white"/>
<path d="M26.5472 60.0187C26.4832 57.4847 24.3691 55.4747 21.8351 55.5387C19.301 55.6027 17.291 57.7168 17.355 60.2508C17.419 62.7849 19.5332 64.7949 22.0672 64.7309C24.6012 64.6669 26.6112 62.5527 26.5472 60.0187ZM19.9813 60.1845C19.9538 59.0983 20.8151 58.1925 21.9012 58.1651C22.9874 58.1376 23.8933 58.9989 23.9207 60.085C23.9481 61.1711 23.0868 62.0771 22.0007 62.1045C20.9146 62.1319 20.0087 61.2708 19.9813 60.1845Z" fill="black"/>
<path d="M101.637 33.1067H83.9425C82.6445 33.1067 81.5795 34.1606 81.5795 35.4697V45.8645C81.5795 47.1625 82.6334 48.2164 83.9314 48.2275V50.2687C83.9314 50.6903 84.1755 51.0675 84.5637 51.245C84.708 51.3115 84.8633 51.3448 85.0075 51.3448C85.2627 51.3448 85.5178 51.2561 85.7175 51.0786L89.0012 48.2275H101.637C102.935 48.2275 104 47.1625 104 45.8645V35.4697C104 34.1606 102.935 33.1067 101.637 33.1067Z" fill="#7F4CDE"/>
<path d="M98.0981 37.5553H87.4481C86.849 37.5553 86.372 38.0323 86.372 38.6314C86.372 39.2305 86.849 39.7075 87.4481 39.7075H98.0981C98.6972 39.7075 99.1742 39.2305 99.1742 38.6314C99.1742 38.0323 98.6861 37.5553 98.0981 37.5553Z" fill="white"/>
<path d="M93.2058 41.6267H87.4481C86.849 41.6267 86.372 42.1037 86.372 42.7028C86.372 43.3019 86.849 43.7789 87.4481 43.7789H93.2058C93.8048 43.7789 94.2818 43.3019 94.2818 42.7028C94.2818 42.1037 93.7937 41.6267 93.2058 41.6267Z" fill="white"/>
<path d="M72.0833 46.6078C70.5967 46.1418 69.1878 45.6981 68.1339 45.1323C67.0911 44.5887 66.3478 43.7345 65.8708 42.6473C66.2591 42.2479 66.6252 41.8042 66.9802 41.3382H74.7569C75.3449 41.3382 75.8219 40.8723 75.833 40.2844L76.1325 26.0733C76.1325 21.5359 74.3575 17.2426 71.1403 14.0033C67.9121 10.775 63.6299 9 59.0703 9C49.6628 9 42.0082 16.6547 42.0082 26.0955L42.3077 40.2733C42.3188 40.8612 42.7958 41.3272 43.3838 41.3272H51.1605C51.5155 41.7931 51.8816 42.2368 52.2699 42.6362C51.7928 43.7345 51.0496 44.5776 50.0068 45.1323C48.9528 45.6981 47.5439 46.1418 46.0574 46.6078C40.5327 48.3495 32.9779 63.7347 33 75.3609C33 75.8712 33.3661 76.3149 33.8654 76.4148C42.2189 78.0678 50.6391 78.8998 59.0592 78.8998C67.4794 78.8998 75.8885 78.0678 84.2531 76.4148C84.7524 76.3149 85.1185 75.8712 85.1185 75.3609C85.1406 63.7347 77.5858 48.3495 72.0833 46.6078ZM49.0638 26.3506C49.0638 24.8308 49.1747 23.3109 49.3855 21.8355L51.9038 19.4836C54.0893 20.8592 60.8453 24.6422 69.0103 24.8086C69.0325 25.2634 69.0436 25.7626 69.0436 26.3395C69.0436 28.7801 68.7663 31.0876 68.256 33.1733C66.4588 34.205 63.8517 35.0481 61.8992 35.4031L61.8882 35.1923C61.8549 34.6265 61.3778 34.1828 60.8121 34.1828L57.4728 34.1939C57.1733 34.1939 56.896 34.3159 56.6852 34.5378C56.4855 34.7597 56.3746 35.0481 56.3967 35.3476L56.6186 38.5315C56.6408 38.8311 56.785 39.1084 57.0069 39.297C57.1955 39.4523 57.4396 39.5411 57.6836 39.5411C57.728 39.5411 57.7835 39.5411 57.8278 39.53L61.1227 39.0862C61.6774 39.0086 62.0878 38.5204 62.0546 37.9547L62.0324 37.5775C63.6077 37.3112 65.5935 36.7565 67.3796 36.0022C65.6046 40.6504 62.5649 43.6568 59.0371 43.6568C53.4569 43.6457 49.0638 36.0465 49.0638 26.3506ZM59.858 37.0672L58.6932 37.2225L58.6377 36.335H59.8136L59.8358 36.6567C59.8358 36.6789 59.8247 36.69 59.8247 36.7122C59.8247 36.7233 59.8358 36.7454 59.8358 36.7565L59.858 37.0672ZM44.4266 39.175L44.1493 26.0622C44.1493 17.8306 50.8388 11.1411 59.0592 11.1411C63.0419 11.1411 66.7916 12.6942 69.5983 15.512C72.4161 18.352 73.9581 22.0906 73.9581 26.04L73.6808 39.175H68.3114C69.0991 37.6995 69.7536 36.0133 70.2417 34.1717C70.2528 34.1384 70.2639 34.1051 70.275 34.0719C70.8741 31.7311 71.2069 29.124 71.2069 26.3506C71.2069 25.2412 71.1736 24.4092 71.0849 23.6216C71.0294 23.0669 70.5302 22.6675 69.9977 22.6564C60.5236 22.8339 52.4918 17.2981 52.4141 17.2426C52.0036 16.9542 51.4378 16.9875 51.0607 17.3314L47.6549 20.5153C47.4774 20.6817 47.3664 20.8925 47.3221 21.1366C47.0558 22.8339 46.9116 24.5867 46.9116 26.3506C46.9116 31.365 47.9877 35.8025 49.796 39.175H44.4266ZM59.0592 45.7979C60.9008 45.7979 62.6203 45.1878 64.1624 44.1006C64.7392 45.1656 65.5602 46.0087 66.5586 46.6632L59.2257 52.2656L51.5821 46.6522C52.5694 45.9976 53.3793 45.1545 53.945 44.1117C55.4871 45.1767 57.2066 45.7979 59.0592 45.7979ZM35.1633 74.4734C35.4961 65.199 41.4313 50.3242 46.6897 48.6601C47.6549 48.3606 48.5757 48.0611 49.4299 47.7282L58.6044 54.4732C58.793 54.6175 59.0149 54.684 59.2367 54.684C59.4697 54.684 59.6916 54.6064 59.8913 54.4622L68.6997 47.7393C69.5539 48.0722 70.4747 48.3606 71.4288 48.6712C76.6761 50.3353 82.6113 65.2101 82.9441 74.4845C67.0911 77.502 51.0274 77.502 35.1633 74.4734Z" fill="black"/>
</svg>
