<svg width="104" height="104" viewBox="0 0 104 104" fill="none" xmlns="http://www.w3.org/2000/svg">
<rect x="5" y="10.3045" width="37" height="85" rx="5" transform="rotate(-9.76289 5 10.3045)" fill="#7F4CDE"/>
<rect x="12.2378" y="11.0885" width="48" height="82" rx="4" transform="rotate(-9.76289 12.2378 11.0885)" fill="white"/>
<path fill-rule="evenodd" clip-rule="evenodd" d="M15.9127 8.49019L54.6082 1.83212C56.1926 1.56125 57.8197 1.92995 59.1325 2.85733C60.4454 3.78471 61.3367 5.19502 61.611 6.7788L62.5335 12.1402L59.26 10.9917L58.6236 7.29281C58.4864 6.50095 58.0407 5.79584 57.3843 5.33216C56.7279 4.86848 55.9144 4.68411 55.1222 4.81947L47.3062 6.16432L46.7482 9.82273C46.7004 10.1371 46.5549 10.4285 46.3322 10.6555C46.1095 10.8826 45.821 11.0337 45.5075 11.0875L27.5834 14.1716C27.27 14.2256 26.9476 14.1796 26.6618 14.0401C26.376 13.9006 26.1415 13.6746 25.9914 13.3942L24.2427 10.1327L16.4267 11.4775C15.6348 11.6147 14.9297 12.0604 14.466 12.7168C14.0024 13.3732 13.818 14.1867 13.9534 14.9789L26.2897 86.6753C26.4269 87.4672 26.8725 88.1723 27.5289 88.636C28.1853 89.0997 28.9989 89.2841 29.791 89.1487L68.4866 82.4906C69.2784 82.3534 69.9835 81.9077 70.4472 81.2513C70.9109 80.5949 71.0953 79.7814 70.9599 78.9892L70.0501 73.7013L73.7715 77.4538L73.9473 78.4752C74.2181 80.0596 73.8494 81.6867 72.922 82.9995C71.9947 84.3124 70.5844 85.2037 69.0006 85.478L30.305 92.136C28.7207 92.4069 27.0936 92.0382 25.7807 91.1108C24.4679 90.1834 23.5766 88.7731 23.3023 87.1893L10.966 15.4929C10.6951 13.9086 11.0638 12.2814 11.9912 10.9686C12.9186 9.65577 14.3289 8.76444 15.9127 8.49019Z" fill="black"/>
<path d="M50.3716 31.8264L46.5298 31.8264L46.5298 40.9441L50.3716 40.9441" stroke="#7F4CDE" stroke-width="3" stroke-miterlimit="10" stroke-linecap="round" stroke-linejoin="round"/>
<path d="M50.0883 36.3854L46.5298 36.3854" stroke="#7F4CDE" stroke-width="3" stroke-miterlimit="10" stroke-linecap="round" stroke-linejoin="round"/>
<path d="M54.6514 31.7425L61.1245 40.9441" stroke="#7F4CDE" stroke-width="3" stroke-miterlimit="10" stroke-linecap="round" stroke-linejoin="round"/>
<path d="M60.6688 31.7425L54.1865 40.9441" stroke="#7F4CDE" stroke-width="3" stroke-miterlimit="10" stroke-linecap="round" stroke-linejoin="round"/>
<path d="M36.3599 55.0548L52.3599 55.0548" stroke="black" stroke-width="3" stroke-miterlimit="22.926" stroke-linecap="round" stroke-linejoin="round"/>
<path d="M60.3599 55.0548L69.3599 55.0548" stroke="black" stroke-width="3" stroke-miterlimit="22.926" stroke-linecap="round" stroke-linejoin="round"/>
<path d="M36.3599 49.0548L69.3599 49.0548" stroke="black" stroke-width="3" stroke-miterlimit="22.926" stroke-linecap="round" stroke-linejoin="round"/>
<path d="M37 31.7425L42.0817 31.7425" stroke="#7F4CDE" stroke-width="3" stroke-miterlimit="10" stroke-linecap="round" stroke-linejoin="round"/>
<path d="M39.5303 32.0363L39.5303 40.9441" stroke="#7F4CDE" stroke-width="3" stroke-miterlimit="10" stroke-linecap="round" stroke-linejoin="round"/>
<path d="M64.2295 31.7425L69.3112 31.7425" stroke="#7F4CDE" stroke-width="3" stroke-miterlimit="10" stroke-linecap="round" stroke-linejoin="round"/>
<path d="M66.7607 32.0363L66.7607 40.9441" stroke="#7F4CDE" stroke-width="3" stroke-miterlimit="10" stroke-linecap="round" stroke-linejoin="round"/>
<path d="M54.0856 78.8169L42.1362 80.873C41.7464 80.9479 41.4015 81.1727 41.1757 81.4991C40.9499 81.8256 40.8611 82.2275 40.9284 82.6187C40.9957 83.0099 41.2138 83.3591 41.5357 83.5912C41.8577 83.8234 42.2579 83.92 42.6503 83.8603L54.5996 81.8043C54.9894 81.7293 55.3343 81.5045 55.5601 81.1781C55.7859 80.8517 55.8747 80.4497 55.8074 80.0585C55.7401 79.6674 55.5221 79.3182 55.2001 79.086C54.8782 78.8539 54.478 78.7572 54.0856 78.8169Z" fill="black"/>
<path d="M90.1965 78.6234L90.1965 78.6234C90.5305 78.2895 90.7955 77.893 90.9762 77.4567C91.157 77.0203 91.25 76.5527 91.25 76.0804C91.25 75.6081 91.157 75.1404 90.9762 74.7041C90.7955 74.2678 90.5305 73.8713 90.1965 73.5374L76.8095 60.1503C81.0749 54.2249 82.9749 46.9174 82.1321 39.6601C81.2809 32.3318 77.6957 25.5947 72.0928 20.7952C66.4899 15.9958 59.2822 13.4875 51.9103 13.7718C44.5383 14.056 37.5452 17.1119 32.3285 22.3286C27.1119 27.5453 24.056 34.5385 23.7718 41.9105C23.4875 49.2825 25.9957 56.4903 30.7952 62.0932C35.5946 67.6961 42.3317 71.2814 49.6599 72.1325C56.9171 72.9754 64.2246 71.0753 70.1499 66.81L83.5369 80.1971L83.7137 80.0203L83.5369 80.1971C84.2113 80.8713 85.1258 81.25 86.0793 81.25C87.0328 81.25 87.9473 80.8713 88.6217 80.1971L90.1965 78.6234ZM26.5609 43.079C26.5609 37.8342 28.1161 32.7072 31.0299 28.3464C33.9438 23.9855 38.0853 20.5866 42.9309 18.5795C47.7764 16.5724 53.1083 16.0472 58.2522 17.0704C63.3962 18.0936 68.1213 20.6192 71.8299 24.3279C75.5385 28.0365 78.0641 32.7616 79.0873 37.9056C80.1105 43.0497 79.5854 48.3816 77.5783 53.2272C75.5712 58.0727 72.1723 62.2143 67.8115 65.1282C63.4507 68.042 58.3238 69.5972 53.0791 69.5973C46.0486 69.5891 39.3083 66.7926 34.3369 61.8212C29.3656 56.8498 26.5691 50.1096 26.5609 43.079ZM76.9359 64.1325L74.1361 66.9363L72.295 65.0979C73.2915 64.2281 74.2279 63.2917 75.0977 62.2952L76.9359 64.1325ZM88.2659 76.6972L86.6939 78.2682C86.6933 78.2688 86.6926 78.2694 86.692 78.27C86.5266 78.4273 86.307 78.515 86.0788 78.515C85.8504 78.515 85.6309 78.4273 85.4655 78.27C85.4649 78.2694 85.4642 78.2688 85.4636 78.2682L76.067 68.8725L78.8664 66.073L88.2659 75.4736C88.4281 75.6359 88.5193 75.8559 88.5193 76.0854C88.5193 76.3149 88.4281 76.5349 88.2659 76.6972Z" fill="black" stroke="black" stroke-width="0.5"/>
</svg>
