<svg width="104" height="104" viewBox="0 0 104 104" fill="none" xmlns="http://www.w3.org/2000/svg">
<rect x="6" y="26.1458" width="88" height="64" rx="5" transform="rotate(-0.181066 6 26.1458)" fill="#7F4CDE"/>
<rect x="13.5048" y="27.6221" width="83" height="61" rx="3.5" transform="rotate(-0.181066 13.5048 27.6221)" fill="white" stroke="black" stroke-width="3"/>
<rect x="23.5709" y="20.4031" width="54.4242" height="51.9634" rx="5" transform="rotate(-0.181066 23.5709 20.4031)" fill="white"/>
<path d="M26.5472 60.0188C26.4832 57.4847 24.3691 55.4747 21.8351 55.5387C19.301 55.6027 17.291 57.7169 17.355 60.2509C17.419 62.7849 19.5332 64.7949 22.0672 64.7309C24.6012 64.6669 26.6112 62.5528 26.5472 60.0188ZM19.9813 60.1846C19.9538 59.0983 20.8151 58.1926 21.9012 58.1651C22.9874 58.1377 23.8933 58.999 23.9207 60.0851C23.9481 61.1712 23.0868 62.0771 22.0007 62.1046C20.9146 62.132 20.0087 61.2708 19.9813 60.1846Z" fill="black"/>
<path fill-rule="evenodd" clip-rule="evenodd" d="M46.5695 5.4375H46.65H55.35H55.4305C58.4076 5.43748 60.7529 5.43748 62.6404 5.59168C64.5657 5.74901 66.1738 6.07581 67.6351 6.82037C70.0223 8.03675 71.9631 9.97769 73.1797 12.365C73.9243 13.8262 74.251 15.4342 74.4083 17.3597C74.5625 19.2471 74.5625 21.5924 74.5625 24.5695V24.65V33.35V33.4305C74.5625 36.4076 74.5625 38.7529 74.4083 40.6404C74.3196 41.7259 74.177 42.7107 73.9361 43.6252L74.0852 43.8168L73.8244 44.0198C73.6546 44.5817 73.4433 45.1175 73.1797 45.6351C71.9631 48.0223 70.0223 49.9631 67.6351 51.1797C66.1738 51.9243 64.5657 52.251 62.6404 52.4083C60.7529 52.5625 58.4076 52.5625 55.4305 52.5625H55.35H46.65H46.5695C43.5924 52.5625 41.2471 52.5625 39.3597 52.4083C37.4342 52.251 35.8262 51.9243 34.365 51.1797C31.9777 49.9631 30.0367 48.0223 28.8204 45.6351C28.0758 44.1738 27.749 42.5657 27.5917 40.6404C27.4375 38.7529 27.4375 36.4076 27.4375 33.4305V33.35V24.65V24.5695C27.4375 21.5924 27.4375 19.2471 27.5917 17.3597C27.749 15.4342 28.0758 13.8262 28.8204 12.365C30.0367 9.97769 31.9777 8.03675 34.365 6.82037C35.8262 6.07581 37.4342 5.74901 39.3597 5.59168C41.2471 5.43748 43.5924 5.43748 46.5695 5.4375ZM70.9375 33.35C70.9375 36.0277 70.9365 38.0395 70.8433 39.6522L70.0677 38.656L70.0194 38.5937C69.1238 37.4431 68.3809 39.489 67.7139 38.7686C67.0225 38.0221 66.29 37.387 65.3659 36.9982C63.9608 36.407 62.3953 36.3169 60.9315 36.7427C59.9687 37.0228 59.1678 34.5697 58.3952 35.2323C57.7543 35.7817 57.0378 36.4965 56.1999 37.3474L51.7086 31.9445L51.659 31.885C50.7612 30.805 50.0152 29.9077 49.3482 29.2306C48.6556 28.5273 47.9272 27.9328 47.021 27.5725C45.6392 27.0229 44.1131 26.9528 42.6867 27.3733C41.7513 27.6488 40.9715 28.1742 40.2171 28.8108C39.4908 29.4239 38.6656 30.2492 37.6727 31.2422L37.618 31.2968L31.0894 37.8254C31.063 36.5688 31.0625 35.1018 31.0625 33.35V24.65C31.0625 21.5748 31.0639 19.3774 31.2046 17.6549C31.3437 15.9536 31.6095 14.8758 32.0503 14.0107C32.9191 12.3055 34.3055 10.9191 36.0107 10.0503C36.8758 9.60949 37.9536 9.34366 39.6549 9.20465C41.3774 9.0639 43.5748 9.0625 46.65 9.0625H55.35C58.4252 9.0625 60.6227 9.0639 62.345 9.20465C64.0464 9.34366 65.1242 9.60949 65.9894 10.0503C67.6946 10.9191 69.0808 12.3055 69.9498 14.0107C70.3906 14.8758 70.6564 15.9536 70.7954 17.6549C70.9361 19.3774 70.9375 21.5748 70.9375 24.65V33.35ZM32.0503 43.9894C31.8345 43.566 31.6607 43.0916 31.5231 42.5181L31.7399 42.3013L40.1812 33.8602C41.2429 32.7985 41.9601 32.0834 42.5552 31.581C43.1357 31.0911 43.466 30.9227 43.7115 30.8504C44.3598 30.6593 45.0535 30.6912 45.6816 30.9408C45.9194 31.0356 46.2329 31.2335 46.766 31.7746C47.3124 32.3294 47.961 33.1071 48.9209 34.2618L54.6939 41.2063L54.7132 41.2291L61.2757 48.8631C59.7285 48.9365 57.8232 48.9375 55.35 48.9375H46.65C43.5748 48.9375 41.3774 48.9361 39.6549 48.7954C37.9536 48.6564 36.8758 48.3906 36.0107 47.9498C34.3055 47.0808 32.9191 45.6946 32.0503 43.9894ZM65.9894 47.9498C65.825 48.0334 65.6532 48.1108 65.4708 48.1823L64.5851 47.1518L58.5482 40.1295C59.5113 39.15 60.1867 38.4712 60.7546 37.9842C61.3547 37.4699 61.6947 37.2959 61.9444 37.2234C62.6097 37.0299 63.3214 37.0707 63.9601 37.3394C64.1998 37.4404 64.5176 37.6522 65.0541 38.2314C65.603 38.8242 66.2509 39.6541 67.2074 40.8828L69.8186 44.2373C68.9445 45.8289 67.6112 47.1233 65.9894 47.9498ZM57.6458 21.75C57.6458 20.0816 58.9982 18.7292 60.6667 18.7292C62.3351 18.7292 63.6875 20.0816 63.6875 21.75C63.6875 23.4184 62.3351 24.7708 60.6667 24.7708C58.9982 24.7708 57.6458 23.4184 57.6458 21.75ZM60.6667 15.1042C56.9962 15.1042 54.0208 18.0796 54.0208 21.75C54.0208 25.4204 56.9962 28.3958 60.6667 28.3958C64.3371 28.3958 67.3125 25.4204 67.3125 21.75C67.3125 18.0796 64.3371 15.1042 60.6667 15.1042Z" fill="black"/>
<path d="M90.8334 72.0278C90.8334 78.103 85.9086 83.0279 79.8334 83.0279H55.0001C48.9249 83.0279 44.0001 78.103 44.0001 72.0279L44 46C44 39.9249 48.9249 35 55 35L79.8334 35C85.9085 35 90.8334 39.9249 90.8334 46V72.0278Z" fill="#7F4CDE"/>
<path d="M51.1093 77.111L62.2286 59.3105L67.5626 66.111L60.6875 77.111H51.1093ZM86.0109 72.111C86.0109 74.8724 83.7724 77.111 81.0109 77.111H66.3794L79.0326 56.8636L86.0109 65.7466L86.0109 72.111Z" fill="white"/>
<path d="M57 52C59.7614 52 62 49.7614 62 47C62 44.2386 59.7614 42 57 42C54.2386 42 52 44.2386 52 47C52 49.7614 54.2386 52 57 52Z" fill="white"/>
</svg>
