<svg width="104" height="104" viewBox="0 0 104 104" fill="none" xmlns="http://www.w3.org/2000/svg">
<g clip-path="url(#clip0_39_1760)">
<rect x="6" y="26.1457" width="88" height="64" rx="5" transform="rotate(-0.181066 6 26.1457)" fill="#7F4CDE"/>
<rect x="13.5049" y="27.6221" width="83" height="61" rx="3.5" transform="rotate(-0.181066 13.5049 27.6221)" fill="white" stroke="black" stroke-width="3"/>
<rect x="24.8824" y="17.3714" width="62.5987" height="54.991" rx="5" transform="rotate(-0.181066 24.8824 17.3714)" fill="white"/>
<rect x="28" y="8.74405" width="33.835" height="77.7292" rx="5" transform="rotate(-9.76289 28 8.74405)" fill="#7F4CDE"/>
<rect x="34.6187" y="9.46103" width="43.8941" height="74.9858" rx="4" transform="rotate(-9.76289 34.6187 9.46103)" fill="white"/>
<path fill-rule="evenodd" clip-rule="evenodd" d="M68.6208 50.1828L50.09 53.2902C49.488 53.3912 49.074 53.9145 49.1654 54.4592C49.2567 55.0039 49.8189 55.3636 50.4208 55.2627L68.9516 52.1552C69.5536 52.0543 69.9675 51.5308 69.8762 50.9862C69.7849 50.4416 69.2229 50.0818 68.6208 50.1828Z" fill="black"/>
<path fill-rule="evenodd" clip-rule="evenodd" d="M72.1329 65.657L53.6021 68.7644C53 68.8654 52.5861 69.3887 52.6775 69.9334C52.7688 70.4781 53.3309 70.8378 53.9328 70.7369L72.4637 67.6294C73.0657 67.5285 73.4796 67.005 73.3883 66.4604C73.297 65.9158 72.7349 65.556 72.1329 65.657Z" fill="black"/>
<path fill-rule="evenodd" clip-rule="evenodd" d="M81.0117 53.7846L65.6899 56.3539C65.1922 56.4374 64.8627 56.9466 64.9541 57.4913C65.0454 58.036 65.523 58.4099 66.0207 58.3264L81.3425 55.7571C81.8403 55.6736 82.1697 55.1643 82.0784 54.6197C81.987 54.0751 81.5095 53.7012 81.0117 53.7846Z" fill="black"/>
<path fill-rule="evenodd" clip-rule="evenodd" d="M61.089 56.8484L51.4059 58.4721C50.8117 58.5718 50.4041 59.0942 50.4955 59.6388C50.5868 60.1835 51.1426 60.5442 51.7367 60.4446L61.4197 58.8208C62.014 58.7212 62.4216 58.1989 62.3302 57.6542C62.239 57.1096 61.6832 56.7487 61.089 56.8484Z" fill="black"/>
<path fill-rule="evenodd" clip-rule="evenodd" d="M62.1771 61.8299L52.4941 63.4537C51.8998 63.5533 51.4923 64.0757 51.5836 64.6203C51.6749 65.165 52.2307 65.5258 52.8248 65.4261L62.5079 63.8024C63.1021 63.7028 63.5097 63.1805 63.4183 62.6358C63.3272 62.0911 62.7713 61.7303 62.1771 61.8299Z" fill="black"/>
<path d="M78.2182 40.1147C78.404 41.2035 77.672 42.2368 76.5831 42.4226L50.052 46.9504C48.9632 47.1362 47.9299 46.4042 47.7441 45.3153L44.083 23.8632C43.8972 22.7744 44.6293 21.7411 45.7181 21.5552L72.2493 17.0275C73.3381 16.8417 74.3714 17.5737 74.5572 18.6625L78.2182 40.1147Z" fill="#7F4CDE"/>
<path d="M55.1634 43.1742L59.8262 31.8054L63.5739 35.2051L60.6903 42.231L55.1634 43.1742ZM73.9175 39.9736L63.9746 41.6705L69.2816 28.7384L74.1833 33.1781L75.0619 38.3263C75.1949 39.1057 74.6826 39.8431 73.9175 39.9736Z" fill="white"/>
<path d="M73.3651 0.99642L37.9795 7.08497C36.5312 7.33575 35.2415 8.15084 34.3935 9.35138C33.5454 10.5519 33.2083 12.0398 33.456 13.4887L44.737 79.0523C44.9878 80.5006 45.8029 81.7902 47.0034 82.6383C48.204 83.4863 49.6919 83.8235 51.1407 83.5758L86.5263 77.4873C87.9746 77.2365 89.2643 76.4214 90.1123 75.2208C90.9604 74.0203 91.2975 72.5324 91.0498 71.0835L79.7688 5.51996C79.518 4.07166 78.7029 2.78199 77.5024 1.93394C76.3018 1.08588 74.8139 0.748718 73.3651 0.99642ZM88.318 71.5536C88.4418 72.278 88.2732 73.0219 87.8492 73.6222C87.4252 74.2224 86.7804 74.63 86.0563 74.7554L50.6707 80.844C49.9463 80.9678 49.2024 80.7992 48.6021 80.3752C48.0018 79.9511 47.5943 79.3063 47.4688 78.5822L36.1878 13.0186C36.064 12.2942 36.2326 11.5503 36.6566 10.95C37.0806 10.3498 37.7254 9.94223 38.4495 9.81678L45.597 8.58698L47.1961 11.5695C47.3333 11.8259 47.5478 12.0325 47.8092 12.1601C48.0705 12.2877 48.3654 12.3298 48.6519 12.2804L65.0428 9.4601C65.3294 9.4109 65.5933 9.2727 65.797 9.0651C66.0006 8.8575 66.1337 8.59103 66.1774 8.30352L66.6877 4.95804L73.8351 3.72824C74.5595 3.60445 75.3034 3.77305 75.9037 4.19707C76.504 4.62108 76.9115 5.26588 77.037 5.99001L88.318 71.5536Z" fill="black"/>
<path d="M26.5472 60.0188C26.4832 57.4847 24.3691 55.4747 21.8351 55.5387C19.301 55.6027 17.291 57.7169 17.355 60.2509C17.419 62.7849 19.5332 64.7949 22.0672 64.7309C24.6012 64.6669 26.6112 62.5528 26.5472 60.0188ZM19.9813 60.1846C19.9538 59.0983 20.8151 58.1926 21.9012 58.1651C22.9874 58.1377 23.8933 58.999 23.9207 60.0851C23.9481 61.1712 23.0868 62.0771 22.0007 62.1046C20.9146 62.132 20.0087 61.2708 19.9813 60.1846Z" fill="black"/>
</g>
<defs>
<clipPath id="clip0_39_1760">
<rect width="104" height="104" fill="white"/>
</clipPath>
</defs>
</svg>
