<svg width="104" height="104" viewBox="0 0 104 104" fill="none" xmlns="http://www.w3.org/2000/svg">
<g clip-path="url(#clip0_39_2214)">
<rect x="5" y="13.562" width="37" height="85" rx="5" transform="rotate(-9.76289 5 13.562)" fill="#7F4CDE"/>
<rect x="12.2378" y="14.346" width="48" height="82" rx="4" transform="rotate(-9.76289 12.2378 14.346)" fill="white"/>
<path fill-rule="evenodd" clip-rule="evenodd" d="M70.2696 78.2334L70.9602 82.2467C71.0955 83.0389 70.9111 83.8524 70.4475 84.5088C69.9838 85.1652 69.2787 85.6109 68.4868 85.7481L29.7913 92.4062C28.9991 92.5415 28.1856 92.3571 27.5292 91.8935C26.8728 91.4298 26.4271 90.7247 26.2899 89.9328L13.9536 18.2364C13.8182 17.4442 14.0026 16.6307 14.4663 15.9743C14.93 15.3179 15.6351 14.8722 16.4269 14.735L24.2429 13.3902L25.9916 16.6517C26.1417 16.9321 26.3763 17.158 26.6621 17.2976C26.9478 17.4371 27.2703 17.4831 27.5837 17.4291L45.5078 14.345C45.8212 14.2912 46.1097 14.14 46.3324 13.913C46.5551 13.686 46.7007 13.3946 46.7485 13.0802L47.3065 9.42179L52.2111 8.5779L53.8937 5.21258L15.9129 11.7477C14.3292 12.0219 12.9188 12.9132 11.9915 14.2261C11.0641 15.5389 10.6954 17.166 10.9663 18.7504L23.3026 90.4468C23.5768 92.0306 24.4681 93.4409 25.781 94.3683C27.0938 95.2957 28.7209 95.6644 30.3053 95.3935L69.0008 88.7354C70.5846 88.4612 71.9949 87.5699 72.9223 86.257C73.8497 84.9442 74.2184 83.3171 73.9475 81.7327L73.2782 77.8426C72.3384 78.1299 71.3582 78.2539 70.2696 78.2334Z" fill="black"/>
<g clip-path="url(#clip1_39_2214)">
<path d="M75.6078 62.5732L72.3128 59.7432L73.7448 55.2211L72.1543 49.2444L70.1244 47.2748L66.5966 36.0333L65.0495 42.3509L62.3002 45.9359L62.3005 45.9376C62.354 46.2684 62.4082 46.5961 62.4636 46.9207C63.5779 53.4496 65.1581 59.5069 66.854 64.1403C68.9131 69.7742 71.1411 73.2987 72.9052 72.9976C74.6369 72.7021 75.4629 68.159 75.6078 62.5732Z" fill="#7F4CDE"/>
<path d="M66.4817 17.588L60.6371 18.3509L60.6362 18.3522C60.2169 20.3621 60.2987 24.7052 60.4858 28.777L70.1014 27.6245C68.9231 23.6347 67.5505 19.4112 66.4817 17.588Z" fill="white"/>
<path d="M63.8897 18.7149C59.4388 19.4745 55.7768 15.1176 57.354 10.8483L60.9262 1.35074L67.4446 9.12614C70.3513 12.6337 68.3383 17.9557 63.8897 18.7149Z" fill="#7F4CDE"/>
<path d="M39.6678 53.7694C39.5307 52.9661 38.7673 52.4253 37.964 52.5624C37.1607 52.6995 36.6199 53.4628 36.757 54.2661C36.8941 55.0695 37.6575 55.6102 38.4608 55.4732C39.2641 55.3361 39.8049 54.5727 39.6678 53.7694Z" fill="black"/>
<path d="M77.03 63.8686L82.4235 62.9481C85.2394 62.4675 87.1287 59.8013 86.6481 56.9848C86.498 56.1054 86.1327 55.3158 85.6154 54.6605C87.5473 53.6492 88.7031 51.4738 88.3169 49.2111C88.1668 48.3316 87.8016 47.542 87.2843 46.8867C89.2162 45.8754 90.372 43.7 89.9858 41.4373C89.7427 40.0132 88.9344 38.8248 87.831 38.0606C88.6184 36.9737 88.9869 35.5844 88.7438 34.1603C88.2644 31.3513 85.5896 29.4564 82.7806 29.9358L75.8049 31.1263C74.8413 29.1687 73.287 27.5693 71.3252 26.5438C70.119 22.5067 69.1221 19.6485 68.3019 17.88C70.8415 15.146 70.9221 10.98 68.5695 8.14138L62.0517 0.36588C61.7145 -0.0364378 61.1889 -0.229334 60.6716 -0.14104C60.1542 -0.052746 59.7229 0.303446 59.5376 0.794363L55.9632 10.2999C54.7713 13.5252 55.9618 17.2643 59.0133 19.1382C58.8087 21.0038 58.7957 23.9004 58.9722 28.0641C58.3671 28.595 57.826 29.1952 57.3584 29.856L53.1508 35.7953C52.0112 37.4039 50.3131 38.4724 48.3694 38.8042L44.7093 39.4288L44.5851 38.7011C44.1057 35.8921 41.4309 33.9972 38.6218 34.4766C36.5939 34.8227 35.0429 36.3137 34.517 38.1727L17 41.1676L22.4875 73.048L39.9816 70.1915C41.0942 71.7709 43.052 72.6631 45.0799 72.317C47.889 71.8376 49.7839 69.1628 49.3045 66.3537L49.1803 65.626L53.2031 64.9395C55.0047 64.632 56.8886 64.7276 58.6499 65.2157C61.3362 65.9613 63.7073 66.1417 65.8974 65.7686C68.3199 72.0027 70.696 74.835 73.1474 74.4166C76.4118 73.8595 76.867 67.37 77.03 63.8686ZM83.7373 57.4816C83.9433 58.6886 83.1343 59.8312 81.9268 60.0373L76.1052 61.0309C74.8846 61.2392 73.752 60.4068 73.5495 59.2203C73.3441 58.0168 74.1564 56.8701 75.36 56.6647L81.1816 55.6711C82.3851 55.4657 83.5319 56.2781 83.7373 57.4816ZM85.4061 49.7078C85.6115 50.9114 84.7992 52.0581 83.5956 52.2635L76.3186 53.5055C75.1151 53.7109 73.9683 52.8985 73.7629 51.6949C73.5578 50.4931 74.3614 49.3461 75.5735 49.1393L82.8505 47.8973C84.054 47.6919 85.2007 48.5043 85.4061 49.7078ZM87.075 41.9341C87.2804 43.1376 86.468 44.2844 85.2645 44.4898L78.0995 45.7126C78.3607 44.8536 78.428 43.9247 78.2681 42.9878L77.97 41.2413L84.5193 40.1236C85.7229 39.9182 86.8696 40.7305 87.075 41.9341ZM83.2774 32.8466C84.4809 32.6412 85.6276 33.4535 85.8331 34.6571C86.0385 35.8606 85.2261 37.0074 84.0225 37.2128L77.4732 38.3305L76.7281 33.9643L83.2774 32.8466ZM61.8602 26.2752C61.7762 23.6404 61.7849 21.5999 61.8844 20.1711C62.6261 20.2727 63.3831 20.2617 64.1318 20.1339C64.7231 20.033 65.3008 19.8595 65.8485 19.6204C66.4201 20.9469 67.1084 22.8988 67.9068 25.4586C66.8813 25.3218 65.8363 25.3386 64.8016 25.5152L64.0523 25.6431C63.3012 25.7713 62.5655 25.9852 61.8602 26.2752ZM58.7301 11.3319L61.4124 4.19957L66.3014 10.0321C68.4588 12.6355 67.0114 16.6469 63.635 17.2231C60.3075 17.791 57.5472 14.5311 58.7301 11.3319ZM55.5601 37.5021L59.7676 31.5628C60.2127 30.9345 60.7499 30.383 61.3641 29.923C62.2996 29.2233 63.4006 28.7499 64.5485 28.554L65.2983 28.426C69.2688 27.7484 73.1227 30.3911 73.8173 34.4611L75.3573 43.4846C75.6261 45.0599 74.5669 46.615 72.9433 46.8921C71.3383 47.166 69.8096 46.083 69.5357 44.4781L68.0458 35.7486C67.9116 34.9617 67.1762 34.4238 66.3854 34.5347C65.5951 34.6456 65.0357 35.3648 65.1231 36.1584C65.8397 42.6884 60.503 46.9377 55.1789 46.2251C54.3705 46.1167 53.6278 46.684 53.5194 47.4924C53.411 48.3002 53.979 49.0434 54.7866 49.1513C56.9955 49.4471 59.2386 49.0971 61.1934 48.2199C62.147 53.5194 63.4295 58.6411 64.8731 62.9314C63.2581 63.1187 61.4744 62.9346 59.4391 62.3698C57.2609 61.7668 54.9326 61.6487 52.7063 62.0287L48.6835 62.7152L45.2061 42.3396L48.8662 41.715C51.5876 41.2505 53.9645 39.7543 55.5601 37.5021ZM44.5831 69.4062C43.3796 69.6116 42.2329 68.7992 42.0275 67.5957L40.6613 59.591C40.5241 58.7871 39.7614 58.2468 38.9575 58.384C38.1537 58.5212 37.6133 59.2839 37.7505 60.0877L38.9925 67.3647L22 70.1915L17.4704 43.9237L34.5215 41.1676L35.7634 48.4446C35.9006 49.2484 36.6633 49.7888 37.4672 49.6516C38.2711 49.5144 38.8114 48.7517 38.6742 47.9478L37.3081 39.9431C37.1027 38.7395 37.9151 37.5928 39.1186 37.3874C40.3222 37.182 41.4689 37.9944 41.6743 39.1979L46.3937 66.8505C46.5991 68.0541 45.7867 69.2008 44.5831 69.4062ZM68.2338 63.5965C66.5098 58.8842 64.9751 52.8607 63.9128 46.636C63.9067 46.6002 63.901 46.5637 63.8949 46.5279C64.8913 45.7014 65.7348 44.7301 66.3996 43.6548L66.6249 44.9749C67.0319 47.3598 68.824 49.1667 71.0343 49.7144C70.7794 50.494 70.7069 51.3407 70.8521 52.1917C71.04 53.2924 71.5665 54.2521 72.3047 54.9845C71.0166 56.131 70.3278 57.8956 70.6387 59.7171C70.9632 61.6188 72.3225 63.145 74.0802 63.7425C73.8382 68.9991 73.0149 71.0142 72.6127 71.472C72.0529 71.2123 70.3652 69.4275 68.2338 63.5965Z" fill="black"/>
</g>
</g>
<defs>
<clipPath id="clip0_39_2214">
<rect width="104" height="104" fill="white"/>
</clipPath>
<clipPath id="clip1_39_2214">
<rect width="75.5939" height="75.5939" fill="white" transform="translate(86.045 -4.47144) rotate(80.3148)"/>
</clipPath>
</defs>
</svg>
