<svg width="104" height="104" viewBox="0 0 104 104" fill="none" xmlns="http://www.w3.org/2000/svg">
<rect x="6" y="26.1457" width="88" height="64" rx="5" transform="rotate(-0.181066 6 26.1457)" fill="#7F4CDE"/>
<rect x="13.5047" y="27.6221" width="83" height="61" rx="3.5" transform="rotate(-0.181066 13.5047 27.6221)" fill="white" stroke="black" stroke-width="3"/>
<path d="M50 82L61.4225 70.4801L69.9986 79.1293L85 64" stroke="black" stroke-width="2.5" stroke-miterlimit="10" stroke-linecap="round" stroke-linejoin="round"/>
<path d="M86 69V63H79" stroke="black" stroke-width="2.5" stroke-miterlimit="10" stroke-linecap="round" stroke-linejoin="round"/>
<path d="M22.5001 38C21 33 20.0161 26.8522 25.0294 21L67.5 21C71.5 22.5 72 35 69.5 38.5L22.5001 38Z" fill="white"/>
<path d="M41.2135 38C39.7134 33 38.7295 26.8522 43.7428 21L86.2134 21C90.2134 22.5 90.7134 35 88.2134 38.5L41.2135 38Z" fill="white"/>
<path d="M26.5472 60.0187C26.4832 57.4847 24.3691 55.4747 21.8351 55.5387C19.301 55.6027 17.291 57.7168 17.355 60.2508C17.419 62.7849 19.5332 64.7949 22.0672 64.7309C24.6012 64.6669 26.6112 62.5527 26.5472 60.0187ZM19.9813 60.1845C19.9538 59.0983 20.8151 58.1925 21.9012 58.1651C22.9874 58.1376 23.8933 58.9989 23.9207 60.085C23.9481 61.1711 23.0868 62.0771 22.0007 62.1045C20.9146 62.1319 20.0087 61.2708 19.9813 60.1845Z" fill="black"/>
<path fill-rule="evenodd" clip-rule="evenodd" d="M47.1534 40.4533C47.1534 42.6913 45.4539 44.5721 43.1782 45.068L43.202 46.0654C43.2169 46.7123 42.7061 47.2502 42.0592 47.2652C42.0487 47.2652 42.0393 47.2652 42.0299 47.2652C41.3958 47.2652 40.8745 46.7593 40.859 46.1219L40.8336 45.0881C39.5117 44.8254 38.6536 44.1155 37.8331 43.3421C37.3621 42.8976 37.341 42.1557 37.7855 41.6852C38.2294 41.2152 38.9714 41.1926 39.4424 41.6371C40.3928 42.5332 40.9191 42.8523 41.9828 42.8523C43.5414 42.8523 44.8096 41.7764 44.8096 40.4535C44.8096 39.1316 43.5414 38.0546 41.9828 38.0546C39.1318 38.0546 36.8124 35.9277 36.8124 33.3127C36.8124 31.0742 38.513 29.1927 40.7908 28.698L40.7643 27.5696C40.7488 26.9221 41.2596 26.3854 41.9082 26.3698C41.9171 26.3698 41.9264 26.3692 41.9358 26.3692C42.5699 26.3692 43.0913 26.8756 43.1068 27.5131L43.1361 28.7271C44.3784 29.0268 45.8489 29.7433 46.5097 30.7484C46.8651 31.2891 46.7147 32.0156 46.1736 32.3717C45.6323 32.7266 44.9058 32.5768 44.5503 32.0355C44.2341 31.5534 42.7701 30.9142 41.9827 30.9142C40.4242 30.9142 39.1565 31.9901 39.1565 33.3126C39.1565 34.635 40.4242 35.7109 41.9827 35.7109C44.8341 35.7107 47.1534 37.8387 47.1534 40.4533ZM58.6414 6.36953C70.8558 6.91574 80.8151 15.9722 82.5125 28.0524H58.6414V6.36953ZM57.4693 30.396H83.8261C84.1557 30.396 84.4691 30.2577 84.6919 30.0146C84.9136 29.7719 85.0237 29.4468 84.9932 29.1189C84.3746 22.2777 81.2376 15.9419 76.1595 11.2779C71.0505 6.58469 64.4127 4 57.4693 4C56.8224 4 56.2977 4.52406 56.2977 5.17152V29.2245C56.2977 29.8714 56.8224 30.396 57.4693 30.396ZM52.6401 58.9361C59.0047 58.9361 65.0104 56.6002 69.6794 52.3372L51.8118 34.4685C51.5911 34.249 51.468 33.9504 51.468 33.6398V8.37098C38.0609 8.98469 27.3442 20.084 27.3442 33.6397C27.3442 47.5874 38.6913 58.9361 52.6401 58.9361ZM53.8121 33.1543V7.17238C53.8121 6.52504 53.2868 6.00027 52.64 6.00027C45.257 6.00027 38.3163 8.87512 33.0955 14.0959C27.875 19.3161 25 26.2567 25 33.6397C25 41.0226 27.875 47.9638 33.0957 53.1847C38.3164 58.4042 45.257 61.2797 52.6401 61.2797C60.023 61.2797 66.9643 58.4043 72.1833 53.1847C72.4039 52.964 72.5267 52.6666 72.5267 52.3559C72.5267 52.0441 72.404 51.7466 72.1833 51.5261L53.8121 33.1543ZM76.1656 48.6788L62.7138 35.2259H82.5125C81.7987 40.2282 79.5811 44.9298 76.1656 48.6788ZM84.6936 33.2637C84.9159 33.5064 85.0247 33.8321 84.9954 34.16C84.4155 40.5705 81.5809 46.6161 77.0137 51.1827C76.7936 51.4033 76.4962 51.5261 76.1855 51.5261C75.8748 51.5261 75.5763 51.4034 75.3568 51.1827L59.056 34.8827C58.7209 34.5476 58.6198 34.0434 58.8017 33.6055C58.9836 33.1676 59.4099 32.8824 59.8847 32.8824H83.8282C84.1578 32.8823 84.4718 33.0205 84.6936 33.2637Z" fill="black"/>
<path fill-rule="evenodd" clip-rule="evenodd" d="M58.6415 6.36953C70.8559 6.91574 80.8152 15.9722 82.5126 28.0524H58.6415V6.36953ZM57.4694 30.396H83.8263C84.1558 30.396 84.4693 30.2577 84.692 30.0146C84.9137 29.7719 85.0238 29.4468 84.9933 29.1189C84.3747 22.2777 81.2377 15.9419 76.1596 11.2779C71.0506 6.58469 64.4128 4 57.4694 4C56.8225 4 56.2979 4.52406 56.2979 5.17152V29.2245C56.2979 29.8714 56.8225 30.396 57.4694 30.396ZM76.1657 48.6788L62.7139 35.2259H82.5126C81.7988 40.2282 79.5812 44.9298 76.1657 48.6788ZM84.6937 33.2637C84.916 33.5064 85.0248 33.8321 84.9955 34.16C84.4156 40.5705 81.5811 46.6161 77.0138 51.1827C76.7937 51.4033 76.4963 51.5261 76.1856 51.5261C75.875 51.5261 75.5764 51.4034 75.3569 51.1827L59.0561 34.8827C58.7211 34.5476 58.6199 34.0434 58.8018 33.6055C58.9837 33.1676 59.41 32.8824 59.8848 32.8824H83.8284C84.1579 32.8823 84.472 33.0205 84.6937 33.2637Z" fill="#7F4CDE"/>
<path fill-rule="evenodd" clip-rule="evenodd" d="M83.1864 28.6383H58.0554V5.75684L58.6675 5.78426C71.1475 6.3423 81.3538 15.5954 83.0925 27.9709L83.1864 28.6383ZM83.0925 35.3086C82.3609 40.436 80.0869 45.2447 76.5987 49.0733L76.1853 49.5271L61.2994 34.6399H83.1879L83.0925 35.3086Z" fill="#7F4CDE"/>
<path fill-rule="evenodd" clip-rule="evenodd" d="M47.1534 40.4533C47.1534 42.6913 45.4539 44.572 43.1782 45.068L43.202 46.0654C43.2169 46.7122 42.7061 47.2501 42.0592 47.2651C42.0487 47.2651 42.0393 47.2651 42.0299 47.2651C41.3958 47.2651 40.8745 46.7592 40.859 46.1218L40.8336 45.088C39.5117 44.8254 38.6536 44.1155 37.8331 43.342C37.3621 42.8975 37.341 42.1556 37.7855 41.6851C38.2294 41.2152 38.9714 41.1926 39.4424 41.6371C40.3928 42.5332 40.9191 42.8523 41.9828 42.8523C43.5414 42.8523 44.8096 41.7764 44.8096 40.4535C44.8096 39.1316 43.5414 38.0545 41.9828 38.0545C39.1318 38.0545 36.8124 35.9277 36.8124 33.3127C36.8124 31.0742 38.513 29.1927 40.7908 28.6979L40.7643 27.5695C40.7488 26.9221 41.2596 26.3854 41.9082 26.3698C41.9171 26.3698 41.9264 26.3692 41.9358 26.3692C42.5699 26.3692 43.0913 26.8756 43.1068 27.5131L43.1361 28.7271C44.3784 29.0268 45.8489 29.7433 46.5097 30.7484C46.8651 31.2891 46.7147 32.0155 46.1736 32.3717C45.6323 32.7266 44.9058 32.5767 44.5503 32.0354C44.2341 31.5533 42.7701 30.9142 41.9827 30.9142C40.4242 30.9142 39.1565 31.9901 39.1565 33.3125C39.1565 34.635 40.4242 35.7109 41.9827 35.7109C44.8341 35.7107 47.1534 37.8387 47.1534 40.4533ZM52.6401 58.9361C59.0047 58.9361 65.0104 56.6002 69.6794 52.3371L51.8118 34.4685C51.5911 34.249 51.468 33.9504 51.468 33.6397V8.37095C38.0609 8.98466 27.3442 20.084 27.3442 33.6396C27.3442 47.5874 38.6913 58.9361 52.6401 58.9361ZM53.8121 33.1542V7.17235C53.8121 6.52501 53.2868 6.00024 52.64 6.00024C45.257 6.00024 38.3163 8.87509 33.0955 14.0959C27.875 19.316 25 26.2567 25 33.6396C25 41.0226 27.875 47.9638 33.0957 53.1846C38.3164 58.4042 45.257 61.2797 52.6401 61.2797C60.023 61.2797 66.9643 58.4043 72.1833 53.1846C72.4039 52.964 72.5267 52.6665 72.5267 52.3559C72.5267 52.044 72.404 51.7466 72.1833 51.5261L53.8121 33.1542Z" fill="black" stroke="black" stroke-width="0.6"/>
</svg>
