<svg width="104" height="104" viewBox="0 0 104 104" fill="none" xmlns="http://www.w3.org/2000/svg">
<rect x="5" y="13.562" width="37" height="85" rx="5" transform="rotate(-9.76289 5 13.562)" fill="#7F4CDE"/>
<rect x="12.2378" y="14.346" width="48" height="82" rx="4" transform="rotate(-9.76289 12.2378 14.346)" fill="white"/>
<path fill-rule="evenodd" clip-rule="evenodd" d="M15.9129 11.7477L54.6085 5.0896C56.1928 4.81873 57.8199 5.18743 59.1328 6.11481C60.4456 7.04219 61.3369 8.45249 61.6112 10.0363L63.1535 19L60.0777 19L58.6238 10.5503C58.4867 9.75843 58.041 9.05332 57.3846 8.58964C56.7282 8.12596 55.9147 7.94158 55.1225 8.07695L47.3065 9.42179L46.7485 13.0802C46.7007 13.3946 46.5551 13.686 46.3324 13.913C46.1097 14.14 45.8212 14.2912 45.5078 14.345L27.5837 17.4291C27.2703 17.4831 26.9478 17.4371 26.6621 17.2976C26.3763 17.158 26.1417 16.9321 25.9916 16.6517L24.2429 13.3902L16.4269 14.735C15.6351 14.8722 14.93 15.3179 14.4663 15.9743C14.0026 16.6307 13.8182 17.4442 13.9536 18.2364L26.2899 89.9328C26.4271 90.7247 26.8728 91.4298 27.5292 91.8935C28.1856 92.3571 28.9991 92.5415 29.7913 92.4062L68.4868 85.7481C69.2787 85.6109 69.9838 85.1652 70.4475 84.5088C70.9111 83.8524 71.0955 83.0389 70.9602 82.2467L70.7456 81L73.8214 81L73.9475 81.7327C74.2184 83.3171 73.8497 84.9442 72.9223 86.257C71.9949 87.5699 70.5846 88.4612 69.0008 88.7354L30.3053 95.3935C28.7209 95.6644 27.0938 95.2957 25.781 94.3683C24.4681 93.4409 23.5768 92.0306 23.3026 90.4468L10.9663 18.7504C10.6954 17.166 11.0641 15.5389 11.9915 14.2261C12.9188 12.9132 14.3292 12.0219 15.9129 11.7477Z" fill="black"/>
<mask id="mask0_103_4" style="mask-type:luminance" maskUnits="userSpaceOnUse" x="27" y="19" width="73" height="76">
<path d="M27 19H100V95H27V19Z" fill="white"/>
</mask>
<g mask="url(#mask0_103_4)">
<path fill-rule="evenodd" clip-rule="evenodd" d="M35.4282 77.5C32.5826 77.5 30 75.3899 30 72.4641V32V26.5359C30 23.6101 32.5826 21.5 35.4282 21.5H91.5718C94.4174 21.5 97 23.6101 97 26.5359H95.5C97 26.5359 97 26.536 97 26.5363V26.5373V26.5389V26.5412V26.5442V26.5478V26.5521V26.557V26.5626V26.5688V26.5757V26.5832V26.5914V26.6002V26.6096V26.6197V26.6304V26.6417V26.6537V26.6663V26.6795V26.6934V26.7078V26.7229V26.7386V26.755V26.7719V26.7895V26.8077V26.8265V26.8459V26.8659V26.8865V26.9077V26.9295V26.952V26.975V26.9986V27.0228V27.0476V27.073V27.099V27.1256V27.1527V27.1805V27.2088V27.2377V27.2672V27.2973V27.3279V27.3591V27.3909V27.4232V27.4562V27.4896V27.5237V27.5583V27.5935V27.6292V27.6655V27.7023V27.7397V27.7777V27.8162V27.8552V27.8948V27.9349V27.9756V28.0168V28.0586V28.1009V28.1437V28.1871V28.231V28.2754V28.3203V28.3658V28.4118V28.4583V28.5054V28.5529V28.601V28.6496V28.6987V28.7483V28.7985V28.8491V28.9002V28.9519V29.004V29.0567V29.1098V29.1635V29.2176V29.2723V29.3274V29.383V29.4391V29.4957V29.5528V29.6103V29.6684V29.7269V29.7859V29.8454V29.9053V29.9657V30.0266V30.088V30.1498V30.2121V30.2748V30.338V30.4017V30.4658V30.5304V30.5954V30.6609V30.7268V30.7932V30.8601V30.9273V30.995V31.0632V31.1318V31.2008V31.2703V31.3402V31.4105V31.4813V31.5525V31.6241V31.6962V31.7686V31.8415V31.9148V31.9885V32V32.0627V32.1372V32.2122V32.2876V32.3634V32.4396V32.5161V32.5931V32.6705V32.7483V32.8265V32.9051V32.9841V33.0635V33.1433V33.2234V33.304V33.3849V33.4662V33.5479V33.63V33.7124V33.7952V33.8784V33.962V34.0459V34.1302V34.2149V34.2999V34.3854V34.4711V34.5572V34.6437V34.7306V34.8177V34.9053V34.9932V35.0814V35.17V35.2589V35.3482V35.4378V35.5278V35.6181V35.7087V35.7997V35.891V35.9826V36.0746V36.1668V36.2594V36.3524V36.4456V36.5392V36.6331V36.7273V36.8218V36.9166V37.0118V37.1072V37.203V37.299V37.3954V37.4921V37.589V37.6863V37.7839V37.8817V37.9799V38.0783V38.177V38.276V38.3753V38.4749V38.5748V38.6749V38.7753V38.876V38.977V39.0782V39.1798V39.2815V39.3836V39.4859V39.5885V39.6913V39.7944V39.8978V40.0014V40.1052V40.2094V40.3137V40.4184V40.5232V40.6283V40.7337V40.8393V40.9451V41.0512V41.1575V41.264V41.3708V41.4778V41.5851V41.6925V41.8002V41.9081V42.0163V42.1246V42.2332V42.342V42.451V42.5602V42.6696V42.7792V42.8891V42.9991V43.1094V43.2198V43.3305V43.4413V43.5524V43.6636V43.7751V43.8867V43.9985V44.1105V44.2227V44.3351V44.4476V44.5603V44.6732V44.7863V44.8996V45.013V45.1266V45.2404V45.3543V45.4685V45.5827V45.6972V45.8117V45.9265V46.0414V46.1565V46.2717V46.387V46.5026V46.6182V46.734V46.85V46.9661V47.0823V47.1987V47.3152V47.4318V47.5486V47.6655V47.7826V47.8997V48.017V48.1344V48.252V48.3696V48.4874V48.6053V48.7233V48.8414V48.9596V49.078V49.1964V49.315V49.4336V49.5524V49.6712V49.7902V49.9092V50.0284V50.1476V50.267V50.3864V50.5059V50.6255V50.7452V50.8649V50.9848V51.1047V51.2247V51.3448V51.4649V51.5851V51.7054V51.8258V51.9462V52.0667V52.1872V52.3078V52.4285V52.5492V52.67V52.7908V52.9117V53.0326V53.1536V53.2746V53.3957V53.5168V53.6379V53.7591V53.8804V54.0016V54.1229V54.2442V54.3656V54.487V54.6084V54.7298V54.8513V54.9727V55.0942V55.2158V55.3373V55.4588V55.5804V55.7019V55.8235V55.9451V56.0667V56.1882V56.3098V56.4314V56.553V56.6746V56.7961V56.9177V57.0392V57.1608V57.2823V57.4038V57.5253V57.6468V57.7682V57.8896V58.011V58.1324V58.2538V58.3751V58.4964V58.6176V58.7388V58.86V58.9811V59.1022V59.2233V59.3443V59.4653V59.5862V59.707V59.8279V59.9486V60.0693V60.19V60.3106V60.4311V60.5515V60.6719V60.7923V60.9125V61.0327V61.1529V61.2729V61.3929V61.5128V61.6326V61.7523V61.872V61.9915V62.111V62.2304V62.3497V62.4689V62.5881V62.7071V62.826V62.9448V63.0636V63.1822V63.3007V63.4191V63.5374V63.6556V63.7737V63.8917V64.0095V64.1273V64.2449V64.3624V64.4797V64.597V64.7141V64.8311V64.948V65.0647V65.1813V65.2978V65.4141V65.5303V65.6463V65.7623V65.878V65.9936V66.1091V66.2244V66.3396V66.4546V66.5695V66.6842V66.7987V66.9131V67.0273V67.1414V67.2552V67.369V67.4825V67.5959V67.7091V67.8221V67.935V68.0477V68.1602V68.2725V68.3846V68.4965V68.6083V68.7199V68.8312V68.9424V69.0534V69.1642V69.2748V69.3852V69.4954V69.6053V69.7151V69.8247V69.9341V70.0432V70.1521V70.2609V70.3694V70.4776V70.5857V70.6936V70.8012V70.9086V71.0157V71.1227V71.2294V71.3358V71.4421V71.5481V71.6538V71.7594V71.8646V71.9697V72.0745V72.179V72.2833V72.3873V72.4911V72.5946V72.6979V72.8009V72.9037V73.0062C97 75.4955 94.9812 77.5 92.5 77.5H35.4282ZM94 30.5V30.4658V30.4017V30.338V30.2748V30.2121V30.1498V30.088V30.0266V29.9657V29.9053V29.8454V29.7859V29.7269V29.6684V29.6103V29.5528V29.4957V29.4391V29.383V29.3274V29.2723V29.2176V29.1635V29.1098V29.0567V29.004V28.9519V28.9002V28.8491V28.7985V28.7483V28.6987V28.6496V28.601V28.5529V28.5054V28.4583V28.4118V28.3658V28.3203V28.2754V28.231V28.1871V28.1437V28.1009V28.0586V28.0168V27.9756V27.9349V27.8948V27.8552V27.8162V27.7777V27.7397V27.7023V27.6655V27.6292V27.5935V27.5583V27.5237V27.4896V27.4562V27.4232V27.3909V27.3591V27.3279V27.2973V27.2672V27.2377V27.2088V27.1805V27.1527V27.1256V27.099V27.073V27.0476V27.0228V26.9986V26.975V26.952V26.9295V26.9077V26.8865V26.8659V26.8459V26.8265V26.8077V26.7895V26.7719V26.755V26.7386V26.7229V26.7078V26.6934V26.6795V26.6663V26.6537V26.6417V26.6304V26.6197V26.6096V26.6002V26.5914V26.5832V26.5757V26.5688V26.5626V26.557V26.5521V26.5478V26.5442V26.5412V26.5389V26.5373V26.5363C94 26.536 94 26.5359 95.5 26.5359H94C94 25.5561 93.0652 24.5 91.5718 24.5H35.4282C33.9348 24.5 33 25.5561 33 26.5359V30.5H94ZM94 33.5V33.5479V33.63V33.7124V33.7952V33.8784V33.962V34.0459V34.1302V34.2149V34.2999V34.3854V34.4711V34.5572V34.6437V34.7306V34.8177V34.9053V34.9932V35.0814V35.17V35.2589V35.3482V35.4378V35.5278V35.6181V35.7087V35.7997V35.891V35.9826V36.0746V36.1668V36.2594V36.3524V36.4456V36.5392V36.6331V36.7273V36.8218V36.9166V37.0118V37.1072V37.203V37.299V37.3954V37.4921V37.589V37.6863V37.7839V37.8817V37.9799V38.0783V38.177V38.276V38.3753V38.4749V38.5748V38.6749V38.7753V38.876V38.977V39.0782V39.1798V39.2815V39.3836V39.4859V39.5885V39.6913V39.7944V39.8978V40.0014V40.1052V40.2094V40.3137V40.4184V40.5232V40.6283V40.7337V40.8393V40.9451V41.0512V41.1575V41.264V41.3708V41.4778V41.5851V41.6925V41.8002V41.9081V42.0163V42.1246V42.2332V42.342V42.451V42.5602V42.6696V42.7792V42.8891V42.9991V43.1094V43.2198V43.3305V43.4413V43.5524V43.6636V43.7751V43.8867V43.9985V44.1105V44.2227V44.3351V44.4476V44.5603V44.6732V44.7863V44.8996V45.013V45.1266V45.2404V45.3543V45.4685V45.5827V45.6972V45.8117V45.9265V46.0414V46.1565V46.2717V46.387V46.5026V46.6182V46.734V46.85V46.9661V47.0823V47.1987V47.3152V47.4318V47.5486V47.6655V47.7826V47.8997V48.017V48.1344V48.252V48.3696V48.4874V48.6053V48.7233V48.8414V48.9596V49.078V49.1964V49.315V49.4336V49.5524V49.6712V49.7902V49.9092V50.0284V50.1476V50.267V50.3864V50.5059V50.6255V50.7452V50.8649V50.9848V51.1047V51.2247V51.3448V51.4649V51.5851V51.7054V51.8258V51.9462V52.0667V52.1872V52.3078V52.4285V52.5492V52.67V52.7908V52.9117V53.0326V53.1536V53.2746V53.3957V53.5168V53.6379V53.7591V53.8804V54.0016V54.1229V54.2442V54.3656V54.487V54.6084V54.7298V54.8513V54.9727V55.0942V55.2158V55.3373V55.4588V55.5804V55.7019V55.8235V55.9451V56.0667V56.1882V56.3098V56.4314V56.553V56.6746V56.7961V56.9177V57.0392V57.1608V57.2823V57.4038V57.5253V57.6468V57.7682V57.8896V58.011V58.1324V58.2538V58.3751V58.4964V58.6176V58.7388V58.86V58.9811V59.1022V59.2233V59.3443V59.4653V59.5862V59.707V59.8279V59.9486V60.0693V60.19V60.3106V60.4311V60.5515V60.6719V60.7923V60.9125V61.0327V61.1529V61.2729V61.3929V61.5128V61.6326V61.7523V61.872V61.9915V62.111V62.2304V62.3497V62.4689V62.5881V62.7071V62.826V62.9448V63.0636V63.1822V63.3007V63.4191V63.5374V63.6556V63.7737V63.8917V64.0095V64.1273V64.2449V64.3624V64.4797V64.597V64.7141V64.8311V64.948V65.0647V65.1813V65.2978V65.4141V65.5303V65.6463V65.7623V65.878V65.9936V66.1091V66.2244V66.3396V66.4546V66.5695V66.6842V66.7987V66.9131V67.0273V67.1414V67.2552V67.369V67.4825V67.5959V67.7091V67.8221V67.935V68.0477V68.1602V68.2725V68.3846V68.4965V68.6083V68.7199V68.8312V68.9424V69.0534V69.1642V69.2748V69.3852V69.4954V69.6053V69.7151V69.8247V69.9341V70.0432V70.1521V70.2609V70.3694V70.4776V70.5857V70.6936V70.8012V70.9086V71.0157V71.1227V71.2294V71.3358V71.4421V71.5481V71.6538V71.7594V71.8646V71.9697V72.0745V72.179V72.2833V72.3873V72.4911V72.5946V72.6979V72.8009V72.9037V73.0062C94 73.8306 93.3325 74.5 92.5 74.5H35.4282C33.9348 74.5 33 73.4439 33 72.4641V33.5H94Z" fill="black"/>
<path d="M36 29C36.8284 29 37.5 28.3284 37.5 27.5C37.5 26.6716 36.8284 26 36 26C35.1716 26 34.5 26.6716 34.5 27.5C34.5 28.3284 35.1716 29 36 29Z" fill="black"/>
<path d="M40 29C40.8284 29 41.5 28.3284 41.5 27.5C41.5 26.6716 40.8284 26 40 26C39.1716 26 38.5 26.6716 38.5 27.5C38.5 28.3284 39.1716 29 40 29Z" fill="black"/>
<path d="M45 29C45.8284 29 46.5 28.3284 46.5 27.5C46.5 26.6716 45.8284 26 45 26C44.1716 26 43.5 26.6716 43.5 27.5C43.5 28.3284 44.1716 29 45 29Z" fill="black"/>
<path d="M41 45C41.8284 45 42.5 44.3284 42.5 43.5C42.5 42.6716 41.8284 42 41 42C40.1716 42 39.5 42.6716 39.5 43.5C39.5 44.3284 40.1716 45 41 45Z" fill="white"/>
</g>
<path fill-rule="evenodd" clip-rule="evenodd" d="M90.1482 59.8702C89.6955 59.8702 89.2427 59.7005 88.9598 59.2477L85.5643 54.494L81.999 59.3043C80.8671 60.8323 78.5469 59.078 79.6787 57.55L83.8099 52.004L79.7919 46.4014C78.66 44.8734 81.0369 43.119 82.1687 44.7036L85.6208 49.5705L89.1296 44.8734C90.2614 43.3454 92.5817 45.0997 91.4498 46.6277L87.4318 52.0605L91.3366 57.55C92.0157 58.512 91.28 59.8702 90.1482 59.8702ZM56.8721 63.0394C55.9101 63.0394 55.1744 62.1339 55.4573 61.1719L60.8336 41.0251C61.3429 39.2142 64.1725 40.0065 63.6632 41.8174L58.2869 61.9641C58.1172 62.5867 57.4947 63.0394 56.8721 63.0394ZM71.2465 59.9268C68.0208 59.9268 65.5873 57.8329 65.7571 54.494V45.4959C65.7571 43.6283 68.6433 43.6283 68.6433 45.4959C68.6433 47.3068 68.7565 53.4188 68.6433 54.7204C68.3603 57.7763 74.0761 57.7763 73.7931 54.7204C73.68 53.4754 73.7931 47.2502 73.7931 45.4959C73.7931 43.6283 76.7359 43.6283 76.7359 45.4959V54.494C76.8491 57.8329 74.4156 59.9268 71.2465 59.9268ZM42.4978 58.9648C39.272 58.9648 36.8386 56.8709 37.0084 53.5319V44.5338C37.0084 42.6663 39.8946 42.6663 39.8946 44.5338C39.8946 46.4014 40.0077 52.3435 39.8946 53.7583C39.6682 56.8143 45.3274 56.8143 45.0444 53.7583C44.9312 52.3435 45.0444 46.4014 45.0444 44.5338C45.0444 42.6663 47.9872 42.6663 47.9872 44.5338V53.5319C48.1004 56.8709 45.6669 58.9648 42.4978 58.9648ZM52.2882 58.9082C51.4959 58.9082 50.8168 58.2857 50.8168 57.4368V44.5904C50.8168 42.6663 53.7596 42.6663 53.7596 44.5904V57.4368C53.7596 58.2857 53.0805 58.9082 52.2882 58.9082Z" fill="#7F4CDE"/>
</svg>
