<svg width="104" height="104" viewBox="0 0 104 104" fill="none" xmlns="http://www.w3.org/2000/svg">
<rect x="12.9998" y="41" width="37" height="45" rx="5" fill="#7F4CDE"/>
<path d="M9 83C9 82.4477 9.44772 82 10 82H42C44.7614 82 47 84.2386 47 87V89C47 91.7614 44.7614 94 42 94H14C11.2386 94 9 91.7614 9 89V83Z" fill="#7F4CDE"/>
<path d="M17.9999 46.9999C17.9999 44.7908 19.7908 42.9999 21.9999 42.9999H77C79.2091 42.9999 81 44.7908 81 46.9999V82.6649C81 84.3066 82.174 85.7134 83.7892 86.0071C85.3692 86.2944 86.7534 87.7305 86.129 89.21C85.5239 90.6438 84.1131 91.3834 81.3618 91.9305C81.1219 91.9782 80.8769 91.9999 80.6324 91.9999H17.9999C13.7745 91.864 12.079 91.1042 11.7887 89.1895C11.5436 87.5725 13.0604 86.3232 14.6737 86.0543C16.5931 85.7344 17.9999 84.0737 17.9999 82.1278V46.9999Z" fill="white"/>
<path d="M88.3541 84.0625H83.4166V47.625C83.4166 43.9713 80.4641 41 76.8332 41H24.1666C20.5359 41 17.5832 43.9712 17.5832 47.625V84.0625H12.6457C11.7362 84.0625 11 84.8032 11 85.7187V87.375C11 91.0287 13.9525 94 17.5834 94H83.4168C87.0475 94 90 91.0287 90 87.375V85.7187C90 84.8032 89.2638 84.0625 88.3541 84.0625ZM20.875 47.625C20.875 45.799 22.3521 44.3126 24.1666 44.3126H76.8332C78.6478 44.3126 80.1248 45.799 80.1248 47.625V84.0625H58.7291H42.2709H20.875V47.625ZM83.4166 90.6874H17.5834C15.7689 90.6874 14.2918 89.201 14.2918 87.375H19.2293H41.5894L42.7531 88.546C43.0617 88.8566 43.4795 89.0313 43.9168 89.0313H57.0834C57.5205 89.0313 57.9385 88.8566 58.2471 88.546L59.4106 87.375H81.7709H86.7084C86.7084 89.201 85.2313 90.6874 83.4166 90.6874Z" fill="black"/>
<path d="M87 49H25L25 28.8009C25 26.7018 25 25 25 25H87V49Z" fill="white"/>
<path d="M31.3288 47.8509H34.1946V52.68C34.1946 52.8802 34.2473 53.0769 34.3474 53.2503C34.4475 53.4237 34.5915 53.5677 34.7649 53.6678C34.9383 53.7679 35.135 53.8206 35.3352 53.8206C35.5354 53.8206 35.7321 53.7679 35.9055 53.6678L45.9808 47.8506H59.8283C60.7108 47.8496 61.5569 47.4985 62.181 46.8745C62.805 46.2504 63.156 45.4043 63.1571 44.5218V24.6363C63.1562 23.7536 62.8051 22.9073 62.1809 22.2831C61.5566 21.6589 60.7103 21.3079 59.8276 21.3071H31.3288C30.4462 21.3081 29.6 21.6592 28.9759 22.2834C28.3519 22.9075 28.0009 23.7537 28 24.6363V44.5221C28.001 45.4046 28.3521 46.2507 28.9761 46.8748C29.6001 47.4988 30.4462 47.8498 31.3288 47.8509ZM30.2812 24.6363C30.2816 24.3586 30.392 24.0923 30.5884 23.8959C30.7848 23.6995 31.051 23.589 31.3288 23.5886H59.8276C60.1053 23.589 60.3716 23.6995 60.568 23.8959C60.7643 24.0923 60.8748 24.3586 60.8751 24.6363V44.5221C60.8748 44.7998 60.7643 45.0661 60.5679 45.2624C60.3715 45.4588 60.1053 45.5693 59.8276 45.5696H45.6746C45.4743 45.5696 45.2776 45.6223 45.1042 45.7225L36.4751 50.7044V46.7102C36.4751 46.4077 36.355 46.1176 36.141 45.9037C35.9271 45.6898 35.637 45.5696 35.3345 45.5696H31.3288C31.0511 45.5693 30.7848 45.4588 30.5884 45.2624C30.3921 45.0661 30.2816 44.7998 30.2812 44.5221V24.6363ZM37.4323 32.9245L42.14 33.0716L41.5322 35.8529L38.1195 35.7464C37.9693 35.741 37.8196 35.7653 37.6789 35.8179C37.5381 35.8705 37.4092 35.9505 37.2994 36.0531C37.1896 36.1557 37.1012 36.279 37.0393 36.4158C36.9773 36.5527 36.943 36.7005 36.9383 36.8507C36.9336 37.0008 36.9586 37.1505 37.0119 37.2909C37.0652 37.4314 37.1457 37.56 37.2489 37.6692C37.352 37.7785 37.4757 37.8663 37.6129 37.9276C37.7501 37.9889 37.898 38.0225 38.0482 38.0265L41.0369 38.1199L40.2332 41.7984C40.2007 41.945 40.1974 42.0965 40.2235 42.2443C40.2497 42.3921 40.3047 42.5333 40.3856 42.6598C40.4664 42.7863 40.5714 42.8956 40.6945 42.9814C40.8177 43.0672 40.9565 43.1279 41.1032 43.16C41.2498 43.192 41.4014 43.1948 41.5491 43.1682C41.6968 43.1415 41.8378 43.086 41.9641 43.0047C42.0903 42.9235 42.1992 42.8182 42.2846 42.6947C42.3701 42.5713 42.4303 42.4322 42.4618 42.2855L43.3561 38.1926L46.2018 38.2816L45.3617 42.1259C45.3278 42.273 45.3234 42.4253 45.3488 42.574C45.3741 42.7228 45.4288 42.865 45.5095 42.9925C45.5902 43.12 45.6954 43.2302 45.819 43.3167C45.9427 43.4033 46.0822 43.4644 46.2296 43.4966C46.3771 43.5288 46.5294 43.5315 46.6778 43.5044C46.8263 43.4773 46.9679 43.4211 47.0944 43.3389C47.221 43.2567 47.33 43.1502 47.4151 43.0256C47.5002 42.901 47.5597 42.7607 47.5902 42.613L48.521 38.354L53.6528 38.5144H53.6892C53.9917 38.5191 54.2836 38.4033 54.5008 38.1927C54.718 37.9821 54.8426 37.6938 54.8472 37.3913C54.8519 37.0887 54.7361 36.7968 54.5255 36.5796C54.3149 36.3624 54.0266 36.2378 53.7241 36.2332L49.016 36.0866L49.6238 33.3052L53.0366 33.4118H53.0728C53.3753 33.4165 53.6673 33.3008 53.8845 33.0902C54.1017 32.8795 54.2263 32.5913 54.231 32.2888C54.2356 31.9862 54.1199 31.6943 53.9093 31.4771C53.6987 31.2599 53.4104 31.1352 53.1079 31.1306L50.1191 31.0372L50.9229 27.3587C50.9568 27.2116 50.9612 27.0593 50.9358 26.9106C50.9105 26.7618 50.8558 26.6196 50.7751 26.4921C50.6944 26.3646 50.5892 26.2544 50.4655 26.1679C50.3419 26.0814 50.2024 26.0202 50.055 25.988C49.9075 25.9558 49.7552 25.9531 49.6067 25.9802C49.4583 26.0073 49.3167 26.0635 49.1902 26.1457C49.0636 26.2279 48.9546 26.3344 48.8695 26.459C48.7844 26.5836 48.7249 26.7239 48.6944 26.8716L47.8 30.9645L44.9543 30.8755L45.7943 27.0312C45.8568 26.7364 45.8002 26.4289 45.6367 26.1758C45.4733 25.9227 45.2163 25.7445 44.922 25.6802C44.6276 25.6159 44.3198 25.6707 44.0656 25.8326C43.8115 25.9945 43.6318 26.2503 43.5657 26.5443L42.6351 30.8031L37.5033 30.6427C37.3531 30.6373 37.2034 30.6616 37.0626 30.7142C36.9219 30.7668 36.7929 30.8467 36.6832 30.9493C36.5734 31.0519 36.485 31.1752 36.423 31.3121C36.3611 31.449 36.3268 31.5967 36.3221 31.7469C36.3174 31.8971 36.3424 32.0467 36.3957 32.1872C36.449 32.3277 36.5295 32.4562 36.6327 32.5655C36.7358 32.6748 36.8595 32.7626 36.9967 32.8239C37.1338 32.8852 37.2818 32.9188 37.432 32.9228L37.4323 32.9245ZM47.3048 33.233L46.6971 36.014L43.8514 35.9252L44.4592 33.1439L47.3048 33.233ZM49.2592 82.6828C49.4326 82.7829 49.6292 82.8356 49.8295 82.8356C50.0297 82.8356 50.2264 82.7829 50.3998 82.6828L60.4749 76.8656H74.3224C75.205 76.8646 76.0511 76.5135 76.6751 75.8895C77.2992 75.2654 77.6502 74.4192 77.6512 73.5367V53.6506C77.6502 52.7681 77.2991 51.922 76.6751 51.2979C76.051 50.6739 75.2049 50.3229 74.3224 50.3218H45.8236C44.9411 50.3229 44.095 50.6739 43.4709 51.2979C42.8469 51.922 42.4958 52.7681 42.4948 53.6506V73.5367C42.4958 74.4192 42.8468 75.2653 43.4709 75.8894C44.0949 76.5135 44.9411 76.8645 45.8236 76.8655H48.6894V81.6946C48.6893 81.8948 48.7419 82.0914 48.842 82.2649C48.942 82.4383 49.0858 82.5826 49.2592 82.6828ZM45.823 74.5844C45.5453 74.584 45.279 74.4736 45.0826 74.2772C44.8863 74.0808 44.7758 73.8146 44.7755 73.5368V53.6506C44.7758 53.3729 44.8863 53.1066 45.0826 52.9102C45.279 52.7138 45.5453 52.6034 45.823 52.6031H74.3224C74.6001 52.6034 74.8664 52.7139 75.0627 52.9103C75.2591 53.1066 75.3696 53.3729 75.3699 53.6506V73.5367C75.3696 73.8144 75.2591 74.0807 75.0627 74.277C74.8664 74.4734 74.6001 74.5839 74.3224 74.5842H60.1692C59.969 74.5842 59.7723 74.6369 59.5989 74.7371L50.9701 79.7189V75.725C50.9701 75.4225 50.8499 75.1323 50.636 74.9184C50.4221 74.7045 50.132 74.5844 49.8295 74.5844H45.823ZM90.294 30.2317C89.1696 29.918 88.4673 29.7312 88.014 29.6194L87.9697 29.4541C89.4408 28.0047 90.5853 25.3144 89.783 22.5129C89.2626 20.6966 87.448 19.4281 85.3701 19.4281C83.2921 19.4281 81.4777 20.6971 80.957 22.5128C80.3044 24.7896 81.0274 27.6695 82.6758 29.3605C82.7342 29.4204 82.7934 29.4776 82.8531 29.5333L82.8299 29.6202C82.3766 29.7318 81.675 29.9183 80.5502 30.2322C78.6824 30.7535 77.7699 31.4191 77.6339 33.7916C77.6322 33.8226 77.6317 33.8535 77.6324 33.8845L77.6351 33.9922C77.6576 34.9206 77.6679 35.3444 77.6663 36.3019C77.666 36.4517 77.6953 36.6001 77.7524 36.7386C77.8095 36.8771 77.8933 37.0029 77.9991 37.109C78.1048 37.2151 78.2304 37.2993 78.3687 37.3569C78.507 37.4144 78.6553 37.4442 78.8051 37.4444H78.8069C79.1091 37.4444 79.3989 37.3245 79.6128 37.111C79.8267 36.8975 79.947 36.6078 79.9475 36.3056C79.9493 35.3181 79.9387 34.8851 79.9156 33.9363L79.9142 33.8765C79.957 33.1825 80.0588 32.9325 80.1367 32.8456C80.2739 32.6929 80.7326 32.5493 81.1633 32.4289C83.3502 31.8184 83.7973 31.7332 83.8776 31.7222C84.1055 31.6967 84.3205 31.6031 84.4945 31.4536C84.6684 31.304 84.7933 31.1055 84.8527 30.884L84.9328 30.5846C85.2564 30.6333 85.5858 30.6293 85.9082 30.5726L85.9916 30.8838C86.05 31.105 86.1739 31.3034 86.347 31.4529C86.5202 31.6023 86.7345 31.696 86.9618 31.7215C87.0474 31.733 87.4943 31.8183 89.6812 32.4289C90.1118 32.5491 90.5706 32.6927 90.7078 32.8454C90.7859 32.9324 90.887 33.1823 90.9305 33.8764L90.9291 33.9367C90.906 34.8851 90.8954 35.318 90.8968 36.3054C90.8973 36.6076 91.0177 36.8973 91.2315 37.1108C91.4454 37.3243 91.7352 37.4443 92.0375 37.4443H92.0392C92.1889 37.4441 92.3372 37.4143 92.4755 37.3568C92.6138 37.2993 92.7394 37.2151 92.8452 37.109C92.951 37.0029 93.0348 36.877 93.0919 36.7386C93.149 36.6001 93.1783 36.4517 93.1781 36.3019C93.1768 35.3441 93.1869 34.9205 93.2096 33.9922L93.2123 33.884C93.2123 33.8529 93.2123 33.8218 93.2107 33.7909C93.0744 31.4191 92.1614 30.7529 90.294 30.2317ZM84.3087 27.7682C83.3646 26.7997 82.6729 24.8042 83.1493 23.1411C83.4313 22.1573 84.4978 21.7094 85.3695 21.7094C86.2412 21.7094 87.3076 22.1575 87.5894 23.1411C88.1312 25.0301 87.29 27.0362 86.2248 27.9647C85.9458 28.2079 85.2925 28.7771 84.3087 27.7682ZM99.6712 15.1643H71.1724C70.2899 15.1653 69.4438 15.5164 68.8198 16.1404C68.1957 16.7645 67.8447 17.6105 67.8437 18.4931V38.3796C67.8447 39.2621 68.1957 40.1082 68.8198 40.7323C69.4438 41.3563 70.2899 41.7073 71.1724 41.7084H74.0382V46.5375C74.0383 46.7377 74.091 46.9344 74.1911 47.1078C74.2912 47.2812 74.4352 47.4252 74.6086 47.5253C74.782 47.6254 74.9787 47.6781 75.1789 47.6781C75.3791 47.6781 75.5758 47.6254 75.7492 47.5253L85.8243 41.7081H99.6718C100.554 41.7069 101.4 41.3558 102.024 40.7319C102.648 40.1079 102.999 39.262 103 38.3796V18.4934C102.999 17.6108 102.648 16.7647 102.024 16.1407C101.4 15.5166 100.554 15.1653 99.6712 15.1643ZM100.719 38.3796C100.718 38.6573 100.608 38.9235 100.412 39.1199C100.215 39.3163 99.949 39.4268 99.6712 39.4271H85.5182C85.318 39.4271 85.1213 39.4797 84.9479 39.5798L76.3189 44.5618V40.5677C76.3189 40.2652 76.1988 39.9751 75.9848 39.7612C75.7709 39.5473 75.4808 39.4271 75.1783 39.4271H71.1719C70.8941 39.4268 70.6279 39.3163 70.4315 39.1199C70.2351 38.9235 70.1247 38.6573 70.1243 38.3796V18.4934C70.1247 18.2156 70.2351 17.9494 70.4315 17.753C70.6279 17.5567 70.8941 17.4462 71.1719 17.4458H99.6712C99.949 17.4462 100.215 17.5567 100.412 17.753C100.608 17.9494 100.718 18.2156 100.719 18.4934V38.3796Z" fill="black"/>
<g clip-path="url(#clip0_104_5)">
<path d="M66.7307 58.2681C65.9025 57.3698 64.766 56.875 63.5304 56.875C62.6068 56.875 61.761 57.167 61.0164 57.7428C60.6406 58.0334 60.3002 58.389 60 58.8041C59.7 58.3892 59.3594 58.0334 58.9835 57.7428C58.239 57.167 57.3932 56.875 56.4696 56.875C55.234 56.875 54.0974 57.3698 53.2692 58.2681C52.4508 59.1559 52 60.3688 52 61.6835C52 63.0366 52.5043 64.2753 53.5869 65.5817C54.5554 66.7502 55.9474 67.9365 57.5593 69.3102C58.1097 69.7793 58.7336 70.311 59.3815 70.8774C59.5526 71.0273 59.7722 71.1099 60 71.1099C60.2277 71.1099 60.4474 71.0273 60.6183 70.8777C61.2661 70.3112 61.8904 69.7792 62.441 69.3098C64.0527 67.9364 65.4447 66.7502 66.4132 65.5815C67.4958 64.2753 68 63.0366 68 61.6833C68 60.3688 67.5492 59.1559 66.7307 58.2681Z" fill="#7F4CDE"/>
</g>
<defs>
<clipPath id="clip0_104_5">
<rect width="16" height="16" fill="white" transform="translate(52 56)"/>
</clipPath>
</defs>
</svg>
