<svg width="104" height="104" viewBox="0 0 104 104" fill="none" xmlns="http://www.w3.org/2000/svg">
<rect x="5" y="13.562" width="37" height="85" rx="5" transform="rotate(-9.76289 5 13.562)" fill="#7F4CDE"/>
<rect x="12.2378" y="14.346" width="48" height="82" rx="4" transform="rotate(-9.76289 12.2378 14.346)" fill="white"/>
<path fill-rule="evenodd" clip-rule="evenodd" d="M15.9127 11.7477L54.6082 5.0896C56.1926 4.81873 57.8197 5.18743 59.1325 6.11481C60.4454 7.04219 61.3367 8.45249 61.611 10.0363L71.2402 66L68.1644 66L58.6236 10.5503C58.4864 9.75843 58.0407 9.05332 57.3843 8.58964C56.7279 8.12596 55.9144 7.94158 55.1222 8.07695L47.3062 9.42179L46.7482 13.0802C46.7004 13.3946 46.5549 13.686 46.3322 13.913C46.1095 14.14 45.821 14.2912 45.5075 14.345L27.5834 17.4291C27.27 17.4831 26.9476 17.4371 26.6618 17.2976C26.376 17.158 26.1415 16.9321 25.9914 16.6517L24.2427 13.3902L16.4267 14.735C15.6348 14.8722 14.9297 15.3179 14.466 15.9743C14.0024 16.6307 13.818 17.4442 13.9534 18.2364L26.2897 89.9328C26.4269 90.7247 26.8725 91.4298 27.5289 91.8935C28.1853 92.3571 28.9989 92.5415 29.791 92.4062L68.4866 85.7481C69.2784 85.6109 69.9835 85.1652 70.4472 84.5088C70.9109 83.8524 71.0953 83.0389 70.9599 82.2467L69.7551 75.2447L72.3794 72.6204L73.9473 81.7327C74.2181 83.3171 73.8494 84.9442 72.922 86.257C71.9947 87.5699 70.5844 88.4612 69.0006 88.7354L30.305 95.3935C28.7207 95.6644 27.0936 95.2957 25.7807 94.3683C24.4679 93.4409 23.5766 92.0306 23.3023 90.4468L10.966 18.7504C10.6951 17.166 11.0638 15.5389 11.9912 14.2261C12.9186 12.9132 14.3289 12.0219 15.9127 11.7477Z" fill="black"/>
<path d="M54.0856 82.0744L42.1362 84.1304C41.7464 84.2053 41.4015 84.4302 41.1757 84.7566C40.9499 85.083 40.8611 85.485 40.9284 85.8762C40.9957 86.2673 41.2138 86.6165 41.5357 86.8487C41.8577 87.0808 42.2579 87.1774 42.6503 87.1177L54.5996 85.0617C54.9894 84.9868 55.3343 84.762 55.5601 84.4356C55.7859 84.1091 55.8747 83.7072 55.8074 83.316C55.7401 82.9248 55.5221 82.5756 55.2001 82.3435C54.8782 82.1113 54.478 82.0147 54.0856 82.0744Z" fill="black"/>
<rect x="36.8848" y="28.8849" width="56.5472" height="37.6981" rx="4" fill="white"/>
<path d="M61.2471 45.6983L56.4029 48.6105C56.1019 48.8124 55.89 49.1222 55.8109 49.4759C55.7318 49.8296 55.7916 50.2002 55.9779 50.5111C56.1642 50.8219 56.4628 51.0494 56.812 51.1465C57.1611 51.2435 57.5343 51.2028 57.8543 51.0326L62.6985 48.1204C62.8678 48.0304 63.017 47.9069 63.137 47.7574C63.2571 47.6079 63.3454 47.4355 63.3968 47.2508C63.4481 47.0661 63.4614 46.8729 63.4357 46.6829C63.41 46.4929 63.3459 46.3101 63.2474 46.1456C63.1488 45.9811 63.0179 45.8384 62.8624 45.7262C62.707 45.6139 62.5303 45.5345 62.3432 45.4926C62.1561 45.4508 61.9625 45.4474 61.774 45.4828C61.5856 45.5182 61.4063 45.5915 61.2471 45.6983Z" fill="black"/>
<path d="M87.4249 51.4315L83.077 47.82C82.7871 47.6025 82.4247 47.5048 82.0647 47.5468C81.7047 47.5889 81.3747 47.7677 81.1427 48.0461C80.9107 48.3246 80.7946 48.6815 80.8182 49.0431C80.8418 49.4048 81.0035 49.7436 81.2697 49.9895L85.6175 53.601C85.7584 53.7311 85.9242 53.8312 86.105 53.8952C86.2857 53.9591 86.4776 53.9857 86.6689 53.9732C86.8602 53.9607 87.047 53.9094 87.2179 53.8224C87.3887 53.7355 87.5402 53.6147 87.6629 53.4674C87.7856 53.3201 87.8771 53.1493 87.9317 52.9656C87.9864 52.7818 88.0031 52.5888 87.9808 52.3984C87.9586 52.2079 87.8978 52.024 87.8022 51.8578C87.7067 51.6916 87.5783 51.5466 87.4249 51.4315Z" fill="black"/>
<path fill-rule="evenodd" clip-rule="evenodd" d="M68.0024 41.6288L66.101 42.786C65.9317 42.876 65.7825 42.9996 65.6625 43.1491C65.5424 43.2985 65.4541 43.4709 65.4027 43.6556C65.3514 43.8404 65.3381 44.0336 65.3638 44.2236C65.3895 44.4136 65.4536 44.5964 65.5521 44.7609C65.6507 44.9253 65.7816 45.068 65.9371 45.1803C66.0925 45.2925 66.2692 45.372 66.4563 45.4138C66.6434 45.4557 66.837 45.459 67.0255 45.4236C67.2139 45.3883 67.3932 45.315 67.5524 45.2081L69.1616 44.1042C68.4783 43.4902 68.0379 42.6111 68.0024 41.6288ZM73.7198 44.2062L77.4387 47.0648C77.5934 47.1675 77.7669 47.2387 77.9491 47.2744C78.1313 47.3101 78.3188 47.3096 78.5009 47.2728C78.6829 47.2361 78.8559 47.1638 79.01 47.0602C79.1641 46.9566 79.2963 46.8236 79.399 46.6689C79.5018 46.5142 79.573 46.3408 79.6087 46.1586C79.6444 45.9763 79.6439 45.7888 79.6071 45.6068C79.5704 45.4248 79.4981 45.2518 79.3945 45.0977C79.2909 44.9436 79.1579 44.8114 79.0032 44.7086L78.9844 44.7181L74.9748 41.9226C74.8644 42.8402 74.3989 43.6485 73.7198 44.2062Z" fill="black"/>
<circle cx="71.5" cy="41.5" r="2.5" fill="#7F4CDE"/>
<circle cx="45.5" cy="56.5" r="2.5" fill="#7F4CDE"/>
<path fill-rule="evenodd" clip-rule="evenodd" d="M87.5323 27H42.7847C40.7208 27.0025 38.7422 27.8235 37.2828 29.2828C35.8235 30.7422 35.0025 32.7208 35 34.7847V60.6833C35.0025 62.7471 35.8235 64.7257 37.2828 66.1851C38.7422 67.6445 40.7208 68.4654 42.7847 68.4679H60.4462H66V65.6351L59.4944 65.6311H42.7847C41.4723 65.6287 40.2143 65.1069 39.2854 64.1798C38.3565 63.2527 37.8323 61.9956 37.8274 60.6833V54.218L42.0064 56.7128C42.0021 56.6424 42 56.5715 42 56.5C42 55.4861 42.4312 54.5728 43.1201 53.9336L38.0724 51.0702C37.9949 51.0216 37.9128 50.9805 37.8274 50.9477V34.7847C37.8298 33.4707 38.3529 32.2112 39.2821 31.2821C40.2112 30.3529 41.4707 29.8298 42.7847 29.8274H87.5323C88.8463 29.8298 90.1058 30.3529 91.0349 31.2821C91.9641 32.2112 92.4871 33.4707 92.4896 34.7847V60.6833C92.4871 61.9973 91.9641 63.2567 91.0349 64.1859C90.1058 65.115 88.8463 65.6381 87.5323 65.6406H84.0338L86.3899 68.4679H87.5323C89.5962 68.4654 91.5748 67.6445 93.0342 66.1851C94.4935 64.7257 95.3145 62.7471 95.317 60.6833V34.7847C95.3145 32.7208 94.4935 30.7422 93.0342 29.2828C91.5748 27.8235 89.5962 27.0025 87.5323 27ZM53.0009 53.8976L48.9878 56.206C48.9002 55.1518 48.3453 54.2303 47.5308 53.649L51.5495 51.5038C51.8626 51.3698 52.2136 51.3533 52.5379 51.4574C52.8622 51.5615 53.138 51.7792 53.3146 52.0705C53.4912 52.3617 53.5567 52.707 53.499 53.0427C53.4414 53.3783 53.2645 53.6819 53.0009 53.8976Z" fill="black"/>
<path d="M67.5 55.912L68.4017 70.2134C68.4322 70.8561 68.9806 71.4494 69.5856 71.6684C70.1905 71.8875 70.9957 71.6263 71.4643 71.059L73.7011 68.0791L77.8317 73.6801C78.3613 74.3982 79.4842 74.5679 80.2022 74.0383L83.6491 71.4964C84.3672 70.9669 84.5368 69.844 84.0073 69.1259L79.7142 63.7555L83.0973 62.4801C83.7777 62.2001 84.2462 61.6328 84.2346 60.8654C84.2229 60.0979 83.7993 59.5234 83.1943 59.3044L69.779 54.3422C68.6938 53.923 67.4012 54.8762 67.5 55.912Z" fill="#7F4CDE"/>
</svg>
