<svg width="131" height="37" viewBox="0 0 131 37" fill="none" xmlns="http://www.w3.org/2000/svg">
<path fill-rule="evenodd" clip-rule="evenodd" d="M31.4639 36.4618H0V0H31.4639V36.4618Z" fill="white"/>
<path fill-rule="evenodd" clip-rule="evenodd" d="M64.5603 36.4618H33.5334V0H64.5603V36.4618Z" fill="white"/>
<path fill-rule="evenodd" clip-rule="evenodd" d="M97.6805 36.4618H66.6536V0H97.6805V36.4618Z" fill="white"/>
<path fill-rule="evenodd" clip-rule="evenodd" d="M130.686 36.4618H99.6125V0H130.686V36.4618Z" fill="white"/>
<path fill-rule="evenodd" clip-rule="evenodd" d="M124.508 25.8196C122.987 26.6913 121.713 27.3169 120.685 27.6527C119.657 27.9885 118.627 28.1449 117.578 28.1449C116.058 28.1449 114.581 27.7861 113.15 27.0731C111.743 26.3555 110.625 25.24 109.797 23.7404C108.992 22.2202 108.589 20.2536 108.546 17.795H116.773C118.606 17.795 120.46 17.7513 122.293 17.6156C123.254 17.5489 124.372 17.4155 125.603 17.1924C125.669 16.4978 125.692 15.9159 125.692 15.4467C125.692 13.5469 125.333 11.8495 124.618 10.3499C123.903 8.85258 122.785 7.66807 121.244 6.79638C119.701 5.92468 117.98 5.4762 116.078 5.4762C114.514 5.4762 113.061 5.76828 111.72 6.32719C110.692 6.72969 109.664 7.28858 108.636 8.00388C107.607 8.69617 106.846 9.32178 106.333 9.88067C105.662 10.619 105.057 11.7805 104.521 13.3675C103.985 14.9338 103.716 16.7002 103.716 18.6667C103.716 21.1714 104.231 23.3379 105.236 25.217C106.244 27.0731 107.651 28.4807 109.461 29.4191C111.271 30.3368 113.307 30.806 115.542 30.806C116.683 30.806 117.755 30.6933 118.783 30.4472C119.811 30.2011 120.729 29.8883 121.534 29.5318C122.07 29.3064 122.918 28.8165 124.105 28.0782L124.908 26.2451L124.508 25.8196ZM110.356 9.27808C111.52 7.86818 113.084 7.15288 115.029 7.15288C116.863 7.15288 118.314 7.80149 119.411 9.09868C120.506 10.3959 121.065 12.4084 121.065 15.1569C121.065 15.38 121.065 15.7158 121.042 16.1413C120.303 16.208 118.829 16.2517 116.547 16.2517C115.588 16.2517 113.822 16.208 111.271 16.1413C109.933 16.0516 109.015 15.9849 108.546 15.9389C108.566 12.8983 109.171 10.6627 110.356 9.27808Z" fill="#101828"/>
<path fill-rule="evenodd" clip-rule="evenodd" d="M91.9812 27.1169L90.9739 28.8166C89.8124 29.4652 88.6485 29.9114 87.5101 30.2242C86.3692 30.514 85.0721 30.6497 83.6416 30.6497C80.088 30.6497 77.2475 29.5756 75.1476 27.4297C73.0224 25.2838 71.9736 22.3099 71.9736 18.554C71.9736 16.5645 72.2634 14.8441 72.8223 13.3675C73.402 11.8932 74.0964 10.7524 74.9244 9.97044C75.4812 9.41154 76.5552 8.67325 78.1192 7.78085C79.6855 6.88615 80.7802 6.32725 81.4059 6.05815C82.5467 5.56594 83.9336 5.32214 85.5412 5.32214C87.0615 5.32214 88.4254 5.47625 89.656 5.79134C90.438 5.99144 91.1969 6.32725 91.9812 6.79643C91.7789 8.09364 91.6225 9.09875 91.5327 9.77034C91.4431 10.4189 91.3326 11.6471 91.1969 13.4135H89.7227C89.61 11.7805 89.5203 10.7754 89.4099 10.3729C89.3432 10.1268 89.2075 9.90373 88.9613 9.70363C88.3588 9.23214 87.5974 8.82965 86.6384 8.49615C85.6977 8.16034 84.6488 7.98093 83.5287 7.98093C82.1211 7.98093 80.8931 8.27073 79.8626 8.85263C78.8345 9.43453 78.0318 10.3729 77.473 11.6471C76.891 12.9213 76.6219 14.4853 76.6219 16.3644C76.6219 18.6897 77.0243 20.7689 77.8294 22.6227C78.6344 24.5018 79.7293 25.8427 81.1391 26.7144C82.5237 27.5631 84.067 27.9886 85.7874 27.9886C86.6591 27.9886 87.4871 27.8759 88.3151 27.6758C89.1177 27.4527 90.1688 27.0502 91.4661 26.4453L91.9812 27.1169Z" fill="#101828"/>
<path fill-rule="evenodd" clip-rule="evenodd" d="M40.3394 22.2662H41.8159C41.8366 23.2506 41.8827 24.0326 41.9723 24.5915C42.062 25.1711 42.1955 25.73 42.3956 26.2889C42.5979 26.8271 42.9108 27.2963 43.3362 27.6758C43.7595 28.0553 44.2079 28.3474 44.7001 28.5475C45.213 28.7706 45.7052 28.9063 46.2204 28.973C46.7333 29.0397 47.5154 29.0834 48.5664 29.0834C50.2661 29.0834 51.6737 28.6142 52.7915 27.6988C53.8863 26.7811 54.4452 25.5529 54.4452 23.9659C54.4452 23.2506 54.2681 22.6227 53.9093 22.0868C53.5735 21.5279 53.0606 21.1254 52.412 20.8126C51.7635 20.4998 50.3558 20.0973 48.2099 19.6281C46.0617 19.1359 44.6771 18.7794 44.0285 18.554C43.0901 18.1975 42.3288 17.772 41.7699 17.2591C41.2111 16.7439 40.7648 16.1183 40.452 15.3363C40.1162 14.5543 39.9368 13.7033 39.9368 12.7879C39.9368 11.4677 40.2956 10.2395 41.011 9.12173C41.7262 7.98094 42.821 7.06555 44.3413 6.37094C45.8616 5.67865 47.5154 5.32214 49.3047 5.32214C50.3996 5.32214 51.63 5.45556 53.0606 5.74535C54.4682 6.03515 55.609 6.37094 56.5014 6.79643C56.4577 8.69623 56.4346 10.642 56.414 12.6085H54.9374C54.8477 11.378 54.7373 10.5523 54.6246 10.1728C54.5348 9.77034 54.3785 9.43453 54.1784 9.12173C53.9989 8.80894 53.6862 8.49614 53.217 8.13734C52.7685 7.80155 52.1659 7.48874 51.4506 7.19895C50.7123 6.92985 49.8176 6.79643 48.7688 6.79643C47.2692 6.79643 46.0617 7.24263 45.1463 8.11434C44.2517 9.00903 43.7824 10.0371 43.7824 11.2216C43.7824 11.8932 43.9159 12.4521 44.1849 12.9213C44.454 13.4135 44.7876 13.793 45.236 14.0828C45.6615 14.3749 46.2872 14.644 47.0691 14.8878L51.2482 15.9389C53.3734 16.4748 54.8247 16.9463 55.6297 17.3258C56.414 17.7283 57.0626 18.3309 57.5525 19.1359C58.0447 19.9639 58.2678 20.946 58.2678 22.1098C58.2678 24.3891 57.3294 26.4016 55.4526 28.1013C53.5735 29.7987 51.0481 30.6497 47.8971 30.6497C46.4436 30.6497 44.5207 30.4266 42.1057 29.9781C40.7648 29.732 40.0495 29.5526 39.9598 29.4422C39.8931 29.3962 39.8472 29.3065 39.8472 29.1961C39.8472 29.0834 39.8701 28.927 39.8931 28.7499C40.0495 28.0346 40.1599 27.317 40.2059 26.6247C40.2726 25.9324 40.3163 24.4788 40.3394 22.2662Z" fill="#101828"/>
<path fill-rule="evenodd" clip-rule="evenodd" d="M4.72878 24.2557C5.15189 25.3068 5.77979 26.3349 6.60558 27.34C7.43358 28.3474 8.50538 29.1961 9.8486 29.8447C11.1664 30.514 12.7994 30.8498 14.7199 30.8498C17.1809 30.8498 19.4372 30.2702 21.4933 29.0834C23.5289 27.9219 25.1159 26.3119 26.2336 24.2557C27.3515 22.1765 27.9333 19.9179 27.9333 17.4155C27.9333 13.8597 26.8386 10.9548 24.6467 8.69623C22.4778 6.43764 19.6396 5.32214 16.1736 5.32214C12.4866 5.32214 9.46673 6.52734 7.12079 8.94234C4.75169 11.3573 3.58789 14.4646 3.58789 18.2872C3.58789 20.4101 3.96741 22.3996 4.72878 24.2557ZM10.1383 9.30114C11.4125 7.75784 13.0893 6.99654 15.1455 6.99654C16.599 6.99654 17.9399 7.39904 19.1474 8.22704C20.3549 9.03204 21.337 10.4396 22.1214 12.4291C22.9033 14.4186 23.2828 16.7669 23.2828 19.4947C23.2828 22.7791 22.6342 25.2171 21.3163 26.8041C20.0191 28.3911 18.3862 29.1731 16.4426 29.1731C14.9223 29.1731 13.5147 28.6602 12.2176 27.6528C10.8974 26.6477 9.91521 25.0607 9.24361 22.8918C8.55131 20.7022 8.21551 18.554 8.21551 16.4311C8.21551 13.2134 8.84119 10.8191 10.1383 9.30114Z" fill="#101828"/>
</svg>
