<svg width="128" height="42" viewBox="0 0 128 42" fill="none" xmlns="http://www.w3.org/2000/svg">
<g clip-path="url(#clip0_1_386)">
<path d="M43.3233 9.09936C42.2141 8.2277 40.9202 7.62337 39.5416 7.33292C38.163 7.04248 36.7365 7.07365 35.3718 7.42411C31.0833 8.49055 27.052 10.4114 23.5174 13.0724C19.9833 10.4105 15.9519 8.48961 11.663 7.42411C10.2983 7.07365 8.87164 7.04248 7.49302 7.33292C6.11441 7.62337 4.82072 8.2277 3.7115 9.09936C2.57339 9.98009 1.65223 11.1119 1.01973 12.4072C0.387225 13.7026 0.0603439 15.1267 0.0639951 16.5693V40.9564H2.27066V16.5693C2.26842 15.4648 2.51888 14.3745 3.00266 13.3826C3.48644 12.3906 4.19068 11.5234 5.06106 10.8478C5.90553 10.1838 6.89081 9.72369 7.94072 9.50305C8.99064 9.28241 10.077 9.30718 11.1158 9.57541C14.958 10.5299 18.5826 12.214 21.7938 14.537C17.9584 18.0753 15.1958 22.6288 13.8241 27.6734C13.0666 30.1732 13.1018 32.8476 13.9245 35.3265C14.9275 38.265 17.3712 41.7345 23.1525 42.0091H23.946C29.7181 41.707 32.1527 38.265 33.174 35.3265C33.9967 32.8476 34.0319 30.1732 33.2744 27.6734C31.9027 22.6288 29.1401 18.0753 25.3047 14.537C28.5159 12.214 32.1405 10.5299 35.9827 9.57541C37.02 9.30655 38.1052 9.28147 39.1538 9.50216C40.2023 9.72285 41.1859 10.1833 42.0283 10.8478C42.9014 11.5215 43.6081 12.3882 44.0936 13.3804C44.5791 14.3726 44.8304 15.4638 44.8278 16.5693V40.9564H47.0345V16.5693C47.0307 15.1213 46.6938 13.6939 46.0501 12.3981C45.4063 11.1024 44.4732 9.97349 43.3233 9.09936ZM31.0858 28.3234C31.7044 30.3865 31.6823 32.5899 31.0221 34.6399C29.8732 37.9996 27.329 39.7388 23.4809 39.8578C19.6328 39.7388 17.0978 38.027 15.9488 34.6399C15.284 32.5906 15.2616 30.3858 15.8849 28.3234C17.1787 23.5635 19.8168 19.281 23.4809 15.9926C27.1479 19.2802 29.789 23.5626 31.0858 28.3234Z" fill="white"/>
<path d="M55.8252 5.15393H53.6184V40.9565H55.8252V5.15393Z" fill="white"/>
<path d="M75.6037 40.9472H73.397C73.3922 37.4607 72.0098 34.1185 69.5532 31.654C67.0966 29.1895 63.7663 27.8041 60.2933 27.8016H54.822V25.5771H60.2933C64.3531 25.5796 68.246 27.1997 71.1167 30.0816C73.9874 32.9635 75.6013 36.8716 75.6037 40.9472Z" fill="white"/>
<path d="M69.5305 21.9155C67.3192 21.913 65.1992 21.0295 63.6364 19.4589C62.0737 17.8883 61.1958 15.7592 61.1958 13.5392C61.1982 11.3209 62.0773 9.19414 63.6398 7.62554C65.2023 6.05693 67.3208 5.17466 69.5305 5.17224C71.7402 5.17466 73.8586 6.05693 75.4212 7.62554C76.9837 9.19414 77.8625 11.3209 77.8649 13.5392C77.8649 15.7592 76.9873 17.8883 75.4245 19.4589C73.8617 21.0295 71.7418 21.913 69.5305 21.9155ZM69.5305 7.42417C67.9157 7.42659 66.3676 8.07165 65.2258 9.21793C64.084 10.3642 63.4416 11.9182 63.4392 13.5392C63.4392 15.1619 64.0806 16.7183 65.2227 17.8665C66.3647 19.0148 67.9141 19.6611 69.5305 19.6635C71.1468 19.6611 72.6962 19.0148 73.8383 17.8665C74.9804 16.7183 75.6217 15.1619 75.6217 13.5392C75.6241 12.7342 75.4685 11.9367 75.1636 11.1921C74.8586 10.4476 74.4105 9.77067 73.8447 9.20016C73.279 8.62965 72.6068 8.17675 71.8665 7.8673C71.1262 7.55785 70.3324 7.39793 69.5305 7.39673V7.42417Z" fill="white"/>
<path d="M89.8473 16.4686C87.6707 16.4686 85.5832 15.6006 84.0441 14.0555C82.505 12.5104 81.6404 10.4148 81.6404 8.22973C81.6404 6.04464 82.505 3.94906 84.0441 2.40397C85.5832 0.858875 87.6707 -0.00915527 89.8473 -0.00915527C92.0239 -0.00915527 94.1111 0.858875 95.6502 2.40397C97.1893 3.94906 98.0542 6.04464 98.0542 8.22973C98.0542 10.4148 97.1893 12.5104 95.6502 14.0555C94.1111 15.6006 92.0239 16.4686 89.8473 16.4686ZM89.8473 2.21534C88.2591 2.21776 86.7366 2.85221 85.6136 3.9796C84.4906 5.10699 83.8586 6.63536 83.8562 8.22973C83.8562 9.82568 84.487 11.3564 85.6102 12.4858C86.7335 13.6151 88.2575 14.2509 89.8473 14.2533C91.4379 14.2509 92.9625 13.6154 94.0872 12.4863C95.2119 11.3572 95.8448 9.82653 95.8473 8.22973C95.8448 6.63377 95.2117 5.10401 94.0867 3.97636C92.9618 2.8487 91.437 2.21533 89.8473 2.21534Z" fill="white"/>
<path d="M102.477 40.9198H100.27V21.0457C100.275 17.3544 101.738 13.8157 104.338 11.2055C106.938 8.59538 110.463 7.12691 114.14 7.12207C117.815 7.12934 121.338 8.59888 123.936 11.2088C126.534 13.8187 127.995 17.356 128 21.0457V40.9198H125.793V21.0457C125.789 17.9444 124.559 14.9715 122.375 12.7785C120.19 10.5856 117.229 9.3514 114.14 9.34656C111.049 9.34898 108.085 10.5821 105.899 12.7753C103.712 14.9685 102.482 17.9428 102.477 21.0457V40.9198Z" fill="white"/>
<path d="M90.9504 25.5863H88.7437V40.9564H90.9504V25.5863Z" fill="white"/>
</g>
<defs>
<clipPath id="clip0_1_386">
<rect width="128" height="42" fill="white"/>
</clipPath>
</defs>
</svg>
