<svg width="82" height="82" viewBox="0 0 82 82" fill="none" xmlns="http://www.w3.org/2000/svg">
<g clip-path="url(#clip0_45_24)">
<path d="M65.2866 40.3974C65.2756 37.4939 64.8839 34.6043 64.1214 31.8027C68.7354 30.5588 71.1926 29.3503 71.416 29.2313C72.7899 32.7957 73.5232 36.5747 73.5823 40.3942L65.2866 40.3974ZM58.6975 13.6249C58.8245 13.7085 58.9482 13.7969 59.0752 13.882C59.3677 14.0765 59.6601 14.271 59.9462 14.4751C60.0973 14.5827 60.2435 14.6984 60.393 14.8093C60.6469 14.9974 60.9024 15.1838 61.1499 15.3782C61.3106 15.5052 61.4713 15.6386 61.624 15.7688C61.8538 15.9552 62.0852 16.1416 62.3086 16.3361C62.4693 16.4775 62.63 16.6253 62.7908 16.77C63.0013 16.9612 63.215 17.1493 63.4207 17.3453C63.5814 17.506 63.7422 17.6667 63.9029 17.8178C64.1005 18.0123 64.2982 18.2067 64.4911 18.406C64.6518 18.5667 64.8044 18.7451 64.9603 18.9138C65.1451 19.1147 65.3316 19.314 65.5116 19.5197C65.6723 19.6949 65.8137 19.8765 65.9631 20.0549C66.1126 20.2333 66.2412 20.3859 66.3778 20.5563C64.3481 21.4393 62.2682 22.2018 60.1487 22.8399C58.203 19.9491 55.9085 17.3092 53.317 14.9797C54.7693 14.3919 56.1766 13.6984 57.5275 12.9049C57.9293 13.138 58.3198 13.3774 58.7039 13.6249H58.6975ZM63.9768 31.3254C63.2349 28.73 62.1753 26.2362 60.8221 23.9006C60.7048 23.6981 60.5649 23.4844 60.4332 23.2755C62.5691 22.6262 64.6647 21.8507 66.7088 20.9532C68.5717 23.3355 70.0942 25.9652 71.2328 28.7669C71.2274 28.7676 71.222 28.7676 71.2167 28.7669C71.183 28.7958 68.7434 30.0526 63.9832 31.3254H63.9768ZM10.3756 29.7842C11.1004 30.1136 13.8051 31.2579 18.5187 32.3475C17.8103 34.9739 17.4282 37.6775 17.3809 40.3974H8.41819C8.47599 36.7748 9.13979 33.1875 10.3821 29.7842H10.3756ZM10.5476 29.3181C11.7054 26.3092 13.3049 23.4894 15.2933 20.9516C17.5942 21.9655 19.9603 22.8245 22.3757 23.523C22.2504 23.7206 22.1154 23.9231 22.0013 24.1144C20.5561 26.5462 19.4315 29.1547 18.6553 31.875C13.8743 30.7645 11.1872 29.609 10.554 29.3181H10.5476ZM15.6163 20.5563C15.7513 20.3956 15.8879 20.2268 16.0245 20.0629C16.1611 19.899 16.3283 19.6965 16.4842 19.5197C16.6625 19.314 16.849 19.1147 17.0338 18.9154C17.1945 18.7451 17.344 18.5731 17.5031 18.4076C17.6959 18.2067 17.8952 18.0123 18.0929 17.8178C18.2536 17.6571 18.4143 17.4964 18.575 17.3469C18.7823 17.1509 18.9944 16.9612 19.2066 16.7716C19.3673 16.6253 19.528 16.4775 19.6887 16.3361C19.9105 16.1448 20.1371 15.9616 20.3637 15.7768C20.5244 15.645 20.6851 15.5084 20.8458 15.3782C21.0853 15.1902 21.3279 15.0102 21.577 14.827C21.7377 14.7097 21.8888 14.5892 22.0495 14.4751C22.3211 14.279 22.6007 14.0942 22.8804 13.9078C23.0202 13.8145 23.1552 13.7165 23.2966 13.6249C23.6791 13.3758 24.0696 13.1428 24.465 12.9049C26.0829 13.8544 27.7805 14.661 29.5385 15.3156C26.9768 17.5446 24.3958 20.4743 22.6554 23.0826C20.2577 22.3976 17.9083 21.5536 15.6228 20.5563H15.6163ZM8.40855 40.894H17.3777C17.3777 40.9293 17.3777 40.9647 17.3777 41C17.3786 43.8543 17.7475 46.6966 18.4753 49.4565C13.7248 50.6168 11.1277 51.8366 10.3869 52.2159C9.07179 48.623 8.40152 44.8261 8.40694 41C8.40534 40.9647 8.40855 40.9293 8.40855 40.894ZM23.062 68.2145C22.9302 68.1277 22.8016 68.0329 22.6714 67.9445C22.3854 67.75 22.0993 67.5571 21.8213 67.3547C21.6606 67.2406 21.516 67.12 21.3617 67.0043C21.1158 66.8179 20.8667 66.6331 20.6256 66.4402C20.4649 66.3084 20.3042 66.1702 20.1435 66.0368C19.9201 65.8504 19.6935 65.6656 19.4766 65.4744C19.3158 65.3281 19.1551 65.1771 18.9944 65.0276C18.7871 64.838 18.5782 64.6515 18.3773 64.4571C18.2166 64.2964 18.0559 64.1357 17.8952 63.975C17.7023 63.7821 17.5095 63.5893 17.3215 63.3916C17.1607 63.2212 17 63.0461 16.8506 62.8725C16.6706 62.6732 16.489 62.4771 16.3138 62.273C16.1386 62.0689 16.0085 61.9066 15.8574 61.7234C15.7063 61.5402 15.5874 61.402 15.4556 61.2284C17.7467 60.2133 20.1038 59.3543 22.5107 58.6571C24.4087 61.5241 27.2211 64.4539 29.4421 66.4225C27.6309 67.1044 25.885 67.9484 24.2255 68.9441C23.8318 68.7126 23.4445 68.4716 23.0555 68.2193L23.062 68.2145ZM18.6055 49.9354C19.3555 52.6281 20.4464 55.214 21.8518 57.6302C21.9675 57.8278 22.1041 58.0303 22.2311 58.2312C19.8106 58.9368 17.4406 59.8056 15.1374 60.8315C13.2265 58.3513 11.6838 55.608 10.5572 52.6868C11.176 52.3637 13.7473 51.1199 18.6055 49.9354ZM34.3807 72.9264C33.9468 72.8364 33.5161 72.7368 33.087 72.6307C32.9391 72.5938 32.7929 72.5504 32.645 72.5102C32.3654 72.4363 32.0858 72.364 31.8093 72.2836C31.6342 72.2322 31.4622 72.1727 31.287 72.1229C31.0395 72.0457 30.7921 71.9622 30.5462 71.8866C30.3646 71.824 30.183 71.7565 30.0014 71.6906C29.7683 71.607 29.5353 71.5299 29.3039 71.4367C29.1175 71.3643 28.9327 71.2872 28.7478 71.2117C28.5245 71.1201 28.2995 71.0317 28.0777 70.9352C27.8913 70.8533 27.7064 70.7745 27.52 70.6829C27.3031 70.5849 27.0877 70.4869 26.8772 70.384C26.6908 70.294 26.506 70.1992 26.3211 70.106C26.1106 69.9999 25.9001 69.8939 25.6912 69.7846C25.508 69.6865 25.3264 69.5853 25.1448 69.4824C25.0017 69.4037 24.8587 69.3217 24.7173 69.2398C27.2057 67.7784 29.8806 66.6609 32.6691 65.9179C32.6909 65.9179 32.7126 65.9146 32.7334 65.9083C34.2039 65.521 37.0452 65.0967 38.5929 64.9183C38.6253 64.914 38.6566 64.9032 38.6849 64.8867C38.7132 64.8702 38.738 64.8482 38.7577 64.822C38.7774 64.7959 38.7918 64.766 38.7999 64.7343C38.808 64.7025 38.8097 64.6695 38.805 64.6371C38.7969 64.5716 38.7634 64.5119 38.7117 64.471C38.6599 64.4301 38.5941 64.4113 38.5286 64.4185C36.9665 64.5985 34.0946 65.0276 32.6579 65.4133C32.6366 65.4134 32.6155 65.4166 32.5952 65.4229C31.7017 65.6576 30.8274 65.9356 29.9564 66.2442C29.9514 66.2355 29.9455 66.2274 29.9387 66.2201C27.8495 64.388 24.9342 61.3988 22.9961 58.5173C23.9812 58.2393 24.9776 57.9789 25.9917 57.7475C26.0491 57.7269 26.0969 57.686 26.1262 57.6325C26.1554 57.579 26.164 57.5166 26.1503 57.4572C26.1367 57.3978 26.1017 57.3454 26.052 57.3101C26.0023 57.2747 25.9414 57.2588 25.8808 57.2654C24.8073 57.5112 23.753 57.7893 22.7116 58.0866C22.5606 57.8503 22.4143 57.6157 22.2777 57.3827C20.8977 55.0103 19.8247 52.4722 19.0844 49.8294C21.029 49.3697 23.3175 48.9262 25.9756 48.5533C26.0409 48.5438 26.0997 48.5089 26.1394 48.4563C26.1791 48.4036 26.1965 48.3375 26.1878 48.2721C26.177 48.2074 26.1419 48.1493 26.0895 48.1098C26.0372 48.0703 25.9717 48.0525 25.9065 48.06C23.2275 48.4376 20.9245 48.886 18.9526 49.3456C18.235 46.6234 17.8714 43.8201 17.8711 41.0049C17.8711 40.9695 17.8711 40.9341 17.8711 40.8988H26.1636V40.4022H17.8839C17.9318 37.7197 18.3096 35.0533 19.0089 32.4632C20.8683 32.8794 23.0154 33.2828 25.4678 33.6251H25.5031C25.563 33.6249 25.6207 33.6033 25.6659 33.564C25.711 33.5248 25.7405 33.4706 25.749 33.4114C25.7538 33.379 25.752 33.3461 25.7439 33.3144C25.7358 33.2828 25.7214 33.2531 25.7016 33.227C25.6819 33.201 25.6571 33.1792 25.6289 33.1628C25.6006 33.1464 25.5693 33.1359 25.5369 33.1317C23.1102 32.7926 20.9856 32.3941 19.1439 31.9827C19.9089 29.3135 21.014 26.7539 22.432 24.3667C22.567 24.1401 22.7229 23.9054 22.8739 23.6708C23.9137 23.9649 24.9632 24.2397 26.0367 24.4824C29.9026 25.3542 33.8383 25.8807 37.7973 26.0557C37.8302 26.0581 37.8632 26.0538 37.8943 26.043C37.9254 26.0322 37.9539 26.0151 37.9782 25.9928C38.0024 25.9705 38.0218 25.9435 38.0352 25.9134C38.0486 25.8833 38.0557 25.8508 38.0561 25.8179C38.0576 25.7854 38.0527 25.7529 38.0416 25.7223C38.0306 25.6917 38.0136 25.6635 37.9916 25.6395C37.9697 25.6155 37.9432 25.596 37.9137 25.5822C37.8843 25.5684 37.8524 25.5606 37.8198 25.5591C33.8901 25.3852 29.9835 24.863 26.146 23.9987C25.1335 23.7688 24.1371 23.5165 23.152 23.2353C25.1079 20.3983 27.4141 17.8194 30.0158 15.5598C30.0335 15.5428 30.0487 15.5233 30.0608 15.502C30.9785 15.8234 31.9106 16.1127 32.8572 16.3521C34.7857 16.8487 38.4354 17.1975 40.2851 17.326H40.3028C40.3656 17.3234 40.4252 17.2972 40.4694 17.2525C40.5137 17.2078 40.5395 17.1481 40.5415 17.0852C40.5435 17.0223 40.5217 16.961 40.4804 16.9136C40.4391 16.8662 40.3814 16.8361 40.3189 16.8294C38.4868 16.7025 34.8789 16.3586 32.9793 15.8652C30.1721 15.1526 27.4752 14.0604 24.9632 12.6189C25.1014 12.5401 25.238 12.4582 25.3762 12.3875C25.553 12.2926 25.7281 12.1946 25.9049 12.103C26.1106 11.9953 26.3195 11.8909 26.5285 11.7816C26.7052 11.6932 26.8836 11.6048 27.062 11.5196C27.2757 11.4184 27.4911 11.322 27.7048 11.2271C27.8832 11.1468 28.06 11.0664 28.2384 10.9893C28.4586 10.8961 28.6836 10.8077 28.9069 10.7177C29.0821 10.647 29.2557 10.5747 29.4325 10.5088C29.6655 10.4204 29.8985 10.3384 30.1331 10.2565C30.3035 10.1954 30.4739 10.1311 30.6458 10.0732C30.8917 9.99128 31.1408 9.91254 31.3899 9.84022C31.5506 9.78879 31.7113 9.73576 31.872 9.68755C32.15 9.60719 32.4297 9.52684 32.7093 9.46095C32.8459 9.42559 32.9809 9.38541 33.1175 9.35167C33.5354 9.2472 33.9564 9.15238 34.3791 9.064C38.7472 8.17366 43.2501 8.17366 47.6183 9.064C48.0409 9.15078 48.462 9.2472 48.8782 9.35167C49.0132 9.38541 49.1466 9.42398 49.28 9.45934C49.5628 9.53327 49.8441 9.60558 50.1237 9.68755C50.2844 9.73415 50.4451 9.78719 50.6058 9.83701C50.8565 9.91415 51.1072 9.98968 51.3547 10.0732C51.5251 10.1311 51.6922 10.1922 51.861 10.2532C52.0972 10.3368 52.3334 10.414 52.5681 10.5072C52.7416 10.5731 52.9136 10.6454 53.0856 10.7145C53.3122 10.8045 53.5388 10.8945 53.7621 10.9893C53.9373 11.0648 54.1125 11.15 54.2861 11.2239C54.5046 11.3203 54.7216 11.4168 54.9369 11.5196C55.1137 11.6032 55.2889 11.6916 55.4641 11.7784C55.6746 11.8828 55.8835 11.9873 56.0924 12.0998C56.2692 12.193 56.4444 12.2894 56.6195 12.3858C56.7578 12.4614 56.8944 12.5369 57.031 12.6157C54.5217 14.0593 51.8261 15.1516 49.0196 15.862C47.4125 16.2718 45.1883 16.5627 42.3872 16.7282C42.3214 16.7323 42.2599 16.7624 42.2162 16.8118C42.1725 16.8612 42.1502 16.9259 42.1542 16.9918C42.1549 17.0248 42.1624 17.0573 42.1763 17.0873C42.1902 17.1173 42.2102 17.1441 42.2349 17.1659C42.2597 17.1878 42.2887 17.2044 42.3202 17.2145C42.3516 17.2246 42.3848 17.2281 42.4177 17.2248C45.2494 17.0641 47.5122 16.7603 49.1434 16.3425C50.3873 16.0252 51.6114 15.6345 52.8091 15.1725C52.8091 15.1725 52.8188 15.1886 52.8252 15.195L53.6946 16.0404C53.73 16.0746 53.7748 16.0976 53.8232 16.1063C56.0054 18.1841 57.9589 20.4895 59.6505 22.983C58.405 23.351 57.1435 23.6965 55.853 23.989C51.9403 24.8733 47.9556 25.4009 43.9477 25.5656C43.8816 25.5668 43.8188 25.5943 43.7729 25.6419C43.7271 25.6896 43.7021 25.7534 43.7034 25.8195C43.7047 25.8856 43.7321 25.9484 43.7798 25.9942C43.8274 26.04 43.8912 26.065 43.9573 26.0638H43.9686C48.0061 25.8994 52.0204 25.3695 55.9622 24.4808C57.3106 24.1754 58.6284 23.8138 59.9285 23.4249C60.0892 23.6708 60.2403 23.9167 60.3785 24.1529C61.7143 26.449 62.7615 28.9012 63.4963 31.4539C61.6015 31.9473 59.3709 32.4423 56.7851 32.865C56.7197 32.8703 56.659 32.9014 56.6165 32.9514C56.574 33.0014 56.5531 33.0663 56.5585 33.1317C56.5638 33.1972 56.5949 33.2578 56.6449 33.3003C56.695 33.3428 56.7598 33.3637 56.8253 33.3583C56.8386 33.3599 56.8521 33.3599 56.8654 33.3583C59.4705 32.9325 61.7204 32.4343 63.6329 31.9345C64.3856 34.6945 64.7725 37.5414 64.7835 40.4022H56.0008V40.8988H64.7819C64.7507 43.7398 64.3498 46.5647 63.5895 49.3022C61.6304 48.8715 59.2777 48.4569 56.4813 48.1114C56.4161 48.1053 56.3509 48.1244 56.2993 48.1647C56.2476 48.205 56.2133 48.2636 56.2033 48.3284C56.1956 48.3937 56.2141 48.4595 56.2547 48.5113C56.2954 48.5631 56.3549 48.5967 56.4203 48.6048C59.178 48.9455 61.5067 49.3585 63.4481 49.7844C62.6885 52.3728 61.6088 54.8562 60.2339 57.177C60.0394 57.4984 59.8209 57.8407 59.591 58.183C58.4516 57.8519 57.2993 57.5402 56.1246 57.2718C56.0641 57.2658 56.0036 57.2821 55.9544 57.3176C55.9051 57.3531 55.8705 57.4054 55.8571 57.4646C55.8437 57.5238 55.8523 57.5859 55.8815 57.6392C55.9106 57.6925 55.9582 57.7333 56.0153 57.7539C57.1258 58.0078 58.2154 58.2987 59.2937 58.6089C57.3652 61.3522 54.4628 64.4073 52.2467 66.3229C51.3178 65.9854 50.3728 65.6801 49.4118 65.431H49.3893C47.3619 64.9458 45.3062 64.5878 43.2341 64.359C43.1686 64.3527 43.1032 64.3725 43.0521 64.414C43.001 64.4554 42.9682 64.5154 42.9609 64.5808C42.9576 64.6132 42.9607 64.646 42.97 64.6772C42.9794 64.7084 42.9948 64.7374 43.0154 64.7627C43.036 64.7879 43.0614 64.8088 43.0901 64.8242C43.1188 64.8396 43.1503 64.8492 43.1827 64.8524C44.8123 65.0131 47.6504 65.4856 49.28 65.9147C49.2874 65.9164 49.2951 65.9164 49.3025 65.9147C52.1022 66.6531 54.7883 67.7696 57.2865 69.2333C57.1451 69.3169 57.002 69.3941 56.859 69.476C56.6774 69.5789 56.4958 69.6801 56.311 69.7781C56.1262 69.8762 55.8915 69.9967 55.681 70.0996C55.4962 70.1928 55.313 70.2876 55.1266 70.3776C54.9128 70.4804 54.6959 70.5785 54.4837 70.6765C54.2989 70.7617 54.1141 70.8469 53.9277 70.9288C53.7043 71.0252 53.4793 71.1152 53.2543 71.2068C53.0695 71.2808 52.8863 71.3579 52.7015 71.4302C52.4684 71.5186 52.2322 71.6022 51.9976 71.6858C51.8176 71.75 51.6392 71.8191 51.4576 71.8802C51.2085 71.9638 50.9562 72.0409 50.7039 72.1197C50.5351 72.1727 50.3664 72.229 50.196 72.2804C49.9132 72.3639 49.6287 72.4411 49.3459 72.5118C49.2012 72.5504 49.0598 72.5922 48.9152 72.6291C48.4861 72.7352 48.0538 72.8348 47.6199 72.9248C43.2516 73.8139 38.7491 73.8144 34.3807 72.9264ZM65.6996 62.2682C65.518 62.4771 65.3316 62.6812 65.1467 62.887C64.986 63.0477 64.8446 63.2244 64.6887 63.39C64.4975 63.5925 64.2998 63.7885 64.1021 63.9862C63.9414 64.1469 63.792 64.3076 63.6313 64.4683C63.4272 64.666 63.215 64.8572 63.0045 65.0501C62.8438 65.1963 62.6831 65.3442 62.5224 65.4872C62.3022 65.6817 62.074 65.8681 61.8474 66.0561C61.6867 66.1879 61.526 66.3245 61.3653 66.4547C61.1226 66.6475 60.8735 66.834 60.6244 67.0204C60.4637 67.1361 60.3239 67.255 60.1696 67.3675C59.8916 67.57 59.6071 67.7629 59.3227 67.9573C59.1909 68.0457 59.0623 68.1405 58.9289 68.2289C58.548 68.4796 58.1607 68.7207 57.7686 68.9569C56.1737 68.0002 54.4988 67.184 52.7625 66.5174C55.0125 64.5439 57.8763 61.492 59.7775 58.7632C62.0875 59.4396 64.3517 60.2636 66.5562 61.23C66.4179 61.4036 66.2781 61.5724 66.1383 61.7427C65.9985 61.9131 65.849 62.0947 65.6996 62.2682ZM63.9318 49.8937C68.7643 50.9993 71.0512 52.1709 71.5301 52.4361C70.4 55.449 68.8294 58.2777 66.8695 60.8299C64.6631 59.8522 62.3962 59.0169 60.0828 58.3293C60.2885 58.0223 60.483 57.7186 60.6582 57.4245C62.0619 55.06 63.1638 52.5289 63.9382 49.8904L63.9318 49.8937ZM71.7037 51.9636C71.0608 51.6116 68.7739 50.4818 64.0732 49.4099C64.8418 46.6349 65.2464 43.7717 65.2769 40.8924H73.5872C73.5872 40.9277 73.5872 40.9631 73.5872 40.9984C73.5953 44.7331 72.9604 48.4412 71.7101 51.9604L71.7037 51.9636Z" fill="white"/>
<path d="M58.469 26.8882L59.1906 23.3028L55.7128 24.5017C55.3255 24.6351 46.2535 27.9071 46.2535 40.5726V42.6618H48.362C50.1137 42.6618 50.6585 46.2842 45.683 46.7052C45.4821 46.2231 45.2748 45.7892 45.0675 45.3938C42.6344 40.7333 42.456 36.8763 44.3797 30.0928C46.5669 22.3787 41.9578 16.1915 41.7617 15.9359L41.008 14.9363V14.9138V14.9251L40.9999 14.9138V14.9363L40.2462 15.9359C40.0502 16.1915 35.441 22.3643 37.6283 30.0928C39.5568 36.8747 39.3736 40.7397 36.9404 45.3938C36.7331 45.7892 36.5258 46.2279 36.3249 46.7052C30.6278 46.1395 31.8958 42.6618 33.6459 42.6618H35.7512V40.5726C35.7512 27.9103 26.6792 24.6383 26.2935 24.5017L22.8093 23.3028L23.5373 26.8882C23.5711 27.0602 26.9942 44.3781 23.8057 55.2421L22.8543 58.4851L26.2003 57.8905C29.0523 57.3872 31.9294 57.0385 34.8191 56.8459C35.2385 60.4956 36.8263 64.261 40.5291 67.3273L40.9983 67.7146V67.7275H41.0064V67.7146L41.4756 67.3273C45.1719 64.261 46.7662 60.4956 47.1856 56.8459C50.0758 57.0386 52.9535 57.3873 55.806 57.8905L59.1504 58.4851L58.199 55.2421C55.0121 44.3781 58.4352 27.0602 58.469 26.8882ZM33.6379 40.5677C31.216 40.5677 30.2084 42.3355 29.858 43.6437H27.2658C27.2658 34.7404 25.6008 26.4768 25.6008 26.4768C25.6008 26.4768 33.6379 29.249 33.6379 40.5677ZM34.6953 54.7519C31.7208 54.949 28.7593 55.309 25.8242 55.8302C26.7226 52.7639 27.1244 49.2412 27.232 45.7377H29.9544C30.3948 46.6699 31.486 47.7305 33.8452 48.2496C34.4612 48.3835 35.0505 48.5276 35.613 48.6819C35.0119 50.6495 34.7027 52.6946 34.6953 54.7519ZM40.9999 18.7194C42.1056 20.8263 43.6629 24.9067 42.3547 29.5206C41.5512 32.3571 41.1012 34.7517 40.9999 36.9277C40.9003 34.7517 40.4503 32.3571 39.6452 29.5206C38.3386 24.9099 39.8943 20.8263 40.9999 18.7194ZM38.8047 46.3613C40.1369 43.8141 40.8617 41.4484 41.0048 38.8241C41.1494 41.4484 41.8726 43.8141 43.2049 46.3613C43.3656 46.6715 43.5263 47.0154 43.687 47.3882C40.4857 48.5791 40.9999 53.4566 40.9999 53.4566C40.9999 53.4566 41.4033 48.4746 38.3145 47.3882C38.4833 47.0154 38.644 46.6715 38.8047 46.3613ZM45.0723 56.7302C44.7106 59.8531 43.2703 62.7518 40.9999 64.9264C38.7277 62.7524 37.2852 59.8538 36.9212 56.7302C36.8357 56.0371 36.7944 55.3393 36.7974 54.641C36.8164 52.8533 37.0869 51.0772 37.601 49.3649C39.9987 50.8113 41.0048 61.4293 41.0048 61.4293C41.0048 61.4293 41.7376 51.287 44.3941 49.3649C44.9082 51.0772 45.1787 52.8533 45.1977 54.641C45.2002 55.3394 45.1583 56.0372 45.0723 56.7302ZM47.2997 54.7583C47.2902 52.7007 46.9789 50.6556 46.3757 48.6884C46.9413 48.5276 47.5344 48.3894 48.1434 48.256C50.5027 47.737 51.5939 46.6763 52.0326 45.7442H54.755C54.8643 49.2541 55.2645 52.7704 56.1628 55.8367C53.2326 55.3138 50.276 54.9517 47.3062 54.7519L47.2997 54.7583ZM54.7293 43.6501H52.1435C51.7948 42.3468 50.7871 40.5742 48.3636 40.5742C48.3636 29.2555 56.3991 26.4832 56.3991 26.4832C56.3991 26.4832 54.7373 34.7404 54.7357 43.6437L54.7293 43.6501Z" fill="#101828"/>
<path d="M44.1689 76.8494C43.9326 76.7071 43.6546 76.6503 43.3814 76.6887L42.4734 76.7481L42.5811 78.4179L43.4907 78.3584C43.7671 78.36 44.0353 78.265 44.2492 78.0901C44.3335 78.0074 44.3973 77.9063 44.4358 77.7948C44.4743 77.6832 44.4864 77.5642 44.471 77.4472C44.4705 77.331 44.4429 77.2164 44.3905 77.1126C44.3381 77.0089 44.2622 76.9188 44.1689 76.8494Z" fill="white"/>
<path d="M7.81714 57.8552C7.92423 57.902 8.04063 57.9236 8.15738 57.9183C8.27413 57.913 8.3881 57.881 8.49051 57.8247C8.59878 57.7811 8.69531 57.7128 8.77234 57.6251C8.84938 57.5375 8.90478 57.433 8.93407 57.3201C8.98062 57.0484 8.93179 56.7691 8.79586 56.5294L8.40212 55.7065L6.89307 56.4297L7.2852 57.2509C7.38745 57.5077 7.5754 57.7212 7.81714 57.8552Z" fill="white"/>
<path d="M5.02411 28.9276C4.9451 28.8978 4.86009 28.8873 4.77621 28.8971C4.69233 28.9069 4.61202 28.9366 4.54199 28.9838C4.38185 29.1117 4.26878 29.2893 4.22057 29.4885L3.9104 30.4849L5.04982 30.8384L5.35999 29.842C5.43268 29.6524 5.44226 29.4445 5.38731 29.249C5.35728 29.1701 5.30854 29.0996 5.24528 29.0436C5.18202 28.9876 5.10613 28.9478 5.02411 28.9276Z" fill="white"/>
<path d="M53.2215 75.3466C53.036 75.1757 52.8039 75.0638 52.5546 75.0252C52.2763 74.9865 51.9929 75.0135 51.7269 75.104L50.7627 75.4157L51.6402 78.1574L52.6044 77.8473C52.874 77.7667 53.1207 77.6235 53.3244 77.4294C53.5058 77.2558 53.6312 77.032 53.6844 76.7866C53.7313 76.526 53.7136 76.2579 53.6329 76.0058C53.5523 75.7536 53.411 75.5251 53.2215 75.3402V75.3466Z" fill="white"/>
<path d="M6.78027 29.2571C6.39135 29.1371 6.11493 29.3401 5.95101 29.8662L5.59424 31.0168L6.77384 31.3832L7.13061 30.2374C7.29454 29.707 7.17776 29.3803 6.78027 29.2571Z" fill="white"/>
<path d="M70.2811 16.4116L68.3718 16.9918L69.3875 18.1987L70.2811 16.4116Z" fill="white"/>
<path d="M30.4076 6.38007C30.5834 6.56163 30.8058 6.69119 31.0504 6.75453C31.3067 6.81903 31.5755 6.81515 31.8299 6.74328C32.0862 6.68037 32.3214 6.55061 32.5113 6.36722C32.694 6.19212 32.8242 5.96949 32.8873 5.72438C32.9484 5.4667 32.9449 5.19792 32.877 4.94194C32.8092 4.68595 32.6791 4.45071 32.4984 4.25711C32.3226 4.07556 32.1002 3.94599 31.8556 3.88266C31.599 3.82249 31.3315 3.82634 31.0768 3.89388C30.822 3.96142 30.5878 4.09058 30.3947 4.26997C30.212 4.44507 30.0818 4.6677 30.0187 4.9128C29.9576 5.17049 29.9611 5.43927 30.029 5.69525C30.0968 5.95123 30.2269 6.18648 30.4076 6.38007Z" fill="white"/>
<path d="M39.1356 76.8799C38.9122 76.74 38.6579 76.6571 38.3951 76.6386C38.1322 76.6201 37.8688 76.6665 37.6281 76.7738C37.3993 76.8796 37.2041 77.0464 37.064 77.2559C36.9227 77.4799 36.839 77.7353 36.8202 77.9994C36.8014 78.2635 36.8482 78.5281 36.9563 78.7698C37.0642 78.9997 37.2339 79.195 37.4465 79.3339C37.6698 79.4738 37.9241 79.5567 38.187 79.5752C38.4499 79.5937 38.7132 79.5473 38.9539 79.44C39.1826 79.3347 39.3774 79.1677 39.5164 78.9579C39.6589 78.7344 39.7434 78.4789 39.7622 78.2146C39.781 77.9502 39.7335 77.6853 39.6241 77.444C39.5168 77.2142 39.3477 77.0189 39.1356 76.8799Z" fill="white"/>
<path d="M20.347 72.5872L20.7311 70.6266L19.0469 71.6953L20.347 72.5872Z" fill="white"/>
<path d="M66.8806 14.6823C66.996 14.6807 67.1099 14.6559 67.2155 14.6092C67.3211 14.5625 67.4161 14.4949 67.4949 14.4105C67.5738 14.3262 67.6347 14.2268 67.6741 14.1182C67.7135 14.0097 67.7306 13.8944 67.7243 13.7791C67.6674 13.5094 67.5199 13.2673 67.3065 13.0929L66.6411 12.4709L65.5017 13.6891L66.167 14.3111C66.3558 14.5123 66.6074 14.6433 66.8806 14.6823Z" fill="white"/>
<path d="M76.7325 35.7849C77.1343 35.7142 77.2853 35.4057 77.1889 34.8625L76.9752 33.6829L75.7554 33.9095L75.9675 35.0891C76.0655 35.6258 76.3195 35.8589 76.7325 35.7849Z" fill="white"/>
<path d="M73.1721 58.3019C73.0746 58.2381 72.9636 58.1978 72.8479 58.1842C72.7322 58.1705 72.6149 58.1838 72.5052 58.2232C72.2553 58.3391 72.0532 58.5378 71.9331 58.7856L71.4783 59.5763L72.9246 60.4104L73.3778 59.6197C73.5323 59.3908 73.6017 59.115 73.5739 58.8403C73.5524 58.7259 73.5051 58.6178 73.4354 58.5245C73.3658 58.4312 73.2757 58.3551 73.1721 58.3019Z" fill="white"/>
<path d="M14.7387 17.1396C15.1072 16.7281 15.1367 16.3837 14.8271 16.1062C14.5174 15.8287 14.1815 15.8978 13.8194 16.3135L13.0159 17.2054L13.9351 18.0315L14.7387 17.1396Z" fill="white"/>
<path d="M81.9992 40.9244L81.7018 40.9324L81.9992 40.8617L81.9863 40.2494C81.8194 30.9499 78.4959 21.9834 72.5613 14.8217C66.6268 7.66006 58.4337 2.72874 49.3271 0.837227C43.8323 -0.278913 38.1692 -0.278913 32.6744 0.837227C31.5993 1.06061 30.5177 1.3306 29.4603 1.64077C26.2773 2.57479 23.2197 3.89207 20.3545 5.56367C19.7985 5.88508 19.2472 6.229 18.7153 6.57453C18.5787 6.66292 18.4453 6.75613 18.3103 6.84934L17.8394 7.17075C17.6016 7.33146 17.3573 7.49217 17.1307 7.65288C16.9877 7.75573 16.8479 7.8618 16.7097 7.9743L16.2275 8.34071C16.0186 8.50142 15.8113 8.65088 15.6056 8.81159C15.4609 8.92569 15.3195 9.04622 15.1765 9.16515L14.6847 9.57174C14.4999 9.72281 14.3151 9.87387 14.1351 10.0314C13.9744 10.1631 13.8346 10.2998 13.6867 10.4364L13.2223 10.859C13.0616 11.0101 12.8848 11.1611 12.7209 11.3186C12.5569 11.4761 12.4123 11.6224 12.2596 11.7767L11.8113 12.2267C11.6618 12.3729 11.5123 12.5207 11.3677 12.6718C11.2231 12.8229 11.0463 13.0125 10.8984 13.1845L10.495 13.628C10.3536 13.7807 10.2122 13.935 10.0756 14.0925C9.939 14.25 9.77829 14.4444 9.63204 14.6212L9.23348 15.1033C9.10652 15.2544 8.97956 15.4055 8.89439 15.5212L8.82046 15.5999C4.49203 21.0875 1.63772 27.5901 0.528436 34.4907C-0.580854 41.3913 0.0916761 48.4609 2.4822 55.0286C4.87272 61.5963 8.90193 67.4441 14.1874 72.0171C19.4729 76.5901 25.8393 79.7365 32.6825 81.1578C38.1758 82.2828 43.8402 82.2828 49.3335 81.1578C58.5646 79.2371 66.8522 74.1953 72.8019 66.8807C78.7516 59.5662 82.0001 50.4255 82.0008 40.9967L81.9992 40.9244ZM79.4921 34.3546C79.5827 34.7326 79.5546 35.1293 79.4117 35.4908C79.3469 35.6325 79.2474 35.7556 79.1224 35.8485C78.9974 35.9415 78.8509 36.0015 78.6966 36.0228C78.4993 36.063 78.2945 36.0434 78.1084 35.9665C77.9249 35.8857 77.7706 35.7506 77.6664 35.5792C77.6557 35.8238 77.5661 36.0584 77.4109 36.2478C77.2146 36.4511 76.9482 36.5718 76.6659 36.5852C76.3837 36.5986 76.1069 36.5038 75.8922 36.3201C75.6437 36.0887 75.4733 35.719 75.3812 35.2112L75.0292 33.2522L79.1594 32.5081L79.4921 34.3546ZM79.1209 41.5978L77.967 42.7484L76.8147 41.5962L77.967 40.4439L79.1209 41.5978ZM78.7593 31.0167L74.7142 32.1417L74.5101 31.4024L78.5552 30.2774L78.7593 31.0167ZM77.0332 25.9238L73.7339 27.2015L74.4989 29.175L77.7982 27.8974L78.0779 28.6189L74.7785 29.8917L75.0035 30.4735L73.5266 31.044L73.2662 30.3739L74.1276 30.0396L72.842 26.7177L76.7568 25.2023L77.0332 25.9238ZM74.1244 23.8121L75.6367 22.9652L76.0176 23.645L72.355 25.6972L71.9741 25.0158L73.5443 24.1368L72.4836 22.2436L70.9135 23.1227L70.5326 22.4429L74.1951 20.3907L74.576 21.0721L73.0638 21.9174L74.1244 23.8121ZM74.1244 18.483C74.2182 18.5032 74.3009 18.5582 74.3558 18.637C74.4107 18.7157 74.4337 18.8123 74.4201 18.9073C74.4102 18.9551 74.3909 19.0005 74.3634 19.0408C74.3358 19.0811 74.3004 19.1154 74.2594 19.1419C74.2208 19.1698 74.1771 19.1897 74.1307 19.2004C74.0844 19.2112 74.0363 19.2126 73.9894 19.2046C73.8955 19.1848 73.8128 19.1298 73.7581 19.0509C73.7034 18.972 73.681 18.8752 73.6953 18.7803C73.7035 18.7336 73.7213 18.689 73.7476 18.6495C73.7739 18.6099 73.8081 18.5762 73.848 18.5505C73.8873 18.5203 73.9324 18.4985 73.9806 18.4867C74.0287 18.4748 74.0788 18.473 74.1276 18.4814L74.1244 18.483ZM73.1971 17.5911C73.236 17.5619 73.2804 17.541 73.3277 17.5297C73.375 17.5183 73.4241 17.5168 73.4719 17.5252C73.5657 17.5447 73.6485 17.5994 73.7032 17.678C73.7579 17.7566 73.7804 17.8532 73.766 17.9479C73.755 18.02 73.7223 18.0871 73.6723 18.1404C73.6224 18.1936 73.5575 18.2304 73.4862 18.2461C73.4149 18.2618 73.3405 18.2555 73.2729 18.228C73.2052 18.2006 73.1474 18.1534 73.1071 18.0925C73.079 18.0541 73.059 18.0103 73.0483 17.9639C73.0376 17.9175 73.0364 17.8694 73.0448 17.8225C73.0532 17.7757 73.071 17.731 73.0972 17.6912C73.1234 17.6514 73.1574 17.6174 73.1971 17.5911ZM73.3273 19.1227L69.8721 21.5188L69.4269 20.876L72.8757 18.4814L73.3273 19.1227ZM70.6435 15.6208L71.1385 16.2074L69.1489 20.3601L68.6234 19.7366L69.0959 18.79L67.7443 17.1829L66.7334 17.4931L66.2079 16.8743L70.6435 15.6208ZM67.7925 12.6365C68.0356 12.853 68.2301 13.1187 68.363 13.4159C68.4763 13.6676 68.5116 13.9475 68.4643 14.2194C68.4025 14.4923 68.2691 14.7438 68.0779 14.948C67.8866 15.1522 67.6445 15.3018 67.3763 15.3814C67.11 15.4473 66.83 15.4316 66.5727 15.3364C66.2667 15.2234 65.9879 15.047 65.7547 14.8189L65.0637 14.176L64.236 15.0616L63.6671 14.528L66.5342 11.4633L67.7925 12.6365ZM63.4534 9.08962L62.412 10.5055L63.0548 10.9876L65.0701 10.2853L65.737 10.7674L63.3778 11.5565L63.2943 14.1809L62.5904 13.6602L62.6482 11.5067L62.0199 11.0438L60.972 12.4693L60.3404 12.0161L62.8266 8.64124L63.4534 9.08962ZM57.1857 9.41103C57.2785 9.51644 57.3869 9.60696 57.5072 9.67942C57.6212 9.74037 57.7496 9.76954 57.8788 9.76389C58.008 9.75823 58.1333 9.71796 58.2416 9.64727L58.3493 9.59103L58.436 6.04258L59.1608 6.45399L59.0275 9.21015L61.3529 7.69467L62.0199 8.07394L58.7607 10.1246C58.5126 10.2923 58.2275 10.3971 57.9298 10.4299C57.6728 10.4523 57.4151 10.3963 57.1906 10.2692C57.0064 10.1627 56.8457 10.02 56.7181 9.84977L57.1857 9.41103ZM51.749 5.63759C51.8757 5.26876 52.1015 4.94186 52.4014 4.69263C52.6942 4.45244 53.0471 4.29684 53.4219 4.24264C53.818 4.18491 54.2222 4.22859 54.5967 4.3696C54.9009 4.47372 55.1812 4.63765 55.4212 4.85173C55.6431 5.05453 55.8143 5.30666 55.921 5.58777L55.2862 5.86259C55.2073 5.66665 55.0873 5.48992 54.9343 5.34436C54.7812 5.1988 54.5987 5.0878 54.399 5.01887C54.1467 4.92253 53.8738 4.89318 53.6068 4.93369C53.3557 4.97292 53.1205 5.08083 52.927 5.24546C52.7259 5.42057 52.5745 5.64564 52.4882 5.89794C52.393 6.14666 52.3658 6.41627 52.4095 6.67899C52.4518 6.92949 52.5631 7.16323 52.7309 7.35396C52.9103 7.55569 53.139 7.70741 53.3946 7.7943C53.5927 7.86929 53.8047 7.90023 54.0159 7.88496C54.2271 7.8697 54.4324 7.8086 54.6176 7.70591L54.9278 8.32946C54.6652 8.47662 54.3719 8.56027 54.0712 8.57374C53.7477 8.58769 53.4246 8.53631 53.1214 8.42268C52.743 8.29234 52.4039 8.06779 52.1363 7.7702C51.8828 7.48949 51.712 7.14405 51.6429 6.7722C51.5743 6.39074 51.6116 5.99778 51.7506 5.63599L51.749 5.63759ZM48.4287 2.67734L51.4147 3.36839L51.2668 4.01122L49.041 3.49535L48.7951 4.55763L50.7686 5.01565L50.624 5.64081L48.6505 5.18279L48.3885 6.30775L50.6979 6.83809L50.5501 7.48092L47.4838 6.76416L48.4287 2.67734ZM43.7682 2.05861L45.4926 2.24986C45.8172 2.27836 46.1322 2.37531 46.4166 2.53431C46.6572 2.66706 46.8521 2.86925 46.9759 3.11447C47.09 3.37009 47.134 3.6515 47.1032 3.92973C47.0724 4.20797 46.968 4.47297 46.8007 4.69745C46.6258 4.91084 46.3906 5.06654 46.1258 5.14422C45.8131 5.23654 45.4845 5.26173 45.1615 5.21814L44.2198 5.11208L44.0848 6.31739L43.3102 6.23061L43.7682 2.05861ZM39.8854 1.97022L42.0132 2.00558L42.0277 1.14257L42.7477 1.15382L42.722 2.67573L40.6424 2.64359L40.5845 6.17918L39.8163 6.16632L39.8854 1.97022ZM35.2699 2.38324L35.4724 4.10443L37.6275 3.85694L37.425 2.13575L38.1996 2.04415L38.6817 6.21293L37.9071 6.30453L37.6982 4.51746L35.5415 4.77137L35.752 6.55685L34.9774 6.64845L34.4872 2.47967L35.2699 2.38324ZM29.2706 4.75209C29.3729 4.386 29.5749 4.05552 29.854 3.79748C30.1537 3.52866 30.5128 3.33474 30.902 3.23166C31.2912 3.12857 31.6992 3.11925 32.0927 3.20447C32.4616 3.29131 32.7999 3.47685 33.0714 3.74123C33.3444 4.01862 33.5405 4.36235 33.6402 4.73855C33.74 5.11476 33.74 5.51047 33.6403 5.88669C33.536 6.25181 33.3337 6.58139 33.0553 6.83969C32.7558 7.10869 32.3966 7.3026 32.0073 7.40543C31.6181 7.50826 31.21 7.51706 30.8167 7.4311C30.4464 7.34478 30.1072 7.15792 29.8363 6.89112C29.5639 6.61476 29.3683 6.272 29.2691 5.89681C29.1699 5.52162 29.1704 5.12702 29.2706 4.75209ZM25.3927 5.19886L26.0581 6.82523L26.8022 6.51989L27.2521 4.43871L28.0171 4.11729L27.4611 6.54238L29.6579 7.98876L28.8415 8.32303L27.0352 7.15147L26.3136 7.44717L26.9838 9.08319L26.2702 9.37407L24.6792 5.48974L25.3927 5.19886ZM18.8776 7.42307C18.9101 7.47826 18.9543 7.52569 19.007 7.56205C19.0598 7.59841 19.1198 7.62283 19.183 7.6336C19.3262 7.64496 19.4688 7.60446 19.5847 7.51949C19.7121 7.44811 19.8105 7.33439 19.8628 7.19807C19.8815 7.13625 19.8864 7.07104 19.8769 7.00713C19.8675 6.94321 19.844 6.88219 19.8081 6.82845L20.2629 6.53756C20.3325 6.63809 20.3782 6.75317 20.3966 6.87404C20.415 6.9949 20.4055 7.11837 20.369 7.23504C20.241 7.49096 20.0461 7.70749 19.8051 7.86168C19.564 8.01587 19.2858 8.10199 18.9998 8.1109C18.8779 8.09418 18.7614 8.04969 18.6595 7.98087C18.5575 7.91205 18.4727 7.82073 18.4116 7.71395L18.8776 7.42307ZM19.0303 8.68945L20.6374 11.2029L20.9363 7.47931L21.5486 7.08879L23.7985 10.6244L23.1557 11.0374L21.5582 8.52874L21.2545 12.2491L20.6438 12.6397L18.3939 9.10408L19.0303 8.68945ZM14.7329 12.0643L16.6614 14.3319L16.4429 10.6067L16.9941 10.1358L19.7262 13.3275L19.1412 13.8257L17.2127 11.5645L17.4296 15.2898L16.8704 15.7494L14.1383 12.5561L14.7329 12.0643ZM12.0009 14.8044C12.2428 14.4999 12.5737 14.2786 12.9475 14.1712C13.099 14.1354 13.2571 14.1384 13.4071 14.18C13.5571 14.2215 13.6942 14.3003 13.8056 14.4091C13.96 14.5394 14.0719 14.7129 14.1271 14.9073C14.1749 15.1018 14.1632 15.3061 14.0933 15.4939C14.2928 15.3529 14.5322 15.2797 14.7763 15.2849C15.0573 15.3157 15.316 15.4523 15.4999 15.6669C15.6837 15.8815 15.779 16.1581 15.7663 16.4404C15.7358 16.7795 15.5493 17.1395 15.2038 17.5236L13.8748 19.0053L10.7506 16.1994L12.0009 14.8044ZM8.11817 20.2155C8.16768 19.816 8.31156 19.4341 8.53792 19.1013C8.76427 18.7684 9.0666 18.4943 9.41991 18.3014C9.75505 18.124 10.1326 18.0423 10.5111 18.0652C10.8987 18.0967 11.2715 18.2282 11.5932 18.4468C11.9148 18.6653 12.1744 18.9635 12.3464 19.3123C12.5069 19.6562 12.5698 20.0376 12.528 20.4148C12.4784 20.814 12.3347 21.1957 12.1086 21.5285C11.8826 21.8613 11.5807 22.1356 11.2279 22.3288C10.8912 22.5067 10.5118 22.5879 10.1318 22.5634C9.74512 22.5332 9.373 22.4025 9.05225 22.1843C8.7315 21.9662 8.47324 21.6681 8.30298 21.3195C8.13993 20.9759 8.07593 20.5935 8.11817 20.2155ZM6.9466 21.6956L7.53319 21.9961L6.89035 23.2336L10.0386 24.8423L9.68508 25.5301L6.54483 23.915L5.91164 25.1476L5.32505 24.8455L6.9466 21.6956ZM4.96024 25.7696L8.83653 27.3767L8.54244 28.087L4.66615 26.4799L4.96024 25.7696ZM3.67457 29.2505C3.76908 28.8753 3.97735 28.5385 4.2708 28.2863C4.3935 28.1904 4.53853 28.1273 4.69229 28.1029C4.84605 28.0784 5.0035 28.0934 5.14988 28.1465C5.34276 28.1985 5.51471 28.3092 5.64196 28.4632C5.76921 28.6173 5.84547 28.807 5.86021 29.0062C5.98188 28.7945 6.16917 28.6281 6.39376 28.5322C6.66245 28.4432 6.95497 28.4602 7.21155 28.5797C7.46812 28.6992 7.6694 28.9121 7.77425 29.175C7.88889 29.4964 7.8696 29.903 7.7164 30.3948L7.12499 32.2959L3.11209 31.0424L3.67457 29.2505ZM2.45479 33.8468C2.50453 33.5264 2.61939 33.2195 2.79228 32.9452C2.95484 32.6916 3.17512 32.4802 3.43512 32.3281L3.81278 32.9066C3.63119 33.0177 3.47591 33.167 3.35769 33.344C3.23948 33.521 3.16116 33.7217 3.12816 33.932C3.07606 34.1965 3.09322 34.4699 3.17798 34.7259C3.26123 34.9681 3.41105 35.182 3.61029 35.343C3.81884 35.5082 4.06517 35.6191 4.32715 35.6657C4.58914 35.7122 4.85858 35.693 5.11131 35.6098C5.35095 35.525 5.56198 35.3746 5.72039 35.1758C5.8884 34.9649 5.99911 34.7141 6.04181 34.4478C6.08227 34.2399 6.07692 34.0256 6.02613 33.82C5.97534 33.6143 5.88033 33.4222 5.74771 33.257L6.30859 32.844C6.49871 33.0779 6.63136 33.3531 6.6959 33.6475C6.76455 33.9649 6.76838 34.2929 6.70714 34.6118C6.64176 35.0076 6.47574 35.3801 6.22502 35.6933C5.99216 35.991 5.68112 36.218 5.32666 36.349C4.9599 36.4782 4.56593 36.5101 4.18316 36.4417C3.80039 36.3732 3.44189 36.2068 3.14263 35.9585C2.85558 35.713 2.64154 35.3933 2.5239 35.0344C2.39819 34.6514 2.37273 34.2425 2.44997 33.8468H2.45479ZM5.41987 41.1992L4.26759 42.3531L3.11531 41.1992L4.26759 40.0469L5.41987 41.1992ZM2.35355 48.2704C2.24641 47.7015 2.32462 47.2279 2.58818 46.8497C2.85174 46.4715 3.2803 46.2278 3.87385 46.1185L6.20252 45.6894L6.34234 46.4447L4.0426 46.8674C3.23262 47.0174 2.89246 47.4422 3.0221 48.1418C3.15173 48.8414 3.62047 49.1146 4.4283 48.9614L6.72804 48.5372L6.86785 49.2925L4.53758 49.7216C3.94188 49.8287 3.45387 49.7553 3.07352 49.5014C2.69318 49.2475 2.45158 48.8355 2.34873 48.2656L2.35355 48.2704ZM4.10849 54.5718L5.31541 52.6176L4.45883 52.1981L3.43833 52.5324L3.19566 51.7915L7.18445 50.4833L7.42712 51.2242L5.37808 51.8944L8.07478 53.1945L8.34637 54.027L6.02092 52.9374L4.39294 55.4444L4.10849 54.5718ZM6.05949 59.0138L6.79875 57.7088C6.77095 57.6626 6.74574 57.6148 6.72322 57.5658L6.31341 56.7108L5.21738 57.2395L4.87989 56.5356L8.66618 54.7244L9.41187 56.2817C9.55995 56.5724 9.64484 56.8912 9.66097 57.217C9.67433 57.4918 9.60551 57.7643 9.4633 57.9997C9.31117 58.2363 9.09336 58.4234 8.83653 58.5381C8.5797 58.67 8.28872 58.7205 8.00246 58.6827C7.72053 58.6364 7.45965 58.5046 7.25516 58.305L6.42912 59.7707L6.05949 59.0138ZM8.87189 63.6743L9.45848 62.7936L8.31262 61.0258L7.27284 61.2299L6.8341 60.5566L11.3838 59.8494L11.8016 60.4923L9.31705 64.3638L8.87189 63.6743ZM10.037 65.201L13.3203 62.5847L13.8024 63.1938L10.5208 65.815L10.037 65.201ZM13.7623 69.357L14.1785 65.7153L12.1455 67.7065L11.6039 67.152L14.6076 64.2207L15.056 64.6787L14.6397 68.3204L16.6727 66.3357L17.2143 66.8885L14.2171 69.8214L13.7623 69.357ZM15.5172 70.9255L18.2107 67.7113L18.8085 68.2127L16.115 71.4269L15.5172 70.9255ZM20.684 74.7327L20.0106 74.2714L20.2147 73.2333L18.4839 72.0456L17.5919 72.6178L16.9314 72.1581L20.8624 69.7652L21.4956 70.2007L20.684 74.7327ZM25.0954 77.0067L24.5217 76.719L23.7182 73.1401L22.4518 75.6937L21.7591 75.3466L23.6394 71.594L24.2131 71.8817L25.0167 75.4591L26.2895 72.9167L26.9805 73.2638L25.0954 77.0067ZM33.4394 79.6247L32.6359 79.4286L32.3659 76.1758L30.5981 78.9432L29.7945 78.7456L29.4394 74.3373L30.2269 74.5286L30.4824 77.8761L32.2936 75.0348L32.9927 75.2052L33.2626 78.58L35.0674 75.7194L35.789 75.8946L33.4394 79.6247ZM40.546 78.2651C40.5245 78.6544 40.396 79.0304 40.1747 79.3514C39.9581 79.6627 39.6601 79.9084 39.3133 80.0618C38.9431 80.2197 38.5408 80.2875 38.1393 80.2595C37.7378 80.2316 37.3487 80.1087 37.0039 79.9011C36.6817 79.6998 36.4214 79.4134 36.2518 79.0734C36.0841 78.7232 36.0107 78.3353 36.0389 77.948C36.0671 77.5607 36.1959 77.1875 36.4125 76.8653C36.6287 76.5523 36.9275 76.3053 37.2755 76.1517C37.6455 75.994 38.0476 75.9263 38.4488 75.9542C38.85 75.9821 39.2388 76.1049 39.5833 76.3124C39.9048 76.5136 40.1641 76.8002 40.3322 77.1401C40.5059 77.4882 40.5798 77.8775 40.546 78.2651ZM34.2317 73.6688C28.6594 72.513 23.4753 69.9511 19.1723 66.2268C14.8693 62.5024 11.5904 57.7394 9.64731 52.3905C7.7042 47.0416 7.16148 41.2846 8.07074 35.6668C8.98001 30.049 11.311 24.7571 14.8422 20.2942C14.9402 20.1705 15.0415 20.0499 15.1427 19.9294L15.477 19.5276C15.5943 19.3846 15.7117 19.24 15.8338 19.1002C15.9559 18.9603 16.0556 18.8511 16.1697 18.7289L16.5072 18.3577C16.6325 18.2195 16.7563 18.0797 16.8848 17.9463C17.0134 17.8129 17.1211 17.7052 17.24 17.5879L17.616 17.2118C17.7382 17.0881 17.8603 16.9643 17.9873 16.8438C18.1142 16.7233 18.2541 16.5963 18.3891 16.4758L18.778 16.1206C18.8969 16.0113 19.0142 15.9021 19.1364 15.7992C19.2585 15.6963 19.4304 15.5517 19.5799 15.4296L19.9913 15.0905C20.1054 14.9941 20.2179 14.8992 20.3336 14.8076C20.4943 14.6775 20.6663 14.5537 20.835 14.4284L21.2432 14.1214C21.3541 14.0362 21.465 13.9607 21.5791 13.8707C21.7672 13.7357 21.96 13.6071 22.1529 13.477L22.5466 13.2102C22.6543 13.1347 22.7603 13.0623 22.868 12.99C23.3003 12.7104 23.7487 12.434 24.2019 12.1688C26.5325 10.8089 29.0198 9.73711 31.6089 8.97712C32.4687 8.72481 33.3494 8.50464 34.2237 8.32303C38.695 7.41451 43.3033 7.41451 47.7746 8.32303C55.185 9.86026 61.8523 13.8719 66.6815 19.699C71.5107 25.5261 74.2147 32.8223 74.3494 40.3892L74.3623 40.9967C74.3638 48.6692 71.7212 56.1077 66.8795 62.0596C62.0379 68.0115 55.2931 72.1131 47.7811 73.6736C43.3106 74.5848 38.7022 74.5848 34.2317 73.6736V73.6688ZM44.6665 80.1405L43.7312 78.9706C43.6959 78.9706 43.6412 78.9818 43.5705 78.9866L42.6239 79.0493L42.7043 80.2691L41.9264 80.3205L41.6532 76.1308L43.376 76.0183C43.7021 75.9903 44.0304 76.0303 44.3403 76.1357C44.6007 76.2282 44.8278 76.396 44.9928 76.6178C45.156 76.8472 45.2487 77.1192 45.2595 77.4004C45.2861 77.6884 45.2244 77.9776 45.0828 78.2297C44.9355 78.4741 44.7159 78.6667 44.4544 78.7809L45.5086 80.0939L44.6665 80.1405ZM46.9165 79.8657L46.1515 75.7387L46.9181 75.5957L47.5609 79.075L49.7337 78.6813L49.8526 79.3241L46.9165 79.8657ZM54.436 76.9039C54.3493 77.2661 54.1595 77.5954 53.8896 77.852C53.5906 78.1374 53.2282 78.3478 52.8321 78.4659L51.0852 79.0252L49.7996 75.0268L51.5465 74.4675C51.9373 74.3342 52.354 74.2946 52.763 74.3518C53.1323 74.4044 53.4784 74.5629 53.7594 74.8082C54.0402 75.0703 54.2491 75.3999 54.3664 75.7656C54.4837 76.1313 54.5055 76.5209 54.4296 76.8974L54.436 76.9039ZM60.7952 74.7938C60.5914 75.0457 60.3389 75.2539 60.0528 75.4061C59.7046 75.6034 59.3119 75.709 58.9117 75.713C58.534 75.7164 58.1626 75.6157 57.8382 75.4221C57.504 75.2213 57.2312 74.9328 57.0491 74.588C56.8567 74.2492 56.7616 73.8638 56.7743 73.4743C56.7878 73.0956 56.9045 72.7277 57.1118 72.4104C57.3147 72.1118 57.5791 71.8601 57.8874 71.6721C58.1956 71.4842 58.5405 71.3644 58.8989 71.3208C59.1972 71.2893 59.4988 71.3279 59.7796 71.4333L59.5658 72.0906C59.3668 72.0197 59.1547 71.9926 58.9442 72.0111C58.7336 72.0297 58.5296 72.0936 58.3461 72.1983C58.1072 72.3239 57.9047 72.5087 57.7579 72.7351C57.6196 72.9487 57.5449 73.1973 57.5425 73.4518C57.5386 73.7182 57.6064 73.9807 57.7386 74.212C57.8628 74.4473 58.0468 74.6457 58.2721 74.7873C58.4885 74.9208 58.7378 74.9915 58.9921 74.9914C59.2621 74.9903 59.5273 74.9194 59.7619 74.7857C59.9495 74.6869 60.1133 74.5485 60.2421 74.38C60.3708 74.2116 60.4614 74.0172 60.5076 73.8102L61.1793 73.9902C61.1195 74.2855 60.9906 74.5625 60.8033 74.7986L60.7952 74.7938ZM65.001 71.8094C64.8212 72.1693 64.5587 72.4815 64.2349 72.7204C63.9111 72.9592 63.5353 73.1179 63.1384 73.1834C62.7621 73.2393 62.3777 73.1898 62.0279 73.0404C61.6727 72.8838 61.3645 72.6371 61.134 72.3248C60.9034 72.0125 60.7584 71.6453 60.7133 71.2598C60.6761 70.8816 60.7428 70.5004 60.9061 70.1573C61.0858 69.7976 61.3481 69.4855 61.6716 69.2467C61.995 69.0078 62.3705 68.849 62.7671 68.7832C63.1426 68.7271 63.5263 68.7755 63.876 68.9231C64.2317 69.0817 64.5401 69.3299 64.7711 69.6434C65.0021 69.9569 65.1478 70.3251 65.1938 70.7117C65.2307 71.0884 65.164 71.4679 65.001 71.8094ZM69.3803 68.1275L65.7354 67.7322L67.733 69.7475L67.1834 70.2923L64.2328 67.3063L64.6892 66.8547L68.3341 67.2501L66.3349 65.2284L66.8861 64.6852L69.8367 67.6711L69.3803 68.1275ZM72.715 63.9909C72.6139 64.2747 72.4692 64.5409 72.2859 64.78C72.0454 65.1036 71.727 65.3612 71.3602 65.5289C71.015 65.6865 70.6333 65.7471 70.2562 65.7041C69.8698 65.6515 69.5037 65.4995 69.1938 65.2628C68.8839 65.0262 68.6408 64.713 68.4884 64.3541C68.3473 64.0008 68.3067 63.6154 68.3711 63.2404C68.4373 62.8409 68.6031 62.4645 68.8532 62.146C69.0495 61.8828 69.2945 61.6597 69.5748 61.4887C69.8314 61.3343 70.1212 61.2434 70.4201 61.2235L70.5021 61.9049C70.288 61.9298 70.0814 61.9982 69.8948 62.106C69.7082 62.2138 69.5457 62.3587 69.4173 62.5317C69.2471 62.7467 69.1333 63.0008 69.0862 63.2709C69.0437 63.5232 69.0738 63.7824 69.173 64.0182C69.2758 64.2641 69.4422 64.4782 69.6551 64.6386C69.863 64.8027 70.111 64.9082 70.3735 64.9439C70.6279 64.977 70.8865 64.9392 71.1208 64.8346C71.3701 64.7231 71.5865 64.5494 71.7492 64.33C71.9377 64.0943 72.0598 63.8124 72.1027 63.5136L71.0645 62.7197L71.5129 62.1331L72.8404 63.1504C72.851 63.4359 72.8085 63.7209 72.715 63.9909ZM75.5354 59.6341L74.0425 59.7643C74.028 59.798 74.0023 59.8462 73.9669 59.9089L73.4944 60.7285L74.5551 61.3392L74.1662 62.0142L70.5278 59.925L71.3876 58.4272C71.5439 58.141 71.7585 57.8908 72.0175 57.6927C72.2361 57.5266 72.4989 57.4288 72.7729 57.4115C73.0555 57.4023 73.3346 57.4754 73.5764 57.622C73.8303 57.7595 74.0365 57.9708 74.1678 58.2279C74.2896 58.4862 74.3289 58.7757 74.2803 59.0572L75.9565 58.9077L75.5354 59.6341ZM76.5704 57.5851L72.7005 55.9619L73.885 53.135L74.4876 53.389L73.6037 55.4959L74.6114 55.9169L75.394 54.0479L75.987 54.297L75.2028 56.166L76.2699 56.6128L77.1859 54.4287L77.7886 54.6811L76.5704 57.5851ZM78.6837 52.0326C78.5962 52.338 78.464 52.6288 78.2916 52.8956C78.1501 53.1269 77.9625 53.3266 77.7404 53.4822L77.2341 53.0547C77.4268 52.9122 77.5941 52.7384 77.7291 52.5404C77.8766 52.3307 77.9889 52.0984 78.0618 51.8526C78.1446 51.624 78.1619 51.3769 78.1116 51.139C78.0926 51.0601 78.0527 50.9878 77.9962 50.9295C77.9397 50.8713 77.8685 50.8293 77.7902 50.808C77.7368 50.791 77.6804 50.7859 77.6248 50.7931C77.5693 50.8004 77.516 50.8197 77.4688 50.8498C77.3629 50.9181 77.2725 51.0078 77.2036 51.1133C77.1249 51.2274 77.0268 51.3865 76.9095 51.5955C76.7791 51.8319 76.6342 52.06 76.4756 52.2785C76.3497 52.4466 76.184 52.5807 75.9935 52.669C75.7743 52.7612 75.5287 52.7693 75.304 52.6915C75.0868 52.6317 74.8928 52.5073 74.748 52.3347C74.5932 52.142 74.4972 51.9088 74.4716 51.663C74.4385 51.3452 74.4713 51.0241 74.568 50.7196C74.6393 50.4749 74.7407 50.2401 74.8701 50.0205C74.9866 49.8169 75.1366 49.6343 75.3137 49.4805L75.8279 49.8839C75.6753 50.0268 75.5419 50.1888 75.431 50.366C75.326 50.5329 75.2449 50.7135 75.1899 50.9028C75.1073 51.1277 75.0928 51.372 75.1481 51.6051C75.1711 51.6844 75.214 51.7565 75.2728 51.8145C75.3316 51.8725 75.4044 51.9144 75.484 51.9362C75.5374 51.9535 75.594 51.9586 75.6497 51.9511C75.7053 51.9436 75.7585 51.9236 75.8054 51.8928C75.9101 51.8235 75.9998 51.7339 76.069 51.6292C76.1483 51.5146 76.2463 51.3539 76.3631 51.1471C76.489 50.9117 76.6325 50.686 76.7922 50.4721C76.9189 50.304 77.0843 50.1689 77.2743 50.0784C77.4905 49.9855 77.7335 49.9769 77.9557 50.0543C78.1718 50.1137 78.3647 50.2376 78.5086 50.4094C78.6628 50.6034 78.7576 50.8378 78.7818 51.0844C78.8117 51.4044 78.7756 51.7271 78.6757 52.0326H78.6837ZM79.6624 47.7561C79.6107 48.0696 79.5121 48.3735 79.3699 48.6577C79.2547 48.9026 79.0907 49.1213 78.8878 49.3005L78.335 48.9325C78.5113 48.7692 78.6581 48.5768 78.7689 48.3636C78.8936 48.1397 78.9795 47.8962 79.0228 47.6436C79.0763 47.4056 79.0624 47.1574 78.9827 46.9269C78.9554 46.851 78.9085 46.7837 78.8466 46.732C78.7848 46.6803 78.7102 46.6461 78.6307 46.6328C78.5747 46.6211 78.5169 46.622 78.4613 46.6353C78.4058 46.6487 78.3538 46.6741 78.3093 46.7099C78.2114 46.7896 78.131 46.8886 78.073 47.0008C78.0088 47.1245 77.9284 47.2933 77.8352 47.5086C77.7327 47.7588 77.6141 48.0019 77.48 48.2366C77.3727 48.4175 77.2226 48.5692 77.0429 48.6786C76.8353 48.7949 76.592 48.8304 76.3599 48.7782C76.1379 48.742 75.9319 48.6402 75.7685 48.4857C75.5914 48.3103 75.4696 48.0868 75.4181 47.8429C75.3499 47.5314 75.3466 47.2092 75.4085 46.8963C75.4508 46.6451 75.5253 46.4004 75.6303 46.1683C75.7223 45.9521 75.8505 45.7531 76.0095 45.5801L76.5656 45.9256C76.4296 46.0849 76.3156 46.2617 76.2265 46.4512C76.141 46.6284 76.0804 46.8166 76.0465 47.0104C75.9874 47.2493 76.0026 47.5004 76.0899 47.7304C76.1217 47.8066 76.1725 47.8734 76.2375 47.9243C76.3025 47.9753 76.3795 48.0087 76.4611 48.0213C76.5157 48.0318 76.5719 48.0302 76.6258 48.0166C76.6796 48.003 76.7299 47.9777 76.7729 47.9425C76.8684 47.8617 76.947 47.7629 77.0043 47.6517C77.0702 47.5279 77.149 47.3592 77.2422 47.1438C77.3423 46.8966 77.4594 46.6566 77.5925 46.4255C77.701 46.2436 77.8514 46.0904 78.0313 45.9787C78.2353 45.8622 78.4756 45.8267 78.7046 45.879C78.9263 45.9135 79.1322 46.015 79.2944 46.1699C79.4699 46.3461 79.5904 46.5694 79.6415 46.8128C79.7105 47.123 79.7149 47.4441 79.6544 47.7561H79.6624Z" fill="white"/>
<path d="M9.49331 21.5351C9.71032 21.6874 9.96362 21.78 10.2277 21.8035C10.4808 21.8254 10.7349 21.777 10.9622 21.6636C11.1948 21.5399 11.3934 21.3608 11.5406 21.1422C11.6877 20.9236 11.7788 20.6722 11.8059 20.4101C11.829 20.1576 11.7805 19.9036 11.6661 19.6773C11.5477 19.4399 11.3686 19.2381 11.147 19.0923C10.9297 18.9404 10.6766 18.8479 10.4126 18.8239C10.1601 18.8019 9.90638 18.8503 9.67973 18.9637C9.44427 19.0837 9.24386 19.2625 9.09796 19.4828C8.94592 19.6988 8.85336 19.951 8.82958 20.214C8.80651 20.4666 8.85496 20.7206 8.9694 20.9469C9.08869 21.186 9.26952 21.389 9.49331 21.5351Z" fill="white"/>
<path d="M77.9661 35.1485C78.0291 35.2049 78.105 35.245 78.1871 35.2652C78.2692 35.2853 78.355 35.285 78.437 35.2643C78.5215 35.2546 78.6024 35.2248 78.6729 35.1772C78.7434 35.1297 78.8014 35.0658 78.842 34.9911C78.923 34.8035 78.9399 34.5945 78.8902 34.3964L78.7054 33.3695L77.5354 33.5881L77.7202 34.615C77.7433 34.8145 77.8294 35.0014 77.9661 35.1485Z" fill="white"/>
<path d="M13.5641 15.5212C13.5699 15.4368 13.555 15.3522 13.5205 15.2748C13.4861 15.1975 13.4331 15.1298 13.3664 15.0777C13.3069 15.0169 13.2336 14.9714 13.1528 14.9448C13.072 14.9183 12.986 14.9115 12.902 14.925C12.7055 14.9755 12.5307 15.0883 12.4038 15.2464L11.7063 16.0226L12.5934 16.8262L13.2909 16.0484C13.4371 15.9072 13.533 15.7221 13.5641 15.5212Z" fill="white"/>
<path d="M63.5342 69.611C63.3029 69.5058 63.0469 69.4674 62.7949 69.5001C62.5342 69.5378 62.2868 69.6394 62.0748 69.7958C61.8628 69.9523 61.6928 70.1588 61.58 70.3968C61.4748 70.6275 61.4358 70.8829 61.4675 71.1345C61.5044 71.3968 61.6059 71.6457 61.7631 71.859C61.9202 72.0722 62.1279 72.243 62.3675 72.3559C62.5987 72.461 62.8548 72.4994 63.1067 72.4668C63.3675 72.4291 63.6149 72.3275 63.8268 72.171C64.0388 72.0146 64.2088 71.8081 64.3217 71.57C64.4269 71.3393 64.4659 71.0839 64.4342 70.8324C64.3973 70.5701 64.2957 70.3211 64.1386 70.1079C63.9815 69.8946 63.7738 69.7239 63.5342 69.611Z" fill="white"/>
<path d="M9.82868 62.2489L10.9344 60.584L8.96729 60.9263L9.82868 62.2489Z" fill="white"/>
<path d="M45.99 4.42756C46.0816 4.35744 46.1581 4.26952 46.215 4.16908C46.2718 4.06865 46.3077 3.95777 46.3206 3.8431C46.3335 3.72842 46.3231 3.61233 46.2901 3.50177C46.257 3.39122 46.2019 3.28849 46.1282 3.19975C45.9212 3.01729 45.6581 2.91123 45.3825 2.89922L44.4761 2.79797L44.2913 4.45649L45.1977 4.55613C45.4687 4.60652 45.7488 4.56107 45.99 4.42756Z" fill="white"/>
</g>
<defs>
<clipPath id="clip0_45_24">
<rect width="82" height="82" fill="white"/>
</clipPath>
</defs>
</svg>
