<svg width="104" height="52" viewBox="0 0 104 52" fill="none" xmlns="http://www.w3.org/2000/svg">
<path d="M77.1363 0.160156H52.4172V24.8809H77.1363V0.160156Z" fill="white"/>
<path d="M58.6858 4.21033V13.9337C58.6858 19.0785 61.2312 20.9875 64.6138 20.9875C68.1869 20.9875 70.8582 18.9258 70.8582 13.8592V4.21033H68.7037V14.0058C68.7037 17.6375 67.1118 19.2496 64.6862 19.2496C62.4819 19.2496 60.8439 17.6802 60.8439 14.0058V4.21033H58.6858Z" fill="#101828"/>
<path d="M103.38 0.160156H78.6611V24.8809H103.38V0.160156Z" fill="white"/>
<path d="M86.837 20.778C86.837 20.778 86.8119 8.99807 86.6878 6.91555L86.7634 6.89214C87.5752 8.67857 95.0651 20.7782 95.0651 20.7782H97.2206V4.27026H95.2161C95.2161 4.27026 95.2631 15.7566 95.4576 17.9633L95.382 17.9852C94.6222 16.2732 87.181 4.27026 87.181 4.27026H84.8284V20.7782H86.837V20.778Z" fill="#101828"/>
<path d="M103.38 26.399H78.6611V51.1181H103.38V26.399Z" fill="white"/>
<path d="M95.1976 31.7082C94.2138 30.826 92.6747 30.3345 90.5654 30.3345C88.8535 30.3345 87.5057 30.4837 86.4766 30.6791V46.9663H88.6078V40.3537C89.101 40.4752 89.6857 40.4988 90.3238 40.4988C92.4063 40.4988 94.2398 39.879 95.3653 38.6871C96.2242 37.8248 96.6637 36.649 96.6637 35.1585C96.6637 33.686 96.1009 32.4889 95.1976 31.7082Z" fill="#101828"/>
<path d="M90.373 38.8828C89.6853 38.8828 89.0729 38.8326 88.6074 38.7126V32.2971C88.9757 32.2232 89.6853 32.126 90.6146 32.126C92.9655 32.126 94.5112 33.1727 94.5112 35.3819C94.5114 37.6079 92.9657 38.8828 90.373 38.8828Z" fill="white"/>
<path d="M77.1114 26.4233H52.3906V51.1432H77.1114V26.4233Z" fill="white"/>
<path d="M69.7722 32.3457C68.3272 30.9994 66.1506 30.3102 63.0884 30.3102C61.3966 30.3102 59.8584 30.4585 58.5315 30.6565V46.8926C59.6336 47.0403 60.8841 47.0839 62.4266 47.0839C65.6323 47.0839 68.1803 46.2594 69.7521 44.7145C71.2652 43.1989 72.1214 40.9888 72.1214 38.2974C72.1216 35.6276 71.2652 33.6926 69.7722 32.3457Z" fill="#101828"/>
<path d="M62.8428 45.3769C62.0073 45.3769 61.2266 45.3769 60.689 45.2753V32.223C61.2526 32.1024 62.0863 32.0057 63.185 32.0057C67.6906 32.0057 69.8983 34.4305 69.8715 38.3699C69.8712 42.8263 67.3962 45.3988 62.8428 45.3769Z" fill="white"/>
<path d="M50.9881 0H0V50.9997H50.9881V0Z" fill="white"/>
<path d="M43.7389 26.5533C43.0252 27.5631 42.1629 28.5109 41.502 29.5434C41.5759 28.7273 41.6732 27.7218 41.3528 26.9458C40.8042 25.2818 40.3211 23.5909 40.1685 21.7624L40.1835 21.0628C40.5987 22.9306 42.4346 24.2166 42.3173 26.31C42.3592 26.8191 42.2016 27.246 42.1084 27.6947L42.141 27.7274L42.2241 27.6342C42.4951 26.6085 42.631 25.5265 43.0536 24.5678C43.6559 23.1907 44.4039 21.7984 44.0986 20.1335C45.0146 22.0971 44.7404 24.7181 43.7389 26.5533Z" fill="#101828"/>
<path d="M42.6093 15.9737C43.8144 17.6051 44.0805 20.2001 43.2006 22.0688C42.8785 22.863 42.6445 23.7068 42.5169 24.5833C42.4532 24.4341 42.4407 24.2301 42.3877 24.0598C41.9095 22.2322 40.1785 20.928 39.4639 19.2019C39.2408 18.6366 39.0495 18.0536 38.9421 17.4406C39.7003 18.8463 41.5758 19.5751 42.0881 21.1242C42.2986 21.5193 42.287 22.0065 42.4128 22.4284C42.4405 22.4284 42.4682 22.4082 42.4682 22.3814C42.2442 20.7837 42.3106 19.1119 42.5302 17.537C42.5169 16.6807 42.4347 15.8519 41.9582 15.1919C42.2638 15.3688 42.4029 15.7094 42.6093 15.9737Z" fill="#101828"/>
<path d="M41.7619 15.6615C42.079 17.0889 41.6202 18.4813 41.9111 19.9223L41.897 19.9341C41.1212 18.4077 39.4713 17.6871 38.3366 16.4635C37.6757 15.7362 37.3922 14.8514 37.2312 13.9146C37.882 15.4839 39.6334 15.8311 40.6398 17.1486C40.9786 17.4539 41.0894 17.8767 41.3058 18.2248L41.3411 18.1878C40.7607 16.9524 40.5644 15.5584 40.1685 14.2416C39.9604 13.6704 39.5596 13.1068 39.0211 12.7461C40.3428 13.0179 41.4892 14.3968 41.7619 15.6615Z" fill="#101828"/>
<path d="M38.2287 12.3856C39.226 13.2756 39.6754 14.4321 39.9698 15.6282L40.1308 16.0074C38.6841 14.9699 37.3731 13.5685 36.4481 12.0947L35.3191 10.9515C36.3121 11.3724 37.3808 11.624 38.2287 12.3856Z" fill="#101828"/>
<path d="M19.3261 11.2783C21.2083 10.3499 23.2672 9.85241 25.5075 9.81226C30.6304 9.81891 35.5235 12.8266 37.7529 17.5697C39.1653 20.2946 39.567 24.0472 38.6512 27.1236C37.7194 30.7587 34.6614 34.4357 31.1002 35.9312C27.0927 37.8948 21.3961 37.404 17.8231 34.8418C12.8561 31.4407 10.8247 25.5736 12.3259 19.784C13.2376 16.3469 15.9752 12.8762 19.3261 11.2783Z" fill="#101828"/>
<path d="M15.3965 11.1443C14.3977 12.0199 13.7048 13.1278 12.9651 14.1604C12.2991 14.9815 11.4511 15.5249 10.6938 16.232C11.1031 15.3898 11.1183 14.3835 11.6953 13.6101C12.5181 12.1743 14.0404 11.6727 15.3965 11.1443Z" fill="#101828"/>
<path d="M9.93551 14.1922C10.4169 13.5884 11.0359 13.1674 11.7279 12.9919C10.3868 13.9137 10.4708 15.5728 10.0429 16.9532C9.90609 17.4614 9.66969 17.9327 9.55396 18.4528L9.59003 18.4813C9.81484 17.8883 10.2073 17.3339 10.6939 16.8508C11.6534 15.9677 13.0676 15.4174 13.5371 14.1115C13.517 15.9264 11.9998 17.3507 10.5545 18.3723C9.95226 18.8957 9.3779 19.4946 9.05067 20.1647C9.01632 19.7102 9.12024 19.2487 9.08588 18.7598C8.92914 17.1763 8.81427 15.368 9.93551 14.1922Z" fill="#101828"/>
<path d="M7.21302 19.6094C7.16943 18.0049 7.83526 16.6949 8.77635 15.499C8.7989 15.4848 8.82166 15.4579 8.8543 15.4629C7.82259 17.0329 8.67565 19.0106 8.63035 20.7981L8.49443 22.6258C8.51118 22.6384 8.51118 22.6928 8.56143 22.6728C8.62176 22.4714 8.637 22.2526 8.67544 22.0413C8.92043 20.566 10.1986 19.5201 11.3199 18.5011C11.5606 18.2385 11.7652 17.9634 11.891 17.6549C11.803 18.3862 11.5707 19.1268 11.2653 19.807C10.3964 21.5054 8.7843 22.8969 8.49422 24.841C8.35186 22.9803 7.07882 21.5872 7.21302 19.6094Z" fill="#101828"/>
<path d="M6.42661 21.8917C6.54234 21.3901 6.63467 20.8718 6.8511 20.4113C6.43434 22.5324 7.86262 24.0597 8.3307 25.9015C8.52695 26.586 8.57719 27.3283 8.85482 27.9731C8.88252 27.9873 8.9042 27.9589 8.92267 27.9387C8.22313 25.9829 9.22799 24.1679 10.2395 22.6387C10.4845 22.2234 10.6286 21.7614 10.7495 21.2884C10.8568 22.1706 10.6363 23.1914 10.5045 24.1074C10.2612 25.2756 9.89382 26.382 9.57519 27.5194C9.36305 28.2239 9.41845 29.0258 9.52816 29.7664L9.42575 29.685C8.6809 28.3196 7.21655 27.2536 6.78368 25.7589C6.42146 24.569 6.18334 23.1918 6.42661 21.8917Z" fill="#101828"/>
<path d="M6.35945 26.0368C6.52393 28.287 8.94269 29.4757 10.065 31.3368C10.33 31.7184 10.5608 32.1386 10.9129 32.4566C10.8575 32.2199 10.6353 32.0153 10.553 31.7714C10.158 30.9905 10.0171 30.0603 10.1118 29.1152C10.2226 27.9669 10.7023 26.8993 10.5202 25.6898C11.504 27.8176 11.2053 30.4689 11.7557 32.7705C11.8991 33.2738 12.1909 33.7217 12.3813 34.2048C10.3549 32.8241 7.59643 31.5125 6.69806 28.9861C6.3193 28.115 6.27894 27.0357 6.35945 26.0368Z" fill="#101828"/>
<path d="M7.5686 31.1999C8.69843 33.7545 11.5224 33.966 13.4213 35.5219C13.7659 35.828 14.1376 36.0921 14.5284 36.2777L14.5485 36.2558C14.1107 35.8615 13.6109 35.4136 13.3038 34.9037C12.1968 33.362 12.5858 31.1999 11.7555 29.5425C12.5105 30.4449 13.1965 31.3817 13.6528 32.4094C14.3321 34.0818 14.5887 35.9698 16.1615 37.2346C14.4579 36.6777 12.4703 36.8346 10.974 35.7879C9.33742 34.782 7.87565 33.076 7.5686 31.1999Z" fill="#101828"/>
<path d="M10.4709 35.9638C12.2767 38.0238 15.2365 37.336 17.6463 37.8728C17.9842 37.9222 18.2997 38.0564 18.6604 38.0021C18.3735 37.8192 17.9744 37.8402 17.6607 37.6766C15.7718 37.009 15.4925 34.9641 14.4659 33.5869C15.7793 34.4567 16.8772 35.6301 18.0892 36.7658C18.9599 37.5256 20.0023 37.878 21.1036 38.1052C20.841 38.1992 20.4921 38.1721 20.2078 38.2469C18.231 38.7375 16.0284 39.5317 13.9283 38.8163C12.5644 38.3886 11.157 37.3101 10.4709 35.9638Z" fill="#101828"/>
<path d="M35.0281 40.7597C32.9901 41.5221 30.8614 40.7262 29.2712 39.5184C28.6279 39.1083 28.0577 38.5179 27.2205 38.5748C26.921 38.5664 26.6266 38.5805 26.3717 38.6561C27.92 39.3759 29.3567 40.3672 30.6727 41.6379C30.4487 41.8887 30.1644 42.1259 29.8926 42.3441C28.6277 40.9811 27.2205 39.6651 25.6503 38.8994C25.3467 38.9389 25.0514 39.1233 24.7764 39.2702C23.4965 40.0803 22.2316 41.1221 21.2838 42.3919L20.4653 41.7192C21.7704 40.4024 23.213 39.3758 24.7865 38.6402C23.2399 38.1522 22.2284 39.448 21.0532 40.1089C19.6795 41.0667 17.7093 41.5155 16.0484 40.8561C15.1578 40.5173 14.2989 40.0198 13.6514 39.2105C14.9581 40.1089 16.8989 40.2044 18.3809 39.6206C20.3728 38.7568 22.4345 37.6639 24.8333 38.1846C25.2099 38.193 25.5764 38.5662 25.9303 38.2475C27.71 37.7846 29.7264 38.105 31.2629 38.9194L32.8447 39.5508C34.3142 40.0943 36.2164 39.9459 37.4737 39.0467C36.8287 39.8547 35.9448 40.4342 35.0281 40.7597Z" fill="#101828"/>
<path d="M37.216 38.6553C34.922 39.5185 32.6222 38.46 30.4283 38.1044L30.0063 38.049V38.038C31.0531 37.7999 32.0713 37.4862 32.9084 36.7304C34.1372 35.5486 35.2299 34.3342 36.5981 33.4015C35.584 34.7007 35.4784 36.5475 33.8051 37.3829C33.3883 37.6548 32.8683 37.7016 32.4388 37.9088C33.0504 37.9221 33.608 37.7016 34.2128 37.6412C36.4564 37.2906 39.0229 37.6496 40.5931 35.7391C40.0073 37.0695 38.5496 38.1858 37.216 38.6553Z" fill="#101828"/>
<path d="M38.4843 36.3247C37.3184 36.6375 36.0687 36.7391 34.9314 37.1256C36.8546 35.4757 36.7481 32.921 38.0314 30.9768C38.4375 30.425 38.7772 29.8461 39.2542 29.326C38.475 30.8954 38.8115 32.926 37.9157 34.4489C37.5694 35.0495 37.0736 35.6365 36.5276 36.1147C36.7079 36.1046 36.8647 35.9519 37.0182 35.8489C38.4793 34.3946 40.3832 33.986 41.9584 32.8034C42.5907 32.3001 43.1704 31.6426 43.4481 30.9304C43.1477 33.3404 40.7497 35.6032 38.4843 36.3247Z" fill="#101828"/>
<path d="M41.3736 32.2131C40.4703 32.8036 39.5528 33.3522 38.6838 34.0249V33.9478C40.0174 31.732 39.3632 28.6923 40.1834 26.2617L40.4904 25.4464C40.321 26.9604 40.9785 28.2452 40.9349 29.7667C40.8847 30.685 40.586 31.5003 40.1029 32.2325H40.1834C40.8359 31.3785 41.3476 30.4686 42.1092 29.651C43.291 28.511 44.4929 27.3428 44.6497 25.7593C45.0499 28.4011 43.5686 30.7162 41.3736 32.2131Z" fill="#101828"/>
<path d="M31.1478 32.0379L31.2424 31.9063C31.6508 31.5885 32.0912 31.2872 32.4519 30.8939H32.5013C32.4165 30.8679 32.3143 30.9493 32.222 30.9089C32.0283 30.8209 31.9972 30.6498 31.9972 30.4535L31.1617 29.5897L31.1164 29.4613C31.0526 29.6249 30.9285 29.7263 30.8094 29.8463C30.8152 29.9571 30.775 30.1213 30.9058 30.1943C31.1767 30.2832 31.5297 30.461 31.5903 30.779C31.4803 31.0792 30.9101 31.3501 31.2624 31.6765C31.3769 31.8382 31.1018 31.8994 31.1478 32.0379Z" fill="white"/>
<path d="M26.2891 21.0086C26.4467 21.0958 26.5332 20.9348 26.6665 20.9004C26.8544 20.9206 27.0019 21.0849 27.1178 21.2057C27.2385 21.2594 27.356 21.1856 27.4642 21.1454C27.5404 20.5809 28.2468 20.6623 28.4564 20.1339L28.3271 20.1818C28.2734 20.1055 28.1384 20.139 28.1459 20.0182C28.2599 19.9059 28.41 19.7364 28.5519 19.6911C27.943 19.3087 27.3107 18.9832 26.6161 18.8089C26.3442 18.7451 26.0574 18.7385 25.7991 18.6444C25.9298 19.032 25.8158 19.6014 25.8963 20.0519L26.382 20.2129C26.5289 19.9763 26.84 19.9312 26.9751 19.7047C27.0622 19.63 27.1647 19.7047 27.2351 19.786C27.2576 19.969 27.2074 20.1526 27.152 20.3286C26.9686 20.6967 26.5332 20.7411 26.2891 21.0086Z" fill="white"/>
<path d="M33.5281 25.5736C33.2412 26.4853 32.9082 27.3744 32.3362 28.1695C32.1139 28.4547 31.8934 28.8506 31.6057 28.9981L32.2222 29.5424C32.2548 29.5089 32.2355 29.4535 32.2447 29.4074C32.2447 29.326 32.2825 29.2304 32.3847 29.242C32.6825 29.2362 32.6883 29.5557 32.8594 29.7193C32.8234 29.9776 33.0499 30.1814 32.9743 30.4197C34.6877 28.6114 35.5451 26.3973 35.7018 23.9439L35.795 23.8357C35.1835 23.8952 34.5385 23.8533 33.9079 23.8626L33.7569 23.8164C33.7997 24.2299 33.6891 24.6308 33.6638 25.0383L33.8843 25.2816C33.9498 25.3772 33.9261 25.5206 33.839 25.5936C33.7419 25.6576 33.6212 25.6509 33.5281 25.5736Z" fill="white"/>
<path d="M31.8934 19.5601C31.6653 19.1263 31.2986 18.739 30.9843 18.3514L30.9516 18.4354C30.3251 19.0853 29.6382 19.758 29.0417 20.4258C29.0804 20.5055 29.1474 20.5819 29.2262 20.6212C29.2505 20.4593 29.3411 20.315 29.3561 20.1456C29.5163 19.9225 29.7636 20.0642 29.9725 20.1121C30.298 20.0365 30.604 20.1877 30.937 20.1825C31.1829 20.3017 31.2037 20.6154 31.4285 20.7369C31.4889 20.8232 31.4403 20.9282 31.359 20.9961C31.4285 21.5052 31.6709 20.8593 31.9301 20.9828C32.0374 21.0231 32.1742 21.0087 32.2539 21.1236C32.2949 21.3349 32.5541 21.2965 32.5676 21.4977C32.5465 21.5984 32.4383 21.6269 32.3662 21.683C32.4317 21.885 32.1616 22.0143 32.2539 22.2315C32.6481 22.3063 32.6623 21.85 32.8443 21.6477C32.7436 21.2963 32.6683 20.934 32.4669 20.6212C32.2438 20.575 32.1087 20.3083 31.8822 20.2622C31.4472 20.09 31.9505 19.8201 31.8934 19.5601Z" fill="white"/>
<path d="M25.8328 33.7497C26.3369 33.5795 26.9214 33.6054 27.465 33.5174C27.3577 33.4764 27.2469 33.4519 27.1649 33.3413C26.8462 33.3203 26.6951 32.9898 26.5963 32.735C26.5476 32.5546 26.6719 32.4045 26.7455 32.2469C26.6113 31.9693 26.1886 32.1699 25.9421 32.0709C25.8751 32.0155 25.8263 31.9332 25.7332 31.9191L25.833 32.0709C25.8328 32.6283 25.9015 33.1986 25.8328 33.7497Z" fill="white"/>
<path d="M26.2707 28.4481C26.4468 28.4816 26.3218 28.6737 26.4519 28.7424C26.7296 28.6518 26.9434 28.9782 27.1648 28.7742C27.153 28.4547 27.5146 28.4816 27.71 28.4002C28.0179 28.2172 28.3625 27.9725 28.329 27.5647L28.277 27.5052C28.0672 27.5052 27.9599 27.6671 27.8072 27.7955C27.6127 27.9063 27.5169 27.5918 27.3628 27.6671C27.3694 27.7006 27.4038 27.7159 27.4332 27.7275C27.4701 27.7769 27.4852 27.8776 27.4332 27.9272C27.2 28.1369 27.0918 27.8224 26.873 27.8424V27.9272C26.8814 27.9725 26.8603 28.0478 26.7942 28.0195C26.6551 27.7955 26.3774 27.8778 26.2407 27.6824C26.1552 27.6345 26.0713 27.6951 26.0109 27.7487C25.9639 27.8518 25.746 27.7361 25.7996 27.9141C25.632 27.9727 25.6126 28.1556 25.4894 28.2656C25.2755 28.2295 25.1841 28.4693 24.9844 28.4644C25.0046 28.5039 24.9844 28.5726 25.0439 28.5775C25.1688 28.6321 25.2903 28.6439 25.4415 28.6254C25.6433 28.3006 25.9847 28.5722 26.2707 28.4481Z" fill="white"/>
<path d="M28.2786 25.7933C28.2886 25.894 28.3037 26.0298 28.3893 26.116C28.654 26.0774 28.5409 26.4428 28.7832 26.411C28.9207 26.37 28.7924 26.2544 28.8302 26.1662C28.7924 25.9618 28.5937 25.9407 28.4564 25.8184C28.4414 25.779 28.4714 25.7446 28.4882 25.712C28.3893 25.6567 28.3423 25.7187 28.2786 25.7933Z" fill="white"/>
<path d="M27.97 16.4148C27.2806 16.1715 26.5291 16.0676 25.7793 15.9551L25.848 16.1034L25.8338 17.9436L26.0125 17.9092C27.138 18.0644 28.1697 18.4267 29.0621 19.1522L29.1108 19.2965C29.4118 18.867 29.8756 18.4997 30.2346 18.0936L30.5769 17.8957L30.4133 17.8287C29.6641 17.2041 28.8532 16.7302 27.97 16.4148Z" fill="white"/>
<path d="M15.3311 23.9987L15.4795 25.2501C15.5381 25.7315 15.7513 26.1937 15.7361 26.6691C15.8099 26.5676 15.7638 26.3621 15.9491 26.3421C15.872 26.1937 16.0908 26.0653 15.9675 25.9352C16.0279 25.6097 16.0665 25.2752 16.3551 25.0394C16.704 25.0244 16.7291 24.5673 17.0763 24.5471C17.2524 24.5404 17.3615 24.7786 17.4394 24.8599C17.2189 24.5973 17.2305 24.1621 17.2859 23.8619L17.1366 23.9315C16.5043 23.9173 15.8466 23.9684 15.2478 23.8828L15.3311 23.9987Z" fill="white"/>
<path d="M27.5144 27.1775C27.6752 27.0083 28.0178 27.0158 28.0328 26.7721C27.7959 26.7344 27.6752 26.8651 27.5144 26.9948C27.4917 27.0461 27.418 27.1415 27.5144 27.1775Z" fill="white"/>
<path d="M31.8364 23.7687L32.0445 23.9776C32.2543 24.1202 32.1141 24.4246 32.3363 24.5479C32.5997 24.6829 32.697 24.99 32.8145 25.2206C32.854 25.1602 32.854 25.0855 32.8748 25.0235C32.9688 24.6503 32.9544 24.2301 33.0702 23.8627C32.6618 23.8827 32.1922 23.9231 31.8364 23.7687Z" fill="white"/>
<path d="M29.0959 28.5293C29.3265 28.5896 29.485 28.8774 29.7744 28.7885C30.0203 28.6517 30.4278 28.8698 30.5905 28.6115C30.5646 28.3599 30.7818 28.1763 30.8916 27.9599L30.9712 27.9388C31.108 28.0806 31.1005 28.2936 31.1625 28.4479C31.3504 28.245 31.5005 28.0194 31.6716 27.8104C32.1195 27.1571 32.5019 26.4575 32.663 25.712C32.4809 25.7178 32.2964 25.749 32.1288 25.8044C31.9308 25.7934 31.6918 25.9074 31.5215 25.7709C31.4629 25.718 31.42 25.7994 31.4292 25.854C31.3588 25.9555 31.2901 26.0828 31.134 26.0369C31.0125 25.9824 31.0125 25.854 30.9712 25.7584C30.9779 25.834 30.9519 25.901 30.9369 25.9688C30.796 26.1166 30.7456 26.2615 30.6459 26.4234C30.5034 26.5801 30.2728 26.5249 30.1218 26.654C30.0941 26.981 29.7343 26.9114 29.5305 27.0164C29.5172 27.0559 29.564 27.0617 29.5842 27.0969C29.6814 27.1238 29.8098 27.1238 29.8777 27.0282C30.1628 27.1045 30.1016 26.7448 30.2676 26.6207C30.4093 26.6005 30.5452 26.479 30.6912 26.5754C30.8439 26.7566 30.8765 27.0216 30.8557 27.2599C30.6912 27.4218 30.776 27.6876 30.6595 27.8781C30.6854 28.1037 30.4136 28.2044 30.449 28.429C30.3627 28.5297 30.2101 28.5456 30.0741 28.5456C29.5408 28.3419 28.9737 28.2109 28.3758 28.1557C28.3212 28.1767 28.2877 28.2244 28.2952 28.2865C28.5415 28.4153 28.8385 28.422 29.0959 28.5293Z" fill="white"/>
<path d="M25.0434 34.4829L25.1138 34.3798L24.9026 34.4352C22.253 34.2531 19.9096 33.3163 17.9737 31.4442L17.9518 31.5264L16.5527 32.933C18.6713 34.7691 21.0635 35.9517 23.7944 36.3258C24.2305 36.3988 24.7289 36.3584 25.1465 36.4876L25.0434 36.3258V34.4829Z" fill="white"/>
<path d="M22.3059 27.1573C23.0355 27.7578 23.8499 28.1284 24.7541 28.2862C24.8011 28.1033 24.7272 27.8727 24.8219 27.716C24.8898 27.565 25.071 27.5717 25.2095 27.5976C25.29 27.5919 25.3403 27.4911 25.29 27.4207C25.0938 27.3829 25.1844 27.165 25.1131 27.0415C25.1232 26.9745 25.2372 26.9879 25.2095 26.8981C25.071 26.7899 25.2758 26.6692 25.1616 26.5535C25.1942 26.5301 25.2196 26.4897 25.2539 26.4672C24.8421 26.64 24.4043 26.3884 24.0412 26.2273C23.8617 26.1226 23.6051 26.0244 23.5665 25.8046C23.2745 26.2802 22.7134 26.7154 22.3059 27.1573Z" fill="white"/>
<path d="M21.6076 25.0385C21.5413 25.0033 21.532 25.0117 21.4783 25.0703C21.4457 25.0703 21.4045 25.0786 21.3776 25.0585C21.3776 24.6709 20.9424 24.9024 20.7805 24.7003C20.9701 25.0501 21.0723 25.4527 21.2671 25.8042C21.3912 26.117 21.6613 26.3629 21.7854 26.6688C21.9138 26.4238 22.1729 26.2267 22.3574 26.0021C22.3707 25.9014 22.349 25.8117 22.291 25.738C22.2331 25.5937 22.2885 25.3917 22.1762 25.27C22.0033 25.3311 22.2408 25.5066 22.1644 25.6105C22.0905 25.6575 22.0083 25.5937 22.0033 25.5265C21.8457 25.5014 21.7231 25.3629 21.6746 25.2204C21.8056 25.1392 21.642 25.1048 21.6076 25.0385Z" fill="white"/>
<path d="M22.9121 25.2356C22.8694 25.4039 22.7562 25.5522 22.6323 25.6753L22.6533 25.6886C22.8167 25.5722 22.9346 25.3644 23.1432 25.3511L22.9121 25.2356Z" fill="white"/>
<path d="M24.8834 31.8398C23.2312 31.7576 21.7851 31.1538 20.5002 30.1934C20.5406 30.3561 20.7568 30.4618 20.6965 30.6638C20.5807 30.8491 20.3433 30.8525 20.1548 30.8491C19.7648 30.7862 19.4788 31.0797 19.1155 31.1183C18.7808 31.2214 18.6651 30.813 18.3606 30.8491C20.2477 32.4972 22.4075 33.5296 24.9379 33.6664L25.1284 33.7956L25.0444 33.565V31.7702L24.8834 31.8398Z" fill="white"/>
<path d="M17.5455 30.9557C17.3131 30.7921 17.1077 30.5289 16.914 30.3023C16.6892 30.242 16.456 30.0859 16.342 29.8695C16.275 29.7924 16.3371 29.6597 16.2623 29.6045L16.1769 29.7061C15.9396 29.8209 15.8548 29.5762 15.6912 29.4755C15.4782 29.3615 15.583 28.9589 15.2953 29.0327C15.1879 29.0278 15.1527 28.9052 15.0848 28.8382C14.8222 28.8633 14.7527 28.5715 14.6092 28.4298C14.5815 28.491 14.6092 28.5715 14.5287 28.6119C14.2554 28.6739 14.1631 28.3409 13.9769 28.2035C13.9282 28.2245 13.8964 28.2814 13.826 28.2664C13.6658 28.1238 13.5559 27.9184 13.5475 27.6961C13.3244 27.441 13.4268 27.0427 13.4687 26.7357C13.5097 26.6543 13.6263 26.6082 13.6029 26.5068C13.6658 26.3634 13.8159 26.3492 13.9584 26.3423C14.013 26.3709 14.0675 26.4237 14.0926 26.4731C14.1815 26.4177 14.3804 26.478 14.3039 26.2809C14.4179 26.1802 14.5908 26.1442 14.7475 26.1173C14.8557 26.255 14.9086 26.4108 15.0537 26.5384L14.959 26.39C14.7954 25.724 14.6672 25.0455 14.6294 24.3242C14.6369 24.2839 14.5455 24.2639 14.5968 24.2244L14.6095 24.2437C14.6178 24.0936 14.606 23.9644 14.6296 23.863L14.4467 23.9317L12.5579 23.9184C12.6669 26.0907 13.243 28.0684 14.2236 29.8843C14.705 30.7801 15.4121 31.5878 16.0285 32.4248L17.3806 31.0242L17.5455 30.9557Z" fill="white"/>
<path d="M19.7186 15.0914C19.2967 15.3832 18.91 15.7641 18.4756 16.0224C18.9797 16.3401 19.3931 16.8729 19.8478 17.2913L19.8957 17.4212C21.0524 16.3142 22.4573 15.6692 23.9744 15.3563C24.3317 15.3202 24.6942 15.1996 25.0437 15.2758C25.0194 14.6282 24.9623 13.9557 25.0295 13.3157C23.0608 13.4331 21.2987 14.0305 19.7186 15.0914Z" fill="white"/>
<path d="M18.1016 22.1843C18.0277 22.5107 18.069 22.8897 17.938 23.1967C18.1787 23.0859 18.5227 23.1289 18.7876 23.1624C18.6332 23.081 18.7634 22.8847 18.6719 22.7739C18.6517 22.6071 18.6231 22.3956 18.7876 22.285C18.7691 22.0066 19.0652 21.864 19.0955 21.6123C19.1685 21.3281 19.4938 21.52 19.6516 21.3691C19.754 21.3137 19.6649 21.2198 19.6649 21.1451C19.8009 20.959 20.0121 20.9682 20.1732 20.8649C20.2906 20.6889 20.4398 20.4984 20.6294 20.3928C21.0378 20.4054 21.0456 19.8334 21.4312 19.819C20.9019 19.4182 20.3986 18.8822 19.9299 18.4185C18.994 19.5408 18.3532 20.7762 18.1016 22.1843Z" fill="white"/>
<path d="M18.3607 24.9413C18.38 24.8189 18.1988 24.7869 18.2155 24.6645C18.3463 24.412 18.2222 24.0053 18.5569 23.8963C18.3203 23.9366 18.109 23.9843 17.907 23.8359L18.0034 23.9987C18.0193 24.4466 18.1988 24.8743 18.1015 25.3306C18.1786 25.2013 18.1988 25.0244 18.3607 24.9413Z" fill="white"/>
<path d="M20.234 29.8468L20.2085 29.8L20.234 29.8851V29.8468Z" fill="white"/>
<path d="M17.9731 16.5909L17.2383 17.5254C16.0363 19.1744 15.4643 21.0832 15.2949 23.1634L17.1578 23.1282L17.3339 23.1977C17.2591 23.1475 17.2776 23.0678 17.2525 23.0006C17.4034 21.0632 18.0811 19.3378 19.4181 17.8962C18.9032 17.45 18.4201 16.9736 17.9829 16.4636L17.9731 16.5909Z" fill="white"/>
<path d="M23.7124 29.2976C23.8617 29.1391 24.038 29.0335 24.2224 28.9654C23.6193 29.0887 23.0868 28.6534 22.5725 28.4153C22.2799 28.1972 21.899 28.0202 21.7229 27.6949C21.3203 28.1839 20.8464 28.6929 20.3726 29.0805C20.5798 29.0938 20.6981 29.3263 20.8741 29.4286C21.894 30.2765 23.1638 30.6857 24.3439 30.9769L24.0218 30.8259C23.7754 30.5491 23.4279 30.2221 23.4155 29.8363C23.6596 29.7521 23.6321 29.4822 23.7124 29.2976Z" fill="white"/>
<path d="M19.0655 23.8962L19.0127 24.2552C18.9296 24.4673 18.6655 24.3089 18.5446 24.454C18.4566 24.5891 18.5481 24.7317 18.6234 24.8399C18.4338 25.2751 19.0546 25.4127 19.0453 25.8052C19.2366 26.0502 19.0194 26.4024 19.2918 26.6205C19.3513 27.0626 19.2306 27.6614 19.6182 28.0069L19.6869 28.4297C19.7657 28.7206 19.338 28.6444 19.3934 28.9044C19.4782 28.8634 19.4941 28.9731 19.5025 28.9991V28.9858C20.0259 28.382 20.6297 27.7428 21.247 27.2069L20.9904 26.9477C20.5073 26.2265 20.1273 25.458 19.9437 24.6161L19.7474 24.5154C19.7391 24.7319 19.6367 24.9021 19.6519 25.1192L19.5841 25.2006C19.4423 25.1957 19.3517 25.0791 19.2308 25.0035C19.2014 24.9288 19.1269 24.8081 19.2442 24.7469C19.312 24.7411 19.3582 24.7602 19.4086 24.7922C19.4681 24.7183 19.4421 24.611 19.4782 24.5154C19.4941 24.3518 19.3515 24.2026 19.4531 24.0592C19.5838 24.0465 19.6796 24.2026 19.7324 24.2898C19.8632 24.3301 19.9656 24.2243 20.073 24.1749C20.073 24.0592 20.234 23.9022 20.0579 23.8361C20.1552 23.5703 20.0865 23.2918 20.0429 23.0343C19.9716 22.8095 19.7191 22.8499 19.5364 22.8707C18.9854 23.0459 19.6253 23.462 19.4894 23.8009C19.4118 23.9986 19.2089 23.8157 19.0655 23.8962Z" fill="white"/>
<path d="M36.4795 23.8628L36.3663 23.7805L36.4327 23.9641C36.3262 26.2261 35.5713 28.2232 34.2772 30.0004C34.029 30.2973 33.7941 30.663 33.4778 30.8743C33.9961 31.2811 34.5672 31.8933 34.9926 32.364L35.0454 32.2615C37.1262 29.8896 38.308 27.1419 38.4373 23.9639L38.5204 23.8011L38.4188 23.8505L36.4795 23.8628Z" fill="white"/>
<path d="M18.0683 15.5443L18.101 15.4503C20.0854 13.6437 22.3953 12.6506 25.0431 12.5282L24.9837 12.3663L24.9626 10.7334L25.0189 10.5447C22.2862 10.6529 19.8608 11.5839 17.7102 13.1331C17.2934 13.4191 16.9269 13.8528 16.5059 14.0993H16.5638C17.103 14.4907 17.6129 15.056 18.0683 15.5443Z" fill="white"/>
<path d="M24.9521 16.0073C23.226 16.1314 21.7279 16.8494 20.418 17.9322C20.9363 18.2886 21.396 18.8673 21.8656 19.2808C21.8991 19.2355 21.9343 19.1877 21.968 19.1325C22.6139 18.6728 23.2823 18.2517 24.0421 18.0606C24.3784 18.0254 24.714 17.8644 25.0663 17.9432C24.9933 17.304 24.9933 16.5995 25.0663 15.9403L24.9521 16.0073Z" fill="white"/>
<path d="M25.0437 18.6978C23.9516 18.8412 22.9453 19.2152 22.145 20.064H22.2919C22.4572 20.2276 22.7196 20.1932 22.8446 20.412C22.9058 20.5344 22.728 20.5203 22.7346 20.621C22.7698 20.6504 22.8186 20.6553 22.8446 20.7023C22.973 20.7476 22.9453 20.6285 22.9955 20.5748C23.1623 20.4054 23.1918 20.7375 23.3536 20.7375C23.4694 20.662 23.6321 20.6553 23.7127 20.7846C23.8234 20.689 24.0549 20.7762 24.0884 20.6025C24.3014 20.3768 24.1839 20.0322 24.4959 19.8888C24.605 19.9474 24.4893 20.0515 24.5303 20.1471C24.7392 20.2343 24.9773 19.9684 25.1467 20.1814C24.9932 19.7387 25.0293 19.1867 25.0437 18.6978Z" fill="white"/>
<path d="M25.1144 21.7434C24.9123 22.0813 24.5718 22.1569 24.2529 22.2525C24.1632 22.3607 24.1842 22.5997 23.9744 22.5771C23.9066 22.7289 23.6749 22.8161 23.7632 23.0342C23.6524 23.264 23.7052 23.5644 23.6474 23.816C23.2466 24.0677 23.3588 23.4821 23.1594 23.3597L23.0872 23.4755C23.011 23.4957 22.9556 23.4478 22.8994 23.395C22.839 23.3698 22.7349 23.3514 22.6812 23.4083C22.5932 23.5584 22.4573 23.6801 22.4916 23.883C22.4512 24.0037 22.2466 23.9635 22.2752 24.0943C22.5 24.0876 22.7415 24.0473 22.9603 23.9987C23.1188 24.0391 23.2463 23.924 23.4031 23.9182C23.4542 23.9451 23.5214 23.9987 23.4978 24.0801H23.5532C23.6597 23.9987 23.705 23.8738 23.6597 23.7555C23.6747 23.6112 23.8308 23.6112 23.9238 23.5702C24.0118 23.6112 23.9573 23.6986 23.974 23.7699C24.2785 23.883 23.8984 24.1078 23.8557 24.2697C23.7752 24.3996 23.8557 24.6925 23.5991 24.6513C23.553 24.6379 23.5212 24.5892 23.5328 24.5338H23.4976C23.4909 24.6446 23.5731 24.7921 23.6805 24.84C23.8684 24.6839 23.8759 24.4189 24.1518 24.3846C24.2909 24.2362 24.088 24.0039 24.301 23.883C24.6534 23.8738 25.0291 23.7263 25.3108 24.0105C25.2898 24.1329 25.2445 24.1909 25.346 24.2907C25.2756 24.4468 25.232 24.6163 25.101 24.747C25.1337 24.8342 25.1086 24.9424 25.0289 25.0036C24.9366 25.4189 24.4618 25.22 24.1834 25.3652C24.6111 25.6898 25.1277 25.8114 25.6829 25.7721C25.9747 25.7588 25.8474 25.398 25.9966 25.2361C26.0907 24.7605 26.5276 25.0852 26.7934 24.9559C26.8941 24.7539 26.9963 24.5559 27.0215 24.3251C26.8538 24.2169 26.7866 24.0105 26.8394 23.816C26.7245 23.6593 26.7363 23.3733 26.4829 23.3456C26.4469 23.2919 26.4772 23.2215 26.5124 23.1845C26.5074 23.0345 26.6541 22.9866 26.6959 22.8708C26.5416 22.7693 26.5819 22.5445 26.5935 22.4137C26.3268 22.4908 26.3017 22.1445 26.1046 22.0697C26.0567 21.9121 25.8873 21.8853 25.7523 21.8593C25.4253 22.0154 25.3722 21.6135 25.1275 21.5188C25.1006 21.4441 25.0426 21.3352 25.1275 21.2747C25.2498 21.1707 25.4109 21.2605 25.5534 21.2521L25.4403 21.1918C25.3321 21.0702 25.0931 21.1456 24.9514 21.1918C25.0884 21.3281 25.0295 21.5731 25.1144 21.7434Z" fill="white"/>
<path d="M14.6423 23.1843L14.5962 22.9177C14.7261 20.7495 15.4172 18.8205 16.6351 17.0961C16.9387 16.7481 17.1635 16.3152 17.545 16.0552C17.1029 15.6416 16.6435 15.1585 16.1771 14.704L16.1309 14.5195C14.1927 16.6733 13 19.1325 12.6528 21.9399C12.5757 22.3482 12.6276 22.7684 12.5454 23.1846C13.2233 23.1289 13.9621 23.1289 14.6423 23.1843Z" fill="white"/>
<path d="M33.0248 31.3038C32.8312 31.6761 32.411 31.9128 32.0913 32.2005C31.65 32.6426 30.9305 32.7364 30.7049 33.3765C30.4682 33.5912 30.3877 33.9317 30.0558 34.0533C29.9299 34.3803 29.5836 34.3603 29.3874 34.5967C28.8179 35.1066 28.4497 34.272 27.9331 34.1716L26.8945 34.3543C26.5329 34.3543 26.1733 34.4827 25.8328 34.367C25.883 35.0581 25.883 35.8062 25.8328 36.5008L25.962 36.4186C29.2381 36.2777 32.0638 35.033 34.4894 32.8313L33.0577 31.4651L33.0248 31.3038Z" fill="white"/>
<path d="M25.7992 12.3504C25.7992 12.2901 25.8261 12.2373 25.863 12.1911C25.9586 12.134 26.0359 12.2179 26.0751 12.2834C26.0852 12.3798 26.1262 12.5443 26.0449 12.5988C26.1262 12.6106 26.1698 12.5501 26.2403 12.5501C27.7961 12.6658 29.2379 13.1195 30.5296 13.8534V13.8208C30.7954 13.6909 31.1334 13.5212 31.4052 13.7521C31.7322 13.6305 31.7919 14.0306 32.0577 14.0776C32.3781 14.268 32.7388 14.6236 32.779 14.9959C32.8376 15.12 33.0298 15.2057 33.0575 15.3364C33.2756 14.8744 33.7091 14.5463 34.0857 14.1463L34.3131 14.0499C32.2624 12.0949 29.8243 11.0136 27.1026 10.6404C26.6714 10.5657 26.1917 10.6061 25.7791 10.4768C25.863 11.0134 25.8387 11.7481 25.7992 12.3504Z" fill="white"/>
<path d="M25.7991 15.2741C26.0574 15.1844 26.3217 15.2952 26.5809 15.3018C27.9128 15.5191 29.1725 15.946 30.2345 16.7688C30.1087 16.632 29.951 16.4778 29.9225 16.279C29.9459 16.2522 29.9712 16.2464 30.0056 16.2522C30.0198 16.0409 29.7952 15.9327 29.764 15.7422C29.7952 15.7036 29.8446 15.6626 29.9124 15.6819C30.1413 15.9 30.3369 16.1382 30.5087 16.3797C30.6596 16.3202 30.7805 16.4158 30.8911 16.4954C31.0865 16.6112 30.9658 16.8645 31.1167 16.9996C31.1419 17.4013 31.631 17.6261 31.6048 18.0253C31.6082 18.12 31.7255 18.0455 31.7667 18.0949L32.1742 18.5956C32.0986 18.6928 32.1615 18.8086 32.2446 18.8723C32.4259 18.9578 32.5289 18.7246 32.7084 18.7592C32.9734 18.9093 32.6698 19.0855 32.6951 19.2481C32.7982 19.2539 32.9291 19.1676 33.0105 19.2691C33.0449 19.4192 32.8881 19.5141 32.8235 19.6097C32.8235 19.758 32.9485 19.7254 33.0575 19.758C33.1782 19.7522 33.2555 19.9023 33.2212 20.0039C33.5608 20.3571 33.1181 20.7369 33.2815 21.1118C33.388 21.3542 33.2555 21.5923 33.1028 21.777C33.1112 22.0765 32.8379 22.2584 32.7329 22.5109L32.3848 22.5779C32.1995 22.7608 32.5424 22.9863 32.3563 23.102L33.1179 23.1162L33.0348 23.0357C32.9291 22.737 32.9534 22.3329 33.1378 22.0694C33.2553 21.8244 33.2813 21.5309 33.4986 21.3214C33.5456 21.3087 33.6336 21.2198 33.6746 21.3214C33.6897 21.552 33.6688 21.8163 33.5606 22.0209C33.7788 22.3329 33.7493 22.7413 33.7695 23.128C34.4431 23.087 35.1023 23.0752 35.7623 23.081L35.702 22.9511C35.5989 21.6954 35.3421 20.5044 34.8171 19.4325C34.6746 19.4409 34.5721 19.5541 34.4096 19.5139C34.3559 19.4946 34.3207 19.4409 34.3282 19.3788C34.0564 19.1205 33.8846 18.7809 33.5825 18.5477C33.231 18.5829 33.076 18.1812 32.7632 18.1408C32.4864 18.0251 32.6777 17.5763 32.2751 17.7004C32.0789 17.6173 31.8867 17.4681 31.8474 17.2442C31.8474 16.8909 31.7796 16.5094 31.4624 16.2788C31.2159 16.1908 31.117 16.5161 30.8685 16.4632C30.7343 16.3937 30.7955 16.2182 30.7511 16.1034C30.7049 16.0003 30.59 15.9264 30.6102 15.7897C30.9289 15.3695 30.2227 15.377 30.3788 14.9611C30.3369 14.6616 30.0348 14.545 29.8772 14.3094C28.8229 13.833 27.7704 13.5092 26.5809 13.3651C26.2891 13.3232 26.019 13.3853 25.7673 13.2502L25.8328 13.3769C25.8184 14.0093 25.8629 14.682 25.7991 15.2741Z" fill="white"/>
<path d="M33.2314 15.9736C33.3766 16.0071 33.4176 16.1765 33.514 16.2789C34.0072 16.5439 34.1363 17.0749 34.5726 17.3727C34.8175 17.8852 35.3812 18.2768 35.4011 18.8615C35.9916 20.1674 36.3925 21.5472 36.4328 23.0828L36.3809 23.1625C36.4412 23.1625 36.4949 23.1356 36.5419 23.103L38.5003 23.0669C38.3719 22.8773 38.4256 22.5997 38.3904 22.3682C38.1321 19.3446 36.8421 16.7545 34.8173 14.4725C34.4416 14.9758 33.9333 15.4437 33.4653 15.9262L33.2314 15.9736Z" fill="white"/>
<path d="M26.0752 12.0274C26.1347 11.9192 26.2908 11.9579 26.3721 11.9922L27.3493 11.572C27.7418 11.6047 28.1764 11.6525 28.4102 11.9795V12.0274C28.1644 12.2295 27.8524 12.3922 27.5271 12.2563C27.0775 12.3452 26.4518 12.6035 26.0904 12.1423C26.0752 12.1088 26.035 12.0601 26.0752 12.0274Z" fill="#101828"/>
<path d="M31.9154 13.2622C32.0495 13.3049 32.1743 13.3651 32.2222 13.5093C32.1844 13.661 32.3655 13.7925 32.2548 13.9142C31.8869 14.0096 31.8534 13.5966 31.5702 13.4943C31.5299 13.4389 31.5166 13.3703 31.5215 13.2965C31.6513 13.1405 31.7721 13.3995 31.9154 13.2622Z" fill="#101828"/>
</svg>
