<svg width="158" height="43" viewBox="0 0 158 43" fill="none" xmlns="http://www.w3.org/2000/svg">
<path d="M6.93794 0.0098972L6.92804 9.30337C6.92804 12.7278 8.03653 14.0837 10.8869 14.0837C13.7076 14.0837 14.826 12.7278 14.826 9.30337L14.8359 0.0098972L21.764 0.0197944L21.7541 10.5108C21.7541 13.4998 21.1503 15.2417 19.6558 16.5085C17.9733 18.003 15.0932 18.7057 10.877 18.6958C6.3639 18.6958 3.43433 17.904 1.7815 16.2116C0.514655 14.9448 0 13.282 0 10.491L0.0098972 0L6.93794 0.0098972Z" fill="white"/>
<path d="M25.2276 0.0196533L33.0562 0.0295505L38.7273 6.90811C40.0833 8.65002 40.2218 8.86775 41.4392 11.3915H41.6569C41.0631 9.84758 40.7365 7.88793 40.7365 5.81941L40.7464 0.0295505L47.6744 0.0394477L47.6546 18.1612L40.0437 18.1513L34.0757 11.055C32.987 9.69912 32.4228 8.7193 31.5519 6.65078H31.3341C31.9577 8.44217 32.1457 9.58035 32.1457 11.6489L32.1358 18.1414L25.2078 18.1315L25.2276 0.0196533Z" fill="white"/>
<path d="M51.3172 0.0495605L58.2452 0.0594578L58.2254 18.1812L51.2974 18.1713L51.3172 0.0495605Z" fill="white"/>
<path d="M67.0636 4.68145L60.1653 4.67155V0.0495605L80.9791 0.069355V4.69135L74.0016 4.68145L73.9917 18.1812L67.0636 18.1713V4.68145Z" fill="white"/>
<path d="M82.9188 0.0792236L103.426 0.099018V4.72101L89.837 4.70122V6.71035L101.08 6.72025V11.3422L89.837 11.3323V13.5889L104.267 13.5988V18.2208L82.9089 18.201L82.9188 0.0792236Z" fill="white"/>
<path d="M119.39 18.1911H116.084L115.5 10.3129L114.827 18.1911H111.304L109.611 5.27527H112.452L113.323 14.5193L114.174 5.27527H116.796L117.638 14.5193L118.509 5.27527H121.31L119.39 18.1911Z" fill="white"/>
<path d="M125.239 18.2009H122.468L122.478 5.29492H125.249L125.239 18.2009Z" fill="white"/>
<path d="M131.583 18.2009H128.832L128.842 7.56138H126.377V5.29492L134.038 5.30482V7.57128H131.593L131.583 18.2009Z" fill="white"/>
<path d="M137.966 10.3526H139.728V5.30505H142.499L142.489 18.211H139.718V12.8665H137.956V18.211H135.185L135.195 5.30505H137.966V10.3526Z" fill="white"/>
<path d="M6.93794 24.3139L6.92804 33.6073C6.92804 37.0318 8.03653 38.3877 10.8869 38.3877C13.7076 38.3877 14.826 37.0318 14.826 33.6073L14.8359 24.3139L21.764 24.3238L21.7541 34.8148C21.7541 37.8037 21.1503 39.5456 19.6558 40.8125C17.9733 42.307 15.0932 43.0097 10.877 42.9998C6.3639 42.9998 3.43433 42.208 1.7815 40.5156C0.514655 39.2487 0 37.5959 0 34.795L0.00989721 24.304L6.93794 24.3139Z" fill="white"/>
<path d="M25.2279 24.3337L32.156 24.3436L32.1461 31.1628L39.2127 24.3535L48.615 24.3634L41.0832 30.8263L49.0901 42.4753L40.3113 42.4654L35.3231 34.8545L32.1461 37.8632V42.4555L25.218 42.4456L25.2279 24.3337Z" fill="white"/>
<path d="M50.7727 24.3534L64.1933 24.3633C68.3205 24.3633 69.518 24.581 70.6265 25.4817C71.7449 26.3526 72.3387 27.7877 72.3387 29.589C72.3387 31.0538 71.9527 32.3008 71.2995 33.0431C70.7255 33.6667 70.102 33.9339 68.7757 34.2308C71.4876 35.0226 71.7944 35.5669 71.9527 40.2087C72.0022 41.5943 72.0319 41.8121 72.4377 42.495L65.1831 42.4851C65.0742 41.7527 65.0445 41.5349 64.9653 40.0899C64.8367 36.3092 64.5595 35.9826 61.63 35.9826H57.6909L57.681 42.4752L50.7529 42.4653L50.7727 24.3534ZM62.2832 32.1623C63.4214 32.1623 63.9162 32.0831 64.2428 31.8654C64.6783 31.5685 64.9455 31.0241 64.9455 30.3412C64.9455 29.0348 64.322 28.5993 62.3426 28.5993H57.7008V32.1623H62.2832Z" fill="white"/>
<path d="M80.969 24.3832L90.1239 24.3931L97.3588 42.5248L89.7775 42.5149L89.0155 40.8521L81.6321 40.8422L80.9492 42.4951L73.6946 42.4852L80.969 24.3832ZM87.6694 36.2301L85.3436 29.5693L82.8891 36.2202L87.6694 36.2301Z" fill="white"/>
<path d="M99.1201 24.3929L106.048 24.4028L106.028 42.5246L99.1003 42.5147L99.1201 24.3929Z" fill="white"/>
<path d="M109.651 24.4032L117.48 24.4131L123.151 31.2917C124.507 33.0336 124.645 33.2513 125.863 35.7751H126.08C125.487 34.2212 125.16 32.2715 125.16 30.203L125.17 24.4131L132.098 24.423L132.078 42.5448L124.477 42.5349L118.509 35.4386C117.42 34.0827 116.856 33.1028 115.985 31.0343H115.767C116.391 32.8257 116.579 33.9738 116.579 36.0324L116.569 42.525L109.641 42.5151L109.651 24.4032Z" fill="white"/>
<path d="M135.72 24.4326L156.227 24.4524V29.0744L142.648 29.0645V31.0736L153.891 31.0835V35.7055L142.648 35.6956V37.9522L157.078 37.9621V42.5841L135.72 42.5643V24.4326Z" fill="white"/>
</svg>
